ISO-10303-21;
HEADER;
/* Generated by software containing ST-Developer
 * from STEP Tools, Inc. (www.steptools.com) 
 */
/* OPTION: using custom schema-name function */

FILE_DESCRIPTION(
/* description */ (''),
/* implementation_level */ '2;1');

FILE_NAME(
/* name */ 'rod2.stp',
/* time_stamp */ '2025-07-09T14:29:21+03:00',
/* author */ (''),
/* organization */ (''),
/* preprocessor_version */ 'ST-DEVELOPER v19.4',
/* originating_system */ 'SIEMENS PLM Software NX2306.4000',
/* authorisation */ '');

FILE_SCHEMA (('AUTOMOTIVE_DESIGN { 1 0 10303 214 3 1 1 1 }'));
ENDSEC;

DATA;
#10=SHAPE_REPRESENTATION_RELATIONSHIP('None',
'relationship between rod2-None and rod2-None',#22,#11);
#11=ADVANCED_BREP_SHAPE_REPRESENTATION('rod2-None',(#32),#804);
#12=SHAPE_DEFINITION_REPRESENTATION(#13,#22);
#13=PRODUCT_DEFINITION_SHAPE('','',#14);
#14=PRODUCT_DEFINITION(' ','',#16,#15);
#15=PRODUCT_DEFINITION_CONTEXT('part definition',#21,'design');
#16=PRODUCT_DEFINITION_FORMATION_WITH_SPECIFIED_SOURCE(' ',' ',#18,
 .NOT_KNOWN.);
#17=PRODUCT_RELATED_PRODUCT_CATEGORY('part','',(#18));
#18=PRODUCT('rod2','rod2',' ',(#19));
#19=PRODUCT_CONTEXT(' ',#21,'mechanical');
#20=APPLICATION_PROTOCOL_DEFINITION('international standard',
'automotive_design',2010,#21);
#21=APPLICATION_CONTEXT(
'core data for automotive mechanical design processes');
#22=SHAPE_REPRESENTATION('rod2-None',(#193),#804);
#23=PRESENTATION_LAYER_ASSIGNMENT('1','Layer 1',(#32));
#24=STYLED_ITEM('',(#25),#32);
#25=PRESENTATION_STYLE_ASSIGNMENT((#26));
#26=SURFACE_STYLE_USAGE(.BOTH.,#27);
#27=SURFACE_SIDE_STYLE('',(#28));
#28=SURFACE_STYLE_FILL_AREA(#29);
#29=FILL_AREA_STYLE('',(#30));
#30=FILL_AREA_STYLE_COLOUR('',#31);
#31=COLOUR_RGB('medium steel',0.611764705882353,0.658823529411765,0.670588235294118);
#32=MANIFOLD_SOLID_BREP('',#33);
#33=CLOSED_SHELL('',(#60,#61,#62,#63,#64,#65,#66,#67,#68,#69,#70,#71,#72));
#34=B_SPLINE_SURFACE_WITH_KNOTS('',1,3,((#569,#570,#571,#572,#573,#574,
#575,#576,#577,#578,#579,#580,#581,#582,#583,#584,#585,#586,#587,#588,#589,
#590,#591,#592,#593,#594,#595,#596,#597,#598,#599,#600,#601,#602,#603,#604,
#605,#606,#607,#608,#609,#610,#611,#612,#613,#614,#615,#616,#617,#618,#619,
#620,#621,#622,#623,#624,#625,#626),(#627,#628,#629,#630,#631,#632,#633,
#634,#635,#636,#637,#638,#639,#640,#641,#642,#643,#644,#645,#646,#647,#648,
#649,#650,#651,#652,#653,#654,#655,#656,#657,#658,#659,#660,#661,#662,#663,
#664,#665,#666,#667,#668,#669,#670,#671,#672,#673,#674,#675,#676,#677,#678,
#679,#680,#681,#682,#683,#684)),.UNSPECIFIED.,.F.,.F.,.F.,(2,2),(4,1,1,
1,1,1,1,1,1,1,1,1,1,1,1,1,1,1,1,1,1,1,1,1,1,1,1,1,1,1,1,1,1,1,1,1,1,1,1,
1,1,1,1,1,1,1,1,1,1,1,1,1,1,1,1,4),(0.,1.),(0.,0.0182597443512546,0.0365194887025091,
0.0547792330537637,0.0730389774050182,0.0912987217562728,0.109558466107527,
0.127818210458782,0.146077954810036,0.164337699161291,0.182597443512546,
0.2008571878638,0.219116932215055,0.237376676566309,0.255636420917564,0.273896165268818,
0.292155909620073,0.310415653971327,0.328675398322582,0.346935142673837,
0.365194887025091,0.383454631376346,0.4017143757276,0.419974120078855,0.438233864430109,
0.456493608781364,0.474753353132618,0.493013097483873,0.511272841835128,
0.529532586186382,0.547792330537637,0.566052074888891,0.584311819240146,
0.6025715635914,0.620831307942655,0.63909105229391,0.657350796645164,0.675610540996419,
0.693870285347673,0.712130029698928,0.730389774050182,0.748649518401437,
0.766909262752691,0.785169007103946,0.803428751455201,0.821688495806455,
0.83994824015771,0.858207984508964,0.876467728860219,0.894727473211473,
0.912987217562728,0.931246961913982,0.949506706265237,0.967766450616491,
0.986026194967746,1.),.UNSPECIFIED.);
#35=B_SPLINE_SURFACE_WITH_KNOTS('',1,3,((#687,#688,#689,#690,#691,#692,
#693,#694,#695,#696,#697,#698,#699,#700,#701,#702,#703,#704,#705,#706,#707,
#708,#709,#710,#711,#712,#713,#714,#715,#716,#717,#718,#719,#720,#721,#722,
#723,#724,#725,#726,#727,#728,#729,#730,#731,#732,#733,#734,#735,#736,#737,
#738,#739,#740,#741,#742,#743,#744),(#745,#746,#747,#748,#749,#750,#751,
#752,#753,#754,#755,#756,#757,#758,#759,#760,#761,#762,#763,#764,#765,#766,
#767,#768,#769,#770,#771,#772,#773,#774,#775,#776,#777,#778,#779,#780,#781,
#782,#783,#784,#785,#786,#787,#788,#789,#790,#791,#792,#793,#794,#795,#796,
#797,#798,#799,#800,#801,#802)),.UNSPECIFIED.,.F.,.F.,.F.,(2,2),(4,1,1,
1,1,1,1,1,1,1,1,1,1,1,1,1,1,1,1,1,1,1,1,1,1,1,1,1,1,1,1,1,1,1,1,1,1,1,1,
1,1,1,1,1,1,1,1,1,1,1,1,1,1,1,1,4),(0.,1.),(0.,0.0182597443512546,0.0365194887025091,
0.0547792330537637,0.0730389774050182,0.0912987217562728,0.109558466107527,
0.127818210458782,0.146077954810036,0.164337699161291,0.182597443512546,
0.2008571878638,0.219116932215055,0.237376676566309,0.255636420917564,0.273896165268818,
0.292155909620073,0.310415653971327,0.328675398322582,0.346935142673837,
0.365194887025091,0.383454631376346,0.4017143757276,0.419974120078855,0.438233864430109,
0.456493608781364,0.474753353132618,0.493013097483873,0.511272841835128,
0.529532586186382,0.547792330537637,0.566052074888891,0.584311819240146,
0.6025715635914,0.620831307942655,0.63909105229391,0.657350796645164,0.675610540996419,
0.693870285347673,0.712130029698928,0.730389774050182,0.748649518401437,
0.766909262752691,0.785169007103946,0.803428751455201,0.821688495806455,
0.83994824015771,0.858207984508964,0.876467728860219,0.894727473211473,
0.912987217562728,0.931246961913982,0.949506706265237,0.967766450616491,
0.986026194967746,1.),.UNSPECIFIED.);
#36=FACE_OUTER_BOUND('',#106,.T.);
#37=FACE_OUTER_BOUND('',#107,.T.);
#38=FACE_OUTER_BOUND('',#108,.T.);
#39=FACE_OUTER_BOUND('',#109,.T.);
#40=FACE_OUTER_BOUND('',#110,.T.);
#41=FACE_OUTER_BOUND('',#111,.T.);
#42=PLANE('',#204);
#43=PLANE('',#205);
#44=PLANE('',#209);
#45=PLANE('',#210);
#46=PLANE('',#211);
#47=PLANE('',#213);
#48=LINE('',#337,#50);
#49=LINE('',#498,#51);
#50=VECTOR('',#228,1.);
#51=VECTOR('',#253,1.);
#52=B_SPLINE_CURVE_WITH_KNOTS('',3,(#269,#270,#271,#272,#273,#274,#275,
#276,#277,#278,#279,#280,#281,#282,#283,#284,#285,#286,#287,#288,#289,#290,
#291,#292,#293,#294,#295,#296,#297,#298,#299,#300,#301,#302,#303,#304,#305,
#306,#307,#308,#309,#310,#311,#312,#313,#314,#315,#316,#317,#318,#319,#320,
#321,#322,#323,#324,#325,#326,#327,#328,#329,#330,#331,#332,#333,#334),
 .UNSPECIFIED.,.F.,.F.,(4,2,2,2,2,2,2,2,2,2,2,2,2,2,2,2,2,2,2,2,2,2,2,2,
2,2,2,2,2,2,2,2,4),(0.,0.03125,0.0625,0.09375,0.125,0.15625,0.1875,0.21875,
0.25,0.28125,0.3125,0.34375,0.375,0.40625,0.4375,0.46875,0.5,0.53125,0.5625,
0.59375,0.625,0.65625,0.6875,0.71875,0.75,0.78125,0.8125,0.84375,0.875,
0.90625,0.9375,0.96875,1.),.UNSPECIFIED.);
#53=B_SPLINE_CURVE_WITH_KNOTS('',3,(#339,#340,#341,#342,#343,#344,#345,
#346,#347,#348,#349,#350,#351,#352,#353,#354,#355,#356,#357,#358,#359,#360,
#361,#362,#363,#364,#365,#366,#367,#368,#369,#370,#371,#372,#373,#374,#375,
#376,#377,#378,#379,#380,#381,#382,#383,#384,#385,#386,#387,#388,#389,#390,
#391,#392,#393,#394,#395,#396,#397,#398,#399,#400,#401,#402,#403,#404),
 .UNSPECIFIED.,.F.,.F.,(4,2,2,2,2,2,2,2,2,2,2,2,2,2,2,2,2,2,2,2,2,2,2,2,
2,2,2,2,2,2,2,2,4),(0.,0.03125,0.0625,0.09375,0.125,0.15625,0.1875,0.21875,
0.25,0.28125,0.3125,0.34375,0.375,0.40625,0.4375,0.46875,0.5,0.53125,0.5625,
0.59375,0.625,0.65625,0.6875,0.71875,0.75,0.78125,0.8125,0.84375,0.875,
0.90625,0.9375,0.96875,1.),.UNSPECIFIED.);
#54=B_SPLINE_CURVE_WITH_KNOTS('',3,(#417,#418,#419,#420),.UNSPECIFIED.,
 .F.,.F.,(4,4),(0.,1.),.UNSPECIFIED.);
#55=B_SPLINE_CURVE_WITH_KNOTS('',3,(#422,#423,#424,#425),.UNSPECIFIED.,
 .F.,.F.,(4,4),(0.,1.),.UNSPECIFIED.);
#56=B_SPLINE_CURVE_WITH_KNOTS('',3,(#431,#432,#433,#434,#435,#436,#437,
#438,#439,#440,#441,#442,#443,#444,#445,#446,#447,#448,#449,#450,#451,#452,
#453,#454,#455,#456,#457,#458,#459,#460,#461,#462,#463,#464,#465,#466,#467,
#468,#469,#470,#471,#472,#473,#474,#475,#476,#477,#478,#479,#480,#481,#482,
#483,#484,#485,#486,#487,#488,#489,#490,#491,#492,#493,#494,#495,#496),
 .UNSPECIFIED.,.F.,.F.,(4,2,2,2,2,2,2,2,2,2,2,2,2,2,2,2,2,2,2,2,2,2,2,2,
2,2,2,2,2,2,2,2,4),(0.,0.03125,0.0625,0.09375,0.125,0.15625,0.1875,0.21875,
0.25,0.28125,0.3125,0.34375,0.375,0.40625,0.4375,0.46875,0.5,0.53125,0.5625,
0.59375,0.625,0.65625,0.6875,0.71875,0.75,0.78125,0.8125,0.84375,0.875,
0.90625,0.9375,0.96875,1.),.UNSPECIFIED.);
#57=B_SPLINE_CURVE_WITH_KNOTS('',3,(#500,#501,#502,#503,#504,#505,#506,
#507,#508,#509,#510,#511,#512,#513,#514,#515,#516,#517,#518,#519,#520,#521,
#522,#523,#524,#525,#526,#527,#528,#529,#530,#531,#532,#533,#534,#535,#536,
#537,#538,#539,#540,#541,#542,#543,#544,#545,#546,#547,#548,#549,#550,#551,
#552,#553,#554,#555,#556,#557,#558,#559,#560,#561,#562,#563,#564,#565),
 .UNSPECIFIED.,.F.,.F.,(4,2,2,2,2,2,2,2,2,2,2,2,2,2,2,2,2,2,2,2,2,2,2,2,
2,2,2,2,2,2,2,2,4),(0.,0.03125,0.0625,0.09375,0.125,0.15625,0.1875,0.21875,
0.25,0.28125,0.3125,0.34375,0.375,0.40625,0.4375,0.46875,0.5,0.53125,0.5625,
0.59375,0.625,0.65625,0.6875,0.71875,0.75,0.78125,0.8125,0.84375,0.875,
0.90625,0.9375,0.96875,1.),.UNSPECIFIED.);
#58=B_SPLINE_CURVE_WITH_KNOTS('',1,(#567,#568),.UNSPECIFIED.,.F.,.F.,(2,
2),(0.,1.),.UNSPECIFIED.);
#59=B_SPLINE_CURVE_WITH_KNOTS('',1,(#685,#686),.UNSPECIFIED.,.F.,.F.,(2,
2),(0.,1.),.UNSPECIFIED.);
#60=ADVANCED_FACE('',(#78,#79),#73,.F.);
#61=ADVANCED_FACE('',(#80,#81),#74,.T.);
#62=ADVANCED_FACE('',(#82,#83),#75,.F.);
#63=ADVANCED_FACE('',(#84,#85),#42,.T.);
#64=ADVANCED_FACE('',(#86,#87),#43,.F.);
#65=ADVANCED_FACE('',(#88,#89),#76,.T.);
#66=ADVANCED_FACE('',(#90,#91),#44,.T.);
#67=ADVANCED_FACE('',(#36),#45,.F.);
#68=ADVANCED_FACE('',(#37),#46,.T.);
#69=ADVANCED_FACE('',(#38),#77,.F.);
#70=ADVANCED_FACE('',(#39),#34,.F.);
#71=ADVANCED_FACE('',(#40),#35,.F.);
#72=ADVANCED_FACE('',(#41),#47,.F.);
#73=CYLINDRICAL_SURFACE('',#196,13.);
#74=CYLINDRICAL_SURFACE('',#199,32.);
#75=CYLINDRICAL_SURFACE('',#202,13.);
#76=CYLINDRICAL_SURFACE('',#207,15.);
#77=CYLINDRICAL_SURFACE('',#212,13.5);
#78=FACE_BOUND('',#92,.T.);
#79=FACE_BOUND('',#93,.T.);
#80=FACE_BOUND('',#94,.T.);
#81=FACE_BOUND('',#95,.T.);
#82=FACE_BOUND('',#96,.T.);
#83=FACE_BOUND('',#97,.T.);
#84=FACE_BOUND('',#98,.T.);
#85=FACE_BOUND('',#99,.T.);
#86=FACE_BOUND('',#100,.T.);
#87=FACE_BOUND('',#101,.T.);
#88=FACE_BOUND('',#102,.T.);
#89=FACE_BOUND('',#103,.T.);
#90=FACE_BOUND('',#104,.T.);
#91=FACE_BOUND('',#105,.T.);
#92=EDGE_LOOP('',(#112));
#93=EDGE_LOOP('',(#113));
#94=EDGE_LOOP('',(#114));
#95=EDGE_LOOP('',(#115));
#96=EDGE_LOOP('',(#116,#117,#118,#119));
#97=EDGE_LOOP('',(#120));
#98=EDGE_LOOP('',(#121));
#99=EDGE_LOOP('',(#122));
#100=EDGE_LOOP('',(#123));
#101=EDGE_LOOP('',(#124));
#102=EDGE_LOOP('',(#125));
#103=EDGE_LOOP('',(#126));
#104=EDGE_LOOP('',(#127,#128,#129,#130));
#105=EDGE_LOOP('',(#131));
#106=EDGE_LOOP('',(#132));
#107=EDGE_LOOP('',(#133));
#108=EDGE_LOOP('',(#134,#135,#136,#137));
#109=EDGE_LOOP('',(#138,#139,#140,#141));
#110=EDGE_LOOP('',(#142,#143,#144,#145));
#111=EDGE_LOOP('',(#146,#147,#148,#149));
#112=ORIENTED_EDGE('',*,*,#165,.F.);
#113=ORIENTED_EDGE('',*,*,#166,.T.);
#114=ORIENTED_EDGE('',*,*,#167,.F.);
#115=ORIENTED_EDGE('',*,*,#168,.T.);
#116=ORIENTED_EDGE('',*,*,#169,.F.);
#117=ORIENTED_EDGE('',*,*,#170,.F.);
#118=ORIENTED_EDGE('',*,*,#171,.F.);
#119=ORIENTED_EDGE('',*,*,#172,.T.);
#120=ORIENTED_EDGE('',*,*,#173,.F.);
#121=ORIENTED_EDGE('',*,*,#174,.F.);
#122=ORIENTED_EDGE('',*,*,#167,.T.);
#123=ORIENTED_EDGE('',*,*,#168,.F.);
#124=ORIENTED_EDGE('',*,*,#165,.T.);
#125=ORIENTED_EDGE('',*,*,#175,.F.);
#126=ORIENTED_EDGE('',*,*,#174,.T.);
#127=ORIENTED_EDGE('',*,*,#176,.F.);
#128=ORIENTED_EDGE('',*,*,#172,.F.);
#129=ORIENTED_EDGE('',*,*,#177,.F.);
#130=ORIENTED_EDGE('',*,*,#178,.F.);
#131=ORIENTED_EDGE('',*,*,#175,.T.);
#132=ORIENTED_EDGE('',*,*,#166,.F.);
#133=ORIENTED_EDGE('',*,*,#173,.T.);
#134=ORIENTED_EDGE('',*,*,#178,.T.);
#135=ORIENTED_EDGE('',*,*,#179,.F.);
#136=ORIENTED_EDGE('',*,*,#180,.F.);
#137=ORIENTED_EDGE('',*,*,#181,.F.);
#138=ORIENTED_EDGE('',*,*,#171,.T.);
#139=ORIENTED_EDGE('',*,*,#182,.T.);
#140=ORIENTED_EDGE('',*,*,#179,.T.);
#141=ORIENTED_EDGE('',*,*,#177,.T.);
#142=ORIENTED_EDGE('',*,*,#169,.T.);
#143=ORIENTED_EDGE('',*,*,#176,.T.);
#144=ORIENTED_EDGE('',*,*,#181,.T.);
#145=ORIENTED_EDGE('',*,*,#183,.T.);
#146=ORIENTED_EDGE('',*,*,#170,.T.);
#147=ORIENTED_EDGE('',*,*,#183,.F.);
#148=ORIENTED_EDGE('',*,*,#180,.T.);
#149=ORIENTED_EDGE('',*,*,#182,.F.);
#150=VERTEX_POINT('',#260);
#151=VERTEX_POINT('',#262);
#152=VERTEX_POINT('',#265);
#153=VERTEX_POINT('',#267);
#154=VERTEX_POINT('',#335);
#155=VERTEX_POINT('',#336);
#156=VERTEX_POINT('',#338);
#157=VERTEX_POINT('',#405);
#158=VERTEX_POINT('',#408);
#159=VERTEX_POINT('',#411);
#160=VERTEX_POINT('',#415);
#161=VERTEX_POINT('',#421);
#162=VERTEX_POINT('',#426);
#163=VERTEX_POINT('',#497);
#164=VERTEX_POINT('',#499);
#165=EDGE_CURVE('',#150,#150,#184,.T.);
#166=EDGE_CURVE('',#151,#151,#185,.T.);
#167=EDGE_CURVE('',#152,#152,#186,.T.);
#168=EDGE_CURVE('',#153,#153,#187,.T.);
#169=EDGE_CURVE('',#154,#155,#52,.T.);
#170=EDGE_CURVE('',#156,#154,#48,.T.);
#171=EDGE_CURVE('',#157,#156,#53,.T.);
#172=EDGE_CURVE('',#157,#155,#188,.T.);
#173=EDGE_CURVE('',#158,#158,#189,.T.);
#174=EDGE_CURVE('',#159,#159,#190,.T.);
#175=EDGE_CURVE('',#160,#160,#191,.T.);
#176=EDGE_CURVE('',#155,#161,#54,.T.);
#177=EDGE_CURVE('',#162,#157,#55,.T.);
#178=EDGE_CURVE('',#161,#162,#192,.T.);
#179=EDGE_CURVE('',#163,#162,#56,.T.);
#180=EDGE_CURVE('',#164,#163,#49,.T.);
#181=EDGE_CURVE('',#161,#164,#57,.T.);
#182=EDGE_CURVE('',#156,#163,#58,.T.);
#183=EDGE_CURVE('',#164,#154,#59,.T.);
#184=CIRCLE('',#194,13.);
#185=CIRCLE('',#195,13.);
#186=CIRCLE('',#197,32.);
#187=CIRCLE('',#198,32.);
#188=CIRCLE('',#200,13.);
#189=CIRCLE('',#201,13.);
#190=CIRCLE('',#203,15.);
#191=CIRCLE('',#206,15.);
#192=CIRCLE('',#208,13.5);
#193=AXIS2_PLACEMENT_3D('',#258,#214,#215);
#194=AXIS2_PLACEMENT_3D('',#259,#216,#217);
#195=AXIS2_PLACEMENT_3D('',#261,#218,#219);
#196=AXIS2_PLACEMENT_3D('',#263,#220,#221);
#197=AXIS2_PLACEMENT_3D('',#264,#222,#223);
#198=AXIS2_PLACEMENT_3D('',#266,#224,#225);
#199=AXIS2_PLACEMENT_3D('',#268,#226,#227);
#200=AXIS2_PLACEMENT_3D('',#406,#229,#230);
#201=AXIS2_PLACEMENT_3D('',#407,#231,#232);
#202=AXIS2_PLACEMENT_3D('',#409,#233,#234);
#203=AXIS2_PLACEMENT_3D('',#410,#235,#236);
#204=AXIS2_PLACEMENT_3D('',#412,#237,#238);
#205=AXIS2_PLACEMENT_3D('',#413,#239,#240);
#206=AXIS2_PLACEMENT_3D('',#414,#241,#242);
#207=AXIS2_PLACEMENT_3D('',#416,#243,#244);
#208=AXIS2_PLACEMENT_3D('',#427,#245,#246);
#209=AXIS2_PLACEMENT_3D('',#428,#247,#248);
#210=AXIS2_PLACEMENT_3D('',#429,#249,#250);
#211=AXIS2_PLACEMENT_3D('',#430,#251,#252);
#212=AXIS2_PLACEMENT_3D('',#566,#254,#255);
#213=AXIS2_PLACEMENT_3D('',#803,#256,#257);
#214=DIRECTION('',(0.,0.,1.));
#215=DIRECTION('',(1.,0.,0.));
#216=DIRECTION('',(0.,0.,1.));
#217=DIRECTION('',(1.,0.,0.));
#218=DIRECTION('',(0.,0.,1.));
#219=DIRECTION('',(1.,0.,0.));
#220=DIRECTION('',(0.,0.,-1.));
#221=DIRECTION('',(-1.,0.,0.));
#222=DIRECTION('',(0.,0.,1.));
#223=DIRECTION('',(1.,0.,0.));
#224=DIRECTION('',(0.,0.,1.));
#225=DIRECTION('',(1.,0.,0.));
#226=DIRECTION('',(0.,0.,-1.));
#227=DIRECTION('',(-1.,0.,0.));
#228=DIRECTION('',(0.,0.,1.));
#229=DIRECTION('',(0.,0.,1.));
#230=DIRECTION('',(1.,0.,0.));
#231=DIRECTION('',(0.,0.,1.));
#232=DIRECTION('',(1.,0.,0.));
#233=DIRECTION('',(0.,0.,-1.));
#234=DIRECTION('',(-1.,0.,0.));
#235=DIRECTION('',(0.,0.,1.));
#236=DIRECTION('',(1.,0.,0.));
#237=DIRECTION('',(0.,0.,1.));
#238=DIRECTION('',(1.,0.,0.));
#239=DIRECTION('',(0.,0.,1.));
#240=DIRECTION('',(1.,0.,0.));
#241=DIRECTION('',(0.,0.,1.));
#242=DIRECTION('',(1.,0.,0.));
#243=DIRECTION('',(0.,0.,-1.));
#244=DIRECTION('',(-1.,0.,0.));
#245=DIRECTION('',(0.,0.,1.));
#246=DIRECTION('',(1.,0.,0.));
#247=DIRECTION('',(0.,0.,1.));
#248=DIRECTION('',(1.,0.,0.));
#249=DIRECTION('',(0.,0.,1.));
#250=DIRECTION('',(1.,0.,0.));
#251=DIRECTION('',(0.,0.,1.));
#252=DIRECTION('',(1.,0.,0.));
#253=DIRECTION('',(0.,0.,-1.));
#254=DIRECTION('',(0.,0.,-1.));
#255=DIRECTION('',(-1.,0.,0.));
#256=DIRECTION('',(0.466090214610182,-0.884737199310979,0.));
#257=DIRECTION('',(0.884737199310979,0.466090214610182,0.));
#258=CARTESIAN_POINT('',(0.,0.,0.));
#259=CARTESIAN_POINT('',(0.,0.,0.));
#260=CARTESIAN_POINT('',(13.,0.,0.));
#261=CARTESIAN_POINT('',(0.,0.,242.));
#262=CARTESIAN_POINT('',(13.,0.,242.));
#263=CARTESIAN_POINT('',(0.,0.,5.));
#264=CARTESIAN_POINT('',(0.,0.,5.));
#265=CARTESIAN_POINT('',(32.,0.,5.));
#266=CARTESIAN_POINT('',(0.,0.,0.));
#267=CARTESIAN_POINT('',(32.,0.,0.));
#268=CARTESIAN_POINT('',(0.,0.,5.));
#269=CARTESIAN_POINT('',(11.5015835910427,6.05917278993237,246.881018221907));
#270=CARTESIAN_POINT('',(10.4180573053072,8.11593343705988,246.965741985644));
#271=CARTESIAN_POINT('',(8.79538039144006,9.8435939918148,247.050004172094));
#272=CARTESIAN_POINT('',(4.89798914216354,12.2582527820676,247.218934142433));
#273=CARTESIAN_POINT('',(2.60502507600047,12.9437269182439,247.30370280385));
#274=CARTESIAN_POINT('',(-2.00948584065435,13.0494516680538,247.473931439402));
#275=CARTESIAN_POINT('',(-4.31434317913248,12.4766872137922,247.558112061699));
#276=CARTESIAN_POINT('',(-8.33038120204953,10.2413880859321,247.7257485328));
#277=CARTESIAN_POINT('',(-10.0468697551125,8.56370110972756,247.811017097698));
#278=CARTESIAN_POINT('',(-12.3732455474286,4.60210421394185,247.980648268989));
#279=CARTESIAN_POINT('',(-12.9996469307246,2.31155886777365,248.064865647893));
#280=CARTESIAN_POINT('',(-13.000352765728,-2.30758590074308,248.234547264135));
#281=CARTESIAN_POINT('',(-12.3679804393715,-4.61376900364558,248.319439869184));
#282=CARTESIAN_POINT('',(-10.0442677755974,-8.56542406537894,248.486896546143));
#283=CARTESIAN_POINT('',(-8.35148726103073,-10.2296527826595,248.571046285395));
#284=CARTESIAN_POINT('',(-4.29313297425374,-12.488480483642,248.742805528431));
#285=CARTESIAN_POINT('',(-1.98949613558458,-13.0498586537306,248.826996294401));
#286=CARTESIAN_POINT('',(2.59484941932026,-12.9430932256129,248.994752909395));
#287=CARTESIAN_POINT('',(4.89131127259211,-12.2635224350456,249.079928468722));
#288=CARTESIAN_POINT('',(8.81129247821186,-9.83260053819234,249.248766911243));
#289=CARTESIAN_POINT('',(10.4294891763756,-8.093933104404,249.332875037289));
#290=CARTESIAN_POINT('',(12.5729404982183,-4.0258123164108,249.503062347935));
#291=CARTESIAN_POINT('',(13.0935160206575,-1.6829806149393,249.588352529897));
#292=CARTESIAN_POINT('',(12.8777797528319,2.90437156215033,249.755915392295));
#293=CARTESIAN_POINT('',(12.1517884865989,5.16492254188344,249.840392156863));
#294=CARTESIAN_POINT('',(9.62671628335949,9.0370748523178,250.009992049639));
#295=CARTESIAN_POINT('',(7.8383491092121,10.6213420276034,250.09453751604));
#296=CARTESIAN_POINT('',(3.7336637017963,12.6614524675137,250.264175289108));
#297=CARTESIAN_POINT('',(1.4031888494761,13.130648067174,250.348564275461));
#298=CARTESIAN_POINT('',(-3.22559578527774,12.805404696505,250.517654776515));
#299=CARTESIAN_POINT('',(-5.46268210148599,12.0174066881072,250.602020111366));
#300=CARTESIAN_POINT('',(-9.24483108806108,9.42295375147725,250.770705353669));
#301=CARTESIAN_POINT('',(-10.7975484416527,7.59767652472897,250.855491375617));
#302=CARTESIAN_POINT('',(-12.7513248549269,3.42278473883171,251.025873899536));
#303=CARTESIAN_POINT('',(-13.1575027574425,1.08242892322341,251.110146412445));
#304=CARTESIAN_POINT('',(-12.7300117887796,-3.49833260903967,251.277768981204));
#305=CARTESIAN_POINT('',(-11.8857266798897,-5.74440405171908,251.363093582851));
#306=CARTESIAN_POINT('',(-9.19983706776721,-9.46740062239819,251.532337526982));
#307=CARTESIAN_POINT('',(-7.35752213240146,-10.9643899124988,251.616322390595));
#308=CARTESIAN_POINT('',(-3.12365691932143,-12.8294093992069,251.786912398428));
#309=CARTESIAN_POINT('',(-0.762521048334441,-13.1784207236439,251.871596940084));
#310=CARTESIAN_POINT('',(3.78984349471979,-12.6447339791729,252.038725865939));
#311=CARTESIAN_POINT('',(6.0008186402819,-11.762770395026,252.123229530602));
#312=CARTESIAN_POINT('',(9.69637439187038,-8.96397876906988,252.294478415292));
#313=CARTESIAN_POINT('',(11.1405482937814,-7.08164286656709,252.378547600275));
#314=CARTESIAN_POINT('',(12.891409284658,-2.84131107608969,252.547023978966));
#315=CARTESIAN_POINT('',(13.1943537226604,-0.462953803416576,252.632235092708));
#316=CARTESIAN_POINT('',(12.5502236706218,4.09843655558354,252.800463730862));
#317=CARTESIAN_POINT('',(11.6123829667339,6.28089035539716,252.884693804434));
#318=CARTESIAN_POINT('',(8.75020823274443,9.88589286337982,253.054983667809));
#319=CARTESIAN_POINT('',(6.81621983359598,11.3050674135519,253.140151071678));
#320=CARTESIAN_POINT('',(2.53396012142901,12.9554794642216,253.30802112721));
#321=CARTESIAN_POINT('',(0.173646440916634,13.2034091526605,253.392470991509));
#322=CARTESIAN_POINT('',(-4.3953130479675,12.4515617313399,253.561904482844));
#323=CARTESIAN_POINT('',(-6.56099168393931,11.4544811678968,253.646358669282));
#324=CARTESIAN_POINT('',(-10.0822402789183,8.52057402177699,253.816050440863));
#325=CARTESIAN_POINT('',(-11.453469812719,6.57123770960722,253.900634031105));
#326=CARTESIAN_POINT('',(-13.018101321167,2.21182589252846,254.069643147558));
#327=CARTESIAN_POINT('',(-13.2000217160822,-0.154310653727434,254.154126167645));
#328=CARTESIAN_POINT('',(-12.3496735301754,-4.66368403528586,254.322433387015));
#329=CARTESIAN_POINT('',(-11.3031234448791,-6.82189683036542,254.407360637118));
#330=CARTESIAN_POINT('',(-8.27338944772783,-10.2883382050043,254.577779284718));
#331=CARTESIAN_POINT('',(-6.29591948860648,-11.6045132676068,254.662018834912));
#332=CARTESIAN_POINT('',(-1.92651143717981,-13.0610828060881,254.829892266578));
#333=CARTESIAN_POINT('',(0.448687657628041,-13.1985924818656,254.914516050788));
#334=CARTESIAN_POINT('',(2.72184878784033,-12.7118660776509,255.));
#335=CARTESIAN_POINT('',(11.5015835910427,6.05917278993237,246.881018221907));
#336=CARTESIAN_POINT('',(2.72184878786504,-12.7118660776472,255.));
#337=CARTESIAN_POINT('',(11.5015835910427,6.05917278993237,5.));
#338=CARTESIAN_POINT('',(11.5015835910427,6.05917278993237,245.582002027102));
#339=CARTESIAN_POINT('',(2.72184878783904,12.7118660776512,255.));
#340=CARTESIAN_POINT('',(5.35858446520065,12.147291548354,254.900843554056));
#341=CARTESIAN_POINT('',(7.75588882736192,10.7702388933115,254.803052871369));
#342=CARTESIAN_POINT('',(11.3773940036365,6.83423463215992,254.607806704231));
#343=CARTESIAN_POINT('',(12.5565993615228,4.2914110438588,254.509808192472));
#344=CARTESIAN_POINT('',(13.2327896790585,-0.98877377743879,254.313022343085));
#345=CARTESIAN_POINT('',(12.7242548675974,-3.76299090087453,254.213797798793));
#346=CARTESIAN_POINT('',(10.2256319613072,-8.45595727564501,254.020016696897));
#347=CARTESIAN_POINT('',(8.21030673254345,-10.4253544740225,253.921026599913));
#348=CARTESIAN_POINT('',(3.44785378715564,-12.814423780017,253.723824334865));
#349=CARTESIAN_POINT('',(0.687897010149306,-13.2553663829827,253.626303960677));
#350=CARTESIAN_POINT('',(-4.60914810079209,-12.4472364012517,253.430444545793));
#351=CARTESIAN_POINT('',(-7.0891339645132,-11.2240210272055,253.332976937071));
#352=CARTESIAN_POINT('',(-10.9609491548632,-7.48946339936785,253.134726218684));
#353=CARTESIAN_POINT('',(-12.2756406930209,-5.04359457849175,253.038295662381));
#354=CARTESIAN_POINT('',(-13.2698126228514,0.203159175907962,252.8419569506));
#355=CARTESIAN_POINT('',(-12.9276793616686,2.99170966051549,252.742512973025));
#356=CARTESIAN_POINT('',(-10.7136628217263,7.82896221176825,252.548191208588));
#357=CARTESIAN_POINT('',(-8.81589181916952,9.91715142610551,252.449484158568));
#358=CARTESIAN_POINT('',(-4.21405363096265,12.5821934880599,252.253042030171));
#359=CARTESIAN_POINT('',(-1.46659402897285,13.1894941038048,252.153896480815));
#360=CARTESIAN_POINT('',(3.84532056821977,12.7014630058016,251.959548435249));
#361=CARTESIAN_POINT('',(6.41328512858222,11.6222720297094,251.861830037631));
#362=CARTESIAN_POINT('',(10.4925871080205,8.13099311607511,251.663033036273));
#363=CARTESIAN_POINT('',(11.9494318890287,5.78039086919966,251.566665525508));
#364=CARTESIAN_POINT('',(13.261600703732,0.576010282927367,251.370497684397));
#365=CARTESIAN_POINT('',(13.0860403042161,-2.20582811782,251.272280349224));
#366=CARTESIAN_POINT('',(11.1610305985272,-7.17924261379103,251.075607047735));
#367=CARTESIAN_POINT('',(9.39465782998592,-9.37067108334815,250.977665398271));
#368=CARTESIAN_POINT('',(4.96117262099773,-12.3067395568231,250.782342202249));
#369=CARTESIAN_POINT('',(2.24702243199007,-13.0777522783974,250.682344421555));
#370=CARTESIAN_POINT('',(-3.0707258553542,-12.9091966127352,250.487919866606));
#371=CARTESIAN_POINT('',(-5.71947590085129,-11.9758360350163,250.389807492829));
#372=CARTESIAN_POINT('',(-9.97767736945479,-8.75094324225012,250.192486403806));
#373=CARTESIAN_POINT('',(-11.5824669731821,-6.48750350667359,250.094856762143));
#374=CARTESIAN_POINT('',(-13.2061181125883,-1.35635074015704,249.898725272806));
#375=CARTESIAN_POINT('',(-13.1980204816351,1.40882711743393,249.801812354389));
#376=CARTESIAN_POINT('',(-11.5665160477292,6.51062554583661,249.603549025924));
#377=CARTESIAN_POINT('',(-9.94325975860569,8.78785209833903,249.505826693738));
#378=CARTESIAN_POINT('',(-5.68600523493398,11.9901669545379,249.31128136365));
#379=CARTESIAN_POINT('',(-3.02524506610934,12.9195264738687,249.211884308124));
#380=CARTESIAN_POINT('',(2.28911572144005,13.0700505443884,249.015670045114));
#381=CARTESIAN_POINT('',(4.99971334535188,12.291847644568,248.917601621806));
#382=CARTESIAN_POINT('',(9.42881337404979,9.33724426210975,248.722052686751));
#383=CARTESIAN_POINT('',(11.1810127559004,7.15132041490277,248.622895428959));
#384=CARTESIAN_POINT('',(13.0961857647835,2.15553899025133,248.427234935856));
#385=CARTESIAN_POINT('',(13.262682201731,-0.604290277230601,248.330787808813));
#386=CARTESIAN_POINT('',(11.9293239179369,-5.82710363595914,248.131831468009));
#387=CARTESIAN_POINT('',(10.4586328732772,-8.17094943619593,248.034325942406));
#388=CARTESIAN_POINT('',(6.38552242141365,-11.634969689367,247.839520632909));
#389=CARTESIAN_POINT('',(3.79743001102612,-12.7146324233807,247.741159070761));
#390=CARTESIAN_POINT('',(-1.50436727944847,-13.1840521630814,247.544093930077));
#391=CARTESIAN_POINT('',(-4.25699162814126,-12.5676217991445,247.445467157522));
#392=CARTESIAN_POINT('',(-8.84890628817594,-9.88756557052737,247.251299043376));
#393=CARTESIAN_POINT('',(-10.7377676713838,-7.79745534371077,247.152034541075));
#394=CARTESIAN_POINT('',(-12.9394952745213,-2.94438897607285,246.955266454944));
#395=CARTESIAN_POINT('',(-13.2722988016582,-0.170966823357601,246.858130928107));
#396=CARTESIAN_POINT('',(-12.2576721708644,5.09240788692368,246.661446194295));
#397=CARTESIAN_POINT('',(-10.9380139913032,7.52250225501966,246.563607249041));
#398=CARTESIAN_POINT('',(-7.05690808826504,11.2440312381503,246.366830001011));
#399=CARTESIAN_POINT('',(-4.55977985984862,12.4632948417672,246.269942877173));
#400=CARTESIAN_POINT('',(0.720345885330921,13.2516569714352,246.072906211499));
#401=CARTESIAN_POINT('',(3.49450254957204,12.8008722947258,245.973761112835));
#402=CARTESIAN_POINT('',(8.2411538531926,10.399868400266,245.779898064638));
#403=CARTESIAN_POINT('',(10.2447816623343,8.44484702989493,245.681802142493));
#404=CARTESIAN_POINT('',(11.5015835910427,6.05917278993235,245.582002027102));
#405=CARTESIAN_POINT('',(2.7218487878152,12.7118660776547,255.));
#406=CARTESIAN_POINT('',(0.,0.,255.));
#407=CARTESIAN_POINT('',(0.,0.,244.));
#408=CARTESIAN_POINT('',(13.,0.,244.));
#409=CARTESIAN_POINT('',(0.,0.,5.));
#410=CARTESIAN_POINT('',(0.,0.,5.));
#411=CARTESIAN_POINT('',(15.,0.,5.));
#412=CARTESIAN_POINT('',(0.,0.,5.));
#413=CARTESIAN_POINT('',(0.,0.,0.));
#414=CARTESIAN_POINT('',(0.,0.,255.));
#415=CARTESIAN_POINT('',(15.,0.,255.));
#416=CARTESIAN_POINT('',(0.,0.,255.));
#417=CARTESIAN_POINT('',(2.72184878786503,-12.7118660776472,255.));
#418=CARTESIAN_POINT('',(5.34947802217172,-12.3219056174625,255.));
#419=CARTESIAN_POINT('',(7.86066346461786,-11.1026135053705,255.));
#420=CARTESIAN_POINT('',(9.82037845673184,-9.26337772988665,255.));
#421=CARTESIAN_POINT('',(9.82037845673177,-9.26337772988657,255.));
#422=CARTESIAN_POINT('',(9.82037845673253,9.26337772988579,255.));
#423=CARTESIAN_POINT('',(7.85665625390165,11.1063743610762,255.));
#424=CARTESIAN_POINT('',(5.36861128446413,12.3190660936658,255.));
#425=CARTESIAN_POINT('',(2.72184878781523,12.7118660776547,255.));
#426=CARTESIAN_POINT('',(9.82037845673264,9.26337772988595,255.));
#427=CARTESIAN_POINT('',(0.,0.,255.));
#428=CARTESIAN_POINT('',(0.,0.,255.));
#429=CARTESIAN_POINT('',(0.,0.107638307577872,242.));
#430=CARTESIAN_POINT('',(0.,0.107638307577872,244.));
#431=CARTESIAN_POINT('',(11.9439521906982,6.29221789723743,245.870687597457));
#432=CARTESIAN_POINT('',(10.6787455569701,8.69384603399302,245.967462570193));
#433=CARTESIAN_POINT('',(8.70934794531607,10.6636577976644,246.061698141693));
#434=CARTESIAN_POINT('',(3.92883235629697,13.1958560000625,246.251503993784));
#435=CARTESIAN_POINT('',(1.19613644494553,13.7139554437353,246.34571636115));
#436=CARTESIAN_POINT('',(-4.15775771683092,13.1231233734891,246.537700901559));
#437=CARTESIAN_POINT('',(-6.73960205910514,11.9999183436682,246.63300487026));
#438=CARTESIAN_POINT('',(-10.8095534282517,8.519027576641,246.82084229114));
#439=CARTESIAN_POINT('',(-12.3247815863801,6.12560907609087,246.917252649633));
#440=CARTESIAN_POINT('',(-13.7298337137855,0.956553133317834,247.107910005422));
#441=CARTESIAN_POINT('',(-13.6408836928038,-1.85473895457293,247.203059162374));
#442=CARTESIAN_POINT('',(-11.88304153742,-6.95033008785626,247.392266660791));
#443=CARTESIAN_POINT('',(-10.2445163581685,-9.19800408470297,247.486894225255));
#444=CARTESIAN_POINT('',(-5.91439226394273,-12.4327534642656,247.679100817306));
#445=CARTESIAN_POINT('',(-3.27449192407883,-13.3685022381756,247.773686129591));
#446=CARTESIAN_POINT('',(2.08280016144858,-13.6051862515893,247.962099324128));
#447=CARTESIAN_POINT('',(4.82204639429944,-12.8903221476187,248.058763814617));
#448=CARTESIAN_POINT('',(9.37494916561633,-10.0758555289502,248.248722702774));
#449=CARTESIAN_POINT('',(11.2357475515745,-7.9517484653291,248.344088145629));
#450=CARTESIAN_POINT('',(13.4244001773078,-3.04266438801156,248.533333441032));
#451=CARTESIAN_POINT('',(13.7671577580111,-0.283558528495087,248.628102379818));
#452=CARTESIAN_POINT('',(12.807245750644,5.05860597948271,248.820476462447));
#453=CARTESIAN_POINT('',(11.5246600573681,7.52666616057858,248.914095681254));
#454=CARTESIAN_POINT('',(7.76478618304431,11.3655879065845,249.103771534259));
#455=CARTESIAN_POINT('',(5.28017344682761,12.7095168261436,249.200210079777));
#456=CARTESIAN_POINT('',(0.0324050348020247,13.7626668744226,249.389483644011));
#457=CARTESIAN_POINT('',(-2.78396095593074,13.4792882463103,249.484806347846));
#458=CARTESIAN_POINT('',(-7.72451459082498,11.3918183169939,249.674794340583));
#459=CARTESIAN_POINT('',(-9.87215506967351,9.59688045281866,249.77005891519));
#460=CARTESIAN_POINT('',(-12.8064745797536,5.05507358833652,249.960999090932));
#461=CARTESIAN_POINT('',(-13.5593683384379,2.37741773505676,250.05439710839));
#462=CARTESIAN_POINT('',(-13.4332329667919,-3.00945790538595,250.245803771853));
#463=CARTESIAN_POINT('',(-12.5375845545316,-5.67721977870302,250.341533517862));
#464=CARTESIAN_POINT('',(-9.42106341369073,-10.0332155878833,250.530258789364));
#465=CARTESIAN_POINT('',(-7.16736657993641,-11.7494851082844,250.625652194677));
#466=CARTESIAN_POINT('',(-2.1396800373472,-13.5957093723999,250.816271512636));
#467=CARTESIAN_POINT('',(0.670305563672236,-13.7498749518576,250.911845940149));
#468=CARTESIAN_POINT('',(5.89676797248884,-12.4393126103913,251.1014746574));
#469=CARTESIAN_POINT('',(8.2778937442872,-11.0016518330067,251.195026415636));
#470=CARTESIAN_POINT('',(11.876186787559,-6.96534674538304,251.387748632759));
#471=CARTESIAN_POINT('',(13.0354915619961,-4.41791500635141,251.48268660796));
#472=CARTESIAN_POINT('',(13.734340445814,0.899947656641363,251.671124788852));
#473=CARTESIAN_POINT('',(13.2587321231395,3.69024189603524,251.766748872619));
#474=CARTESIAN_POINT('',(10.8483323799039,8.46909365514124,251.957574069619));
#475=CARTESIAN_POINT('',(8.89213854588616,10.5070533350035,252.053377186823));
#476=CARTESIAN_POINT('',(4.19182615696123,13.1109454721487,252.242030974));
#477=CARTESIAN_POINT('',(1.47142288205782,13.6912113636075,252.335976704912));
#478=CARTESIAN_POINT('',(-3.93343443445723,13.1963043103229,252.529536467176));
#479=CARTESIAN_POINT('',(-6.5021723718947,12.1323721753679,252.623632100908));
#480=CARTESIAN_POINT('',(-10.6528043536973,8.71725068799332,252.812169138591));
#481=CARTESIAN_POINT('',(-12.2056798233731,6.3587649089924,252.908002826301));
#482=CARTESIAN_POINT('',(-13.7084110211131,1.22146567481651,253.098728768948));
#483=CARTESIAN_POINT('',(-13.6692751419194,-1.60931364793965,253.194626268931));
#484=CARTESIAN_POINT('',(-12.0168204543814,-6.71081213342327,253.382756345481));
#485=CARTESIAN_POINT('',(-10.412809126284,-9.00701426674958,253.477875077387));
#486=CARTESIAN_POINT('',(-6.14339706673058,-12.3211838872058,253.670347795857));
#487=CARTESIAN_POINT('',(-3.54098287499898,-13.3032180061819,253.764342903805));
#488=CARTESIAN_POINT('',(1.83871773021884,-13.6430673292195,253.953490334459));
#489=CARTESIAN_POINT('',(4.57234366491999,-12.981415810193,254.049330020088));
#490=CARTESIAN_POINT('',(9.18187095141161,-10.2526449689281,254.239773398436));
#491=CARTESIAN_POINT('',(11.0863093366052,-8.15560391232719,254.335578345612));
#492=CARTESIAN_POINT('',(13.3598514522119,-3.30673540769399,254.523746876033));
#493=CARTESIAN_POINT('',(13.7562180679902,-0.519110264376084,254.619745580208));
#494=CARTESIAN_POINT('',(12.9024005388566,4.79906984066661,254.811016338338));
#495=CARTESIAN_POINT('',(11.6764534562282,7.29569817814718,254.904801992145));
#496=CARTESIAN_POINT('',(9.82037845673247,9.26337772988584,255.));
#497=CARTESIAN_POINT('',(11.9439521906982,6.29221789723746,245.870687597457));
#498=CARTESIAN_POINT('',(11.9439521906982,6.29221789723746,256.5));
#499=CARTESIAN_POINT('',(11.9439521906982,6.29221789723746,246.592332651551));
#500=CARTESIAN_POINT('',(9.82037845673179,-9.26337772988655,255.));
#501=CARTESIAN_POINT('',(8.11820255642355,-11.0679043322105,254.912695470403));
#502=CARTESIAN_POINT('',(5.90165169847594,-12.3892860530888,254.824444176717));
#503=CARTESIAN_POINT('',(1.14334235959747,-13.6754038303859,254.649022578964));
#504=CARTESIAN_POINT('',(-1.4289067284172,-13.6525904577588,254.56128683648));
#505=CARTESIAN_POINT('',(-6.20015272191349,-12.2471672998597,254.386711052981));
#506=CARTESIAN_POINT('',(-8.36147697089205,-10.8832647077034,254.29980684821));
#507=CARTESIAN_POINT('',(-11.6751254955918,-7.21465123861733,254.123686057522));
#508=CARTESIAN_POINT('',(-12.8214402522299,-4.8936191913053,254.035487655578));
#509=CARTESIAN_POINT('',(-13.7235212265321,-0.0424744150844522,253.861269171483));
#510=CARTESIAN_POINT('',(-13.4995998231705,2.50066227729326,253.774187361355));
#511=CARTESIAN_POINT('',(-11.7104772877814,7.16639580983208,253.598243073542));
#512=CARTESIAN_POINT('',(-10.1752550272558,9.20854845323866,253.511009263602));
#513=CARTESIAN_POINT('',(-6.2618639859977,12.2115616898988,253.335411780453));
#514=CARTESIAN_POINT('',(-3.85847369721871,13.1711332562924,253.247122168767));
#515=CARTESIAN_POINT('',(1.0612500803021,13.6835784352705,253.073589071834));
#516=CARTESIAN_POINT('',(3.58050400642584,13.2515592189141,252.986576230952));
#517=CARTESIAN_POINT('',(8.06402463143875,11.1083453950608,252.809543234619));
#518=CARTESIAN_POINT('',(9.99458672030545,9.40381379079887,252.721875958894));
#519=CARTESIAN_POINT('',(12.67256146005,5.26589627347331,252.547812728865));
#520=CARTESIAN_POINT('',(13.4369899449418,2.80370500589961,252.45989992285));
#521=CARTESIAN_POINT('',(13.5553392291658,-2.16014789373604,252.28502284634));
#522=CARTESIAN_POINT('',(12.9183291373192,-4.63577685737339,252.197653578659));
#523=CARTESIAN_POINT('',(10.4341667873916,-8.91637921043973,252.021572793438));
#524=CARTESIAN_POINT('',(8.57474560438377,-10.7146667492571,251.933309137183));
#525=CARTESIAN_POINT('',(4.23327188033437,-13.054108736896,251.760245339518));
#526=CARTESIAN_POINT('',(1.73693956442505,-13.6184205318824,251.673210831851));
#527=CARTESIAN_POINT('',(-3.24657955170402,-13.3393424893478,251.495329914499));
#528=CARTESIAN_POINT('',(-5.65933055620648,-12.5025193874297,251.408412691769));
#529=CARTESIAN_POINT('',(-9.71673167921099,-9.69154986840007,251.234215525924));
#530=CARTESIAN_POINT('',(-11.3644645062221,-7.69433004036865,251.145853269342));
#531=CARTESIAN_POINT('',(-13.3528683830633,-3.17091063070045,250.971749516069));
#532=CARTESIAN_POINT('',(-13.7126044428634,-0.641123730864388,250.884509748401));
#533=CARTESIAN_POINT('',(-13.0394612645501,4.29173743080962,250.707346908883));
#534=CARTESIAN_POINT('',(-12.0074340007946,6.64430216332329,250.619739045308));
#535=CARTESIAN_POINT('',(-8.88480013824819,10.4587546593448,250.446815767284));
#536=CARTESIAN_POINT('',(-6.76928966880092,11.9403056428305,250.358825724044));
#537=CARTESIAN_POINT('',(-2.0860130681236,13.5662349583059,250.182166165597));
#538=CARTESIAN_POINT('',(0.466014556157674,13.7176087776993,250.095174768933));
#539=CARTESIAN_POINT('',(5.30718847324371,12.6579504918463,249.920245408975));
#540=CARTESIAN_POINT('',(7.58417880187757,11.4370507560982,249.832157434225));
#541=CARTESIAN_POINT('',(11.1365900645419,8.01886898700567,249.658405136468));
#542=CARTESIAN_POINT('',(12.4392379395532,5.80671476953066,249.570658287279));
#543=CARTESIAN_POINT('',(13.6923529070423,0.9859253524047,249.393520479936));
#544=CARTESIAN_POINT('',(13.6341902148799,-1.56840155758744,249.306387076486));
#545=CARTESIAN_POINT('',(12.195584369733,-6.29434255042519,249.133050309078));
#546=CARTESIAN_POINT('',(10.7960131955689,-8.47285132691042,249.044895317179));
#547=CARTESIAN_POINT('',(7.09926943049616,-11.7449344008406,248.868910488204));
#548=CARTESIAN_POINT('',(4.80205491902916,-12.861265215558,248.78197152998));
#549=CARTESIAN_POINT('',(-0.11080234716891,-13.7280587568001,248.606004092786));
#550=CARTESIAN_POINT('',(-2.65846976476994,-13.4633399272888,248.518664462972));
#551=CARTESIAN_POINT('',(-7.24583787665219,-11.654476262501,248.344796900349));
#552=CARTESIAN_POINT('',(-9.3047146812445,-10.0895856392947,248.2564429507));
#553=CARTESIAN_POINT('',(-12.279108723409,-6.13196074928152,248.080345748011));
#554=CARTESIAN_POINT('',(-13.2043301365665,-3.74889822262129,247.993162038912));
#555=CARTESIAN_POINT('',(-13.6743368881166,1.1920918208354,247.819073880997));
#556=CARTESIAN_POINT('',(-13.2068174448983,3.72874145731221,247.731170554734));
#557=CARTESIAN_POINT('',(-11.0374879304054,8.15459380131861,247.555494709789));
#558=CARTESIAN_POINT('',(-9.32350586945269,10.0748013996632,247.467871131216));
#559=CARTESIAN_POINT('',(-5.12339924306099,12.7349976496494,247.292479534535));
#560=CARTESIAN_POINT('',(-2.67302750237381,13.4617252024655,247.205402940959));
#561=CARTESIAN_POINT('',(2.27137078978868,13.5352870745484,247.030992522851));
#562=CARTESIAN_POINT('',(4.77194507043622,12.8671459379274,246.942483736206));
#563=CARTESIAN_POINT('',(9.01391312117782,10.3481531969256,246.767105034296));
#564=CARTESIAN_POINT('',(10.7787585497441,8.50400035101606,246.68004154763));
#565=CARTESIAN_POINT('',(11.9439521906982,6.29221789723746,246.592332651552));
#566=CARTESIAN_POINT('',(0.,0.,256.5));
#567=CARTESIAN_POINT('',(10.3970557071817,5.47729419498618,244.861197561382));
#568=CARTESIAN_POINT('',(12.3217622472713,6.49125278634032,246.117242872295));
#569=CARTESIAN_POINT('',(-11.752,0.,255.129687436878));
#570=CARTESIAN_POINT('',(-11.752,1.5383332027078,255.067187436878));
#571=CARTESIAN_POINT('',(-11.1400221662136,4.61434826638257,254.942187436878));
#572=CARTESIAN_POINT('',(-8.52628573060742,8.52628573060743,254.754687436878));
#573=CARTESIAN_POINT('',(-4.61434826638257,11.1400221662136,254.567187436878));
#574=CARTESIAN_POINT('',(0.,12.0579889168932,254.379687436878));
#575=CARTESIAN_POINT('',(4.61434826638257,11.1400221662136,254.192187436878));
#576=CARTESIAN_POINT('',(8.52628573060742,8.52628573060742,254.004687436878));
#577=CARTESIAN_POINT('',(11.1400221662136,4.61434826638257,253.817187436878));
#578=CARTESIAN_POINT('',(12.0579889168932,4.44089209850063E-16,253.629687436878));
#579=CARTESIAN_POINT('',(11.1400221662136,-4.61434826638257,253.442187436878));
#580=CARTESIAN_POINT('',(8.52628573060742,-8.52628573060743,253.254687436878));
#581=CARTESIAN_POINT('',(4.61434826638258,-11.1400221662136,253.067187436878));
#582=CARTESIAN_POINT('',(3.10862446895044E-15,-12.0579889168932,252.879687436878));
#583=CARTESIAN_POINT('',(-4.61434826638258,-11.1400221662136,252.692187436878));
#584=CARTESIAN_POINT('',(-8.52628573060742,-8.52628573060742,252.504687436878));
#585=CARTESIAN_POINT('',(-11.1400221662136,-4.61434826638258,252.317187436878));
#586=CARTESIAN_POINT('',(-12.0579889168932,-3.10862446895044E-15,252.129687436878));
#587=CARTESIAN_POINT('',(-11.1400221662136,4.61434826638258,251.942187436878));
#588=CARTESIAN_POINT('',(-8.52628573060742,8.52628573060742,251.754687436878));
#589=CARTESIAN_POINT('',(-4.61434826638258,11.1400221662136,251.567187436878));
#590=CARTESIAN_POINT('',(-4.44089209850063E-15,12.0579889168932,251.379687436878));
#591=CARTESIAN_POINT('',(4.61434826638258,11.1400221662136,251.192187436878));
#592=CARTESIAN_POINT('',(8.52628573060741,8.52628573060744,251.004687436878));
#593=CARTESIAN_POINT('',(11.1400221662136,4.61434826638258,250.817187436878));
#594=CARTESIAN_POINT('',(12.0579889168932,3.5527136788005E-15,250.629687436878));
#595=CARTESIAN_POINT('',(11.1400221662136,-4.61434826638257,250.442187436878));
#596=CARTESIAN_POINT('',(8.52628573060741,-8.52628573060743,250.254687436878));
#597=CARTESIAN_POINT('',(4.61434826638259,-11.1400221662136,250.067187436878));
#598=CARTESIAN_POINT('',(4.88498130835069E-15,-12.0579889168932,249.879687436878));
#599=CARTESIAN_POINT('',(-4.61434826638258,-11.1400221662136,249.692187436878));
#600=CARTESIAN_POINT('',(-8.52628573060741,-8.52628573060744,249.504687436878));
#601=CARTESIAN_POINT('',(-11.1400221662136,-4.61434826638258,249.317187436878));
#602=CARTESIAN_POINT('',(-12.0579889168932,-5.77315972805081E-15,249.129687436878));
#603=CARTESIAN_POINT('',(-11.1400221662136,4.61434826638257,248.942187436878));
#604=CARTESIAN_POINT('',(-8.52628573060741,8.52628573060743,248.754687436878));
#605=CARTESIAN_POINT('',(-4.61434826638259,11.1400221662136,248.567187436878));
#606=CARTESIAN_POINT('',(-6.66133814775094E-15,12.0579889168932,248.379687436878));
#607=CARTESIAN_POINT('',(4.61434826638258,11.1400221662136,248.192187436878));
#608=CARTESIAN_POINT('',(8.5262857306074,8.52628573060744,248.004687436878));
#609=CARTESIAN_POINT('',(11.1400221662136,4.61434826638258,247.817187436878));
#610=CARTESIAN_POINT('',(12.0579889168932,-3.10862446895044E-15,247.629687436878));
#611=CARTESIAN_POINT('',(11.1400221662136,-4.61434826638253,247.442187436878));
#612=CARTESIAN_POINT('',(8.52628573060741,-8.52628573060744,247.254687436878));
#613=CARTESIAN_POINT('',(4.61434826638258,-11.1400221662136,247.067187436878));
#614=CARTESIAN_POINT('',(4.48530101948563E-14,-12.0579889168932,246.879687436878));
#615=CARTESIAN_POINT('',(-4.61434826638259,-11.1400221662136,246.692187436878));
#616=CARTESIAN_POINT('',(-8.52628573060739,-8.52628573060745,246.504687436878));
#617=CARTESIAN_POINT('',(-11.1400221662136,-4.61434826638255,246.317187436878));
#618=CARTESIAN_POINT('',(-12.0579889168932,-7.105427357601E-15,246.129687436878));
#619=CARTESIAN_POINT('',(-11.1400221662136,4.61434826638253,245.942187436878));
#620=CARTESIAN_POINT('',(-8.52628573060741,8.52628573060744,245.754687436878));
#621=CARTESIAN_POINT('',(-4.6143482663826,11.1400221662136,245.567187436878));
#622=CARTESIAN_POINT('',(2.75335310107039E-14,12.0579889168932,245.379687436878));
#623=CARTESIAN_POINT('',(4.61434826638257,11.1400221662136,245.192187436878));
#624=CARTESIAN_POINT('',(8.22021487753545,8.73078504785554,245.01935747838));
#625=CARTESIAN_POINT('',(9.84785758401484,6.51854865810094,244.909027519881));
#626=CARTESIAN_POINT('',(10.3970557071817,5.47729419498618,244.861197561382));
#627=CARTESIAN_POINT('',(-13.927534295109,0.,256.385732747791));
#628=CARTESIAN_POINT('',(-13.927534295109,1.8231099760056,256.323232747791));
#629=CARTESIAN_POINT('',(-13.2022669135648,5.46855800966814,256.198232747791));
#630=CARTESIAN_POINT('',(-10.1046746871114,10.1046746871114,256.010732747791));
#631=CARTESIAN_POINT('',(-5.46855800966814,13.2022669135648,255.823232747791));
#632=CARTESIAN_POINT('',(-8.88178419700125E-16,14.2901679858811,255.635732747791));
#633=CARTESIAN_POINT('',(5.46855800966814,13.2022669135648,255.448232747791));
#634=CARTESIAN_POINT('',(10.1046746871114,10.1046746871114,255.260732747791));
#635=CARTESIAN_POINT('',(13.2022669135648,5.46855800966814,255.073232747791));
#636=CARTESIAN_POINT('',(14.2901679858811,4.44089209850063E-16,254.885732747791));
#637=CARTESIAN_POINT('',(13.2022669135648,-5.46855800966814,254.698232747791));
#638=CARTESIAN_POINT('',(10.1046746871114,-10.1046746871114,254.510732747791));
#639=CARTESIAN_POINT('',(5.46855800966815,-13.2022669135648,254.323232747791));
#640=CARTESIAN_POINT('',(3.10862446895044E-15,-14.2901679858811,254.135732747791));
#641=CARTESIAN_POINT('',(-5.46855800966815,-13.2022669135648,253.948232747791));
#642=CARTESIAN_POINT('',(-10.1046746871114,-10.1046746871114,253.760732747791));
#643=CARTESIAN_POINT('',(-13.2022669135648,-5.46855800966815,253.573232747791));
#644=CARTESIAN_POINT('',(-14.2901679858811,-3.10862446895044E-15,253.385732747791));
#645=CARTESIAN_POINT('',(-13.2022669135648,5.46855800966815,253.198232747791));
#646=CARTESIAN_POINT('',(-10.1046746871114,10.1046746871114,253.010732747791));
#647=CARTESIAN_POINT('',(-5.46855800966815,13.2022669135648,252.823232747791));
#648=CARTESIAN_POINT('',(-5.32907051820075E-15,14.2901679858811,252.635732747791));
#649=CARTESIAN_POINT('',(5.46855800966815,13.2022669135648,252.448232747791));
#650=CARTESIAN_POINT('',(10.1046746871114,10.1046746871114,252.260732747791));
#651=CARTESIAN_POINT('',(13.2022669135648,5.46855800966815,252.073232747791));
#652=CARTESIAN_POINT('',(14.2901679858811,3.5527136788005E-15,251.885732747791));
#653=CARTESIAN_POINT('',(13.2022669135648,-5.46855800966814,251.698232747791));
#654=CARTESIAN_POINT('',(10.1046746871114,-10.1046746871114,251.510732747791));
#655=CARTESIAN_POINT('',(5.46855800966816,-13.2022669135648,251.323232747791));
#656=CARTESIAN_POINT('',(6.21724893790088E-15,-14.2901679858811,251.135732747791));
#657=CARTESIAN_POINT('',(-5.46855800966815,-13.2022669135648,250.948232747791));
#658=CARTESIAN_POINT('',(-10.1046746871114,-10.1046746871114,250.760732747791));
#659=CARTESIAN_POINT('',(-13.2022669135648,-5.46855800966815,250.573232747791));
#660=CARTESIAN_POINT('',(-14.2901679858811,-5.77315972805081E-15,250.385732747791));
#661=CARTESIAN_POINT('',(-13.2022669135648,5.46855800966814,250.198232747791));
#662=CARTESIAN_POINT('',(-10.1046746871114,10.1046746871114,250.010732747791));
#663=CARTESIAN_POINT('',(-5.46855800966816,13.2022669135648,249.823232747791));
#664=CARTESIAN_POINT('',(-7.99360577730113E-15,14.2901679858811,249.635732747791));
#665=CARTESIAN_POINT('',(5.46855800966815,13.2022669135648,249.448232747791));
#666=CARTESIAN_POINT('',(10.1046746871114,10.1046746871114,249.260732747791));
#667=CARTESIAN_POINT('',(13.2022669135648,5.46855800966815,249.073232747791));
#668=CARTESIAN_POINT('',(14.2901679858811,-3.10862446895044E-15,248.885732747791));
#669=CARTESIAN_POINT('',(13.2022669135649,-5.46855800966809,248.698232747791));
#670=CARTESIAN_POINT('',(10.1046746871114,-10.1046746871114,248.510732747791));
#671=CARTESIAN_POINT('',(5.46855800966815,-13.2022669135648,248.323232747791));
#672=CARTESIAN_POINT('',(5.32907051820075E-14,-14.2901679858811,248.135732747791));
#673=CARTESIAN_POINT('',(-5.46855800966816,-13.2022669135648,247.948232747791));
#674=CARTESIAN_POINT('',(-10.1046746871114,-10.1046746871114,247.760732747791));
#675=CARTESIAN_POINT('',(-13.2022669135649,-5.46855800966811,247.573232747791));
#676=CARTESIAN_POINT('',(-14.2901679858811,-7.105427357601E-15,247.385732747791));
#677=CARTESIAN_POINT('',(-13.2022669135649,5.46855800966809,247.198232747791));
#678=CARTESIAN_POINT('',(-10.1046746871114,10.1046746871114,247.010732747791));
#679=CARTESIAN_POINT('',(-5.46855800966818,13.2022669135648,246.823232747791));
#680=CARTESIAN_POINT('',(3.24185123190546E-14,14.2901679858811,246.635732747791));
#681=CARTESIAN_POINT('',(5.46855800966813,13.2022669135648,246.448232747791));
#682=CARTESIAN_POINT('',(9.74194389210689,10.3470309885324,246.275402789292));
#683=CARTESIAN_POINT('',(11.6708963780391,7.72526463495895,246.165072830793));
#684=CARTESIAN_POINT('',(12.3217622472713,6.49125278634032,246.117242872295));
#685=CARTESIAN_POINT('',(12.3217622472713,6.49125278634032,246.345777376714));
#686=CARTESIAN_POINT('',(10.3970557071817,5.47729419498618,247.601822687626));
#687=CARTESIAN_POINT('',(-13.927534295109,0.,256.614267252209));
#688=CARTESIAN_POINT('',(-13.927534295109,1.8231099760056,256.551767252209));
#689=CARTESIAN_POINT('',(-13.2022669135648,5.46855800966814,256.426767252209));
#690=CARTESIAN_POINT('',(-10.1046746871114,10.1046746871114,256.239267252209));
#691=CARTESIAN_POINT('',(-5.46855800966814,13.2022669135648,256.051767252209));
#692=CARTESIAN_POINT('',(-8.88178419700125E-16,14.2901679858811,255.864267252209));
#693=CARTESIAN_POINT('',(5.46855800966814,13.2022669135648,255.676767252209));
#694=CARTESIAN_POINT('',(10.1046746871114,10.1046746871114,255.489267252209));
#695=CARTESIAN_POINT('',(13.2022669135648,5.46855800966814,255.301767252209));
#696=CARTESIAN_POINT('',(14.2901679858811,4.44089209850063E-16,255.114267252209));
#697=CARTESIAN_POINT('',(13.2022669135648,-5.46855800966814,254.926767252209));
#698=CARTESIAN_POINT('',(10.1046746871114,-10.1046746871114,254.739267252209));
#699=CARTESIAN_POINT('',(5.46855800966815,-13.2022669135648,254.551767252209));
#700=CARTESIAN_POINT('',(3.10862446895044E-15,-14.2901679858811,254.364267252209));
#701=CARTESIAN_POINT('',(-5.46855800966815,-13.2022669135648,254.176767252209));
#702=CARTESIAN_POINT('',(-10.1046746871114,-10.1046746871114,253.989267252209));
#703=CARTESIAN_POINT('',(-13.2022669135648,-5.46855800966815,253.801767252209));
#704=CARTESIAN_POINT('',(-14.2901679858811,-3.10862446895044E-15,253.614267252209));
#705=CARTESIAN_POINT('',(-13.2022669135648,5.46855800966815,253.426767252209));
#706=CARTESIAN_POINT('',(-10.1046746871114,10.1046746871114,253.239267252209));
#707=CARTESIAN_POINT('',(-5.46855800966815,13.2022669135648,253.051767252209));
#708=CARTESIAN_POINT('',(-5.32907051820075E-15,14.2901679858811,252.864267252209));
#709=CARTESIAN_POINT('',(5.46855800966815,13.2022669135648,252.676767252209));
#710=CARTESIAN_POINT('',(10.1046746871114,10.1046746871114,252.489267252209));
#711=CARTESIAN_POINT('',(13.2022669135648,5.46855800966815,252.301767252209));
#712=CARTESIAN_POINT('',(14.2901679858811,3.5527136788005E-15,252.114267252209));
#713=CARTESIAN_POINT('',(13.2022669135648,-5.46855800966814,251.926767252209));
#714=CARTESIAN_POINT('',(10.1046746871114,-10.1046746871114,251.739267252209));
#715=CARTESIAN_POINT('',(5.46855800966816,-13.2022669135648,251.551767252209));
#716=CARTESIAN_POINT('',(6.21724893790088E-15,-14.2901679858811,251.364267252209));
#717=CARTESIAN_POINT('',(-5.46855800966815,-13.2022669135648,251.176767252209));
#718=CARTESIAN_POINT('',(-10.1046746871114,-10.1046746871114,250.989267252209));
#719=CARTESIAN_POINT('',(-13.2022669135648,-5.46855800966815,250.801767252209));
#720=CARTESIAN_POINT('',(-14.2901679858811,-5.77315972805081E-15,250.614267252209));
#721=CARTESIAN_POINT('',(-13.2022669135648,5.46855800966814,250.426767252209));
#722=CARTESIAN_POINT('',(-10.1046746871114,10.1046746871114,250.239267252209));
#723=CARTESIAN_POINT('',(-5.46855800966816,13.2022669135648,250.051767252209));
#724=CARTESIAN_POINT('',(-7.99360577730113E-15,14.2901679858811,249.864267252209));
#725=CARTESIAN_POINT('',(5.46855800966815,13.2022669135648,249.676767252209));
#726=CARTESIAN_POINT('',(10.1046746871114,10.1046746871114,249.489267252209));
#727=CARTESIAN_POINT('',(13.2022669135648,5.46855800966815,249.301767252209));
#728=CARTESIAN_POINT('',(14.2901679858811,-3.10862446895044E-15,249.114267252209));
#729=CARTESIAN_POINT('',(13.2022669135649,-5.46855800966809,248.926767252209));
#730=CARTESIAN_POINT('',(10.1046746871114,-10.1046746871114,248.739267252209));
#731=CARTESIAN_POINT('',(5.46855800966815,-13.2022669135648,248.551767252209));
#732=CARTESIAN_POINT('',(5.32907051820075E-14,-14.2901679858811,248.364267252209));
#733=CARTESIAN_POINT('',(-5.46855800966816,-13.2022669135648,248.176767252209));
#734=CARTESIAN_POINT('',(-10.1046746871114,-10.1046746871114,247.989267252209));
#735=CARTESIAN_POINT('',(-13.2022669135649,-5.46855800966811,247.801767252209));
#736=CARTESIAN_POINT('',(-14.2901679858811,-7.105427357601E-15,247.614267252209));
#737=CARTESIAN_POINT('',(-13.2022669135649,5.46855800966809,247.426767252209));
#738=CARTESIAN_POINT('',(-10.1046746871114,10.1046746871114,247.239267252209));
#739=CARTESIAN_POINT('',(-5.46855800966818,13.2022669135648,247.051767252209));
#740=CARTESIAN_POINT('',(3.24185123190546E-14,14.2901679858811,246.864267252209));
#741=CARTESIAN_POINT('',(5.46855800966813,13.2022669135648,246.676767252209));
#742=CARTESIAN_POINT('',(9.74194389210689,10.3470309885324,246.503937293711));
#743=CARTESIAN_POINT('',(11.6708963780391,7.72526463495895,246.393607335212));
#744=CARTESIAN_POINT('',(12.3217622472713,6.49125278634032,246.345777376714));
#745=CARTESIAN_POINT('',(-11.752,0.,257.870312563122));
#746=CARTESIAN_POINT('',(-11.752,1.5383332027078,257.807812563122));
#747=CARTESIAN_POINT('',(-11.1400221662136,4.61434826638257,257.682812563122));
#748=CARTESIAN_POINT('',(-8.52628573060742,8.52628573060743,257.495312563122));
#749=CARTESIAN_POINT('',(-4.61434826638257,11.1400221662136,257.307812563122));
#750=CARTESIAN_POINT('',(0.,12.0579889168932,257.120312563122));
#751=CARTESIAN_POINT('',(4.61434826638257,11.1400221662136,256.932812563122));
#752=CARTESIAN_POINT('',(8.52628573060742,8.52628573060742,256.745312563122));
#753=CARTESIAN_POINT('',(11.1400221662136,4.61434826638257,256.557812563122));
#754=CARTESIAN_POINT('',(12.0579889168932,4.44089209850063E-16,256.370312563122));
#755=CARTESIAN_POINT('',(11.1400221662136,-4.61434826638257,256.182812563122));
#756=CARTESIAN_POINT('',(8.52628573060742,-8.52628573060743,255.995312563122));
#757=CARTESIAN_POINT('',(4.61434826638258,-11.1400221662136,255.807812563122));
#758=CARTESIAN_POINT('',(3.10862446895044E-15,-12.0579889168932,255.620312563122));
#759=CARTESIAN_POINT('',(-4.61434826638258,-11.1400221662136,255.432812563122));
#760=CARTESIAN_POINT('',(-8.52628573060742,-8.52628573060742,255.245312563122));
#761=CARTESIAN_POINT('',(-11.1400221662136,-4.61434826638258,255.057812563122));
#762=CARTESIAN_POINT('',(-12.0579889168932,-3.10862446895044E-15,254.870312563122));
#763=CARTESIAN_POINT('',(-11.1400221662136,4.61434826638258,254.682812563122));
#764=CARTESIAN_POINT('',(-8.52628573060742,8.52628573060742,254.495312563122));
#765=CARTESIAN_POINT('',(-4.61434826638258,11.1400221662136,254.307812563122));
#766=CARTESIAN_POINT('',(-4.44089209850063E-15,12.0579889168932,254.120312563122));
#767=CARTESIAN_POINT('',(4.61434826638258,11.1400221662136,253.932812563122));
#768=CARTESIAN_POINT('',(8.52628573060741,8.52628573060744,253.745312563122));
#769=CARTESIAN_POINT('',(11.1400221662136,4.61434826638258,253.557812563122));
#770=CARTESIAN_POINT('',(12.0579889168932,3.5527136788005E-15,253.370312563122));
#771=CARTESIAN_POINT('',(11.1400221662136,-4.61434826638257,253.182812563122));
#772=CARTESIAN_POINT('',(8.52628573060741,-8.52628573060743,252.995312563122));
#773=CARTESIAN_POINT('',(4.61434826638259,-11.1400221662136,252.807812563122));
#774=CARTESIAN_POINT('',(4.88498130835069E-15,-12.0579889168932,252.620312563122));
#775=CARTESIAN_POINT('',(-4.61434826638258,-11.1400221662136,252.432812563122));
#776=CARTESIAN_POINT('',(-8.52628573060741,-8.52628573060744,252.245312563122));
#777=CARTESIAN_POINT('',(-11.1400221662136,-4.61434826638258,252.057812563122));
#778=CARTESIAN_POINT('',(-12.0579889168932,-5.77315972805081E-15,251.870312563122));
#779=CARTESIAN_POINT('',(-11.1400221662136,4.61434826638257,251.682812563122));
#780=CARTESIAN_POINT('',(-8.52628573060741,8.52628573060743,251.495312563122));
#781=CARTESIAN_POINT('',(-4.61434826638259,11.1400221662136,251.307812563122));
#782=CARTESIAN_POINT('',(-6.66133814775094E-15,12.0579889168932,251.120312563122));
#783=CARTESIAN_POINT('',(4.61434826638258,11.1400221662136,250.932812563122));
#784=CARTESIAN_POINT('',(8.5262857306074,8.52628573060744,250.745312563122));
#785=CARTESIAN_POINT('',(11.1400221662136,4.61434826638258,250.557812563122));
#786=CARTESIAN_POINT('',(12.0579889168932,-3.10862446895044E-15,250.370312563122));
#787=CARTESIAN_POINT('',(11.1400221662136,-4.61434826638253,250.182812563122));
#788=CARTESIAN_POINT('',(8.52628573060741,-8.52628573060744,249.995312563122));
#789=CARTESIAN_POINT('',(4.61434826638258,-11.1400221662136,249.807812563122));
#790=CARTESIAN_POINT('',(4.48530101948563E-14,-12.0579889168932,249.620312563122));
#791=CARTESIAN_POINT('',(-4.61434826638259,-11.1400221662136,249.432812563122));
#792=CARTESIAN_POINT('',(-8.52628573060739,-8.52628573060745,249.245312563122));
#793=CARTESIAN_POINT('',(-11.1400221662136,-4.61434826638255,249.057812563122));
#794=CARTESIAN_POINT('',(-12.0579889168932,-7.105427357601E-15,248.870312563122));
#795=CARTESIAN_POINT('',(-11.1400221662136,4.61434826638253,248.682812563122));
#796=CARTESIAN_POINT('',(-8.52628573060741,8.52628573060744,248.495312563122));
#797=CARTESIAN_POINT('',(-4.6143482663826,11.1400221662136,248.307812563122));
#798=CARTESIAN_POINT('',(2.75335310107039E-14,12.0579889168932,248.120312563122));
#799=CARTESIAN_POINT('',(4.61434826638257,11.1400221662136,247.932812563122));
#800=CARTESIAN_POINT('',(8.22021487753545,8.73078504785554,247.759982604623));
#801=CARTESIAN_POINT('',(9.84785758401484,6.51854865810094,247.649652646125));
#802=CARTESIAN_POINT('',(10.3970557071817,5.47729419498618,247.601822687626));
#803=CARTESIAN_POINT('',(10.3970557071817,5.47729419498618,246.231510124504));
#804=(
GEOMETRIC_REPRESENTATION_CONTEXT(3)
GLOBAL_UNCERTAINTY_ASSIGNED_CONTEXT((#805))
GLOBAL_UNIT_ASSIGNED_CONTEXT((#811,#807,#806))
REPRESENTATION_CONTEXT('rod2','TOP_LEVEL_ASSEMBLY_PART')
);
#805=UNCERTAINTY_MEASURE_WITH_UNIT(LENGTH_MEASURE(0.0508),#811,
'DISTANCE_ACCURACY_VALUE','Maximum Tolerance applied to model');
#806=(
NAMED_UNIT(*)
SI_UNIT($,.STERADIAN.)
SOLID_ANGLE_UNIT()
);
#807=(
CONVERSION_BASED_UNIT('DEGREE',#809)
NAMED_UNIT(#808)
PLANE_ANGLE_UNIT()
);
#808=DIMENSIONAL_EXPONENTS(0.,0.,0.,0.,0.,0.,0.);
#809=PLANE_ANGLE_MEASURE_WITH_UNIT(PLANE_ANGLE_MEASURE(0.0174532925),#810);
#810=(
NAMED_UNIT(*)
PLANE_ANGLE_UNIT()
SI_UNIT($,.RADIAN.)
);
#811=(
LENGTH_UNIT()
NAMED_UNIT(*)
SI_UNIT(.MILLI.,.METRE.)
);
ENDSEC;
END-ISO-10303-21;
