ISO-10303-21;
HEADER;
/* Generated by software containing ST-Developer
 * from STEP Tools, Inc. (www.steptools.com) 
 */
/* OPTION: using custom schema-name function */

FILE_DESCRIPTION(
/* description */ (''),
/* implementation_level */ '2;1');

FILE_NAME(
/* name */ 'rod2.stp',
/* time_stamp */ '2025-06-25T20:41:47+03:00',
/* author */ (''),
/* organization */ (''),
/* preprocessor_version */ 'ST-DEVELOPER v19.4',
/* originating_system */ 'SIEMENS PLM Software NX2306.4000',
/* authorisation */ '');

FILE_SCHEMA (('AUTOMOTIVE_DESIGN { 1 0 10303 214 3 1 1 1 }'));
ENDSEC;

DATA;
#10=SHAPE_REPRESENTATION_RELATIONSHIP('None',
'relationship between rod2-None and rod2-None',#22,#11);
#11=ADVANCED_BREP_SHAPE_REPRESENTATION('rod2-None',(#32),#938);
#12=SHAPE_DEFINITION_REPRESENTATION(#13,#22);
#13=PRODUCT_DEFINITION_SHAPE('','',#14);
#14=PRODUCT_DEFINITION(' ','',#16,#15);
#15=PRODUCT_DEFINITION_CONTEXT('part definition',#21,'design');
#16=PRODUCT_DEFINITION_FORMATION_WITH_SPECIFIED_SOURCE(' ',' ',#18,
 .NOT_KNOWN.);
#17=PRODUCT_RELATED_PRODUCT_CATEGORY('part','',(#18));
#18=PRODUCT('rod2','rod2',' ',(#19));
#19=PRODUCT_CONTEXT(' ',#21,'mechanical');
#20=APPLICATION_PROTOCOL_DEFINITION('international standard',
'automotive_design',2010,#21);
#21=APPLICATION_CONTEXT(
'core data for automotive mechanical design processes');
#22=SHAPE_REPRESENTATION('rod2-None',(#273),#938);
#23=PRESENTATION_LAYER_ASSIGNMENT('1','Layer 1',(#32));
#24=STYLED_ITEM('',(#25),#32);
#25=PRESENTATION_STYLE_ASSIGNMENT((#26));
#26=SURFACE_STYLE_USAGE(.BOTH.,#27);
#27=SURFACE_SIDE_STYLE('',(#28));
#28=SURFACE_STYLE_FILL_AREA(#29);
#29=FILL_AREA_STYLE('',(#30));
#30=FILL_AREA_STYLE_COLOUR('',#31);
#31=COLOUR_RGB('medium steel',0.611764705882353,0.658823529411765,0.670588235294118);
#32=MANIFOLD_SOLID_BREP('',#33);
#33=CLOSED_SHELL('',(#49,#50,#51,#52,#53,#54,#55,#56,#57,#58,#59,#60,#61,
#62,#63,#64));
#34=B_SPLINE_SURFACE_WITH_KNOTS('',1,3,((#698,#699,#700,#701,#702,#703,
#704,#705,#706,#707,#708,#709,#710,#711,#712,#713,#714,#715,#716,#717,#718,
#719,#720,#721,#722,#723,#724,#725,#726,#727,#728,#729,#730,#731,#732,#733,
#734,#735,#736,#737,#738,#739,#740,#741,#742,#743,#744,#745,#746,#747,#748,
#749,#750,#751,#752,#753,#754,#755),(#756,#757,#758,#759,#760,#761,#762,
#763,#764,#765,#766,#767,#768,#769,#770,#771,#772,#773,#774,#775,#776,#777,
#778,#779,#780,#781,#782,#783,#784,#785,#786,#787,#788,#789,#790,#791,#792,
#793,#794,#795,#796,#797,#798,#799,#800,#801,#802,#803,#804,#805,#806,#807,
#808,#809,#810,#811,#812,#813)),.UNSPECIFIED.,.F.,.F.,.F.,(2,2),(4,1,1,
1,1,1,1,1,1,1,1,1,1,1,1,1,1,1,1,1,1,1,1,1,1,1,1,1,1,1,1,1,1,1,1,1,1,1,1,
1,1,1,1,1,1,1,1,1,1,1,1,1,1,1,1,4),(0.,1.),(0.,0.0182597443512546,0.0365194887025091,
0.0547792330537637,0.0730389774050182,0.0912987217562728,0.109558466107527,
0.127818210458782,0.146077954810036,0.164337699161291,0.182597443512546,
0.2008571878638,0.219116932215055,0.237376676566309,0.255636420917564,0.273896165268818,
0.292155909620073,0.310415653971327,0.328675398322582,0.346935142673837,
0.365194887025091,0.383454631376346,0.4017143757276,0.419974120078855,0.438233864430109,
0.456493608781364,0.474753353132618,0.493013097483873,0.511272841835128,
0.529532586186382,0.547792330537637,0.566052074888891,0.584311819240146,
0.6025715635914,0.620831307942655,0.63909105229391,0.657350796645164,0.675610540996419,
0.693870285347673,0.712130029698928,0.730389774050182,0.748649518401437,
0.766909262752691,0.785169007103946,0.803428751455201,0.821688495806455,
0.83994824015771,0.858207984508964,0.876467728860219,0.894727473211473,
0.912987217562728,0.931246961913982,0.949506706265237,0.967766450616491,
0.986026194967746,1.),.UNSPECIFIED.);
#35=B_SPLINE_SURFACE_WITH_KNOTS('',1,3,((#816,#817,#818,#819,#820,#821,
#822,#823,#824,#825,#826,#827,#828,#829,#830,#831,#832,#833,#834,#835,#836,
#837,#838,#839,#840,#841,#842,#843,#844,#845,#846,#847,#848,#849,#850,#851,
#852,#853,#854,#855,#856,#857,#858,#859,#860,#861,#862,#863,#864,#865,#866,
#867,#868,#869,#870,#871,#872,#873),(#874,#875,#876,#877,#878,#879,#880,
#881,#882,#883,#884,#885,#886,#887,#888,#889,#890,#891,#892,#893,#894,#895,
#896,#897,#898,#899,#900,#901,#902,#903,#904,#905,#906,#907,#908,#909,#910,
#911,#912,#913,#914,#915,#916,#917,#918,#919,#920,#921,#922,#923,#924,#925,
#926,#927,#928,#929,#930,#931)),.UNSPECIFIED.,.F.,.F.,.F.,(2,2),(4,1,1,
1,1,1,1,1,1,1,1,1,1,1,1,1,1,1,1,1,1,1,1,1,1,1,1,1,1,1,1,1,1,1,1,1,1,1,1,
1,1,1,1,1,1,1,1,1,1,1,1,1,1,1,1,4),(0.,1.),(0.,0.0182597443512546,0.0365194887025091,
0.0547792330537637,0.0730389774050182,0.0912987217562728,0.109558466107527,
0.127818210458782,0.146077954810036,0.164337699161291,0.182597443512546,
0.2008571878638,0.219116932215055,0.237376676566309,0.255636420917564,0.273896165268818,
0.292155909620073,0.310415653971327,0.328675398322582,0.346935142673837,
0.365194887025091,0.383454631376346,0.4017143757276,0.419974120078855,0.438233864430109,
0.456493608781364,0.474753353132618,0.493013097483873,0.511272841835128,
0.529532586186382,0.547792330537637,0.566052074888891,0.584311819240146,
0.6025715635914,0.620831307942655,0.63909105229391,0.657350796645164,0.675610540996419,
0.693870285347673,0.712130029698928,0.730389774050182,0.748649518401437,
0.766909262752691,0.785169007103946,0.803428751455201,0.821688495806455,
0.83994824015771,0.858207984508964,0.876467728860219,0.894727473211473,
0.912987217562728,0.931246961913982,0.949506706265237,0.967766450616491,
0.986026194967746,1.),.UNSPECIFIED.);
#36=FACE_OUTER_BOUND('',#123,.T.);
#37=FACE_OUTER_BOUND('',#124,.T.);
#38=FACE_OUTER_BOUND('',#125,.T.);
#39=FACE_OUTER_BOUND('',#126,.T.);
#40=FACE_OUTER_BOUND('',#127,.T.);
#41=FACE_OUTER_BOUND('',#128,.T.);
#42=FACE_OUTER_BOUND('',#129,.T.);
#43=PLANE('',#292);
#44=PLANE('',#293);
#45=PLANE('',#297);
#46=PLANE('',#299);
#47=PLANE('',#301);
#48=PLANE('',#303);
#49=ADVANCED_FACE('',(#73,#74,#75),#65,.F.);
#50=ADVANCED_FACE('',(#76,#77),#66,.F.);
#51=ADVANCED_FACE('',(#78,#79),#67,.F.);
#52=ADVANCED_FACE('',(#80,#81),#68,.T.);
#53=ADVANCED_FACE('',(#82,#83),#69,.F.);
#54=ADVANCED_FACE('',(#84,#85,#86,#87,#88),#43,.T.);
#55=ADVANCED_FACE('',(#89,#90,#91,#92,#93),#44,.F.);
#56=ADVANCED_FACE('',(#94,#95),#70,.T.);
#57=ADVANCED_FACE('',(#96,#97),#45,.T.);
#58=ADVANCED_FACE('',(#36),#71,.F.);
#59=ADVANCED_FACE('',(#37),#34,.F.);
#60=ADVANCED_FACE('',(#38),#35,.F.);
#61=ADVANCED_FACE('',(#39),#46,.F.);
#62=ADVANCED_FACE('',(#40),#47,.F.);
#63=ADVANCED_FACE('',(#41),#48,.T.);
#64=ADVANCED_FACE('',(#42),#72,.T.);
#65=CYLINDRICAL_SURFACE('',#278,11.);
#66=CYLINDRICAL_SURFACE('',#281,1.5);
#67=CYLINDRICAL_SURFACE('',#284,1.5);
#68=CYLINDRICAL_SURFACE('',#287,32.);
#69=CYLINDRICAL_SURFACE('',#290,1.5);
#70=CYLINDRICAL_SURFACE('',#295,13.);
#71=CYLINDRICAL_SURFACE('',#298,12.);
#72=CYLINDRICAL_SURFACE('',#304,11.);
#73=FACE_BOUND('',#98,.T.);
#74=FACE_BOUND('',#99,.T.);
#75=FACE_BOUND('',#100,.T.);
#76=FACE_BOUND('',#101,.T.);
#77=FACE_BOUND('',#102,.T.);
#78=FACE_BOUND('',#103,.T.);
#79=FACE_BOUND('',#104,.T.);
#80=FACE_BOUND('',#105,.T.);
#81=FACE_BOUND('',#106,.T.);
#82=FACE_BOUND('',#107,.T.);
#83=FACE_BOUND('',#108,.T.);
#84=FACE_BOUND('',#109,.T.);
#85=FACE_BOUND('',#110,.T.);
#86=FACE_BOUND('',#111,.T.);
#87=FACE_BOUND('',#112,.T.);
#88=FACE_BOUND('',#113,.T.);
#89=FACE_BOUND('',#114,.T.);
#90=FACE_BOUND('',#115,.T.);
#91=FACE_BOUND('',#116,.T.);
#92=FACE_BOUND('',#117,.T.);
#93=FACE_BOUND('',#118,.T.);
#94=FACE_BOUND('',#119,.T.);
#95=FACE_BOUND('',#120,.T.);
#96=FACE_BOUND('',#121,.T.);
#97=FACE_BOUND('',#122,.T.);
#98=EDGE_LOOP('',(#155,#156,#157,#158));
#99=EDGE_LOOP('',(#159));
#100=EDGE_LOOP('',(#160,#161,#162,#163));
#101=EDGE_LOOP('',(#164));
#102=EDGE_LOOP('',(#165));
#103=EDGE_LOOP('',(#166));
#104=EDGE_LOOP('',(#167));
#105=EDGE_LOOP('',(#168));
#106=EDGE_LOOP('',(#169));
#107=EDGE_LOOP('',(#170));
#108=EDGE_LOOP('',(#171));
#109=EDGE_LOOP('',(#172));
#110=EDGE_LOOP('',(#173));
#111=EDGE_LOOP('',(#174));
#112=EDGE_LOOP('',(#175));
#113=EDGE_LOOP('',(#176));
#114=EDGE_LOOP('',(#177));
#115=EDGE_LOOP('',(#178));
#116=EDGE_LOOP('',(#179));
#117=EDGE_LOOP('',(#180));
#118=EDGE_LOOP('',(#181));
#119=EDGE_LOOP('',(#182));
#120=EDGE_LOOP('',(#183));
#121=EDGE_LOOP('',(#184,#185,#186,#187));
#122=EDGE_LOOP('',(#188));
#123=EDGE_LOOP('',(#189,#190,#191,#192));
#124=EDGE_LOOP('',(#193,#194,#195,#196));
#125=EDGE_LOOP('',(#197,#198,#199,#200));
#126=EDGE_LOOP('',(#201,#202,#203,#204));
#127=EDGE_LOOP('',(#205,#206));
#128=EDGE_LOOP('',(#207,#208));
#129=EDGE_LOOP('',(#209,#210,#211,#212));
#130=CIRCLE('',#274,11.);
#131=CIRCLE('',#275,11.);
#132=CIRCLE('',#276,11.);
#133=CIRCLE('',#277,11.);
#134=CIRCLE('',#279,1.5);
#135=CIRCLE('',#280,1.5);
#136=CIRCLE('',#282,1.5);
#137=CIRCLE('',#283,1.5);
#138=CIRCLE('',#285,32.);
#139=CIRCLE('',#286,32.);
#140=CIRCLE('',#288,1.5);
#141=CIRCLE('',#289,1.5);
#142=CIRCLE('',#291,13.);
#143=CIRCLE('',#294,13.);
#144=CIRCLE('',#296,12.);
#145=CIRCLE('',#300,11.);
#146=CIRCLE('',#302,11.);
#147=LINE('',#436,#151);
#148=LINE('',#508,#152);
#149=LINE('',#513,#153);
#150=LINE('',#627,#154);
#151=VECTOR('',#307,1.);
#152=VECTOR('',#312,1.);
#153=VECTOR('',#315,1.);
#154=VECTOR('',#358,1.);
#155=ORIENTED_EDGE('',*,*,#236,.F.);
#156=ORIENTED_EDGE('',*,*,#237,.F.);
#157=ORIENTED_EDGE('',*,*,#238,.F.);
#158=ORIENTED_EDGE('',*,*,#239,.T.);
#159=ORIENTED_EDGE('',*,*,#240,.F.);
#160=ORIENTED_EDGE('',*,*,#241,.F.);
#161=ORIENTED_EDGE('',*,*,#242,.T.);
#162=ORIENTED_EDGE('',*,*,#243,.F.);
#163=ORIENTED_EDGE('',*,*,#244,.F.);
#164=ORIENTED_EDGE('',*,*,#245,.T.);
#165=ORIENTED_EDGE('',*,*,#246,.F.);
#166=ORIENTED_EDGE('',*,*,#247,.T.);
#167=ORIENTED_EDGE('',*,*,#248,.F.);
#168=ORIENTED_EDGE('',*,*,#249,.F.);
#169=ORIENTED_EDGE('',*,*,#250,.T.);
#170=ORIENTED_EDGE('',*,*,#251,.T.);
#171=ORIENTED_EDGE('',*,*,#252,.F.);
#172=ORIENTED_EDGE('',*,*,#253,.F.);
#173=ORIENTED_EDGE('',*,*,#249,.T.);
#174=ORIENTED_EDGE('',*,*,#247,.F.);
#175=ORIENTED_EDGE('',*,*,#245,.F.);
#176=ORIENTED_EDGE('',*,*,#251,.F.);
#177=ORIENTED_EDGE('',*,*,#250,.F.);
#178=ORIENTED_EDGE('',*,*,#248,.T.);
#179=ORIENTED_EDGE('',*,*,#246,.T.);
#180=ORIENTED_EDGE('',*,*,#240,.T.);
#181=ORIENTED_EDGE('',*,*,#252,.T.);
#182=ORIENTED_EDGE('',*,*,#254,.F.);
#183=ORIENTED_EDGE('',*,*,#253,.T.);
#184=ORIENTED_EDGE('',*,*,#255,.F.);
#185=ORIENTED_EDGE('',*,*,#239,.F.);
#186=ORIENTED_EDGE('',*,*,#256,.F.);
#187=ORIENTED_EDGE('',*,*,#257,.F.);
#188=ORIENTED_EDGE('',*,*,#254,.T.);
#189=ORIENTED_EDGE('',*,*,#257,.T.);
#190=ORIENTED_EDGE('',*,*,#258,.F.);
#191=ORIENTED_EDGE('',*,*,#259,.F.);
#192=ORIENTED_EDGE('',*,*,#260,.F.);
#193=ORIENTED_EDGE('',*,*,#238,.T.);
#194=ORIENTED_EDGE('',*,*,#261,.T.);
#195=ORIENTED_EDGE('',*,*,#258,.T.);
#196=ORIENTED_EDGE('',*,*,#256,.T.);
#197=ORIENTED_EDGE('',*,*,#236,.T.);
#198=ORIENTED_EDGE('',*,*,#255,.T.);
#199=ORIENTED_EDGE('',*,*,#260,.T.);
#200=ORIENTED_EDGE('',*,*,#262,.T.);
#201=ORIENTED_EDGE('',*,*,#237,.T.);
#202=ORIENTED_EDGE('',*,*,#262,.F.);
#203=ORIENTED_EDGE('',*,*,#259,.T.);
#204=ORIENTED_EDGE('',*,*,#261,.F.);
#205=ORIENTED_EDGE('',*,*,#242,.F.);
#206=ORIENTED_EDGE('',*,*,#263,.F.);
#207=ORIENTED_EDGE('',*,*,#264,.T.);
#208=ORIENTED_EDGE('',*,*,#244,.T.);
#209=ORIENTED_EDGE('',*,*,#263,.T.);
#210=ORIENTED_EDGE('',*,*,#241,.T.);
#211=ORIENTED_EDGE('',*,*,#264,.F.);
#212=ORIENTED_EDGE('',*,*,#243,.T.);
#213=VERTEX_POINT('',#434);
#214=VERTEX_POINT('',#435);
#215=VERTEX_POINT('',#437);
#216=VERTEX_POINT('',#504);
#217=VERTEX_POINT('',#507);
#218=VERTEX_POINT('',#509);
#219=VERTEX_POINT('',#510);
#220=VERTEX_POINT('',#512);
#221=VERTEX_POINT('',#514);
#222=VERTEX_POINT('',#518);
#223=VERTEX_POINT('',#520);
#224=VERTEX_POINT('',#523);
#225=VERTEX_POINT('',#525);
#226=VERTEX_POINT('',#528);
#227=VERTEX_POINT('',#530);
#228=VERTEX_POINT('',#533);
#229=VERTEX_POINT('',#535);
#230=VERTEX_POINT('',#538);
#231=VERTEX_POINT('',#542);
#232=VERTEX_POINT('',#550);
#233=VERTEX_POINT('',#557);
#234=VERTEX_POINT('',#626);
#235=VERTEX_POINT('',#628);
#236=EDGE_CURVE('',#213,#214,#265,.T.);
#237=EDGE_CURVE('',#215,#213,#147,.T.);
#238=EDGE_CURVE('',#216,#215,#266,.T.);
#239=EDGE_CURVE('',#216,#214,#130,.T.);
#240=EDGE_CURVE('',#217,#217,#131,.T.);
#241=EDGE_CURVE('',#218,#219,#148,.T.);
#242=EDGE_CURVE('',#218,#220,#132,.T.);
#243=EDGE_CURVE('',#221,#220,#149,.T.);
#244=EDGE_CURVE('',#219,#221,#133,.T.);
#245=EDGE_CURVE('',#222,#222,#134,.T.);
#246=EDGE_CURVE('',#223,#223,#135,.T.);
#247=EDGE_CURVE('',#224,#224,#136,.T.);
#248=EDGE_CURVE('',#225,#225,#137,.T.);
#249=EDGE_CURVE('',#226,#226,#138,.T.);
#250=EDGE_CURVE('',#227,#227,#139,.T.);
#251=EDGE_CURVE('',#228,#228,#140,.T.);
#252=EDGE_CURVE('',#229,#229,#141,.T.);
#253=EDGE_CURVE('',#230,#230,#142,.T.);
#254=EDGE_CURVE('',#231,#231,#143,.T.);
#255=EDGE_CURVE('',#214,#232,#267,.T.);
#256=EDGE_CURVE('',#233,#216,#268,.T.);
#257=EDGE_CURVE('',#232,#233,#144,.T.);
#258=EDGE_CURVE('',#234,#233,#269,.T.);
#259=EDGE_CURVE('',#235,#234,#150,.T.);
#260=EDGE_CURVE('',#232,#235,#270,.T.);
#261=EDGE_CURVE('',#215,#234,#271,.T.);
#262=EDGE_CURVE('',#235,#213,#272,.T.);
#263=EDGE_CURVE('',#220,#218,#145,.T.);
#264=EDGE_CURVE('',#221,#219,#146,.T.);
#265=B_SPLINE_CURVE_WITH_KNOTS('',3,(#374,#375,#376,#377,#378,#379,#380,
#381,#382,#383,#384,#385,#386,#387,#388,#389,#390,#391,#392,#393,#394,#395,
#396,#397,#398,#399,#400,#401,#402,#403,#404,#405,#406,#407,#408,#409,#410,
#411,#412,#413,#414,#415,#416,#417,#418,#419,#420,#421,#422,#423,#424,#425,
#426,#427,#428,#429,#430,#431,#432,#433),.UNSPECIFIED.,.F.,.F.,(4,2,2,2,
2,2,2,2,2,2,2,2,2,2,2,2,2,2,2,2,2,2,2,2,2,2,2,2,2,4),(0.,0.0625,0.125,0.1875,
0.21875,0.25,0.28125,0.3125,0.34375,0.375,0.40625,0.4375,0.46875,0.5,0.53125,
0.5625,0.59375,0.625,0.65625,0.6875,0.71875,0.75,0.78125,0.8125,0.84375,
0.875,0.90625,0.9375,0.96875,1.),.UNSPECIFIED.);
#266=B_SPLINE_CURVE_WITH_KNOTS('',3,(#438,#439,#440,#441,#442,#443,#444,
#445,#446,#447,#448,#449,#450,#451,#452,#453,#454,#455,#456,#457,#458,#459,
#460,#461,#462,#463,#464,#465,#466,#467,#468,#469,#470,#471,#472,#473,#474,
#475,#476,#477,#478,#479,#480,#481,#482,#483,#484,#485,#486,#487,#488,#489,
#490,#491,#492,#493,#494,#495,#496,#497,#498,#499,#500,#501,#502,#503),
 .UNSPECIFIED.,.F.,.F.,(4,2,2,2,2,2,2,2,2,2,2,2,2,2,2,2,2,2,2,2,2,2,2,2,
2,2,2,2,2,2,2,2,4),(0.,0.03125,0.0625,0.09375,0.125,0.15625,0.1875,0.21875,
0.25,0.28125,0.3125,0.34375,0.375,0.40625,0.4375,0.46875,0.5,0.53125,0.5625,
0.59375,0.625,0.65625,0.6875,0.71875,0.75,0.78125,0.8125,0.84375,0.875,
0.90625,0.9375,0.96875,1.),.UNSPECIFIED.);
#267=B_SPLINE_CURVE_WITH_KNOTS('',3,(#544,#545,#546,#547,#548,#549),
 .UNSPECIFIED.,.F.,.F.,(4,2,4),(0.,0.5,1.),.UNSPECIFIED.);
#268=B_SPLINE_CURVE_WITH_KNOTS('',3,(#551,#552,#553,#554,#555,#556),
 .UNSPECIFIED.,.F.,.F.,(4,2,4),(0.,0.5,1.),.UNSPECIFIED.);
#269=B_SPLINE_CURVE_WITH_KNOTS('',3,(#560,#561,#562,#563,#564,#565,#566,
#567,#568,#569,#570,#571,#572,#573,#574,#575,#576,#577,#578,#579,#580,#581,
#582,#583,#584,#585,#586,#587,#588,#589,#590,#591,#592,#593,#594,#595,#596,
#597,#598,#599,#600,#601,#602,#603,#604,#605,#606,#607,#608,#609,#610,#611,
#612,#613,#614,#615,#616,#617,#618,#619,#620,#621,#622,#623,#624,#625),
 .UNSPECIFIED.,.F.,.F.,(4,2,2,2,2,2,2,2,2,2,2,2,2,2,2,2,2,2,2,2,2,2,2,2,
2,2,2,2,2,2,2,2,4),(0.,0.03125,0.0625,0.09375,0.125,0.15625,0.1875,0.21875,
0.25,0.28125,0.3125,0.34375,0.375,0.40625,0.4375,0.46875,0.5,0.53125,0.5625,
0.59375,0.625,0.65625,0.6875,0.71875,0.75,0.78125,0.8125,0.84375,0.875,
0.90625,0.9375,0.96875,1.),.UNSPECIFIED.);
#270=B_SPLINE_CURVE_WITH_KNOTS('',3,(#629,#630,#631,#632,#633,#634,#635,
#636,#637,#638,#639,#640,#641,#642,#643,#644,#645,#646,#647,#648,#649,#650,
#651,#652,#653,#654,#655,#656,#657,#658,#659,#660,#661,#662,#663,#664,#665,
#666,#667,#668,#669,#670,#671,#672,#673,#674,#675,#676,#677,#678,#679,#680,
#681,#682,#683,#684,#685,#686,#687,#688,#689,#690,#691,#692,#693,#694),
 .UNSPECIFIED.,.F.,.F.,(4,2,2,2,2,2,2,2,2,2,2,2,2,2,2,2,2,2,2,2,2,2,2,2,
2,2,2,2,2,2,2,2,4),(0.,0.03125,0.0625,0.0937500000000001,0.125,0.15625,
0.1875,0.21875,0.25,0.28125,0.3125,0.34375,0.375,0.40625,0.4375,0.46875,
0.5,0.53125,0.5625,0.59375,0.625,0.65625,0.6875,0.71875,0.75,0.78125,0.8125,
0.84375,0.875,0.90625,0.9375,0.96875,1.),.UNSPECIFIED.);
#271=B_SPLINE_CURVE_WITH_KNOTS('',1,(#696,#697),.UNSPECIFIED.,.F.,.F.,(2,
2),(0.,1.),.UNSPECIFIED.);
#272=B_SPLINE_CURVE_WITH_KNOTS('',1,(#814,#815),.UNSPECIFIED.,.F.,.F.,(2,
2),(0.,1.),.UNSPECIFIED.);
#273=AXIS2_PLACEMENT_3D('',#373,#305,#306);
#274=AXIS2_PLACEMENT_3D('',#505,#308,#309);
#275=AXIS2_PLACEMENT_3D('',#506,#310,#311);
#276=AXIS2_PLACEMENT_3D('',#511,#313,#314);
#277=AXIS2_PLACEMENT_3D('',#515,#316,#317);
#278=AXIS2_PLACEMENT_3D('',#516,#318,#319);
#279=AXIS2_PLACEMENT_3D('',#517,#320,#321);
#280=AXIS2_PLACEMENT_3D('',#519,#322,#323);
#281=AXIS2_PLACEMENT_3D('',#521,#324,#325);
#282=AXIS2_PLACEMENT_3D('',#522,#326,#327);
#283=AXIS2_PLACEMENT_3D('',#524,#328,#329);
#284=AXIS2_PLACEMENT_3D('',#526,#330,#331);
#285=AXIS2_PLACEMENT_3D('',#527,#332,#333);
#286=AXIS2_PLACEMENT_3D('',#529,#334,#335);
#287=AXIS2_PLACEMENT_3D('',#531,#336,#337);
#288=AXIS2_PLACEMENT_3D('',#532,#338,#339);
#289=AXIS2_PLACEMENT_3D('',#534,#340,#341);
#290=AXIS2_PLACEMENT_3D('',#536,#342,#343);
#291=AXIS2_PLACEMENT_3D('',#537,#344,#345);
#292=AXIS2_PLACEMENT_3D('',#539,#346,#347);
#293=AXIS2_PLACEMENT_3D('',#540,#348,#349);
#294=AXIS2_PLACEMENT_3D('',#541,#350,#351);
#295=AXIS2_PLACEMENT_3D('',#543,#352,#353);
#296=AXIS2_PLACEMENT_3D('',#558,#354,#355);
#297=AXIS2_PLACEMENT_3D('',#559,#356,#357);
#298=AXIS2_PLACEMENT_3D('',#695,#359,#360);
#299=AXIS2_PLACEMENT_3D('',#932,#361,#362);
#300=AXIS2_PLACEMENT_3D('',#933,#363,#364);
#301=AXIS2_PLACEMENT_3D('',#934,#365,#366);
#302=AXIS2_PLACEMENT_3D('',#935,#367,#368);
#303=AXIS2_PLACEMENT_3D('',#936,#369,#370);
#304=AXIS2_PLACEMENT_3D('',#937,#371,#372);
#305=DIRECTION('',(0.,0.,1.));
#306=DIRECTION('',(1.,0.,0.));
#307=DIRECTION('',(0.,0.,1.));
#308=DIRECTION('',(0.,0.,1.));
#309=DIRECTION('',(1.,0.,0.));
#310=DIRECTION('',(0.,0.,1.));
#311=DIRECTION('',(1.,0.,0.));
#312=DIRECTION('',(0.,0.,1.));
#313=DIRECTION('',(0.,0.,1.));
#314=DIRECTION('',(1.,0.,0.));
#315=DIRECTION('',(0.,0.,-1.));
#316=DIRECTION('',(0.,0.,1.));
#317=DIRECTION('',(1.,0.,0.));
#318=DIRECTION('',(0.,0.,-1.));
#319=DIRECTION('',(-1.,0.,0.));
#320=DIRECTION('',(0.,0.,1.));
#321=DIRECTION('',(-1.83697019872103E-16,-1.,0.));
#322=DIRECTION('',(0.,0.,1.));
#323=DIRECTION('',(-1.83697019872103E-16,-1.,0.));
#324=DIRECTION('',(0.,0.,-1.));
#325=DIRECTION('',(-1.,0.,0.));
#326=DIRECTION('',(0.,0.,1.));
#327=DIRECTION('',(-1.,1.22464679914735E-16,0.));
#328=DIRECTION('',(0.,0.,1.));
#329=DIRECTION('',(-1.,1.22464679914735E-16,0.));
#330=DIRECTION('',(0.,0.,-1.));
#331=DIRECTION('',(-1.,0.,0.));
#332=DIRECTION('',(0.,0.,1.));
#333=DIRECTION('',(1.,0.,0.));
#334=DIRECTION('',(0.,0.,1.));
#335=DIRECTION('',(1.,0.,0.));
#336=DIRECTION('',(0.,0.,-1.));
#337=DIRECTION('',(-1.,0.,0.));
#338=DIRECTION('',(0.,0.,1.));
#339=DIRECTION('',(1.,0.,0.));
#340=DIRECTION('',(0.,0.,1.));
#341=DIRECTION('',(1.,0.,0.));
#342=DIRECTION('',(0.,0.,-1.));
#343=DIRECTION('',(-1.,0.,0.));
#344=DIRECTION('',(0.,0.,1.));
#345=DIRECTION('',(1.,0.,0.));
#346=DIRECTION('',(0.,0.,1.));
#347=DIRECTION('',(1.,0.,0.));
#348=DIRECTION('',(0.,0.,1.));
#349=DIRECTION('',(1.,0.,0.));
#350=DIRECTION('',(0.,0.,1.));
#351=DIRECTION('',(1.,0.,0.));
#352=DIRECTION('',(0.,0.,-1.));
#353=DIRECTION('',(-1.,0.,0.));
#354=DIRECTION('',(0.,0.,1.));
#355=DIRECTION('',(1.,0.,0.));
#356=DIRECTION('',(0.,0.,1.));
#357=DIRECTION('',(1.,0.,0.));
#358=DIRECTION('',(0.,0.,-1.));
#359=DIRECTION('',(0.,0.,-1.));
#360=DIRECTION('',(-1.,0.,0.));
#361=DIRECTION('',(0.466090214610181,-0.884737199310979,0.));
#362=DIRECTION('',(-1.94289029309402E-16,-5.55111512312578E-17,-1.));
#363=DIRECTION('',(0.,0.,1.));
#364=DIRECTION('',(1.,0.,0.));
#365=DIRECTION('',(0.,0.,1.));
#366=DIRECTION('',(1.,0.,0.));
#367=DIRECTION('',(0.,0.,1.));
#368=DIRECTION('',(1.,0.,0.));
#369=DIRECTION('',(0.,0.,1.));
#370=DIRECTION('',(1.,0.,0.));
#371=DIRECTION('',(0.,0.,1.));
#372=DIRECTION('',(1.,0.,0.));
#373=CARTESIAN_POINT('',(0.,0.,0.));
#374=CARTESIAN_POINT('',(9.73210919242077,5.12699236071201,247.169735099543));
#375=CARTESIAN_POINT('',(7.96377382078035,8.48366459948916,247.333341404768));
#376=CARTESIAN_POINT('',(4.449515538625,10.7489164205437,247.493818647619));
#377=CARTESIAN_POINT('',(-3.10937081102903,11.2102277364834,247.824651108669));
#378=CARTESIAN_POINT('',(-6.88095446628062,9.37756106390542,247.984565638414));
#379=CARTESIAN_POINT('',(-11.1916116206115,3.16765137092072,248.312076984251));
#380=CARTESIAN_POINT('',(-11.584559136517,-1.01830140657727,248.474838474944));
#381=CARTESIAN_POINT('',(-9.28618749873076,-6.19083667802188,248.719665394404));
#382=CARTESIAN_POINT('',(-8.07533205909694,-7.70013238651722,248.801340843222));
#383=CARTESIAN_POINT('',(-5.07430431793331,-9.9375279785052,248.963084034007));
#384=CARTESIAN_POINT('',(-3.26983581903698,-10.6703811967869,249.044921402151));
#385=CARTESIAN_POINT('',(0.467149668591016,-11.1503646736479,249.209355889722));
#386=CARTESIAN_POINT('',(2.38673543539606,-10.9000144911102,249.290458294756));
#387=CARTESIAN_POINT('',(5.85901590161632,-9.49624950228224,249.45327209592));
#388=CARTESIAN_POINT('',(7.42348821920556,-8.33253490806074,249.535399439383));
#389=CARTESIAN_POINT('',(9.77073953939528,-5.39184237418272,249.697688501041));
#390=CARTESIAN_POINT('',(10.5545664084953,-3.62115834960346,249.779233029534));
#391=CARTESIAN_POINT('',(11.1582080907301,0.0777950397253356,249.942412195259));
#392=CARTESIAN_POINT('',(10.9748913105295,2.02045834421964,250.024096579924));
#393=CARTESIAN_POINT('',(9.68192725046339,5.54894367563755,250.188059609196));
#394=CARTESIAN_POINT('',(8.57621696107869,7.13905703257701,250.269524166843));
#395=CARTESIAN_POINT('',(5.72596891560948,9.57762562722907,250.431241952441));
#396=CARTESIAN_POINT('',(3.96951223991793,10.4290884046043,250.513591740194));
#397=CARTESIAN_POINT('',(0.286543256258668,11.1553039105262,250.676566914755));
#398=CARTESIAN_POINT('',(-1.64670958867991,11.0368768092665,250.757676204593));
#399=CARTESIAN_POINT('',(-5.2140908478174,9.86597987039714,250.921721909485));
#400=CARTESIAN_POINT('',(-6.85323108089252,8.80622321592111,251.003811712689));
#401=CARTESIAN_POINT('',(-9.38380008479234,6.03826461372725,251.165723810263));
#402=CARTESIAN_POINT('',(-10.2871475048826,4.32514455519209,251.247466748553));
#403=CARTESIAN_POINT('',(-11.1396184201477,0.664214320851969,251.410175621865));
#404=CARTESIAN_POINT('',(-11.0840712276937,-1.28604650480724,251.492056491123));
#405=CARTESIAN_POINT('',(-10.0332887509993,-4.88299779154013,251.655700314648));
#406=CARTESIAN_POINT('',(-9.03925216983608,-6.54469727605005,251.737013322547));
#407=CARTESIAN_POINT('',(-6.34965668014633,-9.17730909740411,251.90011186606));
#408=CARTESIAN_POINT('',(-4.65500283356758,-10.1408574814205,251.982287354912));
#409=CARTESIAN_POINT('',(-1.03765934164314,-11.1098742085455,252.144009722982));
#410=CARTESIAN_POINT('',(0.89796734104689,-11.1240567160479,252.225416894719));
#411=CARTESIAN_POINT('',(4.54941781763098,-10.1908675140078,252.389691560179));
#412=CARTESIAN_POINT('',(6.25028658657551,-9.2431688040448,252.471273486586));
#413=CARTESIAN_POINT('',(8.95525525543492,-6.65624933910968,252.634296501851));
#414=CARTESIAN_POINT('',(9.97275457440447,-5.01061506938705,252.715648827398));
#415=CARTESIAN_POINT('',(11.0726206325067,-1.39970336266673,252.878436535481));
#416=CARTESIAN_POINT('',(11.1447240453739,0.542864300157241,252.960385547289));
#417=CARTESIAN_POINT('',(10.3387326170554,4.19644892366806,253.123036327258));
#418=CARTESIAN_POINT('',(9.4619552115323,5.91991394789993,253.203982055862));
#419=CARTESIAN_POINT('',(6.942582048424,8.73925237514538,253.36912509173));
#420=CARTESIAN_POINT('',(5.32256237471599,9.80654227795057,253.450627592408));
#421=CARTESIAN_POINT('',(1.78244553063692,11.0145735102312,253.611976174019));
#422=CARTESIAN_POINT('',(-0.14425589544287,11.1609324729622,253.69353176778));
#423=CARTESIAN_POINT('',(-3.86869850215265,10.4699758991525,253.857715597423));
#424=CARTESIAN_POINT('',(-5.61731382956546,9.64068400620326,253.938823205211));
#425=CARTESIAN_POINT('',(-8.48755195529962,7.24282158922753,254.102271644581));
#426=CARTESIAN_POINT('',(-9.61339090010522,5.67259174531497,254.183400191072));
#427=CARTESIAN_POINT('',(-10.9578116107197,2.12648687069038,254.347352118153));
#428=CARTESIAN_POINT('',(-11.1559476210087,0.205366614261825,254.428866705794));
#429=CARTESIAN_POINT('',(-10.5970358678532,-3.49287468775736,254.590538722756));
#430=CARTESIAN_POINT('',(-9.83662360165756,-5.2747016970843,254.671889309251));
#431=CARTESIAN_POINT('',(-7.50821187195173,-8.25883747023719,254.837125829713));
#432=CARTESIAN_POINT('',(-5.98048863208504,-9.42508482461092,254.917622602211));
#433=CARTESIAN_POINT('',(-4.2293435361159,-10.1544400758247,255.));
#434=CARTESIAN_POINT('',(9.73210919242076,5.126992360712,247.169735099543));
#435=CARTESIAN_POINT('',(-4.22934353614416,-10.1544400758105,255.));
#436=CARTESIAN_POINT('',(9.73210919242076,5.126992360712,5.));
#437=CARTESIAN_POINT('',(9.73210919242076,5.126992360712,245.293285149465));
#438=CARTESIAN_POINT('',(-4.22934353611689,10.1544400758243,255.));
#439=CARTESIAN_POINT('',(-2.05835264363708,11.0586618969701,254.897872209014));
#440=CARTESIAN_POINT('',(0.348507085767879,11.2402397979784,254.798970665726));
#441=CARTESIAN_POINT('',(4.88930249312351,10.1271500944552,254.59533442721));
#442=CARTESIAN_POINT('',(6.95671221220573,8.83296978855696,254.494002404371));
#443=CARTESIAN_POINT('',(9.93825324659263,5.25816721829987,254.293321051894));
#444=CARTESIAN_POINT('',(10.8417193474354,2.97397302626712,254.191588844722));
#445=CARTESIAN_POINT('',(11.1189998388426,-1.65989052450347,253.988800791392));
#446=CARTESIAN_POINT('',(10.489145730783,-4.04390543220368,253.887607130137));
#447=CARTESIAN_POINT('',(7.96467123991715,-7.93343313744099,253.68656186378));
#448=CARTESIAN_POINT('',(6.04221165559002,-9.48008431370072,253.583557493957));
#449=CARTESIAN_POINT('',(1.69985771484964,-11.1126416317223,253.383056153859));
#450=CARTESIAN_POINT('',(-0.759271793192647,-11.2172071538219,253.281621939935));
#451=CARTESIAN_POINT('',(-5.23210760027327,-9.95124515057559,253.078692950342));
#452=CARTESIAN_POINT('',(-7.26252689982915,-8.58474850457197,252.977504125851));
#453=CARTESIAN_POINT('',(-10.1218946875553,-4.89790279523113,252.776137412711));
#454=CARTESIAN_POINT('',(-10.9391855493197,-2.61426296636543,252.67545374593));
#455=CARTESIAN_POINT('',(-11.0541995302817,2.07480699933149,252.47110314139));
#456=CARTESIAN_POINT('',(-10.3564266597002,4.3857431344972,252.372387984267));
#457=CARTESIAN_POINT('',(-7.67004425774642,8.22561469336783,252.168577447793));
#458=CARTESIAN_POINT('',(-5.72333845447669,9.6787675977075,252.0675028622));
#459=CARTESIAN_POINT('',(-1.30499997918248,11.1683535191745,251.86640138181));
#460=CARTESIAN_POINT('',(1.14495826080446,11.1842247713939,251.765165929176));
#461=CARTESIAN_POINT('',(5.56986903596985,9.76598034393835,251.562141034195));
#462=CARTESIAN_POINT('',(7.56213540698973,8.31820860746019,251.460759452744));
#463=CARTESIAN_POINT('',(10.2766900084327,4.55720625180085,251.260112084651));
#464=CARTESIAN_POINT('',(11.0232948969047,2.2052339086456,251.15711844458));
#465=CARTESIAN_POINT('',(10.9755384494332,-2.43179824841162,250.956145174811));
#466=CARTESIAN_POINT('',(10.1823336492659,-4.76558537340183,250.85482607255));
#467=CARTESIAN_POINT('',(7.3877952645877,-8.47414913868583,250.652314084528));
#468=CARTESIAN_POINT('',(5.37365398296063,-9.87658618168828,250.550552324366));
#469=CARTESIAN_POINT('',(0.910168734599485,-11.2069043275769,250.349664413234));
#470=CARTESIAN_POINT('',(-1.52479242038215,-11.1421752017946,250.248762546273));
#471=CARTESIAN_POINT('',(-5.92711786846638,-9.55731834386863,250.044536353025));
#472=CARTESIAN_POINT('',(-7.83140264376912,-8.07396041495594,249.945713966259));
#473=CARTESIAN_POINT('',(-10.4465211930754,-4.17011979608934,249.741840252194));
#474=CARTESIAN_POINT('',(-11.0936640485223,-1.84038043511952,249.64104152811));
#475=CARTESIAN_POINT('',(-10.8842150459174,2.8267021423685,249.439351865156));
#476=CARTESIAN_POINT('',(-10.0153971499983,5.10913200569137,249.338697226125));
#477=CARTESIAN_POINT('',(-7.08950036164898,8.72641934277475,249.135441949221));
#478=CARTESIAN_POINT('',(-5.02283892271906,10.0576238431828,249.034028053255));
#479=CARTESIAN_POINT('',(-0.532230580623414,11.2294896956001,248.833527523128));
#480=CARTESIAN_POINT('',(1.92940612665697,11.0748508950749,248.730881957361));
#481=CARTESIAN_POINT('',(6.23506368908189,9.35408526488915,248.529196975163));
#482=CARTESIAN_POINT('',(8.125543584839,7.76903620836042,248.427960469115));
#483=CARTESIAN_POINT('',(10.5709903623269,3.82577376690316,248.226021613023));
#484=CARTESIAN_POINT('',(11.1510912414856,1.43542305195495,248.123621134255));
#485=CARTESIAN_POINT('',(10.7780039867172,-3.20029768558002,247.923123139033));
#486=CARTESIAN_POINT('',(9.83321402545404,-5.45502762189526,247.822022342129));
#487=CARTESIAN_POINT('',(6.77014351227788,-8.97856231527007,247.618007316762));
#488=CARTESIAN_POINT('',(4.69231242962991,-10.2221718977806,247.518726537225));
#489=CARTESIAN_POINT('',(0.110631576258553,-11.2471487453208,247.315351230523));
#490=CARTESIAN_POINT('',(-2.29158711682113,-11.0104313670664,247.214786472006));
#491=CARTESIAN_POINT('',(-6.57661638459038,-9.1229977163648,247.012180985084));
#492=CARTESIAN_POINT('',(-8.38314289227621,-7.49340800397774,246.91214282145));
#493=CARTESIAN_POINT('',(-10.7012757442688,-3.45122379910693,246.708845127211));
#494=CARTESIAN_POINT('',(-11.1934901949675,-1.04873037599164,246.607263287409));
#495=CARTESIAN_POINT('',(-10.6620448201135,3.56579001067797,246.406891882426));
#496=CARTESIAN_POINT('',(-9.62850039618353,5.80248769344301,246.304573237088));
#497=CARTESIAN_POINT('',(-6.46692689717063,9.19541950204095,246.102302549512));
#498=CARTESIAN_POINT('',(-4.3047396061571,10.3849105021321,246.001145997126));
#499=CARTESIAN_POINT('',(0.253692709421015,11.2388962635705,245.799628010691));
#500=CARTESIAN_POINT('',(2.69600168383422,10.9144946376498,245.696895916845));
#501=CARTESIAN_POINT('',(6.87829953761318,8.89289681405301,245.496472604508));
#502=CARTESIAN_POINT('',(8.63598519959691,7.20766610392635,245.396030681509));
#503=CARTESIAN_POINT('',(9.73210919242077,5.12699236071198,245.293285149465));
#504=CARTESIAN_POINT('',(-4.22934353611692,10.1544400758243,255.));
#505=CARTESIAN_POINT('',(0.,0.,255.));
#506=CARTESIAN_POINT('',(0.,0.,0.));
#507=CARTESIAN_POINT('',(11.,0.,0.));
#508=CARTESIAN_POINT('',(10.9998158655492,0.0636468696120574,239.5));
#509=CARTESIAN_POINT('',(10.9998158655492,0.0636468696120525,237.));
#510=CARTESIAN_POINT('',(10.9998158655492,0.0636468696120573,242.));
#511=CARTESIAN_POINT('',(0.,0.,237.));
#512=CARTESIAN_POINT('',(-10.9998158655492,0.0636468696120614,237.));
#513=CARTESIAN_POINT('',(-10.9998158655492,0.0636468696120574,239.5));
#514=CARTESIAN_POINT('',(-10.9998158655492,0.0636468696120573,242.));
#515=CARTESIAN_POINT('',(0.,0.,242.));
#516=CARTESIAN_POINT('',(0.,0.,5.));
#517=CARTESIAN_POINT('',(-3.46944695195361E-15,28.5,5.));
#518=CARTESIAN_POINT('',(-3.74499248176177E-15,27.,5.));
#519=CARTESIAN_POINT('',(-3.46944695195361E-15,28.5,0.));
#520=CARTESIAN_POINT('',(-3.74499248176177E-15,27.,0.));
#521=CARTESIAN_POINT('',(-3.46944695195361E-15,28.5,5.));
#522=CARTESIAN_POINT('',(28.5,7.03499801228311E-15,5.));
#523=CARTESIAN_POINT('',(27.,7.21869503215522E-15,5.));
#524=CARTESIAN_POINT('',(28.5,7.03499801228311E-15,0.));
#525=CARTESIAN_POINT('',(27.,7.21869503215522E-15,0.));
#526=CARTESIAN_POINT('',(28.5,7.03499801228311E-15,5.));
#527=CARTESIAN_POINT('',(0.,0.,5.));
#528=CARTESIAN_POINT('',(32.,0.,5.));
#529=CARTESIAN_POINT('',(0.,0.,0.));
#530=CARTESIAN_POINT('',(32.,0.,0.));
#531=CARTESIAN_POINT('',(0.,0.,5.));
#532=CARTESIAN_POINT('',(-28.5,0.,5.));
#533=CARTESIAN_POINT('',(-27.,0.,5.));
#534=CARTESIAN_POINT('',(-28.5,0.,0.));
#535=CARTESIAN_POINT('',(-27.,0.,0.));
#536=CARTESIAN_POINT('',(-28.5,0.,5.));
#537=CARTESIAN_POINT('',(0.,0.,5.));
#538=CARTESIAN_POINT('',(13.,0.,5.));
#539=CARTESIAN_POINT('',(14.25,3.51749900614156E-15,5.));
#540=CARTESIAN_POINT('',(14.25,3.51749900614156E-15,0.));
#541=CARTESIAN_POINT('',(0.,0.,255.));
#542=CARTESIAN_POINT('',(13.,0.,255.));
#543=CARTESIAN_POINT('',(0.,0.,255.));
#544=CARTESIAN_POINT('',(-4.22934353614421,-10.1544400758106,255.));
#545=CARTESIAN_POINT('',(-2.16111574226715,-11.2043138942356,255.));
#546=CARTESIAN_POINT('',(0.254190630142615,-11.5731410687099,255.));
#547=CARTESIAN_POINT('',(4.82827147918291,-10.8783342785226,255.));
#548=CARTESIAN_POINT('',(7.01155850960025,-9.82170033153744,255.));
#549=CARTESIAN_POINT('',(8.72915205522697,-8.23419118048196,255.));
#550=CARTESIAN_POINT('',(8.72915205522696,-8.23419118048195,255.));
#551=CARTESIAN_POINT('',(8.72915205522685,8.23419118048207,255.));
#552=CARTESIAN_POINT('',(7.00968024164131,9.82343634619635,255.));
#553=CARTESIAN_POINT('',(4.84609193376269,10.8738836963723,255.));
#554=CARTESIAN_POINT('',(0.253291928919269,11.5750148099177,255.));
#555=CARTESIAN_POINT('',(-2.1662416997923,11.2017118556054,255.));
#556=CARTESIAN_POINT('',(-4.22934353611686,10.1544400758242,255.));
#557=CARTESIAN_POINT('',(8.72915205522685,8.23419118048207,255.));
#558=CARTESIAN_POINT('',(0.,0.,255.));
#559=CARTESIAN_POINT('',(0.,0.,255.));
#560=CARTESIAN_POINT('',(10.6168463917318,5.59308257532216,245.870656290176));
#561=CARTESIAN_POINT('',(9.4922202591593,7.72785937091798,245.967345664963));
#562=CARTESIAN_POINT('',(7.74021212194625,9.4796631021382,246.061647051586));
#563=CARTESIAN_POINT('',(3.49295804811194,11.7292003264031,246.251524890508));
#564=CARTESIAN_POINT('',(1.06389607366925,12.1903089534456,246.345735220512));
#565=CARTESIAN_POINT('',(-3.69697403622583,11.6648141953268,246.537629794712));
#566=CARTESIAN_POINT('',(-5.99055589459739,10.6667728851482,246.632883662476));
#567=CARTESIAN_POINT('',(-9.60873111956544,7.57225791831753,246.8209199805));
#568=CARTESIAN_POINT('',(-10.9554557154127,5.44466148914121,246.917288791023));
#569=CARTESIAN_POINT('',(-12.2042179955344,0.850536172764502,247.107786173561));
#570=CARTESIAN_POINT('',(-12.1249075004086,-1.64975091227729,247.203005844678));
#571=CARTESIAN_POINT('',(-10.5628561785414,-6.17746949142405,247.392304706463));
#572=CARTESIAN_POINT('',(-9.10681436975134,-8.17566349353412,247.486877815312));
#573=CARTESIAN_POINT('',(-5.25607436331483,-11.0521139974179,247.679048613409));
#574=CARTESIAN_POINT('',(-2.91102647497736,-11.8831120781646,247.773592314254));
#575=CARTESIAN_POINT('',(1.85189755575224,-12.093506656187,247.962181344192));
#576=CARTESIAN_POINT('',(4.28635038726553,-11.4580125866833,248.058750959533));
#577=CARTESIAN_POINT('',(8.33321720967544,-8.95635768688224,248.248628120661));
#578=CARTESIAN_POINT('',(9.98765565848015,-7.06756361779947,248.344061946676));
#579=CARTESIAN_POINT('',(11.9325933095938,-2.70498390972142,248.533357958156));
#580=CARTESIAN_POINT('',(12.2375029272881,-0.251698498554855,248.628084193846));
#581=CARTESIAN_POINT('',(11.384028194477,4.49708039698109,248.820418813826));
#582=CARTESIAN_POINT('',(10.2444457045468,6.69009895210686,248.914056710122));
#583=CARTESIAN_POINT('',(6.90153765736766,10.1032108632021,249.103820166703));
#584=CARTESIAN_POINT('',(4.69354455912897,11.2973401289677,249.200150164385));
#585=CARTESIAN_POINT('',(0.0287155341217318,12.2334962270077,249.389430305059));
#586=CARTESIAN_POINT('',(-2.47503323527253,11.9814362177262,249.48483505737));
#587=CARTESIAN_POINT('',(-6.86597243017394,10.1261555361962,249.674764954837));
#588=CARTESIAN_POINT('',(-8.77586554977619,8.5297114867609,249.770028467413));
#589=CARTESIAN_POINT('',(-11.3832266503352,4.49376737517944,249.960938753026));
#590=CARTESIAN_POINT('',(-12.0528200884163,2.11365650537806,250.054423133088));
#591=CARTESIAN_POINT('',(-11.9405941571412,-2.67586006377461,250.245787719421));
#592=CARTESIAN_POINT('',(-11.1446127623919,-5.04630113644467,250.341435509863));
#593=CARTESIAN_POINT('',(-8.37413845224089,-8.9185959638304,250.53025208691));
#594=CARTESIAN_POINT('',(-6.37079344422904,-10.4440686771563,250.625715347927));
#595=CARTESIAN_POINT('',(-1.90205857902467,-12.0850218371398,250.816190433855));
#596=CARTESIAN_POINT('',(0.596485584838575,-12.2219809680646,250.911770210444));
#597=CARTESIAN_POINT('',(5.2412432169079,-11.057214087548,251.101461915989));
#598=CARTESIAN_POINT('',(7.35792985386201,-9.77954093778234,251.195079470168));
#599=CARTESIAN_POINT('',(10.5571304956365,-6.19076315055065,251.38768708693));
#600=CARTESIAN_POINT('',(11.587093848194,-3.92721913117465,251.482565363276));
#601=CARTESIAN_POINT('',(12.2083310575288,0.800279164353355,251.671162334926));
#602=CARTESIAN_POINT('',(11.7855109063211,3.28028689748437,251.766812607529));
#603=CARTESIAN_POINT('',(9.64296046327915,7.52807166254788,251.957465585732));
#604=CARTESIAN_POINT('',(7.90378634211296,9.33981239886021,252.053276139692));
#605=CARTESIAN_POINT('',(3.72622878965573,11.6540616608466,252.24206016214));
#606=CARTESIAN_POINT('',(1.30713780943694,12.1699443487906,252.336068678364));
#607=CARTESIAN_POINT('',(-3.4960994499546,11.7300231603158,252.529407469149));
#608=CARTESIAN_POINT('',(-5.77958993136714,10.7844544054414,252.623507255556));
#609=CARTESIAN_POINT('',(-9.46943280952383,7.74841653912062,252.812239534815));
#610=CARTESIAN_POINT('',(-10.8495022815054,5.65223350977789,252.908044170237));
#611=CARTESIAN_POINT('',(-12.185268325071,1.08566995512887,253.098614916838));
#612=CARTESIAN_POINT('',(-12.1504139808402,-1.43070640967165,253.194523625791));
#613=CARTESIAN_POINT('',(-10.6816304969152,-5.96508597287947,253.382812455648));
#614=CARTESIAN_POINT('',(-9.25548506501357,-8.00654090487769,253.477924594432));
#615=CARTESIAN_POINT('',(-5.46090582322922,-10.9520413001408,253.670224764373));
#616=CARTESIAN_POINT('',(-3.14766066485243,-11.8250981314075,253.764237794893));
#617=CARTESIAN_POINT('',(1.63476617511346,-12.1271700339024,253.953571889758));
#618=CARTESIAN_POINT('',(4.06429963777846,-11.5390522612888,254.049335820817));
#619=CARTESIAN_POINT('',(8.16176242133504,-9.11339085149339,254.23967279601));
#620=CARTESIAN_POINT('',(9.8545515156119,-7.24933566598858,254.335500294288));
#621=CARTESIAN_POINT('',(11.8754161314091,-2.93931027247752,254.523804651943));
#622=CARTESIAN_POINT('',(12.2277307061013,-0.461201694978169,254.619745744441));
#623=CARTESIAN_POINT('',(11.4687906339749,4.26578792469023,254.810917587019));
#624=CARTESIAN_POINT('',(10.3791117181006,6.48505171231484,254.904742601311));
#625=CARTESIAN_POINT('',(8.72915205522686,8.23419118048207,255.));
#626=CARTESIAN_POINT('',(10.6168463917317,5.59308257532218,245.870656290176));
#627=CARTESIAN_POINT('',(10.6168463917317,5.59308257532218,256.5));
#628=CARTESIAN_POINT('',(10.6168463917317,5.59308257532219,246.592363958833));
#629=CARTESIAN_POINT('',(8.72915205522697,-8.23419118048194,255.));
#630=CARTESIAN_POINT('',(7.21557211419689,-9.83875308138983,254.912616234726));
#631=CARTESIAN_POINT('',(5.24597446484845,-11.0126581164051,254.824431285665));
#632=CARTESIAN_POINT('',(1.01648629658103,-12.1558892099068,254.649136620906));
#633=CARTESIAN_POINT('',(-1.27109905605507,-12.1353863585007,254.56135901888));
#634=CARTESIAN_POINT('',(-5.51061790603796,-10.886523098494,254.386699548154));
#635=CARTESIAN_POINT('',(-7.43210073512777,-9.67436549597778,254.299767263897));
#636=CARTESIAN_POINT('',(-10.3781858633461,-6.41270046647233,254.123749979435));
#637=CARTESIAN_POINT('',(-11.3968526238087,-4.34971001256536,254.035552840824));
#638=CARTESIAN_POINT('',(-12.1986382805719,-0.038092282581408,253.861323919425));
#639=CARTESIAN_POINT('',(-11.9999229973998,2.22224264889966,253.774264050775));
#640=CARTESIAN_POINT('',(-10.4088148433611,6.3712705083632,253.598155135179));
#641=CARTESIAN_POINT('',(-9.0448977138091,8.1851834754669,253.511002319666));
#642=CARTESIAN_POINT('',(-5.56600603638684,10.8548136779602,253.335514859973));
#643=CARTESIAN_POINT('',(-3.42934692848006,11.7077151038006,253.247218222207));
#644=CARTESIAN_POINT('',(0.942911414214926,12.1631382205655,253.073561887733));
#645=CARTESIAN_POINT('',(3.18222052902865,11.779403799667,252.986541620303));
#646=CARTESIAN_POINT('',(7.16869341270752,9.8737387106194,252.809598131177));
#647=CARTESIAN_POINT('',(8.88399967643692,8.35903328501335,252.721950778508));
#648=CARTESIAN_POINT('',(11.2644732668242,4.68086848051666,252.547859080511));
#649=CARTESIAN_POINT('',(11.944021988544,2.49155642914098,252.459920060391));
#650=CARTESIAN_POINT('',(12.0491636479602,-1.91967968346082,252.285001614838));
#651=CARTESIAN_POINT('',(11.483150671338,-4.12036445875031,252.197657276692));
#652=CARTESIAN_POINT('',(9.27461304867589,-7.92601447203532,252.021662197758));
#653=CARTESIAN_POINT('',(7.62193824456753,-9.52416486466775,251.933417358309));
#654=CARTESIAN_POINT('',(3.76308947891495,-11.6035691296709,251.76021313333));
#655=CARTESIAN_POINT('',(1.54313695337861,-12.1052516013388,251.673117750287));
#656=CARTESIAN_POINT('',(-2.88540843853093,-11.8571837352489,251.4954349602));
#657=CARTESIAN_POINT('',(-5.03031086615337,-11.113482596969,251.408498549611));
#658=CARTESIAN_POINT('',(-8.63722520161335,-8.61463079068912,251.234245770987));
#659=CARTESIAN_POINT('',(-10.1018294463696,-6.83920494675299,251.145887544001));
#660=CARTESIAN_POINT('',(-11.8691150337265,-2.81882790950378,250.971727806196));
#661=CARTESIAN_POINT('',(-12.1890501946321,-0.570235190185959,250.884509432989));
#662=CARTESIAN_POINT('',(-11.5905331748925,3.81544932361875,250.707430906119));
#663=CARTESIAN_POINT('',(-10.6733386132213,5.9059512302554,250.619854962223));
#664=CARTESIAN_POINT('',(-7.89761100242616,9.29667454206043,250.446769035108));
#665=CARTESIAN_POINT('',(-6.01682667711232,10.6137222921426,250.358756296849));
#666=CARTESIAN_POINT('',(-1.85449242599171,12.0587794572699,250.182267284489));
#667=CARTESIAN_POINT('',(0.413988333526371,12.1934886430151,250.095259353578));
#668=CARTESIAN_POINT('',(4.717795431696,11.2514424805135,249.9202717368));
#669=CARTESIAN_POINT('',(6.74148741504047,10.1662605466658,249.832194233363));
#670=CARTESIAN_POINT('',(9.89913082885956,7.12795306542946,249.658375806189));
#671=CARTESIAN_POINT('',(11.05721867555,5.16112931120326,249.570635632212));
#672=CARTESIAN_POINT('',(12.1709033345744,0.876614297362282,249.393633746247));
#673=CARTESIAN_POINT('',(12.1193225607211,-1.39398534444452,249.306503316097));
#674=CARTESIAN_POINT('',(10.8404865112695,-5.59508951405722,249.133002217936));
#675=CARTESIAN_POINT('',(9.59638921625058,-7.53147784538967,249.044831300196));
#676=CARTESIAN_POINT('',(6.31055825011707,-10.4398610669513,248.869006887803));
#677=CARTESIAN_POINT('',(4.26867758331097,-11.4322170981505,248.782059653449));
#678=CARTESIAN_POINT('',(-0.0988209011990047,-12.2027632329318,248.606021391459));
#679=CARTESIAN_POINT('',(-2.36301950211361,-11.9674340405157,248.518702606871));
#680=CARTESIAN_POINT('',(-6.44076446413087,-10.3595314468876,248.344769830618));
#681=CARTESIAN_POINT('',(-8.27093126028799,-8.968423881363,248.256429797133));
#682=CARTESIAN_POINT('',(-10.9146953056268,-5.45072079761372,248.080454612296));
#683=CARTESIAN_POINT('',(-11.7371756065732,-3.33245942127907,247.993277207094));
#684=CARTESIAN_POINT('',(-12.1549762374728,1.05977812795001,247.819017842085));
#685=CARTESIAN_POINT('',(-11.7393939304685,3.31442908312264,247.731115262881));
#686=CARTESIAN_POINT('',(-9.81111342402223,7.24850766590892,247.555589154173));
#687=CARTESIAN_POINT('',(-8.28748036303207,8.95543352095452,247.467946743897));
#688=CARTESIAN_POINT('',(-4.55418539228557,11.3199609420073,247.292514265973));
#689=CARTESIAN_POINT('',(-2.37605813459397,11.9659774114629,247.205433518033));
#690=CARTESIAN_POINT('',(2.01902945346659,12.0313668274492,247.030964334745));
#691=CARTESIAN_POINT('',(4.24173550836248,11.4374584940972,246.942483042416));
#692=CARTESIAN_POINT('',(8.01235525484226,9.1983661699946,246.76720588393));
#693=CARTESIAN_POINT('',(9.58111757363415,7.55911358186398,246.680151625571));
#694=CARTESIAN_POINT('',(10.6168463917317,5.59308257532219,246.592363958833));
#695=CARTESIAN_POINT('',(0.,0.,256.5));
#696=CARTESIAN_POINT('',(9.06999788206494,4.77818414627283,244.861197561382));
#697=CARTESIAN_POINT('',(10.9947044221545,5.79214273762697,246.117242872295));
#698=CARTESIAN_POINT('',(-10.252,0.,255.129687436878));
#699=CARTESIAN_POINT('',(-10.252,1.34198366185844,255.067187436878));
#700=CARTESIAN_POINT('',(-9.71813370047835,4.02538277969317,254.942187436878));
#701=CARTESIAN_POINT('',(-7.43800896104385,7.43800896104385,254.754687436878));
#702=CARTESIAN_POINT('',(-4.02538277969317,9.71813370047835,254.567187436878));
#703=CARTESIAN_POINT('',(-8.88178419700125E-16,10.5189331497608,254.379687436878));
#704=CARTESIAN_POINT('',(4.02538277969317,9.71813370047835,254.192187436878));
#705=CARTESIAN_POINT('',(7.43800896104385,7.43800896104385,254.004687436878));
#706=CARTESIAN_POINT('',(9.71813370047835,4.02538277969317,253.817187436878));
#707=CARTESIAN_POINT('',(10.5189331497608,8.88178419700125E-16,253.629687436878));
#708=CARTESIAN_POINT('',(9.71813370047835,-4.02538277969317,253.442187436878));
#709=CARTESIAN_POINT('',(7.43800896104385,-7.43800896104385,253.254687436878));
#710=CARTESIAN_POINT('',(4.02538277969318,-9.71813370047835,253.067187436878));
#711=CARTESIAN_POINT('',(1.77635683940025E-15,-10.5189331497608,252.879687436878));
#712=CARTESIAN_POINT('',(-4.02538277969318,-9.71813370047835,252.692187436878));
#713=CARTESIAN_POINT('',(-7.43800896104385,-7.43800896104385,252.504687436878));
#714=CARTESIAN_POINT('',(-9.71813370047835,-4.02538277969318,252.317187436878));
#715=CARTESIAN_POINT('',(-10.5189331497608,-2.22044604925031E-15,252.129687436878));
#716=CARTESIAN_POINT('',(-9.71813370047835,4.02538277969317,251.942187436878));
#717=CARTESIAN_POINT('',(-7.43800896104385,7.43800896104385,251.754687436878));
#718=CARTESIAN_POINT('',(-4.02538277969318,9.71813370047835,251.567187436878));
#719=CARTESIAN_POINT('',(-3.5527136788005E-15,10.5189331497608,251.379687436878));
#720=CARTESIAN_POINT('',(4.02538277969318,9.71813370047835,251.192187436878));
#721=CARTESIAN_POINT('',(7.43800896104383,7.43800896104386,251.004687436878));
#722=CARTESIAN_POINT('',(9.71813370047835,4.02538277969317,250.817187436878));
#723=CARTESIAN_POINT('',(10.5189331497608,3.5527136788005E-15,250.629687436878));
#724=CARTESIAN_POINT('',(9.71813370047835,-4.02538277969317,250.442187436878));
#725=CARTESIAN_POINT('',(7.43800896104384,-7.43800896104386,250.254687436878));
#726=CARTESIAN_POINT('',(4.02538277969318,-9.71813370047835,250.067187436878));
#727=CARTESIAN_POINT('',(3.99680288865056E-15,-10.5189331497608,249.879687436878));
#728=CARTESIAN_POINT('',(-4.02538277969317,-9.71813370047835,249.692187436878));
#729=CARTESIAN_POINT('',(-7.43800896104383,-7.43800896104386,249.504687436878));
#730=CARTESIAN_POINT('',(-9.71813370047835,-4.02538277969318,249.317187436878));
#731=CARTESIAN_POINT('',(-10.5189331497608,-5.77315972805081E-15,249.129687436878));
#732=CARTESIAN_POINT('',(-9.71813370047835,4.02538277969317,248.942187436878));
#733=CARTESIAN_POINT('',(-7.43800896104384,7.43800896104385,248.754687436878));
#734=CARTESIAN_POINT('',(-4.02538277969318,9.71813370047835,248.567187436878));
#735=CARTESIAN_POINT('',(-4.88498130835069E-15,10.5189331497608,248.379687436878));
#736=CARTESIAN_POINT('',(4.02538277969317,9.71813370047835,248.192187436878));
#737=CARTESIAN_POINT('',(7.43800896104383,7.43800896104386,248.004687436878));
#738=CARTESIAN_POINT('',(9.71813370047835,4.02538277969318,247.817187436878));
#739=CARTESIAN_POINT('',(10.5189331497608,-2.22044604925031E-15,247.629687436878));
#740=CARTESIAN_POINT('',(9.71813370047837,-4.02538277969313,247.442187436878));
#741=CARTESIAN_POINT('',(7.43800896104384,-7.43800896104386,247.254687436878));
#742=CARTESIAN_POINT('',(4.02538277969318,-9.71813370047834,247.067187436878));
#743=CARTESIAN_POINT('',(3.81916720471054E-14,-10.5189331497608,246.879687436878));
#744=CARTESIAN_POINT('',(-4.02538277969318,-9.71813370047835,246.692187436878));
#745=CARTESIAN_POINT('',(-7.43800896104383,-7.43800896104387,246.504687436878));
#746=CARTESIAN_POINT('',(-9.71813370047836,-4.02538277969315,246.317187436878));
#747=CARTESIAN_POINT('',(-10.5189331497608,-7.54951656745106E-15,246.129687436878));
#748=CARTESIAN_POINT('',(-9.71813370047837,4.02538277969313,245.942187436878));
#749=CARTESIAN_POINT('',(-7.43800896104383,7.43800896104386,245.754687436878));
#750=CARTESIAN_POINT('',(-4.0253827796932,9.71813370047835,245.567187436878));
#751=CARTESIAN_POINT('',(2.39808173319034E-14,10.5189331497608,245.379687436878));
#752=CARTESIAN_POINT('',(4.02538277969316,9.71813370047835,245.192187436878));
#753=CARTESIAN_POINT('',(7.17100433326186,7.61640642534165,245.01935747838));
#754=CARTESIAN_POINT('',(8.59089822594623,5.68653512958227,244.909027519881));
#755=CARTESIAN_POINT('',(9.06999788206494,4.77818414627283,244.861197561382));
#756=CARTESIAN_POINT('',(-12.427534295109,0.,256.385732747791));
#757=CARTESIAN_POINT('',(-12.427534295109,1.62676043515623,256.323232747791));
#758=CARTESIAN_POINT('',(-11.7803784478296,4.87959252297874,256.198232747791));
#759=CARTESIAN_POINT('',(-9.01639791754784,9.01639791754784,256.010732747791));
#760=CARTESIAN_POINT('',(-4.87959252297874,11.7803784478296,255.823232747791));
#761=CARTESIAN_POINT('',(0.,12.7511122187487,255.635732747791));
#762=CARTESIAN_POINT('',(4.87959252297874,11.7803784478296,255.448232747791));
#763=CARTESIAN_POINT('',(9.01639791754783,9.01639791754784,255.260732747791));
#764=CARTESIAN_POINT('',(11.7803784478296,4.87959252297874,255.073232747791));
#765=CARTESIAN_POINT('',(12.7511122187487,8.88178419700125E-16,254.885732747791));
#766=CARTESIAN_POINT('',(11.7803784478296,-4.87959252297873,254.698232747791));
#767=CARTESIAN_POINT('',(9.01639791754784,-9.01639791754784,254.510732747791));
#768=CARTESIAN_POINT('',(4.87959252297875,-11.7803784478296,254.323232747791));
#769=CARTESIAN_POINT('',(1.77635683940025E-15,-12.7511122187487,254.135732747791));
#770=CARTESIAN_POINT('',(-4.87959252297875,-11.7803784478296,253.948232747791));
#771=CARTESIAN_POINT('',(-9.01639791754783,-9.01639791754784,253.760732747791));
#772=CARTESIAN_POINT('',(-11.7803784478296,-4.87959252297875,253.573232747791));
#773=CARTESIAN_POINT('',(-12.7511122187487,-2.22044604925031E-15,253.385732747791));
#774=CARTESIAN_POINT('',(-11.7803784478296,4.87959252297874,253.198232747791));
#775=CARTESIAN_POINT('',(-9.01639791754784,9.01639791754783,253.010732747791));
#776=CARTESIAN_POINT('',(-4.87959252297875,11.7803784478296,252.823232747791));
#777=CARTESIAN_POINT('',(-5.32907051820075E-15,12.7511122187487,252.635732747791));
#778=CARTESIAN_POINT('',(4.87959252297875,11.7803784478296,252.448232747791));
#779=CARTESIAN_POINT('',(9.01639791754782,9.01639791754785,252.260732747791));
#780=CARTESIAN_POINT('',(11.7803784478296,4.87959252297875,252.073232747791));
#781=CARTESIAN_POINT('',(12.7511122187487,3.5527136788005E-15,251.885732747791));
#782=CARTESIAN_POINT('',(11.7803784478296,-4.87959252297874,251.698232747791));
#783=CARTESIAN_POINT('',(9.01639791754783,-9.01639791754785,251.510732747791));
#784=CARTESIAN_POINT('',(4.87959252297876,-11.7803784478296,251.323232747791));
#785=CARTESIAN_POINT('',(4.88498130835069E-15,-12.7511122187487,251.135732747791));
#786=CARTESIAN_POINT('',(-4.87959252297875,-11.7803784478296,250.948232747791));
#787=CARTESIAN_POINT('',(-9.01639791754782,-9.01639791754785,250.760732747791));
#788=CARTESIAN_POINT('',(-11.7803784478296,-4.87959252297875,250.573232747791));
#789=CARTESIAN_POINT('',(-12.7511122187487,-5.77315972805081E-15,250.385732747791));
#790=CARTESIAN_POINT('',(-11.7803784478296,4.87959252297874,250.198232747791));
#791=CARTESIAN_POINT('',(-9.01639791754783,9.01639791754785,250.010732747791));
#792=CARTESIAN_POINT('',(-4.87959252297876,11.7803784478296,249.823232747791));
#793=CARTESIAN_POINT('',(-6.66133814775094E-15,12.7511122187487,249.635732747791));
#794=CARTESIAN_POINT('',(4.87959252297875,11.7803784478296,249.448232747791));
#795=CARTESIAN_POINT('',(9.01639791754782,9.01639791754786,249.260732747791));
#796=CARTESIAN_POINT('',(11.7803784478296,4.87959252297875,249.073232747791));
#797=CARTESIAN_POINT('',(12.7511122187487,-2.22044604925031E-15,248.885732747791));
#798=CARTESIAN_POINT('',(11.7803784478296,-4.87959252297869,248.698232747791));
#799=CARTESIAN_POINT('',(9.01639791754783,-9.01639791754786,248.510732747791));
#800=CARTESIAN_POINT('',(4.87959252297875,-11.7803784478296,248.323232747791));
#801=CARTESIAN_POINT('',(4.75175454539567E-14,-12.7511122187487,248.135732747791));
#802=CARTESIAN_POINT('',(-4.87959252297875,-11.7803784478296,247.948232747791));
#803=CARTESIAN_POINT('',(-9.01639791754781,-9.01639791754787,247.760732747791));
#804=CARTESIAN_POINT('',(-11.7803784478296,-4.87959252297871,247.573232747791));
#805=CARTESIAN_POINT('',(-12.7511122187487,-7.54951656745106E-15,247.385732747791));
#806=CARTESIAN_POINT('',(-11.7803784478296,4.87959252297869,247.198232747791));
#807=CARTESIAN_POINT('',(-9.01639791754782,9.01639791754785,247.010732747791));
#808=CARTESIAN_POINT('',(-4.87959252297877,11.7803784478296,246.823232747791));
#809=CARTESIAN_POINT('',(2.8421709430404E-14,12.7511122187487,246.635732747791));
#810=CARTESIAN_POINT('',(4.87959252297873,11.7803784478296,246.448232747791));
#811=CARTESIAN_POINT('',(8.6927333478333,9.23265236601852,246.275402789292));
#812=CARTESIAN_POINT('',(10.4139370199705,6.89325110644027,246.165072830793));
#813=CARTESIAN_POINT('',(10.9947044221545,5.79214273762697,246.117242872295));
#814=CARTESIAN_POINT('',(10.9947044221545,5.79214273762697,246.345777376714));
#815=CARTESIAN_POINT('',(9.06999788206494,4.77818414627283,247.601822687626));
#816=CARTESIAN_POINT('',(-12.427534295109,0.,256.614267252209));
#817=CARTESIAN_POINT('',(-12.427534295109,1.62676043515623,256.551767252209));
#818=CARTESIAN_POINT('',(-11.7803784478296,4.87959252297874,256.426767252209));
#819=CARTESIAN_POINT('',(-9.01639791754784,9.01639791754784,256.239267252209));
#820=CARTESIAN_POINT('',(-4.87959252297874,11.7803784478296,256.051767252209));
#821=CARTESIAN_POINT('',(0.,12.7511122187487,255.864267252209));
#822=CARTESIAN_POINT('',(4.87959252297874,11.7803784478296,255.676767252209));
#823=CARTESIAN_POINT('',(9.01639791754783,9.01639791754784,255.489267252209));
#824=CARTESIAN_POINT('',(11.7803784478296,4.87959252297874,255.301767252209));
#825=CARTESIAN_POINT('',(12.7511122187487,8.88178419700125E-16,255.114267252209));
#826=CARTESIAN_POINT('',(11.7803784478296,-4.87959252297873,254.926767252209));
#827=CARTESIAN_POINT('',(9.01639791754784,-9.01639791754784,254.739267252209));
#828=CARTESIAN_POINT('',(4.87959252297875,-11.7803784478296,254.551767252209));
#829=CARTESIAN_POINT('',(1.77635683940025E-15,-12.7511122187487,254.364267252209));
#830=CARTESIAN_POINT('',(-4.87959252297875,-11.7803784478296,254.176767252209));
#831=CARTESIAN_POINT('',(-9.01639791754783,-9.01639791754784,253.989267252209));
#832=CARTESIAN_POINT('',(-11.7803784478296,-4.87959252297875,253.801767252209));
#833=CARTESIAN_POINT('',(-12.7511122187487,-2.22044604925031E-15,253.614267252209));
#834=CARTESIAN_POINT('',(-11.7803784478296,4.87959252297874,253.426767252209));
#835=CARTESIAN_POINT('',(-9.01639791754784,9.01639791754783,253.239267252209));
#836=CARTESIAN_POINT('',(-4.87959252297875,11.7803784478296,253.051767252209));
#837=CARTESIAN_POINT('',(-5.32907051820075E-15,12.7511122187487,252.864267252209));
#838=CARTESIAN_POINT('',(4.87959252297875,11.7803784478296,252.676767252209));
#839=CARTESIAN_POINT('',(9.01639791754782,9.01639791754785,252.489267252209));
#840=CARTESIAN_POINT('',(11.7803784478296,4.87959252297875,252.301767252209));
#841=CARTESIAN_POINT('',(12.7511122187487,3.5527136788005E-15,252.114267252209));
#842=CARTESIAN_POINT('',(11.7803784478296,-4.87959252297874,251.926767252209));
#843=CARTESIAN_POINT('',(9.01639791754783,-9.01639791754785,251.739267252209));
#844=CARTESIAN_POINT('',(4.87959252297876,-11.7803784478296,251.551767252209));
#845=CARTESIAN_POINT('',(4.88498130835069E-15,-12.7511122187487,251.364267252209));
#846=CARTESIAN_POINT('',(-4.87959252297875,-11.7803784478296,251.176767252209));
#847=CARTESIAN_POINT('',(-9.01639791754782,-9.01639791754785,250.989267252209));
#848=CARTESIAN_POINT('',(-11.7803784478296,-4.87959252297875,250.801767252209));
#849=CARTESIAN_POINT('',(-12.7511122187487,-5.77315972805081E-15,250.614267252209));
#850=CARTESIAN_POINT('',(-11.7803784478296,4.87959252297874,250.426767252209));
#851=CARTESIAN_POINT('',(-9.01639791754783,9.01639791754785,250.239267252209));
#852=CARTESIAN_POINT('',(-4.87959252297876,11.7803784478296,250.051767252209));
#853=CARTESIAN_POINT('',(-6.66133814775094E-15,12.7511122187487,249.864267252209));
#854=CARTESIAN_POINT('',(4.87959252297875,11.7803784478296,249.676767252209));
#855=CARTESIAN_POINT('',(9.01639791754782,9.01639791754786,249.489267252209));
#856=CARTESIAN_POINT('',(11.7803784478296,4.87959252297875,249.301767252209));
#857=CARTESIAN_POINT('',(12.7511122187487,-2.22044604925031E-15,249.114267252209));
#858=CARTESIAN_POINT('',(11.7803784478296,-4.87959252297869,248.926767252209));
#859=CARTESIAN_POINT('',(9.01639791754783,-9.01639791754786,248.739267252209));
#860=CARTESIAN_POINT('',(4.87959252297875,-11.7803784478296,248.551767252209));
#861=CARTESIAN_POINT('',(4.75175454539567E-14,-12.7511122187487,248.364267252209));
#862=CARTESIAN_POINT('',(-4.87959252297875,-11.7803784478296,248.176767252209));
#863=CARTESIAN_POINT('',(-9.01639791754781,-9.01639791754787,247.989267252209));
#864=CARTESIAN_POINT('',(-11.7803784478296,-4.87959252297871,247.801767252209));
#865=CARTESIAN_POINT('',(-12.7511122187487,-7.54951656745106E-15,247.614267252209));
#866=CARTESIAN_POINT('',(-11.7803784478296,4.87959252297869,247.426767252209));
#867=CARTESIAN_POINT('',(-9.01639791754782,9.01639791754785,247.239267252209));
#868=CARTESIAN_POINT('',(-4.87959252297877,11.7803784478296,247.051767252209));
#869=CARTESIAN_POINT('',(2.8421709430404E-14,12.7511122187487,246.864267252209));
#870=CARTESIAN_POINT('',(4.87959252297873,11.7803784478296,246.676767252209));
#871=CARTESIAN_POINT('',(8.6927333478333,9.23265236601852,246.503937293711));
#872=CARTESIAN_POINT('',(10.4139370199705,6.89325110644027,246.393607335212));
#873=CARTESIAN_POINT('',(10.9947044221545,5.79214273762697,246.345777376714));
#874=CARTESIAN_POINT('',(-10.252,0.,257.870312563122));
#875=CARTESIAN_POINT('',(-10.252,1.34198366185844,257.807812563122));
#876=CARTESIAN_POINT('',(-9.71813370047835,4.02538277969317,257.682812563122));
#877=CARTESIAN_POINT('',(-7.43800896104385,7.43800896104385,257.495312563122));
#878=CARTESIAN_POINT('',(-4.02538277969317,9.71813370047835,257.307812563122));
#879=CARTESIAN_POINT('',(-8.88178419700125E-16,10.5189331497608,257.120312563122));
#880=CARTESIAN_POINT('',(4.02538277969317,9.71813370047835,256.932812563122));
#881=CARTESIAN_POINT('',(7.43800896104385,7.43800896104385,256.745312563122));
#882=CARTESIAN_POINT('',(9.71813370047835,4.02538277969317,256.557812563122));
#883=CARTESIAN_POINT('',(10.5189331497608,8.88178419700125E-16,256.370312563122));
#884=CARTESIAN_POINT('',(9.71813370047835,-4.02538277969317,256.182812563122));
#885=CARTESIAN_POINT('',(7.43800896104385,-7.43800896104385,255.995312563122));
#886=CARTESIAN_POINT('',(4.02538277969318,-9.71813370047835,255.807812563122));
#887=CARTESIAN_POINT('',(1.77635683940025E-15,-10.5189331497608,255.620312563122));
#888=CARTESIAN_POINT('',(-4.02538277969318,-9.71813370047835,255.432812563122));
#889=CARTESIAN_POINT('',(-7.43800896104385,-7.43800896104385,255.245312563122));
#890=CARTESIAN_POINT('',(-9.71813370047835,-4.02538277969318,255.057812563122));
#891=CARTESIAN_POINT('',(-10.5189331497608,-2.22044604925031E-15,254.870312563122));
#892=CARTESIAN_POINT('',(-9.71813370047835,4.02538277969317,254.682812563122));
#893=CARTESIAN_POINT('',(-7.43800896104385,7.43800896104385,254.495312563122));
#894=CARTESIAN_POINT('',(-4.02538277969318,9.71813370047835,254.307812563122));
#895=CARTESIAN_POINT('',(-3.5527136788005E-15,10.5189331497608,254.120312563122));
#896=CARTESIAN_POINT('',(4.02538277969318,9.71813370047835,253.932812563122));
#897=CARTESIAN_POINT('',(7.43800896104383,7.43800896104386,253.745312563122));
#898=CARTESIAN_POINT('',(9.71813370047835,4.02538277969317,253.557812563122));
#899=CARTESIAN_POINT('',(10.5189331497608,3.5527136788005E-15,253.370312563122));
#900=CARTESIAN_POINT('',(9.71813370047835,-4.02538277969317,253.182812563122));
#901=CARTESIAN_POINT('',(7.43800896104384,-7.43800896104386,252.995312563122));
#902=CARTESIAN_POINT('',(4.02538277969318,-9.71813370047835,252.807812563122));
#903=CARTESIAN_POINT('',(3.99680288865056E-15,-10.5189331497608,252.620312563122));
#904=CARTESIAN_POINT('',(-4.02538277969317,-9.71813370047835,252.432812563122));
#905=CARTESIAN_POINT('',(-7.43800896104383,-7.43800896104386,252.245312563122));
#906=CARTESIAN_POINT('',(-9.71813370047835,-4.02538277969318,252.057812563122));
#907=CARTESIAN_POINT('',(-10.5189331497608,-5.77315972805081E-15,251.870312563122));
#908=CARTESIAN_POINT('',(-9.71813370047835,4.02538277969317,251.682812563122));
#909=CARTESIAN_POINT('',(-7.43800896104384,7.43800896104385,251.495312563122));
#910=CARTESIAN_POINT('',(-4.02538277969318,9.71813370047835,251.307812563122));
#911=CARTESIAN_POINT('',(-4.88498130835069E-15,10.5189331497608,251.120312563122));
#912=CARTESIAN_POINT('',(4.02538277969317,9.71813370047835,250.932812563122));
#913=CARTESIAN_POINT('',(7.43800896104383,7.43800896104386,250.745312563122));
#914=CARTESIAN_POINT('',(9.71813370047835,4.02538277969318,250.557812563122));
#915=CARTESIAN_POINT('',(10.5189331497608,-2.22044604925031E-15,250.370312563122));
#916=CARTESIAN_POINT('',(9.71813370047837,-4.02538277969313,250.182812563122));
#917=CARTESIAN_POINT('',(7.43800896104384,-7.43800896104386,249.995312563122));
#918=CARTESIAN_POINT('',(4.02538277969318,-9.71813370047834,249.807812563122));
#919=CARTESIAN_POINT('',(3.81916720471054E-14,-10.5189331497608,249.620312563122));
#920=CARTESIAN_POINT('',(-4.02538277969318,-9.71813370047835,249.432812563122));
#921=CARTESIAN_POINT('',(-7.43800896104383,-7.43800896104387,249.245312563122));
#922=CARTESIAN_POINT('',(-9.71813370047836,-4.02538277969315,249.057812563122));
#923=CARTESIAN_POINT('',(-10.5189331497608,-7.54951656745106E-15,248.870312563122));
#924=CARTESIAN_POINT('',(-9.71813370047837,4.02538277969313,248.682812563122));
#925=CARTESIAN_POINT('',(-7.43800896104383,7.43800896104386,248.495312563122));
#926=CARTESIAN_POINT('',(-4.0253827796932,9.71813370047835,248.307812563122));
#927=CARTESIAN_POINT('',(2.39808173319034E-14,10.5189331497608,248.120312563122));
#928=CARTESIAN_POINT('',(4.02538277969316,9.71813370047835,247.932812563122));
#929=CARTESIAN_POINT('',(7.17100433326186,7.61640642534165,247.759982604623));
#930=CARTESIAN_POINT('',(8.59089822594623,5.68653512958227,247.649652646125));
#931=CARTESIAN_POINT('',(9.06999788206494,4.77818414627283,247.601822687626));
#932=CARTESIAN_POINT('',(9.06999788206494,4.77818414627283,246.231510124504));
#933=CARTESIAN_POINT('',(0.,0.127293739224115,237.));
#934=CARTESIAN_POINT('',(0.,0.127293739224115,237.));
#935=CARTESIAN_POINT('',(0.,0.127293739224115,242.));
#936=CARTESIAN_POINT('',(0.,0.127293739224115,242.));
#937=CARTESIAN_POINT('',(0.,0.127293739224115,237.));
#938=(
GEOMETRIC_REPRESENTATION_CONTEXT(3)
GLOBAL_UNCERTAINTY_ASSIGNED_CONTEXT((#939))
GLOBAL_UNIT_ASSIGNED_CONTEXT((#945,#941,#940))
REPRESENTATION_CONTEXT('rod2','TOP_LEVEL_ASSEMBLY_PART')
);
#939=UNCERTAINTY_MEASURE_WITH_UNIT(LENGTH_MEASURE(0.0508),#945,
'DISTANCE_ACCURACY_VALUE','Maximum Tolerance applied to model');
#940=(
NAMED_UNIT(*)
SI_UNIT($,.STERADIAN.)
SOLID_ANGLE_UNIT()
);
#941=(
CONVERSION_BASED_UNIT('DEGREE',#943)
NAMED_UNIT(#942)
PLANE_ANGLE_UNIT()
);
#942=DIMENSIONAL_EXPONENTS(0.,0.,0.,0.,0.,0.,0.);
#943=PLANE_ANGLE_MEASURE_WITH_UNIT(PLANE_ANGLE_MEASURE(0.0174532925),#944);
#944=(
NAMED_UNIT(*)
PLANE_ANGLE_UNIT()
SI_UNIT($,.RADIAN.)
);
#945=(
LENGTH_UNIT()
NAMED_UNIT(*)
SI_UNIT(.MILLI.,.METRE.)
);
ENDSEC;
END-ISO-10303-21;
