ISO-10303-21;
HEADER;
/* Generated by software containing ST-Developer
 * from STEP Tools, Inc. (www.steptools.com) 
 */
/* OPTION: using custom schema-name function */

FILE_DESCRIPTION(
/* description */ (''),
/* implementation_level */ '2;1');

FILE_NAME(
/* name */ 'toolHandler.stp',
/* time_stamp */ '2025-06-25T20:46:18+03:00',
/* author */ (''),
/* organization */ (''),
/* preprocessor_version */ 'ST-DEVELOPER v19.4',
/* originating_system */ 'SIEMENS PLM Software NX2306.4000',
/* authorisation */ '');

FILE_SCHEMA (('AUTOMOTIVE_DESIGN { 1 0 10303 214 3 1 1 1 }'));
ENDSEC;

DATA;
#10=GEOMETRICALLY_BOUNDED_WIREFRAME_SHAPE_REPRESENTATION(
'toolHandler-None',(#25),#322);
#11=SHAPE_REPRESENTATION_RELATIONSHIP('None',
'relationship between toolHandler-None and toolHandler-None',#24,#13);
#12=SHAPE_REPRESENTATION_RELATIONSHIP('None',
'relationship between toolHandler-None and toolHandler-None',#24,#10);
#13=ADVANCED_BREP_SHAPE_REPRESENTATION('toolHandler-None',(#31),#322);
#14=SHAPE_DEFINITION_REPRESENTATION(#15,#24);
#15=PRODUCT_DEFINITION_SHAPE('','',#16);
#16=PRODUCT_DEFINITION(' ','',#18,#17);
#17=PRODUCT_DEFINITION_CONTEXT('part definition',#23,'design');
#18=PRODUCT_DEFINITION_FORMATION_WITH_SPECIFIED_SOURCE(' ',' ',#20,
 .NOT_KNOWN.);
#19=PRODUCT_RELATED_PRODUCT_CATEGORY('part','',(#20));
#20=PRODUCT('toolHandler','toolHandler',' ',(#21));
#21=PRODUCT_CONTEXT(' ',#23,'mechanical');
#22=APPLICATION_PROTOCOL_DEFINITION('international standard',
'automotive_design',2010,#23);
#23=APPLICATION_CONTEXT(
'core data for automotive mechanical design processes');
#24=SHAPE_REPRESENTATION('toolHandler-None',(#176),#322);
#25=GEOMETRIC_CURVE_SET('None',(#214));
#26=SURFACE_STYLE_USAGE(.BOTH.,#27);
#27=SURFACE_SIDE_STYLE('',(#28));
#28=SURFACE_STYLE_FILL_AREA(#29);
#29=FILL_AREA_STYLE('',(#30));
#30=FILL_AREA_STYLE_COLOUR('',#175);
#31=MANIFOLD_SOLID_BREP('',#32);
#32=CLOSED_SHELL('',(#41,#42,#43,#44,#45,#46,#47,#48));
#33=SURFACE_OF_LINEAR_EXTRUSION('',#37,#159);
#34=SURFACE_OF_LINEAR_EXTRUSION('',#40,#166);
#35=B_SPLINE_CURVE_WITH_KNOTS('',3,(#230,#231,#232,#233,#234,#235,#236,
#237),.UNSPECIFIED.,.F.,.F.,(4,1,1,1,1,4),(0.,0.284506517848514,0.398580520819097,
0.530796267337195,0.669393692541933,1.),.UNSPECIFIED.);
#36=B_SPLINE_CURVE_WITH_KNOTS('',3,(#239,#240,#241,#242,#243,#244,#245,
#246),.UNSPECIFIED.,.F.,.F.,(4,1,1,1,1,4),(0.,0.284506517848514,0.398580520819097,
0.530796267337195,0.669393692541933,1.),.UNSPECIFIED.);
#37=B_SPLINE_CURVE_WITH_KNOTS('',3,(#249,#250,#251,#252,#253,#254,#255,
#256),.UNSPECIFIED.,.F.,.F.,(4,1,1,1,1,4),(0.,0.284506517848514,0.398580520819097,
0.530796267337195,0.669393692541933,1.),.UNSPECIFIED.);
#38=B_SPLINE_CURVE_WITH_KNOTS('',3,(#269,#270,#271,#272,#273,#274,#275,
#276,#277,#278,#279,#280,#281,#282,#283,#284,#285),.UNSPECIFIED.,.F.,.F.,
(4,1,1,1,1,1,1,1,1,1,1,1,1,1,4),(0.,0.13996854750552,0.209698955613013,
0.28734307780875,0.36898752151503,0.456806066820305,0.529333311881702,0.595240153169049,
0.652185994625285,0.715162201647445,0.776232530724631,0.829359754563365,
0.870989337193539,0.906268741248393,1.),.UNSPECIFIED.);
#39=B_SPLINE_CURVE_WITH_KNOTS('',3,(#286,#287,#288,#289,#290,#291,#292,
#293,#294,#295,#296,#297,#298,#299,#300,#301,#302),.UNSPECIFIED.,.F.,.F.,
(4,1,1,1,1,1,1,1,1,1,1,1,1,1,4),(0.,0.13996854750552,0.209698955613013,
0.28734307780875,0.36898752151503,0.456806066820305,0.529333311881702,0.595240153169049,
0.652185994625285,0.715162201647445,0.776232530724631,0.829359754563365,
0.870989337193539,0.906268741248393,1.),.UNSPECIFIED.);
#40=B_SPLINE_CURVE_WITH_KNOTS('',3,(#303,#304,#305,#306,#307,#308,#309,
#310,#311,#312,#313,#314,#315,#316,#317,#318,#319),.UNSPECIFIED.,.F.,.F.,
(4,1,1,1,1,1,1,1,1,1,1,1,1,1,4),(0.,0.13996854750552,0.209698955613013,
0.28734307780875,0.36898752151503,0.456806066820305,0.529333311881702,0.595240153169049,
0.652185994625285,0.715162201647445,0.776232530724631,0.829359754563365,
0.870989337193539,0.906268741248393,1.),.UNSPECIFIED.);
#41=ADVANCED_FACE('',(#55),#49,.T.);
#42=ADVANCED_FACE('',(#56),#50,.T.);
#43=ADVANCED_FACE('',(#57),#33,.T.);
#44=ADVANCED_FACE('',(#58),#51,.T.);
#45=ADVANCED_FACE('',(#59),#52,.T.);
#46=ADVANCED_FACE('',(#60),#34,.T.);
#47=ADVANCED_FACE('',(#61),#53,.T.);
#48=ADVANCED_FACE('',(#62),#54,.F.);
#49=PLANE('',#177);
#50=PLANE('',#178);
#51=PLANE('',#179);
#52=PLANE('',#180);
#53=PLANE('',#181);
#54=PLANE('',#182);
#55=FACE_OUTER_BOUND('',#63,.T.);
#56=FACE_OUTER_BOUND('',#64,.T.);
#57=FACE_OUTER_BOUND('',#65,.T.);
#58=FACE_OUTER_BOUND('',#66,.T.);
#59=FACE_OUTER_BOUND('',#67,.T.);
#60=FACE_OUTER_BOUND('',#68,.T.);
#61=FACE_OUTER_BOUND('',#69,.T.);
#62=FACE_OUTER_BOUND('',#70,.T.);
#63=EDGE_LOOP('',(#71,#72,#73,#74));
#64=EDGE_LOOP('',(#75,#76,#77,#78));
#65=EDGE_LOOP('',(#79,#80,#81,#82));
#66=EDGE_LOOP('',(#83,#84,#85,#86));
#67=EDGE_LOOP('',(#87,#88,#89,#90));
#68=EDGE_LOOP('',(#91,#92,#93,#94));
#69=EDGE_LOOP('',(#95,#96,#97,#98,#99,#100));
#70=EDGE_LOOP('',(#101,#102,#103,#104,#105,#106));
#71=ORIENTED_EDGE('',*,*,#119,.F.);
#72=ORIENTED_EDGE('',*,*,#120,.F.);
#73=ORIENTED_EDGE('',*,*,#121,.T.);
#74=ORIENTED_EDGE('',*,*,#122,.T.);
#75=ORIENTED_EDGE('',*,*,#123,.F.);
#76=ORIENTED_EDGE('',*,*,#122,.F.);
#77=ORIENTED_EDGE('',*,*,#124,.T.);
#78=ORIENTED_EDGE('',*,*,#125,.T.);
#79=ORIENTED_EDGE('',*,*,#126,.F.);
#80=ORIENTED_EDGE('',*,*,#125,.F.);
#81=ORIENTED_EDGE('',*,*,#127,.T.);
#82=ORIENTED_EDGE('',*,*,#128,.T.);
#83=ORIENTED_EDGE('',*,*,#129,.F.);
#84=ORIENTED_EDGE('',*,*,#128,.F.);
#85=ORIENTED_EDGE('',*,*,#130,.T.);
#86=ORIENTED_EDGE('',*,*,#131,.T.);
#87=ORIENTED_EDGE('',*,*,#132,.F.);
#88=ORIENTED_EDGE('',*,*,#131,.F.);
#89=ORIENTED_EDGE('',*,*,#133,.T.);
#90=ORIENTED_EDGE('',*,*,#134,.T.);
#91=ORIENTED_EDGE('',*,*,#135,.F.);
#92=ORIENTED_EDGE('',*,*,#134,.F.);
#93=ORIENTED_EDGE('',*,*,#136,.T.);
#94=ORIENTED_EDGE('',*,*,#120,.T.);
#95=ORIENTED_EDGE('',*,*,#121,.F.);
#96=ORIENTED_EDGE('',*,*,#136,.F.);
#97=ORIENTED_EDGE('',*,*,#133,.F.);
#98=ORIENTED_EDGE('',*,*,#130,.F.);
#99=ORIENTED_EDGE('',*,*,#127,.F.);
#100=ORIENTED_EDGE('',*,*,#124,.F.);
#101=ORIENTED_EDGE('',*,*,#119,.T.);
#102=ORIENTED_EDGE('',*,*,#123,.T.);
#103=ORIENTED_EDGE('',*,*,#126,.T.);
#104=ORIENTED_EDGE('',*,*,#129,.T.);
#105=ORIENTED_EDGE('',*,*,#132,.T.);
#106=ORIENTED_EDGE('',*,*,#135,.T.);
#107=VERTEX_POINT('',#216);
#108=VERTEX_POINT('',#217);
#109=VERTEX_POINT('',#219);
#110=VERTEX_POINT('',#221);
#111=VERTEX_POINT('',#225);
#112=VERTEX_POINT('',#227);
#113=VERTEX_POINT('',#238);
#114=VERTEX_POINT('',#247);
#115=VERTEX_POINT('',#258);
#116=VERTEX_POINT('',#260);
#117=VERTEX_POINT('',#264);
#118=VERTEX_POINT('',#266);
#119=EDGE_CURVE('',#107,#108,#137,.T.);
#120=EDGE_CURVE('',#109,#107,#138,.T.);
#121=EDGE_CURVE('',#109,#110,#139,.T.);
#122=EDGE_CURVE('',#110,#108,#140,.T.);
#123=EDGE_CURVE('',#108,#111,#141,.T.);
#124=EDGE_CURVE('',#110,#112,#142,.T.);
#125=EDGE_CURVE('',#112,#111,#143,.T.);
#126=EDGE_CURVE('',#111,#113,#35,.T.);
#127=EDGE_CURVE('',#112,#114,#36,.T.);
#128=EDGE_CURVE('',#114,#113,#144,.T.);
#129=EDGE_CURVE('',#113,#115,#145,.T.);
#130=EDGE_CURVE('',#114,#116,#146,.T.);
#131=EDGE_CURVE('',#116,#115,#147,.T.);
#132=EDGE_CURVE('',#115,#117,#148,.T.);
#133=EDGE_CURVE('',#116,#118,#149,.T.);
#134=EDGE_CURVE('',#118,#117,#150,.T.);
#135=EDGE_CURVE('',#117,#107,#38,.T.);
#136=EDGE_CURVE('',#118,#109,#39,.T.);
#137=LINE('',#215,#151);
#138=LINE('',#218,#152);
#139=LINE('',#220,#153);
#140=LINE('',#222,#154);
#141=LINE('',#224,#155);
#142=LINE('',#226,#156);
#143=LINE('',#228,#157);
#144=LINE('',#248,#158);
#145=LINE('',#257,#160);
#146=LINE('',#259,#161);
#147=LINE('',#261,#162);
#148=LINE('',#263,#163);
#149=LINE('',#265,#164);
#150=LINE('',#267,#165);
#151=VECTOR('',#185,1.);
#152=VECTOR('',#186,1.);
#153=VECTOR('',#187,1.);
#154=VECTOR('',#188,1.);
#155=VECTOR('',#191,1.);
#156=VECTOR('',#192,1.);
#157=VECTOR('',#193,1.);
#158=VECTOR('',#196,1.);
#159=VECTOR('',#197,1.);
#160=VECTOR('',#198,1.);
#161=VECTOR('',#199,1.);
#162=VECTOR('',#200,1.);
#163=VECTOR('',#203,1.);
#164=VECTOR('',#204,1.);
#165=VECTOR('',#205,1.);
#166=VECTOR('',#208,1.);
#167=PRESENTATION_LAYER_ASSIGNMENT('1','Layer 1',(#214,#31));
#168=STYLED_ITEM('',(#170),#214);
#169=STYLED_ITEM('',(#171),#31);
#170=PRESENTATION_STYLE_ASSIGNMENT((#172));
#171=PRESENTATION_STYLE_ASSIGNMENT((#26));
#172=POINT_STYLE('',#173,POSITIVE_LENGTH_MEASURE(3.),#174);
#173=PRE_DEFINED_POINT_MARKER_SYMBOL('plus');
#174=COLOUR_RGB('Medium Royal',0.301960784313725,0.427450980392157,0.701960784313725);
#175=COLOUR_RGB('medium steel',0.611764705882353,0.658823529411765,0.670588235294118);
#176=AXIS2_PLACEMENT_3D('',#213,#183,#184);
#177=AXIS2_PLACEMENT_3D('',#223,#189,#190);
#178=AXIS2_PLACEMENT_3D('',#229,#194,#195);
#179=AXIS2_PLACEMENT_3D('',#262,#201,#202);
#180=AXIS2_PLACEMENT_3D('',#268,#206,#207);
#181=AXIS2_PLACEMENT_3D('',#320,#209,#210);
#182=AXIS2_PLACEMENT_3D('',#321,#211,#212);
#183=DIRECTION('',(0.,0.,1.));
#184=DIRECTION('',(1.,0.,0.));
#185=DIRECTION('',(0.,-1.96005385927235E-15,-1.));
#186=DIRECTION('',(1.,0.,0.));
#187=DIRECTION('',(0.,-1.96005385927235E-15,-1.));
#188=DIRECTION('',(1.,0.,0.));
#189=DIRECTION('',(0.,-1.,1.96005385927235E-15));
#190=DIRECTION('',(0.,-1.96005385927235E-15,-1.));
#191=DIRECTION('',(0.,1.,0.));
#192=DIRECTION('',(0.,1.,0.));
#193=DIRECTION('',(1.,0.,0.));
#194=DIRECTION('',(0.,0.,-1.));
#195=DIRECTION('',(-1.,0.,0.));
#196=DIRECTION('',(1.,0.,0.));
#197=DIRECTION('',(1.,0.,0.));
#198=DIRECTION('',(0.,0.500000000000002,0.866025403784438));
#199=DIRECTION('',(0.,0.500000000000002,0.866025403784438));
#200=DIRECTION('',(1.,0.,0.));
#201=DIRECTION('',(0.,0.866025403784438,-0.500000000000002));
#202=DIRECTION('',(0.,0.500000000000002,0.866025403784438));
#203=DIRECTION('',(0.,-0.866025403784444,0.49999999999999));
#204=DIRECTION('',(0.,-0.866025403784444,0.49999999999999));
#205=DIRECTION('',(1.,0.,0.));
#206=DIRECTION('',(0.,0.49999999999999,0.866025403784444));
#207=DIRECTION('',(0.,-0.866025403784444,0.49999999999999));
#208=DIRECTION('',(1.,0.,0.));
#209=DIRECTION('',(-1.,0.,0.));
#210=DIRECTION('',(0.,0.,1.));
#211=DIRECTION('',(-1.,0.,0.));
#212=DIRECTION('',(0.,0.,1.));
#213=CARTESIAN_POINT('',(0.,0.,0.));
#214=CARTESIAN_POINT('Point1',(0.,160.,-1.63241885943543E-14));
#215=CARTESIAN_POINT('',(0.,0.,5.));
#216=CARTESIAN_POINT('',(0.,0.,5.));
#217=CARTESIAN_POINT('',(0.,-9.80026929636177E-15,0.));
#218=CARTESIAN_POINT('',(-30.,0.,5.));
#219=CARTESIAN_POINT('',(-30.,0.,5.));
#220=CARTESIAN_POINT('',(-30.,0.,5.));
#221=CARTESIAN_POINT('',(-30.,-9.80026929636177E-15,0.));
#222=CARTESIAN_POINT('',(-30.,-9.80026929636177E-15,0.));
#223=CARTESIAN_POINT('',(-30.,0.,5.));
#224=CARTESIAN_POINT('',(0.,0.,0.));
#225=CARTESIAN_POINT('',(0.,122.348,0.));
#226=CARTESIAN_POINT('',(-30.,0.,0.));
#227=CARTESIAN_POINT('',(-30.,122.348,0.));
#228=CARTESIAN_POINT('',(-30.,122.348,0.));
#229=CARTESIAN_POINT('',(-30.,0.,0.));
#230=CARTESIAN_POINT('',(0.,122.348,3.57462062278751E-16));
#231=CARTESIAN_POINT('',(0.,130.032183920624,0.633048377138389));
#232=CARTESIAN_POINT('',(0.,140.132196224148,2.00552124618916));
#233=CARTESIAN_POINT('',(0.,154.691457989088,2.1861737667971));
#234=CARTESIAN_POINT('',(0.,162.529238558607,9.94117440665382));
#235=CARTESIAN_POINT('',(0.,171.291626329875,22.900677847946));
#236=CARTESIAN_POINT('',(0.,177.710596477718,33.8122748805097));
#237=CARTESIAN_POINT('',(0.,183.35919,40.4593039036548));
#238=CARTESIAN_POINT('',(0.,183.35919,40.4593039036548));
#239=CARTESIAN_POINT('',(-30.,122.348,3.57462062278751E-16));
#240=CARTESIAN_POINT('',(-30.,130.032183920624,0.633048377138389));
#241=CARTESIAN_POINT('',(-30.,140.132196224148,2.00552124618916));
#242=CARTESIAN_POINT('',(-30.,154.691457989088,2.1861737667971));
#243=CARTESIAN_POINT('',(-30.,162.529238558607,9.94117440665382));
#244=CARTESIAN_POINT('',(-30.,171.291626329875,22.900677847946));
#245=CARTESIAN_POINT('',(-30.,177.710596477718,33.8122748805097));
#246=CARTESIAN_POINT('',(-30.,183.35919,40.4593039036548));
#247=CARTESIAN_POINT('',(-30.,183.35919,40.4593039036548));
#248=CARTESIAN_POINT('',(-30.,183.35919,40.4593039036548));
#249=CARTESIAN_POINT('',(-30.,122.348,3.57462062278751E-16));
#250=CARTESIAN_POINT('',(-30.,130.032183920624,0.633048377138389));
#251=CARTESIAN_POINT('',(-30.,140.132196224148,2.00552124618916));
#252=CARTESIAN_POINT('',(-30.,154.691457989088,2.1861737667971));
#253=CARTESIAN_POINT('',(-30.,162.529238558607,9.94117440665382));
#254=CARTESIAN_POINT('',(-30.,171.291626329875,22.900677847946));
#255=CARTESIAN_POINT('',(-30.,177.710596477718,33.8122748805097));
#256=CARTESIAN_POINT('',(-30.,183.35919,40.4593039036548));
#257=CARTESIAN_POINT('',(0.,183.35919,40.4593039036548));
#258=CARTESIAN_POINT('',(0.,330.000000000001,294.448637286709));
#259=CARTESIAN_POINT('',(-30.,183.35919,40.4593039036548));
#260=CARTESIAN_POINT('',(-30.,330.000000000001,294.448637286709));
#261=CARTESIAN_POINT('',(-30.,330.000000000001,294.448637286709));
#262=CARTESIAN_POINT('',(-30.,183.35919,40.4593039036548));
#263=CARTESIAN_POINT('',(0.,330.000000000002,294.448637286711));
#264=CARTESIAN_POINT('',(0.,325.669872981079,296.948637286711));
#265=CARTESIAN_POINT('',(-30.,330.000000000002,294.448637286711));
#266=CARTESIAN_POINT('',(-30.,325.669872981079,296.948637286711));
#267=CARTESIAN_POINT('',(-30.,325.669872981079,296.948637286711));
#268=CARTESIAN_POINT('',(-30.,330.000000000002,294.448637286711));
#269=CARTESIAN_POINT('',(0.,325.669872981079,296.948637286711));
#270=CARTESIAN_POINT('',(0.,311.92527657594,279.228585031109));
#271=CARTESIAN_POINT('',(0.,295.626659655928,249.953808454597));
#272=CARTESIAN_POINT('',(0.,271.533713472999,210.907595029903));
#273=CARTESIAN_POINT('',(0.,254.812037647816,178.36073843901));
#274=CARTESIAN_POINT('',(0.,233.365663497502,145.206137768664));
#275=CARTESIAN_POINT('',(0.,213.744465612278,111.946403761227));
#276=CARTESIAN_POINT('',(0.,194.553145130005,81.3150315294363));
#277=CARTESIAN_POINT('',(0.,177.753253469234,55.1146619174941));
#278=CARTESIAN_POINT('',(0.,162.324040732773,29.5190886608335));
#279=CARTESIAN_POINT('',(0.,137.073589386459,12.5433624472993));
#280=CARTESIAN_POINT('',(0.,108.053425441869,12.3688387796734));
#281=CARTESIAN_POINT('',(0.,83.3955894033982,9.79649861149705));
#282=CARTESIAN_POINT('',(0.,62.5982094265693,10.0406527975954));
#283=CARTESIAN_POINT('',(0.,35.4618891297377,7.4730051458909));
#284=CARTESIAN_POINT('',(0.,14.9429640996341,5.88578783357489));
#285=CARTESIAN_POINT('',(0.,-7.04155018768806E-15,5.));
#286=CARTESIAN_POINT('',(-30.,325.669872981079,296.948637286711));
#287=CARTESIAN_POINT('',(-30.,311.92527657594,279.228585031109));
#288=CARTESIAN_POINT('',(-30.,295.626659655928,249.953808454597));
#289=CARTESIAN_POINT('',(-30.,271.533713472999,210.907595029903));
#290=CARTESIAN_POINT('',(-30.,254.812037647816,178.36073843901));
#291=CARTESIAN_POINT('',(-30.,233.365663497502,145.206137768664));
#292=CARTESIAN_POINT('',(-30.,213.744465612278,111.946403761227));
#293=CARTESIAN_POINT('',(-30.,194.553145130005,81.3150315294363));
#294=CARTESIAN_POINT('',(-30.,177.753253469234,55.1146619174941));
#295=CARTESIAN_POINT('',(-30.,162.324040732773,29.5190886608335));
#296=CARTESIAN_POINT('',(-30.,137.073589386459,12.5433624472993));
#297=CARTESIAN_POINT('',(-30.,108.053425441869,12.3688387796734));
#298=CARTESIAN_POINT('',(-30.,83.3955894033982,9.79649861149705));
#299=CARTESIAN_POINT('',(-30.,62.5982094265693,10.0406527975954));
#300=CARTESIAN_POINT('',(-30.,35.4618891297377,7.4730051458909));
#301=CARTESIAN_POINT('',(-30.,14.9429640996341,5.88578783357489));
#302=CARTESIAN_POINT('',(-30.,-7.04155018768806E-15,5.));
#303=CARTESIAN_POINT('',(-30.,325.669872981079,296.948637286711));
#304=CARTESIAN_POINT('',(-30.,311.92527657594,279.228585031109));
#305=CARTESIAN_POINT('',(-30.,295.626659655928,249.953808454597));
#306=CARTESIAN_POINT('',(-30.,271.533713472999,210.907595029903));
#307=CARTESIAN_POINT('',(-30.,254.812037647816,178.36073843901));
#308=CARTESIAN_POINT('',(-30.,233.365663497502,145.206137768664));
#309=CARTESIAN_POINT('',(-30.,213.744465612278,111.946403761227));
#310=CARTESIAN_POINT('',(-30.,194.553145130005,81.3150315294363));
#311=CARTESIAN_POINT('',(-30.,177.753253469234,55.1146619174941));
#312=CARTESIAN_POINT('',(-30.,162.324040732773,29.5190886608335));
#313=CARTESIAN_POINT('',(-30.,137.073589386459,12.5433624472993));
#314=CARTESIAN_POINT('',(-30.,108.053425441869,12.3688387796734));
#315=CARTESIAN_POINT('',(-30.,83.3955894033982,9.79649861149705));
#316=CARTESIAN_POINT('',(-30.,62.5982094265693,10.0406527975954));
#317=CARTESIAN_POINT('',(-30.,35.4618891297377,7.4730051458909));
#318=CARTESIAN_POINT('',(-30.,14.9429640996341,5.88578783357489));
#319=CARTESIAN_POINT('',(-30.,-7.04155018768806E-15,5.));
#320=CARTESIAN_POINT('',(-30.,160.342738980663,8.00961041258924));
#321=CARTESIAN_POINT('',(0.,160.342738980663,8.00961041258924));
#322=(
GEOMETRIC_REPRESENTATION_CONTEXT(3)
GLOBAL_UNCERTAINTY_ASSIGNED_CONTEXT((#323))
GLOBAL_UNIT_ASSIGNED_CONTEXT((#329,#325,#324))
REPRESENTATION_CONTEXT('toolHandler','TOP_LEVEL_ASSEMBLY_PART')
);
#323=UNCERTAINTY_MEASURE_WITH_UNIT(LENGTH_MEASURE(2.E-5),#329,
'DISTANCE_ACCURACY_VALUE','Maximum Tolerance applied to model');
#324=(
NAMED_UNIT(*)
SI_UNIT($,.STERADIAN.)
SOLID_ANGLE_UNIT()
);
#325=(
CONVERSION_BASED_UNIT('DEGREE',#327)
NAMED_UNIT(#326)
PLANE_ANGLE_UNIT()
);
#326=DIMENSIONAL_EXPONENTS(0.,0.,0.,0.,0.,0.,0.);
#327=PLANE_ANGLE_MEASURE_WITH_UNIT(PLANE_ANGLE_MEASURE(0.0174532925),#328);
#328=(
NAMED_UNIT(*)
PLANE_ANGLE_UNIT()
SI_UNIT($,.RADIAN.)
);
#329=(
LENGTH_UNIT()
NAMED_UNIT(*)
SI_UNIT(.MILLI.,.METRE.)
);
ENDSEC;
END-ISO-10303-21;
