ISO-10303-21;
HEADER;
/* Generated by software containing ST-Developer
 * from STEP Tools, Inc. (www.steptools.com) 
 */
/* OPTION: using custom schema-name function */

FILE_DESCRIPTION(
/* description */ (''),
/* implementation_level */ '2;1');

FILE_NAME(
/* name */ 'tool.stp',
/* time_stamp */ '2025-06-25T20:48:14+03:00',
/* author */ (''),
/* organization */ (''),
/* preprocessor_version */ 'ST-DEVELOPER v19.4',
/* originating_system */ 'SIEMENS PLM Software NX2306.4000',
/* authorisation */ '');

FILE_SCHEMA (('AUTOMOTIVE_DESIGN { 1 0 10303 214 3 1 1 1 }'));
ENDSEC;

DATA;
#10=GEOMETRICALLY_BOUNDED_WIREFRAME_SHAPE_REPRESENTATION('tool-None',(#25),
#1589);
#11=SHAPE_REPRESENTATION_RELATIONSHIP('None',
'relationship between tool-None and tool-None',#24,#13);
#12=SHAPE_REPRESENTATION_RELATIONSHIP('None',
'relationship between tool-None and tool-None',#24,#10);
#13=ADVANCED_BREP_SHAPE_REPRESENTATION('tool-None',(#31),#1589);
#14=SHAPE_DEFINITION_REPRESENTATION(#15,#24);
#15=PRODUCT_DEFINITION_SHAPE('','',#16);
#16=PRODUCT_DEFINITION(' ','',#18,#17);
#17=PRODUCT_DEFINITION_CONTEXT('part definition',#23,'design');
#18=PRODUCT_DEFINITION_FORMATION_WITH_SPECIFIED_SOURCE(' ',' ',#20,
 .NOT_KNOWN.);
#19=PRODUCT_RELATED_PRODUCT_CATEGORY('part','',(#20));
#20=PRODUCT('tool','tool',' ',(#21));
#21=PRODUCT_CONTEXT(' ',#23,'mechanical');
#22=APPLICATION_PROTOCOL_DEFINITION('international standard',
'automotive_design',2010,#23);
#23=APPLICATION_CONTEXT(
'core data for automotive mechanical design processes');
#24=SHAPE_REPRESENTATION('tool-None',(#962),#1589);
#25=GEOMETRIC_CURVE_SET('None',(#1266));
#26=SURFACE_STYLE_USAGE(.BOTH.,#27);
#27=SURFACE_SIDE_STYLE('',(#28));
#28=SURFACE_STYLE_FILL_AREA(#29);
#29=FILL_AREA_STYLE('',(#30));
#30=FILL_AREA_STYLE_COLOUR('',#961);
#31=MANIFOLD_SOLID_BREP('',#32);
#32=CLOSED_SHELL('',(#94,#95,#96,#97,#98,#99,#100,#101,#102,#103,#104,#105,
#106,#107,#108,#109,#110,#111,#112,#113,#114,#115,#116,#117,#118,#119,#120,
#121,#122,#123,#124,#125,#126,#127,#128,#129,#130,#131,#132,#133,#134,#135,
#136,#137,#138,#139,#140,#141));
#33=SURFACE_OF_LINEAR_EXTRUSION('',#236,#899);
#34=SURFACE_OF_LINEAR_EXTRUSION('',#238,#908);
#35=SURFACE_OF_LINEAR_EXTRUSION('',#240,#924);
#36=SURFACE_OF_LINEAR_EXTRUSION('',#242,#926);
#37=SURFACE_OF_LINEAR_EXTRUSION('',#244,#934);
#38=SURFACE_OF_LINEAR_EXTRUSION('',#246,#936);
#39=CYLINDRICAL_SURFACE('',#978,23.5);
#40=CYLINDRICAL_SURFACE('',#981,30.);
#41=CYLINDRICAL_SURFACE('',#985,23.5);
#42=CYLINDRICAL_SURFACE('',#988,30.);
#43=CYLINDRICAL_SURFACE('',#992,23.5);
#44=CYLINDRICAL_SURFACE('',#995,30.);
#45=CYLINDRICAL_SURFACE('',#999,17.9804404091111);
#46=CYLINDRICAL_SURFACE('',#1013,17.9804404091111);
#47=CYLINDRICAL_SURFACE('',#1019,17.9804404091111);
#48=FACE_OUTER_BOUND('',#181,.T.);
#49=FACE_OUTER_BOUND('',#182,.T.);
#50=FACE_OUTER_BOUND('',#183,.T.);
#51=FACE_OUTER_BOUND('',#184,.T.);
#52=FACE_OUTER_BOUND('',#185,.T.);
#53=FACE_OUTER_BOUND('',#186,.T.);
#54=FACE_OUTER_BOUND('',#187,.T.);
#55=FACE_OUTER_BOUND('',#188,.T.);
#56=FACE_OUTER_BOUND('',#189,.T.);
#57=FACE_OUTER_BOUND('',#190,.T.);
#58=FACE_OUTER_BOUND('',#191,.T.);
#59=FACE_OUTER_BOUND('',#192,.T.);
#60=FACE_OUTER_BOUND('',#193,.T.);
#61=FACE_OUTER_BOUND('',#194,.T.);
#62=FACE_OUTER_BOUND('',#195,.T.);
#63=FACE_OUTER_BOUND('',#196,.T.);
#64=FACE_OUTER_BOUND('',#197,.T.);
#65=FACE_OUTER_BOUND('',#198,.T.);
#66=FACE_OUTER_BOUND('',#199,.T.);
#67=FACE_OUTER_BOUND('',#200,.T.);
#68=FACE_OUTER_BOUND('',#201,.T.);
#69=FACE_OUTER_BOUND('',#202,.T.);
#70=FACE_OUTER_BOUND('',#203,.T.);
#71=FACE_OUTER_BOUND('',#204,.T.);
#72=FACE_OUTER_BOUND('',#205,.T.);
#73=FACE_OUTER_BOUND('',#208,.T.);
#74=FACE_OUTER_BOUND('',#209,.T.);
#75=FACE_OUTER_BOUND('',#210,.T.);
#76=FACE_OUTER_BOUND('',#211,.T.);
#77=FACE_OUTER_BOUND('',#212,.T.);
#78=FACE_OUTER_BOUND('',#213,.T.);
#79=FACE_OUTER_BOUND('',#214,.T.);
#80=FACE_OUTER_BOUND('',#215,.T.);
#81=FACE_OUTER_BOUND('',#216,.T.);
#82=FACE_OUTER_BOUND('',#217,.T.);
#83=FACE_OUTER_BOUND('',#218,.T.);
#84=FACE_OUTER_BOUND('',#219,.T.);
#85=FACE_OUTER_BOUND('',#220,.T.);
#86=FACE_OUTER_BOUND('',#221,.T.);
#87=FACE_OUTER_BOUND('',#222,.T.);
#88=FACE_OUTER_BOUND('',#223,.T.);
#89=FACE_OUTER_BOUND('',#224,.T.);
#90=FACE_OUTER_BOUND('',#225,.T.);
#91=FACE_OUTER_BOUND('',#226,.T.);
#92=FACE_OUTER_BOUND('',#227,.T.);
#93=FACE_OUTER_BOUND('',#228,.T.);
#94=ADVANCED_FACE('',(#175,#176),#142,.T.);
#95=ADVANCED_FACE('',(#48),#39,.T.);
#96=ADVANCED_FACE('',(#49),#143,.F.);
#97=ADVANCED_FACE('',(#50),#40,.T.);
#98=ADVANCED_FACE('',(#51),#144,.F.);
#99=ADVANCED_FACE('',(#52),#41,.T.);
#100=ADVANCED_FACE('',(#53),#145,.F.);
#101=ADVANCED_FACE('',(#54),#42,.T.);
#102=ADVANCED_FACE('',(#55),#146,.F.);
#103=ADVANCED_FACE('',(#56),#43,.T.);
#104=ADVANCED_FACE('',(#57),#147,.F.);
#105=ADVANCED_FACE('',(#58),#44,.T.);
#106=ADVANCED_FACE('',(#59),#148,.F.);
#107=ADVANCED_FACE('',(#60),#149,.F.);
#108=ADVANCED_FACE('',(#61),#33,.F.);
#109=ADVANCED_FACE('',(#62),#45,.F.);
#110=ADVANCED_FACE('',(#63),#150,.F.);
#111=ADVANCED_FACE('',(#64),#151,.F.);
#112=ADVANCED_FACE('',(#65),#152,.F.);
#113=ADVANCED_FACE('',(#66),#153,.F.);
#114=ADVANCED_FACE('',(#67),#34,.F.);
#115=ADVANCED_FACE('',(#68),#154,.T.);
#116=ADVANCED_FACE('',(#69),#155,.F.);
#117=ADVANCED_FACE('',(#70),#156,.F.);
#118=ADVANCED_FACE('',(#71),#157,.F.);
#119=ADVANCED_FACE('',(#72),#158,.F.);
#120=ADVANCED_FACE('',(#177,#178),#159,.T.);
#121=ADVANCED_FACE('',(#73),#160,.F.);
#122=ADVANCED_FACE('',(#74),#35,.F.);
#123=ADVANCED_FACE('',(#75),#36,.F.);
#124=ADVANCED_FACE('',(#76),#161,.F.);
#125=ADVANCED_FACE('',(#77),#46,.F.);
#126=ADVANCED_FACE('',(#78),#162,.F.);
#127=ADVANCED_FACE('',(#79),#163,.F.);
#128=ADVANCED_FACE('',(#80),#164,.T.);
#129=ADVANCED_FACE('',(#81),#37,.F.);
#130=ADVANCED_FACE('',(#82),#38,.F.);
#131=ADVANCED_FACE('',(#83),#165,.F.);
#132=ADVANCED_FACE('',(#84),#47,.F.);
#133=ADVANCED_FACE('',(#85),#166,.F.);
#134=ADVANCED_FACE('',(#86),#167,.F.);
#135=ADVANCED_FACE('',(#87),#168,.F.);
#136=ADVANCED_FACE('',(#88),#169,.T.);
#137=ADVANCED_FACE('',(#89),#170,.F.);
#138=ADVANCED_FACE('',(#90),#171,.F.);
#139=ADVANCED_FACE('',(#91),#172,.F.);
#140=ADVANCED_FACE('',(#92),#173,.F.);
#141=ADVANCED_FACE('',(#93),#174,.T.);
#142=PLANE('',#975);
#143=PLANE('',#979);
#144=PLANE('',#982);
#145=PLANE('',#986);
#146=PLANE('',#989);
#147=PLANE('',#993);
#148=PLANE('',#996);
#149=PLANE('',#997);
#150=PLANE('',#1000);
#151=PLANE('',#1001);
#152=PLANE('',#1002);
#153=PLANE('',#1003);
#154=PLANE('',#1004);
#155=PLANE('',#1005);
#156=PLANE('',#1006);
#157=PLANE('',#1007);
#158=PLANE('',#1008);
#159=PLANE('',#1009);
#160=PLANE('',#1010);
#161=PLANE('',#1011);
#162=PLANE('',#1014);
#163=PLANE('',#1015);
#164=PLANE('',#1016);
#165=PLANE('',#1017);
#166=PLANE('',#1020);
#167=PLANE('',#1021);
#168=PLANE('',#1022);
#169=PLANE('',#1023);
#170=PLANE('',#1024);
#171=PLANE('',#1025);
#172=PLANE('',#1026);
#173=PLANE('',#1027);
#174=PLANE('',#1028);
#175=FACE_BOUND('',#179,.T.);
#176=FACE_BOUND('',#180,.T.);
#177=FACE_BOUND('',#206,.T.);
#178=FACE_BOUND('',#207,.T.);
#179=EDGE_LOOP('',(#271,#272,#273,#274,#275,#276,#277,#278,#279,#280,#281,
#282,#283,#284,#285,#286,#287,#288,#289,#290,#291,#292,#293,#294,#295,#296,
#297,#298,#299,#300,#301,#302,#303,#304,#305,#306));
#180=EDGE_LOOP('',(#307,#308,#309,#310));
#181=EDGE_LOOP('',(#311,#312,#313,#314,#315,#316,#317,#318));
#182=EDGE_LOOP('',(#319,#320,#321,#322));
#183=EDGE_LOOP('',(#323,#324,#325,#326));
#184=EDGE_LOOP('',(#327,#328,#329,#330));
#185=EDGE_LOOP('',(#331,#332,#333,#334,#335,#336,#337,#338));
#186=EDGE_LOOP('',(#339,#340,#341,#342));
#187=EDGE_LOOP('',(#343,#344,#345,#346));
#188=EDGE_LOOP('',(#347,#348,#349,#350));
#189=EDGE_LOOP('',(#351,#352,#353,#354,#355,#356,#357,#358));
#190=EDGE_LOOP('',(#359,#360,#361,#362));
#191=EDGE_LOOP('',(#363,#364,#365,#366));
#192=EDGE_LOOP('',(#367,#368,#369,#370));
#193=EDGE_LOOP('',(#371,#372,#373,#374,#375,#376,#377,#378,#379,#380,#381,
#382));
#194=EDGE_LOOP('',(#383,#384,#385,#386));
#195=EDGE_LOOP('',(#387,#388,#389,#390));
#196=EDGE_LOOP('',(#391,#392,#393,#394));
#197=EDGE_LOOP('',(#395,#396,#397,#398));
#198=EDGE_LOOP('',(#399,#400,#401,#402));
#199=EDGE_LOOP('',(#403,#404,#405,#406));
#200=EDGE_LOOP('',(#407,#408,#409,#410));
#201=EDGE_LOOP('',(#411,#412,#413,#414,#415,#416,#417,#418));
#202=EDGE_LOOP('',(#419,#420,#421,#422));
#203=EDGE_LOOP('',(#423,#424,#425,#426));
#204=EDGE_LOOP('',(#427,#428,#429,#430));
#205=EDGE_LOOP('',(#431,#432,#433,#434));
#206=EDGE_LOOP('',(#435,#436,#437,#438));
#207=EDGE_LOOP('',(#439,#440,#441,#442));
#208=EDGE_LOOP('',(#443,#444,#445,#446));
#209=EDGE_LOOP('',(#447,#448,#449,#450));
#210=EDGE_LOOP('',(#451,#452,#453,#454));
#211=EDGE_LOOP('',(#455,#456,#457,#458));
#212=EDGE_LOOP('',(#459,#460,#461,#462));
#213=EDGE_LOOP('',(#463,#464,#465,#466));
#214=EDGE_LOOP('',(#467,#468,#469,#470));
#215=EDGE_LOOP('',(#471,#472,#473,#474,#475,#476,#477,#478));
#216=EDGE_LOOP('',(#479,#480,#481,#482));
#217=EDGE_LOOP('',(#483,#484,#485,#486));
#218=EDGE_LOOP('',(#487,#488,#489,#490));
#219=EDGE_LOOP('',(#491,#492,#493,#494));
#220=EDGE_LOOP('',(#495,#496,#497,#498));
#221=EDGE_LOOP('',(#499,#500,#501,#502));
#222=EDGE_LOOP('',(#503,#504,#505,#506));
#223=EDGE_LOOP('',(#507,#508,#509,#510,#511,#512,#513,#514));
#224=EDGE_LOOP('',(#515,#516,#517,#518));
#225=EDGE_LOOP('',(#519,#520,#521,#522));
#226=EDGE_LOOP('',(#523,#524,#525,#526));
#227=EDGE_LOOP('',(#527,#528,#529,#530));
#228=EDGE_LOOP('',(#531,#532,#533,#534));
#229=B_SPLINE_CURVE_WITH_KNOTS('',3,(#1278,#1279,#1280,#1281),
 .UNSPECIFIED.,.F.,.F.,(4,4),(0.,1.),.UNSPECIFIED.);
#230=B_SPLINE_CURVE_WITH_KNOTS('',3,(#1283,#1284,#1285,#1286),
 .UNSPECIFIED.,.F.,.F.,(4,4),(0.,1.),.UNSPECIFIED.);
#231=B_SPLINE_CURVE_WITH_KNOTS('',3,(#1308,#1309,#1310,#1311),
 .UNSPECIFIED.,.F.,.F.,(4,4),(0.,1.),.UNSPECIFIED.);
#232=B_SPLINE_CURVE_WITH_KNOTS('',3,(#1313,#1314,#1315,#1316),
 .UNSPECIFIED.,.F.,.F.,(4,4),(0.,1.),.UNSPECIFIED.);
#233=B_SPLINE_CURVE_WITH_KNOTS('',3,(#1336,#1337,#1338,#1339),
 .UNSPECIFIED.,.F.,.F.,(4,4),(0.,1.),.UNSPECIFIED.);
#234=B_SPLINE_CURVE_WITH_KNOTS('',3,(#1341,#1342,#1343,#1344),
 .UNSPECIFIED.,.F.,.F.,(4,4),(0.,1.),.UNSPECIFIED.);
#235=B_SPLINE_CURVE_WITH_KNOTS('',3,(#1432,#1433,#1434,#1435),
 .UNSPECIFIED.,.F.,.F.,(4,4),(0.,1.),.UNSPECIFIED.);
#236=B_SPLINE_CURVE_WITH_KNOTS('',3,(#1438,#1439,#1440,#1441),
 .UNSPECIFIED.,.F.,.F.,(4,4),(0.,1.),.UNSPECIFIED.);
#237=B_SPLINE_CURVE_WITH_KNOTS('',3,(#1460,#1461,#1462,#1463),
 .UNSPECIFIED.,.F.,.F.,(4,4),(0.,1.),.UNSPECIFIED.);
#238=B_SPLINE_CURVE_WITH_KNOTS('',3,(#1464,#1465,#1466,#1467),
 .UNSPECIFIED.,.F.,.F.,(4,4),(0.,1.),.UNSPECIFIED.);
#239=B_SPLINE_CURVE_WITH_KNOTS('',3,(#1500,#1501,#1502,#1503),
 .UNSPECIFIED.,.F.,.F.,(4,4),(0.,1.),.UNSPECIFIED.);
#240=B_SPLINE_CURVE_WITH_KNOTS('',3,(#1504,#1505,#1506,#1507),
 .UNSPECIFIED.,.F.,.F.,(4,4),(0.,1.),.UNSPECIFIED.);
#241=B_SPLINE_CURVE_WITH_KNOTS('',3,(#1510,#1511,#1512,#1513),
 .UNSPECIFIED.,.F.,.F.,(4,4),(0.,1.),.UNSPECIFIED.);
#242=B_SPLINE_CURVE_WITH_KNOTS('',3,(#1514,#1515,#1516,#1517),
 .UNSPECIFIED.,.F.,.F.,(4,4),(0.,1.),.UNSPECIFIED.);
#243=B_SPLINE_CURVE_WITH_KNOTS('',3,(#1535,#1536,#1537,#1538),
 .UNSPECIFIED.,.F.,.F.,(4,4),(0.,1.),.UNSPECIFIED.);
#244=B_SPLINE_CURVE_WITH_KNOTS('',3,(#1539,#1540,#1541,#1542),
 .UNSPECIFIED.,.F.,.F.,(4,4),(0.,1.),.UNSPECIFIED.);
#245=B_SPLINE_CURVE_WITH_KNOTS('',3,(#1545,#1546,#1547,#1548),
 .UNSPECIFIED.,.F.,.F.,(4,4),(0.,1.),.UNSPECIFIED.);
#246=B_SPLINE_CURVE_WITH_KNOTS('',3,(#1549,#1550,#1551,#1552),
 .UNSPECIFIED.,.F.,.F.,(4,4),(0.,1.),.UNSPECIFIED.);
#247=CIRCLE('',#963,17.9804404091111);
#248=CIRCLE('',#964,23.5);
#249=CIRCLE('',#965,30.);
#250=CIRCLE('',#966,23.5);
#251=CIRCLE('',#967,17.9804404091111);
#252=CIRCLE('',#968,23.5);
#253=CIRCLE('',#969,30.);
#254=CIRCLE('',#970,23.5);
#255=CIRCLE('',#971,17.9804404091111);
#256=CIRCLE('',#972,23.5);
#257=CIRCLE('',#973,30.);
#258=CIRCLE('',#974,23.5);
#259=CIRCLE('',#976,23.5);
#260=CIRCLE('',#977,23.5);
#261=CIRCLE('',#980,30.);
#262=CIRCLE('',#983,23.5);
#263=CIRCLE('',#984,23.5);
#264=CIRCLE('',#987,30.);
#265=CIRCLE('',#990,23.5);
#266=CIRCLE('',#991,23.5);
#267=CIRCLE('',#994,30.);
#268=CIRCLE('',#998,17.9804404091111);
#269=CIRCLE('',#1012,17.9804404091111);
#270=CIRCLE('',#1018,17.9804404091111);
#271=ORIENTED_EDGE('',*,*,#623,.F.);
#272=ORIENTED_EDGE('',*,*,#624,.F.);
#273=ORIENTED_EDGE('',*,*,#625,.F.);
#274=ORIENTED_EDGE('',*,*,#626,.F.);
#275=ORIENTED_EDGE('',*,*,#627,.F.);
#276=ORIENTED_EDGE('',*,*,#628,.F.);
#277=ORIENTED_EDGE('',*,*,#629,.F.);
#278=ORIENTED_EDGE('',*,*,#630,.T.);
#279=ORIENTED_EDGE('',*,*,#631,.T.);
#280=ORIENTED_EDGE('',*,*,#632,.T.);
#281=ORIENTED_EDGE('',*,*,#633,.T.);
#282=ORIENTED_EDGE('',*,*,#634,.T.);
#283=ORIENTED_EDGE('',*,*,#635,.F.);
#284=ORIENTED_EDGE('',*,*,#636,.F.);
#285=ORIENTED_EDGE('',*,*,#637,.F.);
#286=ORIENTED_EDGE('',*,*,#638,.F.);
#287=ORIENTED_EDGE('',*,*,#639,.F.);
#288=ORIENTED_EDGE('',*,*,#640,.F.);
#289=ORIENTED_EDGE('',*,*,#641,.F.);
#290=ORIENTED_EDGE('',*,*,#642,.T.);
#291=ORIENTED_EDGE('',*,*,#643,.T.);
#292=ORIENTED_EDGE('',*,*,#644,.T.);
#293=ORIENTED_EDGE('',*,*,#645,.T.);
#294=ORIENTED_EDGE('',*,*,#646,.T.);
#295=ORIENTED_EDGE('',*,*,#647,.F.);
#296=ORIENTED_EDGE('',*,*,#648,.F.);
#297=ORIENTED_EDGE('',*,*,#649,.F.);
#298=ORIENTED_EDGE('',*,*,#650,.F.);
#299=ORIENTED_EDGE('',*,*,#651,.F.);
#300=ORIENTED_EDGE('',*,*,#652,.F.);
#301=ORIENTED_EDGE('',*,*,#653,.F.);
#302=ORIENTED_EDGE('',*,*,#654,.T.);
#303=ORIENTED_EDGE('',*,*,#655,.T.);
#304=ORIENTED_EDGE('',*,*,#656,.T.);
#305=ORIENTED_EDGE('',*,*,#657,.T.);
#306=ORIENTED_EDGE('',*,*,#658,.T.);
#307=ORIENTED_EDGE('',*,*,#659,.F.);
#308=ORIENTED_EDGE('',*,*,#660,.F.);
#309=ORIENTED_EDGE('',*,*,#661,.F.);
#310=ORIENTED_EDGE('',*,*,#662,.F.);
#311=ORIENTED_EDGE('',*,*,#663,.T.);
#312=ORIENTED_EDGE('',*,*,#664,.F.);
#313=ORIENTED_EDGE('',*,*,#630,.F.);
#314=ORIENTED_EDGE('',*,*,#665,.F.);
#315=ORIENTED_EDGE('',*,*,#666,.F.);
#316=ORIENTED_EDGE('',*,*,#667,.T.);
#317=ORIENTED_EDGE('',*,*,#658,.F.);
#318=ORIENTED_EDGE('',*,*,#668,.T.);
#319=ORIENTED_EDGE('',*,*,#669,.T.);
#320=ORIENTED_EDGE('',*,*,#670,.F.);
#321=ORIENTED_EDGE('',*,*,#631,.F.);
#322=ORIENTED_EDGE('',*,*,#664,.T.);
#323=ORIENTED_EDGE('',*,*,#671,.T.);
#324=ORIENTED_EDGE('',*,*,#672,.F.);
#325=ORIENTED_EDGE('',*,*,#632,.F.);
#326=ORIENTED_EDGE('',*,*,#670,.T.);
#327=ORIENTED_EDGE('',*,*,#673,.T.);
#328=ORIENTED_EDGE('',*,*,#674,.F.);
#329=ORIENTED_EDGE('',*,*,#633,.F.);
#330=ORIENTED_EDGE('',*,*,#672,.T.);
#331=ORIENTED_EDGE('',*,*,#675,.T.);
#332=ORIENTED_EDGE('',*,*,#676,.F.);
#333=ORIENTED_EDGE('',*,*,#642,.F.);
#334=ORIENTED_EDGE('',*,*,#677,.F.);
#335=ORIENTED_EDGE('',*,*,#678,.F.);
#336=ORIENTED_EDGE('',*,*,#679,.T.);
#337=ORIENTED_EDGE('',*,*,#634,.F.);
#338=ORIENTED_EDGE('',*,*,#674,.T.);
#339=ORIENTED_EDGE('',*,*,#680,.T.);
#340=ORIENTED_EDGE('',*,*,#681,.F.);
#341=ORIENTED_EDGE('',*,*,#643,.F.);
#342=ORIENTED_EDGE('',*,*,#676,.T.);
#343=ORIENTED_EDGE('',*,*,#682,.T.);
#344=ORIENTED_EDGE('',*,*,#683,.F.);
#345=ORIENTED_EDGE('',*,*,#644,.F.);
#346=ORIENTED_EDGE('',*,*,#681,.T.);
#347=ORIENTED_EDGE('',*,*,#684,.T.);
#348=ORIENTED_EDGE('',*,*,#685,.F.);
#349=ORIENTED_EDGE('',*,*,#645,.F.);
#350=ORIENTED_EDGE('',*,*,#683,.T.);
#351=ORIENTED_EDGE('',*,*,#686,.T.);
#352=ORIENTED_EDGE('',*,*,#687,.F.);
#353=ORIENTED_EDGE('',*,*,#654,.F.);
#354=ORIENTED_EDGE('',*,*,#688,.F.);
#355=ORIENTED_EDGE('',*,*,#689,.F.);
#356=ORIENTED_EDGE('',*,*,#690,.T.);
#357=ORIENTED_EDGE('',*,*,#646,.F.);
#358=ORIENTED_EDGE('',*,*,#685,.T.);
#359=ORIENTED_EDGE('',*,*,#691,.T.);
#360=ORIENTED_EDGE('',*,*,#692,.F.);
#361=ORIENTED_EDGE('',*,*,#655,.F.);
#362=ORIENTED_EDGE('',*,*,#687,.T.);
#363=ORIENTED_EDGE('',*,*,#693,.T.);
#364=ORIENTED_EDGE('',*,*,#694,.F.);
#365=ORIENTED_EDGE('',*,*,#656,.F.);
#366=ORIENTED_EDGE('',*,*,#692,.T.);
#367=ORIENTED_EDGE('',*,*,#695,.T.);
#368=ORIENTED_EDGE('',*,*,#668,.F.);
#369=ORIENTED_EDGE('',*,*,#657,.F.);
#370=ORIENTED_EDGE('',*,*,#694,.T.);
#371=ORIENTED_EDGE('',*,*,#663,.F.);
#372=ORIENTED_EDGE('',*,*,#695,.F.);
#373=ORIENTED_EDGE('',*,*,#693,.F.);
#374=ORIENTED_EDGE('',*,*,#691,.F.);
#375=ORIENTED_EDGE('',*,*,#686,.F.);
#376=ORIENTED_EDGE('',*,*,#684,.F.);
#377=ORIENTED_EDGE('',*,*,#682,.F.);
#378=ORIENTED_EDGE('',*,*,#680,.F.);
#379=ORIENTED_EDGE('',*,*,#675,.F.);
#380=ORIENTED_EDGE('',*,*,#673,.F.);
#381=ORIENTED_EDGE('',*,*,#671,.F.);
#382=ORIENTED_EDGE('',*,*,#669,.F.);
#383=ORIENTED_EDGE('',*,*,#651,.T.);
#384=ORIENTED_EDGE('',*,*,#696,.F.);
#385=ORIENTED_EDGE('',*,*,#697,.F.);
#386=ORIENTED_EDGE('',*,*,#698,.T.);
#387=ORIENTED_EDGE('',*,*,#650,.T.);
#388=ORIENTED_EDGE('',*,*,#699,.F.);
#389=ORIENTED_EDGE('',*,*,#700,.F.);
#390=ORIENTED_EDGE('',*,*,#696,.T.);
#391=ORIENTED_EDGE('',*,*,#649,.T.);
#392=ORIENTED_EDGE('',*,*,#701,.F.);
#393=ORIENTED_EDGE('',*,*,#702,.F.);
#394=ORIENTED_EDGE('',*,*,#699,.T.);
#395=ORIENTED_EDGE('',*,*,#648,.T.);
#396=ORIENTED_EDGE('',*,*,#703,.F.);
#397=ORIENTED_EDGE('',*,*,#704,.F.);
#398=ORIENTED_EDGE('',*,*,#701,.T.);
#399=ORIENTED_EDGE('',*,*,#647,.T.);
#400=ORIENTED_EDGE('',*,*,#690,.F.);
#401=ORIENTED_EDGE('',*,*,#705,.F.);
#402=ORIENTED_EDGE('',*,*,#703,.T.);
#403=ORIENTED_EDGE('',*,*,#653,.T.);
#404=ORIENTED_EDGE('',*,*,#706,.F.);
#405=ORIENTED_EDGE('',*,*,#707,.F.);
#406=ORIENTED_EDGE('',*,*,#688,.T.);
#407=ORIENTED_EDGE('',*,*,#652,.T.);
#408=ORIENTED_EDGE('',*,*,#698,.F.);
#409=ORIENTED_EDGE('',*,*,#708,.F.);
#410=ORIENTED_EDGE('',*,*,#706,.T.);
#411=ORIENTED_EDGE('',*,*,#697,.T.);
#412=ORIENTED_EDGE('',*,*,#700,.T.);
#413=ORIENTED_EDGE('',*,*,#702,.T.);
#414=ORIENTED_EDGE('',*,*,#704,.T.);
#415=ORIENTED_EDGE('',*,*,#705,.T.);
#416=ORIENTED_EDGE('',*,*,#689,.T.);
#417=ORIENTED_EDGE('',*,*,#707,.T.);
#418=ORIENTED_EDGE('',*,*,#708,.T.);
#419=ORIENTED_EDGE('',*,*,#660,.T.);
#420=ORIENTED_EDGE('',*,*,#709,.F.);
#421=ORIENTED_EDGE('',*,*,#710,.F.);
#422=ORIENTED_EDGE('',*,*,#711,.T.);
#423=ORIENTED_EDGE('',*,*,#659,.T.);
#424=ORIENTED_EDGE('',*,*,#712,.F.);
#425=ORIENTED_EDGE('',*,*,#713,.F.);
#426=ORIENTED_EDGE('',*,*,#709,.T.);
#427=ORIENTED_EDGE('',*,*,#662,.T.);
#428=ORIENTED_EDGE('',*,*,#714,.F.);
#429=ORIENTED_EDGE('',*,*,#715,.F.);
#430=ORIENTED_EDGE('',*,*,#712,.T.);
#431=ORIENTED_EDGE('',*,*,#661,.T.);
#432=ORIENTED_EDGE('',*,*,#711,.F.);
#433=ORIENTED_EDGE('',*,*,#716,.F.);
#434=ORIENTED_EDGE('',*,*,#714,.T.);
#435=ORIENTED_EDGE('',*,*,#717,.F.);
#436=ORIENTED_EDGE('',*,*,#718,.F.);
#437=ORIENTED_EDGE('',*,*,#719,.F.);
#438=ORIENTED_EDGE('',*,*,#720,.F.);
#439=ORIENTED_EDGE('',*,*,#710,.T.);
#440=ORIENTED_EDGE('',*,*,#713,.T.);
#441=ORIENTED_EDGE('',*,*,#715,.T.);
#442=ORIENTED_EDGE('',*,*,#716,.T.);
#443=ORIENTED_EDGE('',*,*,#635,.T.);
#444=ORIENTED_EDGE('',*,*,#679,.F.);
#445=ORIENTED_EDGE('',*,*,#721,.F.);
#446=ORIENTED_EDGE('',*,*,#722,.T.);
#447=ORIENTED_EDGE('',*,*,#641,.T.);
#448=ORIENTED_EDGE('',*,*,#723,.F.);
#449=ORIENTED_EDGE('',*,*,#724,.F.);
#450=ORIENTED_EDGE('',*,*,#677,.T.);
#451=ORIENTED_EDGE('',*,*,#640,.T.);
#452=ORIENTED_EDGE('',*,*,#725,.F.);
#453=ORIENTED_EDGE('',*,*,#726,.F.);
#454=ORIENTED_EDGE('',*,*,#723,.T.);
#455=ORIENTED_EDGE('',*,*,#639,.T.);
#456=ORIENTED_EDGE('',*,*,#727,.F.);
#457=ORIENTED_EDGE('',*,*,#728,.F.);
#458=ORIENTED_EDGE('',*,*,#725,.T.);
#459=ORIENTED_EDGE('',*,*,#638,.T.);
#460=ORIENTED_EDGE('',*,*,#729,.F.);
#461=ORIENTED_EDGE('',*,*,#730,.F.);
#462=ORIENTED_EDGE('',*,*,#727,.T.);
#463=ORIENTED_EDGE('',*,*,#637,.T.);
#464=ORIENTED_EDGE('',*,*,#731,.F.);
#465=ORIENTED_EDGE('',*,*,#732,.F.);
#466=ORIENTED_EDGE('',*,*,#729,.T.);
#467=ORIENTED_EDGE('',*,*,#636,.T.);
#468=ORIENTED_EDGE('',*,*,#722,.F.);
#469=ORIENTED_EDGE('',*,*,#733,.F.);
#470=ORIENTED_EDGE('',*,*,#731,.T.);
#471=ORIENTED_EDGE('',*,*,#721,.T.);
#472=ORIENTED_EDGE('',*,*,#678,.T.);
#473=ORIENTED_EDGE('',*,*,#724,.T.);
#474=ORIENTED_EDGE('',*,*,#726,.T.);
#475=ORIENTED_EDGE('',*,*,#728,.T.);
#476=ORIENTED_EDGE('',*,*,#730,.T.);
#477=ORIENTED_EDGE('',*,*,#732,.T.);
#478=ORIENTED_EDGE('',*,*,#733,.T.);
#479=ORIENTED_EDGE('',*,*,#629,.T.);
#480=ORIENTED_EDGE('',*,*,#734,.F.);
#481=ORIENTED_EDGE('',*,*,#735,.F.);
#482=ORIENTED_EDGE('',*,*,#665,.T.);
#483=ORIENTED_EDGE('',*,*,#628,.T.);
#484=ORIENTED_EDGE('',*,*,#736,.F.);
#485=ORIENTED_EDGE('',*,*,#737,.F.);
#486=ORIENTED_EDGE('',*,*,#734,.T.);
#487=ORIENTED_EDGE('',*,*,#627,.T.);
#488=ORIENTED_EDGE('',*,*,#738,.F.);
#489=ORIENTED_EDGE('',*,*,#739,.F.);
#490=ORIENTED_EDGE('',*,*,#736,.T.);
#491=ORIENTED_EDGE('',*,*,#626,.T.);
#492=ORIENTED_EDGE('',*,*,#740,.F.);
#493=ORIENTED_EDGE('',*,*,#741,.F.);
#494=ORIENTED_EDGE('',*,*,#738,.T.);
#495=ORIENTED_EDGE('',*,*,#625,.T.);
#496=ORIENTED_EDGE('',*,*,#742,.F.);
#497=ORIENTED_EDGE('',*,*,#743,.F.);
#498=ORIENTED_EDGE('',*,*,#740,.T.);
#499=ORIENTED_EDGE('',*,*,#624,.T.);
#500=ORIENTED_EDGE('',*,*,#744,.F.);
#501=ORIENTED_EDGE('',*,*,#745,.F.);
#502=ORIENTED_EDGE('',*,*,#742,.T.);
#503=ORIENTED_EDGE('',*,*,#623,.T.);
#504=ORIENTED_EDGE('',*,*,#667,.F.);
#505=ORIENTED_EDGE('',*,*,#746,.F.);
#506=ORIENTED_EDGE('',*,*,#744,.T.);
#507=ORIENTED_EDGE('',*,*,#666,.T.);
#508=ORIENTED_EDGE('',*,*,#735,.T.);
#509=ORIENTED_EDGE('',*,*,#737,.T.);
#510=ORIENTED_EDGE('',*,*,#739,.T.);
#511=ORIENTED_EDGE('',*,*,#741,.T.);
#512=ORIENTED_EDGE('',*,*,#743,.T.);
#513=ORIENTED_EDGE('',*,*,#745,.T.);
#514=ORIENTED_EDGE('',*,*,#746,.T.);
#515=ORIENTED_EDGE('',*,*,#717,.T.);
#516=ORIENTED_EDGE('',*,*,#747,.F.);
#517=ORIENTED_EDGE('',*,*,#748,.F.);
#518=ORIENTED_EDGE('',*,*,#749,.T.);
#519=ORIENTED_EDGE('',*,*,#720,.T.);
#520=ORIENTED_EDGE('',*,*,#750,.F.);
#521=ORIENTED_EDGE('',*,*,#751,.F.);
#522=ORIENTED_EDGE('',*,*,#747,.T.);
#523=ORIENTED_EDGE('',*,*,#719,.T.);
#524=ORIENTED_EDGE('',*,*,#752,.F.);
#525=ORIENTED_EDGE('',*,*,#753,.F.);
#526=ORIENTED_EDGE('',*,*,#750,.T.);
#527=ORIENTED_EDGE('',*,*,#718,.T.);
#528=ORIENTED_EDGE('',*,*,#749,.F.);
#529=ORIENTED_EDGE('',*,*,#754,.F.);
#530=ORIENTED_EDGE('',*,*,#752,.T.);
#531=ORIENTED_EDGE('',*,*,#748,.T.);
#532=ORIENTED_EDGE('',*,*,#751,.T.);
#533=ORIENTED_EDGE('',*,*,#753,.T.);
#534=ORIENTED_EDGE('',*,*,#754,.T.);
#535=VERTEX_POINT('',#1268);
#536=VERTEX_POINT('',#1269);
#537=VERTEX_POINT('',#1271);
#538=VERTEX_POINT('',#1273);
#539=VERTEX_POINT('',#1275);
#540=VERTEX_POINT('',#1277);
#541=VERTEX_POINT('',#1282);
#542=VERTEX_POINT('',#1287);
#543=VERTEX_POINT('',#1289);
#544=VERTEX_POINT('',#1291);
#545=VERTEX_POINT('',#1293);
#546=VERTEX_POINT('',#1295);
#547=VERTEX_POINT('',#1297);
#548=VERTEX_POINT('',#1299);
#549=VERTEX_POINT('',#1301);
#550=VERTEX_POINT('',#1303);
#551=VERTEX_POINT('',#1305);
#552=VERTEX_POINT('',#1307);
#553=VERTEX_POINT('',#1312);
#554=VERTEX_POINT('',#1317);
#555=VERTEX_POINT('',#1319);
#556=VERTEX_POINT('',#1321);
#557=VERTEX_POINT('',#1323);
#558=VERTEX_POINT('',#1325);
#559=VERTEX_POINT('',#1327);
#560=VERTEX_POINT('',#1329);
#561=VERTEX_POINT('',#1331);
#562=VERTEX_POINT('',#1333);
#563=VERTEX_POINT('',#1335);
#564=VERTEX_POINT('',#1340);
#565=VERTEX_POINT('',#1345);
#566=VERTEX_POINT('',#1347);
#567=VERTEX_POINT('',#1349);
#568=VERTEX_POINT('',#1351);
#569=VERTEX_POINT('',#1353);
#570=VERTEX_POINT('',#1355);
#571=VERTEX_POINT('',#1358);
#572=VERTEX_POINT('',#1359);
#573=VERTEX_POINT('',#1361);
#574=VERTEX_POINT('',#1363);
#575=VERTEX_POINT('',#1367);
#576=VERTEX_POINT('',#1368);
#577=VERTEX_POINT('',#1371);
#578=VERTEX_POINT('',#1373);
#579=VERTEX_POINT('',#1378);
#580=VERTEX_POINT('',#1382);
#581=VERTEX_POINT('',#1386);
#582=VERTEX_POINT('',#1390);
#583=VERTEX_POINT('',#1393);
#584=VERTEX_POINT('',#1395);
#585=VERTEX_POINT('',#1399);
#586=VERTEX_POINT('',#1403);
#587=VERTEX_POINT('',#1407);
#588=VERTEX_POINT('',#1411);
#589=VERTEX_POINT('',#1414);
#590=VERTEX_POINT('',#1416);
#591=VERTEX_POINT('',#1420);
#592=VERTEX_POINT('',#1424);
#593=VERTEX_POINT('',#1431);
#594=VERTEX_POINT('',#1436);
#595=VERTEX_POINT('',#1443);
#596=VERTEX_POINT('',#1447);
#597=VERTEX_POINT('',#1451);
#598=VERTEX_POINT('',#1457);
#599=VERTEX_POINT('',#1470);
#600=VERTEX_POINT('',#1472);
#601=VERTEX_POINT('',#1476);
#602=VERTEX_POINT('',#1480);
#603=VERTEX_POINT('',#1486);
#604=VERTEX_POINT('',#1487);
#605=VERTEX_POINT('',#1489);
#606=VERTEX_POINT('',#1491);
#607=VERTEX_POINT('',#1495);
#608=VERTEX_POINT('',#1499);
#609=VERTEX_POINT('',#1509);
#610=VERTEX_POINT('',#1519);
#611=VERTEX_POINT('',#1523);
#612=VERTEX_POINT('',#1527);
#613=VERTEX_POINT('',#1534);
#614=VERTEX_POINT('',#1544);
#615=VERTEX_POINT('',#1554);
#616=VERTEX_POINT('',#1558);
#617=VERTEX_POINT('',#1562);
#618=VERTEX_POINT('',#1566);
#619=VERTEX_POINT('',#1573);
#620=VERTEX_POINT('',#1575);
#621=VERTEX_POINT('',#1579);
#622=VERTEX_POINT('',#1583);
#623=EDGE_CURVE('',#535,#536,#755,.T.);
#624=EDGE_CURVE('',#537,#535,#756,.T.);
#625=EDGE_CURVE('',#538,#537,#757,.T.);
#626=EDGE_CURVE('',#539,#538,#247,.T.);
#627=EDGE_CURVE('',#540,#539,#758,.T.);
#628=EDGE_CURVE('',#541,#540,#229,.T.);
#629=EDGE_CURVE('',#542,#541,#230,.T.);
#630=EDGE_CURVE('',#542,#543,#248,.T.);
#631=EDGE_CURVE('',#543,#544,#759,.T.);
#632=EDGE_CURVE('',#544,#545,#249,.T.);
#633=EDGE_CURVE('',#545,#546,#760,.T.);
#634=EDGE_CURVE('',#546,#547,#250,.T.);
#635=EDGE_CURVE('',#548,#547,#761,.T.);
#636=EDGE_CURVE('',#549,#548,#762,.T.);
#637=EDGE_CURVE('',#550,#549,#763,.T.);
#638=EDGE_CURVE('',#551,#550,#251,.T.);
#639=EDGE_CURVE('',#552,#551,#764,.T.);
#640=EDGE_CURVE('',#553,#552,#231,.T.);
#641=EDGE_CURVE('',#554,#553,#232,.T.);
#642=EDGE_CURVE('',#554,#555,#252,.T.);
#643=EDGE_CURVE('',#555,#556,#765,.T.);
#644=EDGE_CURVE('',#556,#557,#253,.T.);
#645=EDGE_CURVE('',#557,#558,#766,.T.);
#646=EDGE_CURVE('',#558,#559,#254,.T.);
#647=EDGE_CURVE('',#560,#559,#767,.T.);
#648=EDGE_CURVE('',#561,#560,#768,.T.);
#649=EDGE_CURVE('',#562,#561,#769,.T.);
#650=EDGE_CURVE('',#563,#562,#255,.T.);
#651=EDGE_CURVE('',#564,#563,#233,.T.);
#652=EDGE_CURVE('',#565,#564,#234,.T.);
#653=EDGE_CURVE('',#566,#565,#770,.T.);
#654=EDGE_CURVE('',#566,#567,#256,.T.);
#655=EDGE_CURVE('',#567,#568,#771,.T.);
#656=EDGE_CURVE('',#568,#569,#257,.T.);
#657=EDGE_CURVE('',#569,#570,#772,.T.);
#658=EDGE_CURVE('',#570,#536,#258,.T.);
#659=EDGE_CURVE('',#571,#572,#773,.T.);
#660=EDGE_CURVE('',#573,#571,#774,.T.);
#661=EDGE_CURVE('',#574,#573,#775,.T.);
#662=EDGE_CURVE('',#572,#574,#776,.T.);
#663=EDGE_CURVE('',#575,#576,#259,.T.);
#664=EDGE_CURVE('',#543,#576,#777,.T.);
#665=EDGE_CURVE('',#577,#542,#778,.T.);
#666=EDGE_CURVE('',#578,#577,#260,.T.);
#667=EDGE_CURVE('',#578,#536,#779,.T.);
#668=EDGE_CURVE('',#570,#575,#780,.T.);
#669=EDGE_CURVE('',#576,#579,#781,.T.);
#670=EDGE_CURVE('',#544,#579,#782,.T.);
#671=EDGE_CURVE('',#579,#580,#261,.T.);
#672=EDGE_CURVE('',#545,#580,#783,.T.);
#673=EDGE_CURVE('',#580,#581,#784,.T.);
#674=EDGE_CURVE('',#546,#581,#785,.T.);
#675=EDGE_CURVE('',#581,#582,#262,.T.);
#676=EDGE_CURVE('',#555,#582,#786,.T.);
#677=EDGE_CURVE('',#583,#554,#787,.T.);
#678=EDGE_CURVE('',#584,#583,#263,.T.);
#679=EDGE_CURVE('',#584,#547,#788,.T.);
#680=EDGE_CURVE('',#582,#585,#789,.T.);
#681=EDGE_CURVE('',#556,#585,#790,.T.);
#682=EDGE_CURVE('',#585,#586,#264,.T.);
#683=EDGE_CURVE('',#557,#586,#791,.T.);
#684=EDGE_CURVE('',#586,#587,#792,.T.);
#685=EDGE_CURVE('',#558,#587,#793,.T.);
#686=EDGE_CURVE('',#587,#588,#265,.T.);
#687=EDGE_CURVE('',#567,#588,#794,.T.);
#688=EDGE_CURVE('',#589,#566,#795,.T.);
#689=EDGE_CURVE('',#590,#589,#266,.T.);
#690=EDGE_CURVE('',#590,#559,#796,.T.);
#691=EDGE_CURVE('',#588,#591,#797,.T.);
#692=EDGE_CURVE('',#568,#591,#798,.T.);
#693=EDGE_CURVE('',#591,#592,#267,.T.);
#694=EDGE_CURVE('',#569,#592,#799,.T.);
#695=EDGE_CURVE('',#592,#575,#800,.T.);
#696=EDGE_CURVE('',#593,#563,#801,.T.);
#697=EDGE_CURVE('',#594,#593,#235,.T.);
#698=EDGE_CURVE('',#594,#564,#802,.T.);
#699=EDGE_CURVE('',#595,#562,#803,.T.);
#700=EDGE_CURVE('',#593,#595,#268,.T.);
#701=EDGE_CURVE('',#596,#561,#804,.T.);
#702=EDGE_CURVE('',#595,#596,#805,.T.);
#703=EDGE_CURVE('',#597,#560,#806,.T.);
#704=EDGE_CURVE('',#596,#597,#807,.T.);
#705=EDGE_CURVE('',#597,#590,#808,.T.);
#706=EDGE_CURVE('',#598,#565,#809,.T.);
#707=EDGE_CURVE('',#589,#598,#810,.T.);
#708=EDGE_CURVE('',#598,#594,#237,.T.);
#709=EDGE_CURVE('',#599,#571,#811,.T.);
#710=EDGE_CURVE('',#600,#599,#812,.T.);
#711=EDGE_CURVE('',#600,#573,#813,.T.);
#712=EDGE_CURVE('',#601,#572,#814,.T.);
#713=EDGE_CURVE('',#599,#601,#815,.T.);
#714=EDGE_CURVE('',#602,#574,#816,.T.);
#715=EDGE_CURVE('',#601,#602,#817,.T.);
#716=EDGE_CURVE('',#602,#600,#818,.T.);
#717=EDGE_CURVE('',#603,#604,#819,.T.);
#718=EDGE_CURVE('',#605,#603,#820,.T.);
#719=EDGE_CURVE('',#606,#605,#821,.T.);
#720=EDGE_CURVE('',#604,#606,#822,.T.);
#721=EDGE_CURVE('',#607,#584,#823,.T.);
#722=EDGE_CURVE('',#607,#548,#824,.T.);
#723=EDGE_CURVE('',#608,#553,#825,.T.);
#724=EDGE_CURVE('',#583,#608,#239,.T.);
#725=EDGE_CURVE('',#609,#552,#826,.T.);
#726=EDGE_CURVE('',#608,#609,#241,.T.);
#727=EDGE_CURVE('',#610,#551,#827,.T.);
#728=EDGE_CURVE('',#609,#610,#828,.T.);
#729=EDGE_CURVE('',#611,#550,#829,.T.);
#730=EDGE_CURVE('',#610,#611,#269,.T.);
#731=EDGE_CURVE('',#612,#549,#830,.T.);
#732=EDGE_CURVE('',#611,#612,#831,.T.);
#733=EDGE_CURVE('',#612,#607,#832,.T.);
#734=EDGE_CURVE('',#613,#541,#833,.T.);
#735=EDGE_CURVE('',#577,#613,#243,.T.);
#736=EDGE_CURVE('',#614,#540,#834,.T.);
#737=EDGE_CURVE('',#613,#614,#245,.T.);
#738=EDGE_CURVE('',#615,#539,#835,.T.);
#739=EDGE_CURVE('',#614,#615,#836,.T.);
#740=EDGE_CURVE('',#616,#538,#837,.T.);
#741=EDGE_CURVE('',#615,#616,#270,.T.);
#742=EDGE_CURVE('',#617,#537,#838,.T.);
#743=EDGE_CURVE('',#616,#617,#839,.T.);
#744=EDGE_CURVE('',#618,#535,#840,.T.);
#745=EDGE_CURVE('',#617,#618,#841,.T.);
#746=EDGE_CURVE('',#618,#578,#842,.T.);
#747=EDGE_CURVE('',#619,#604,#843,.T.);
#748=EDGE_CURVE('',#620,#619,#844,.T.);
#749=EDGE_CURVE('',#620,#603,#845,.T.);
#750=EDGE_CURVE('',#621,#606,#846,.T.);
#751=EDGE_CURVE('',#619,#621,#847,.T.);
#752=EDGE_CURVE('',#622,#605,#848,.T.);
#753=EDGE_CURVE('',#621,#622,#849,.T.);
#754=EDGE_CURVE('',#622,#620,#850,.T.);
#755=LINE('',#1267,#851);
#756=LINE('',#1270,#852);
#757=LINE('',#1272,#853);
#758=LINE('',#1276,#854);
#759=LINE('',#1290,#855);
#760=LINE('',#1294,#856);
#761=LINE('',#1298,#857);
#762=LINE('',#1300,#858);
#763=LINE('',#1302,#859);
#764=LINE('',#1306,#860);
#765=LINE('',#1320,#861);
#766=LINE('',#1324,#862);
#767=LINE('',#1328,#863);
#768=LINE('',#1330,#864);
#769=LINE('',#1332,#865);
#770=LINE('',#1346,#866);
#771=LINE('',#1350,#867);
#772=LINE('',#1354,#868);
#773=LINE('',#1357,#869);
#774=LINE('',#1360,#870);
#775=LINE('',#1362,#871);
#776=LINE('',#1364,#872);
#777=LINE('',#1369,#873);
#778=LINE('',#1370,#874);
#779=LINE('',#1374,#875);
#780=LINE('',#1375,#876);
#781=LINE('',#1377,#877);
#782=LINE('',#1379,#878);
#783=LINE('',#1383,#879);
#784=LINE('',#1385,#880);
#785=LINE('',#1387,#881);
#786=LINE('',#1391,#882);
#787=LINE('',#1392,#883);
#788=LINE('',#1396,#884);
#789=LINE('',#1398,#885);
#790=LINE('',#1400,#886);
#791=LINE('',#1404,#887);
#792=LINE('',#1406,#888);
#793=LINE('',#1408,#889);
#794=LINE('',#1412,#890);
#795=LINE('',#1413,#891);
#796=LINE('',#1417,#892);
#797=LINE('',#1419,#893);
#798=LINE('',#1421,#894);
#799=LINE('',#1425,#895);
#800=LINE('',#1427,#896);
#801=LINE('',#1430,#897);
#802=LINE('',#1437,#898);
#803=LINE('',#1442,#900);
#804=LINE('',#1446,#901);
#805=LINE('',#1448,#902);
#806=LINE('',#1450,#903);
#807=LINE('',#1452,#904);
#808=LINE('',#1454,#905);
#809=LINE('',#1456,#906);
#810=LINE('',#1458,#907);
#811=LINE('',#1469,#909);
#812=LINE('',#1471,#910);
#813=LINE('',#1473,#911);
#814=LINE('',#1475,#912);
#815=LINE('',#1477,#913);
#816=LINE('',#1479,#914);
#817=LINE('',#1481,#915);
#818=LINE('',#1483,#916);
#819=LINE('',#1485,#917);
#820=LINE('',#1488,#918);
#821=LINE('',#1490,#919);
#822=LINE('',#1492,#920);
#823=LINE('',#1494,#921);
#824=LINE('',#1496,#922);
#825=LINE('',#1498,#923);
#826=LINE('',#1508,#925);
#827=LINE('',#1518,#927);
#828=LINE('',#1520,#928);
#829=LINE('',#1522,#929);
#830=LINE('',#1526,#930);
#831=LINE('',#1528,#931);
#832=LINE('',#1530,#932);
#833=LINE('',#1533,#933);
#834=LINE('',#1543,#935);
#835=LINE('',#1553,#937);
#836=LINE('',#1555,#938);
#837=LINE('',#1557,#939);
#838=LINE('',#1561,#940);
#839=LINE('',#1563,#941);
#840=LINE('',#1565,#942);
#841=LINE('',#1567,#943);
#842=LINE('',#1569,#944);
#843=LINE('',#1572,#945);
#844=LINE('',#1574,#946);
#845=LINE('',#1576,#947);
#846=LINE('',#1578,#948);
#847=LINE('',#1580,#949);
#848=LINE('',#1582,#950);
#849=LINE('',#1584,#951);
#850=LINE('',#1586,#952);
#851=VECTOR('',#1031,1.);
#852=VECTOR('',#1032,1.);
#853=VECTOR('',#1033,1.);
#854=VECTOR('',#1036,1.);
#855=VECTOR('',#1039,1.);
#856=VECTOR('',#1042,1.);
#857=VECTOR('',#1045,1.);
#858=VECTOR('',#1046,1.);
#859=VECTOR('',#1047,1.);
#860=VECTOR('',#1050,1.);
#861=VECTOR('',#1053,1.);
#862=VECTOR('',#1056,1.);
#863=VECTOR('',#1059,1.);
#864=VECTOR('',#1060,1.);
#865=VECTOR('',#1061,1.);
#866=VECTOR('',#1064,1.);
#867=VECTOR('',#1067,1.);
#868=VECTOR('',#1070,1.);
#869=VECTOR('',#1073,1.);
#870=VECTOR('',#1074,1.);
#871=VECTOR('',#1075,1.);
#872=VECTOR('',#1076,1.);
#873=VECTOR('',#1081,1.);
#874=VECTOR('',#1082,1.);
#875=VECTOR('',#1085,1.);
#876=VECTOR('',#1086,1.);
#877=VECTOR('',#1089,1.);
#878=VECTOR('',#1090,1.);
#879=VECTOR('',#1095,1.);
#880=VECTOR('',#1098,1.);
#881=VECTOR('',#1099,1.);
#882=VECTOR('',#1104,1.);
#883=VECTOR('',#1105,1.);
#884=VECTOR('',#1108,1.);
#885=VECTOR('',#1111,1.);
#886=VECTOR('',#1112,1.);
#887=VECTOR('',#1117,1.);
#888=VECTOR('',#1120,1.);
#889=VECTOR('',#1121,1.);
#890=VECTOR('',#1126,1.);
#891=VECTOR('',#1127,1.);
#892=VECTOR('',#1130,1.);
#893=VECTOR('',#1133,1.);
#894=VECTOR('',#1134,1.);
#895=VECTOR('',#1139,1.);
#896=VECTOR('',#1142,1.);
#897=VECTOR('',#1147,1.);
#898=VECTOR('',#1148,1.);
#899=VECTOR('',#1149,1.);
#900=VECTOR('',#1150,1.);
#901=VECTOR('',#1155,1.);
#902=VECTOR('',#1156,1.);
#903=VECTOR('',#1159,1.);
#904=VECTOR('',#1160,1.);
#905=VECTOR('',#1163,1.);
#906=VECTOR('',#1166,1.);
#907=VECTOR('',#1167,1.);
#908=VECTOR('',#1170,1.);
#909=VECTOR('',#1173,1.);
#910=VECTOR('',#1174,1.);
#911=VECTOR('',#1175,1.);
#912=VECTOR('',#1178,1.);
#913=VECTOR('',#1179,1.);
#914=VECTOR('',#1182,1.);
#915=VECTOR('',#1183,1.);
#916=VECTOR('',#1186,1.);
#917=VECTOR('',#1189,1.);
#918=VECTOR('',#1190,1.);
#919=VECTOR('',#1191,1.);
#920=VECTOR('',#1192,1.);
#921=VECTOR('',#1195,1.);
#922=VECTOR('',#1196,1.);
#923=VECTOR('',#1199,1.);
#924=VECTOR('',#1200,1.);
#925=VECTOR('',#1201,1.);
#926=VECTOR('',#1202,1.);
#927=VECTOR('',#1203,1.);
#928=VECTOR('',#1204,1.);
#929=VECTOR('',#1207,1.);
#930=VECTOR('',#1212,1.);
#931=VECTOR('',#1213,1.);
#932=VECTOR('',#1216,1.);
#933=VECTOR('',#1221,1.);
#934=VECTOR('',#1222,1.);
#935=VECTOR('',#1223,1.);
#936=VECTOR('',#1224,1.);
#937=VECTOR('',#1225,1.);
#938=VECTOR('',#1226,1.);
#939=VECTOR('',#1229,1.);
#940=VECTOR('',#1234,1.);
#941=VECTOR('',#1235,1.);
#942=VECTOR('',#1238,1.);
#943=VECTOR('',#1239,1.);
#944=VECTOR('',#1242,1.);
#945=VECTOR('',#1247,1.);
#946=VECTOR('',#1248,1.);
#947=VECTOR('',#1249,1.);
#948=VECTOR('',#1252,1.);
#949=VECTOR('',#1253,1.);
#950=VECTOR('',#1256,1.);
#951=VECTOR('',#1257,1.);
#952=VECTOR('',#1260,1.);
#953=PRESENTATION_LAYER_ASSIGNMENT('1','Layer 1',(#1266,#31));
#954=STYLED_ITEM('',(#956),#1266);
#955=STYLED_ITEM('',(#957),#31);
#956=PRESENTATION_STYLE_ASSIGNMENT((#958));
#957=PRESENTATION_STYLE_ASSIGNMENT((#26));
#958=POINT_STYLE('',#959,POSITIVE_LENGTH_MEASURE(3.),#960);
#959=PRE_DEFINED_POINT_MARKER_SYMBOL('plus');
#960=COLOUR_RGB('Medium Royal',0.301960784313725,0.427450980392157,0.701960784313725);
#961=COLOUR_RGB('medium steel',0.611764705882353,0.658823529411765,0.670588235294118);
#962=AXIS2_PLACEMENT_3D('',#1265,#1029,#1030);
#963=AXIS2_PLACEMENT_3D('',#1274,#1034,#1035);
#964=AXIS2_PLACEMENT_3D('',#1288,#1037,#1038);
#965=AXIS2_PLACEMENT_3D('',#1292,#1040,#1041);
#966=AXIS2_PLACEMENT_3D('',#1296,#1043,#1044);
#967=AXIS2_PLACEMENT_3D('',#1304,#1048,#1049);
#968=AXIS2_PLACEMENT_3D('',#1318,#1051,#1052);
#969=AXIS2_PLACEMENT_3D('',#1322,#1054,#1055);
#970=AXIS2_PLACEMENT_3D('',#1326,#1057,#1058);
#971=AXIS2_PLACEMENT_3D('',#1334,#1062,#1063);
#972=AXIS2_PLACEMENT_3D('',#1348,#1065,#1066);
#973=AXIS2_PLACEMENT_3D('',#1352,#1068,#1069);
#974=AXIS2_PLACEMENT_3D('',#1356,#1071,#1072);
#975=AXIS2_PLACEMENT_3D('',#1365,#1077,#1078);
#976=AXIS2_PLACEMENT_3D('',#1366,#1079,#1080);
#977=AXIS2_PLACEMENT_3D('',#1372,#1083,#1084);
#978=AXIS2_PLACEMENT_3D('',#1376,#1087,#1088);
#979=AXIS2_PLACEMENT_3D('',#1380,#1091,#1092);
#980=AXIS2_PLACEMENT_3D('',#1381,#1093,#1094);
#981=AXIS2_PLACEMENT_3D('',#1384,#1096,#1097);
#982=AXIS2_PLACEMENT_3D('',#1388,#1100,#1101);
#983=AXIS2_PLACEMENT_3D('',#1389,#1102,#1103);
#984=AXIS2_PLACEMENT_3D('',#1394,#1106,#1107);
#985=AXIS2_PLACEMENT_3D('',#1397,#1109,#1110);
#986=AXIS2_PLACEMENT_3D('',#1401,#1113,#1114);
#987=AXIS2_PLACEMENT_3D('',#1402,#1115,#1116);
#988=AXIS2_PLACEMENT_3D('',#1405,#1118,#1119);
#989=AXIS2_PLACEMENT_3D('',#1409,#1122,#1123);
#990=AXIS2_PLACEMENT_3D('',#1410,#1124,#1125);
#991=AXIS2_PLACEMENT_3D('',#1415,#1128,#1129);
#992=AXIS2_PLACEMENT_3D('',#1418,#1131,#1132);
#993=AXIS2_PLACEMENT_3D('',#1422,#1135,#1136);
#994=AXIS2_PLACEMENT_3D('',#1423,#1137,#1138);
#995=AXIS2_PLACEMENT_3D('',#1426,#1140,#1141);
#996=AXIS2_PLACEMENT_3D('',#1428,#1143,#1144);
#997=AXIS2_PLACEMENT_3D('',#1429,#1145,#1146);
#998=AXIS2_PLACEMENT_3D('',#1444,#1151,#1152);
#999=AXIS2_PLACEMENT_3D('',#1445,#1153,#1154);
#1000=AXIS2_PLACEMENT_3D('',#1449,#1157,#1158);
#1001=AXIS2_PLACEMENT_3D('',#1453,#1161,#1162);
#1002=AXIS2_PLACEMENT_3D('',#1455,#1164,#1165);
#1003=AXIS2_PLACEMENT_3D('',#1459,#1168,#1169);
#1004=AXIS2_PLACEMENT_3D('',#1468,#1171,#1172);
#1005=AXIS2_PLACEMENT_3D('',#1474,#1176,#1177);
#1006=AXIS2_PLACEMENT_3D('',#1478,#1180,#1181);
#1007=AXIS2_PLACEMENT_3D('',#1482,#1184,#1185);
#1008=AXIS2_PLACEMENT_3D('',#1484,#1187,#1188);
#1009=AXIS2_PLACEMENT_3D('',#1493,#1193,#1194);
#1010=AXIS2_PLACEMENT_3D('',#1497,#1197,#1198);
#1011=AXIS2_PLACEMENT_3D('',#1521,#1205,#1206);
#1012=AXIS2_PLACEMENT_3D('',#1524,#1208,#1209);
#1013=AXIS2_PLACEMENT_3D('',#1525,#1210,#1211);
#1014=AXIS2_PLACEMENT_3D('',#1529,#1214,#1215);
#1015=AXIS2_PLACEMENT_3D('',#1531,#1217,#1218);
#1016=AXIS2_PLACEMENT_3D('',#1532,#1219,#1220);
#1017=AXIS2_PLACEMENT_3D('',#1556,#1227,#1228);
#1018=AXIS2_PLACEMENT_3D('',#1559,#1230,#1231);
#1019=AXIS2_PLACEMENT_3D('',#1560,#1232,#1233);
#1020=AXIS2_PLACEMENT_3D('',#1564,#1236,#1237);
#1021=AXIS2_PLACEMENT_3D('',#1568,#1240,#1241);
#1022=AXIS2_PLACEMENT_3D('',#1570,#1243,#1244);
#1023=AXIS2_PLACEMENT_3D('',#1571,#1245,#1246);
#1024=AXIS2_PLACEMENT_3D('',#1577,#1250,#1251);
#1025=AXIS2_PLACEMENT_3D('',#1581,#1254,#1255);
#1026=AXIS2_PLACEMENT_3D('',#1585,#1258,#1259);
#1027=AXIS2_PLACEMENT_3D('',#1587,#1261,#1262);
#1028=AXIS2_PLACEMENT_3D('',#1588,#1263,#1264);
#1029=DIRECTION('',(0.,0.,1.));
#1030=DIRECTION('',(1.,0.,0.));
#1031=DIRECTION('',(-0.442769591771038,0.896635426805627,0.));
#1032=DIRECTION('',(-0.456006943954612,0.889976217134579,0.));
#1033=DIRECTION('',(-0.410012287960537,0.912079998531579,0.));
#1034=DIRECTION('',(0.,0.,-1.));
#1035=DIRECTION('',(1.,1.22464679914735E-16,0.));
#1036=DIRECTION('',(0.836433870000591,-0.548067861779757,0.));
#1037=DIRECTION('',(0.,0.,1.));
#1038=DIRECTION('',(1.,0.,0.));
#1039=DIRECTION('',(-0.994521895368273,0.104528463267656,0.));
#1040=DIRECTION('',(0.,0.,1.));
#1041=DIRECTION('',(-0.499999999999999,0.866025403784439,0.));
#1042=DIRECTION('',(0.956304755963036,0.292371704722734,0.));
#1043=DIRECTION('',(0.,0.,1.));
#1044=DIRECTION('',(1.,0.,0.));
#1045=DIRECTION('',(-0.555124261661252,-0.8317674278998,0.));
#1046=DIRECTION('',(-0.542738540825217,-0.839901706334089,0.));
#1047=DIRECTION('',(-0.584878305031756,-0.811121056503393,0.));
#1048=DIRECTION('',(0.,0.,-1.));
#1049=DIRECTION('',(-0.499999999999999,0.866025403784439,0.));
#1050=DIRECTION('',(0.0564237562987918,0.998406910896121,0.));
#1051=DIRECTION('',(0.,0.,1.));
#1052=DIRECTION('',(1.,0.,0.));
#1053=DIRECTION('',(0.406736643075796,-0.913545457642603,0.));
#1054=DIRECTION('',(0.,0.,1.));
#1055=DIRECTION('',(-0.500000000000003,-0.866025403784437,0.));
#1056=DIRECTION('',(-0.731353701619167,0.681998360062502,0.));
#1057=DIRECTION('',(0.,0.,1.));
#1058=DIRECTION('',(1.,0.,0.));
#1059=DIRECTION('',(0.997893853432294,-0.0648679989058282,0.));
#1060=DIRECTION('',(0.998745484779827,-0.0500745108004922,0.));
#1061=DIRECTION('',(0.994890592992289,-0.100958942028188,0.));
#1062=DIRECTION('',(0.,0.,-1.));
#1063=DIRECTION('',(-0.500000000000002,-0.866025403784437,0.));
#1064=DIRECTION('',(-0.892862275913407,-0.450329830513958,0.));
#1065=DIRECTION('',(0.,0.,1.));
#1066=DIRECTION('',(1.,0.,0.));
#1067=DIRECTION('',(0.587785252292474,0.809016994374947,0.));
#1068=DIRECTION('',(0.,0.,1.));
#1069=DIRECTION('',(1.,0.,0.));
#1070=DIRECTION('',(-0.224951054343866,-0.974370064785235,0.));
#1071=DIRECTION('',(0.,0.,1.));
#1072=DIRECTION('',(1.,0.,0.));
#1073=DIRECTION('',(0.707106781186548,0.707106781186547,0.));
#1074=DIRECTION('',(0.707106781186547,-0.707106781186548,0.));
#1075=DIRECTION('',(-0.707106781186548,-0.707106781186547,0.));
#1076=DIRECTION('',(-0.707106781186547,0.707106781186548,0.));
#1077=DIRECTION('',(0.,0.,1.));
#1078=DIRECTION('',(1.,0.,0.));
#1079=DIRECTION('',(0.,0.,1.));
#1080=DIRECTION('',(1.,0.,0.));
#1081=DIRECTION('',(0.,0.,-1.));
#1082=DIRECTION('',(0.,0.,-1.));
#1083=DIRECTION('',(0.,0.,1.));
#1084=DIRECTION('',(1.,0.,0.));
#1085=DIRECTION('',(0.,0.,-1.));
#1086=DIRECTION('',(0.,0.,-1.));
#1087=DIRECTION('',(0.,0.,-1.));
#1088=DIRECTION('',(-1.,0.,0.));
#1089=DIRECTION('',(-0.994521895368273,0.104528463267656,0.));
#1090=DIRECTION('',(0.,0.,-1.));
#1091=DIRECTION('',(-0.104528463267656,-0.994521895368273,0.));
#1092=DIRECTION('',(0.994521895368273,-0.104528463267656,0.));
#1093=DIRECTION('',(0.,0.,1.));
#1094=DIRECTION('',(-0.499999999999999,0.866025403784439,0.));
#1095=DIRECTION('',(0.,0.,-1.));
#1096=DIRECTION('',(0.,0.,-1.));
#1097=DIRECTION('',(-1.,0.,0.));
#1098=DIRECTION('',(0.956304755963036,0.292371704722734,0.));
#1099=DIRECTION('',(0.,0.,-1.));
#1100=DIRECTION('',(-0.292371704722734,0.956304755963036,0.));
#1101=DIRECTION('',(-0.956304755963036,-0.292371704722734,0.));
#1102=DIRECTION('',(0.,0.,1.));
#1103=DIRECTION('',(1.,0.,0.));
#1104=DIRECTION('',(0.,0.,-1.));
#1105=DIRECTION('',(0.,0.,-1.));
#1106=DIRECTION('',(0.,0.,1.));
#1107=DIRECTION('',(-0.499999999999999,0.866025403784439,0.));
#1108=DIRECTION('',(0.,0.,-1.));
#1109=DIRECTION('',(0.,0.,-1.));
#1110=DIRECTION('',(-1.,0.,0.));
#1111=DIRECTION('',(0.406736643075796,-0.913545457642603,0.));
#1112=DIRECTION('',(0.,0.,-1.));
#1113=DIRECTION('',(0.913545457642603,0.406736643075796,0.));
#1114=DIRECTION('',(-0.406736643075796,0.913545457642603,0.));
#1115=DIRECTION('',(0.,0.,1.));
#1116=DIRECTION('',(-0.500000000000003,-0.866025403784437,0.));
#1117=DIRECTION('',(0.,0.,-1.));
#1118=DIRECTION('',(0.,0.,-1.));
#1119=DIRECTION('',(-1.,0.,0.));
#1120=DIRECTION('',(-0.731353701619167,0.681998360062502,0.));
#1121=DIRECTION('',(0.,0.,-1.));
#1122=DIRECTION('',(-0.681998360062502,-0.731353701619167,0.));
#1123=DIRECTION('',(0.731353701619167,-0.681998360062502,0.));
#1124=DIRECTION('',(0.,0.,1.));
#1125=DIRECTION('',(1.,0.,0.));
#1126=DIRECTION('',(0.,0.,-1.));
#1127=DIRECTION('',(0.,0.,-1.));
#1128=DIRECTION('',(0.,0.,1.));
#1129=DIRECTION('',(-0.500000000000003,-0.866025403784437,0.));
#1130=DIRECTION('',(0.,0.,-1.));
#1131=DIRECTION('',(0.,0.,-1.));
#1132=DIRECTION('',(-1.,0.,0.));
#1133=DIRECTION('',(0.587785252292474,0.809016994374947,0.));
#1134=DIRECTION('',(0.,0.,-1.));
#1135=DIRECTION('',(-0.809016994374947,0.587785252292474,0.));
#1136=DIRECTION('',(-0.587785252292474,-0.809016994374947,0.));
#1137=DIRECTION('',(0.,0.,1.));
#1138=DIRECTION('',(1.,0.,0.));
#1139=DIRECTION('',(0.,0.,-1.));
#1140=DIRECTION('',(0.,0.,-1.));
#1141=DIRECTION('',(-1.,0.,0.));
#1142=DIRECTION('',(-0.224951054343866,-0.974370064785235,0.));
#1143=DIRECTION('',(0.974370064785235,-0.224951054343866,0.));
#1144=DIRECTION('',(0.224951054343866,0.974370064785235,0.));
#1145=DIRECTION('',(0.,0.,1.));
#1146=DIRECTION('',(1.,0.,0.));
#1147=DIRECTION('',(0.,0.,-1.));
#1148=DIRECTION('',(0.,0.,-1.));
#1149=DIRECTION('',(0.,0.,-1.));
#1150=DIRECTION('',(0.,0.,-1.));
#1151=DIRECTION('',(0.,0.,-1.));
#1152=DIRECTION('',(-0.500000000000002,-0.866025403784437,0.));
#1153=DIRECTION('',(0.,0.,-1.));
#1154=DIRECTION('',(-1.,0.,0.));
#1155=DIRECTION('',(0.,0.,-1.));
#1156=DIRECTION('',(0.994890592992289,-0.100958942028188,0.));
#1157=DIRECTION('',(0.100958942028188,0.994890592992289,0.));
#1158=DIRECTION('',(-0.994890592992289,0.100958942028188,0.));
#1159=DIRECTION('',(0.,0.,-1.));
#1160=DIRECTION('',(0.998745484779827,-0.0500745108004922,0.));
#1161=DIRECTION('',(0.0500745108004922,0.998745484779827,0.));
#1162=DIRECTION('',(-0.998745484779827,0.0500745108004922,0.));
#1163=DIRECTION('',(0.997893853432294,-0.0648679989058282,0.));
#1164=DIRECTION('',(0.0648679989058282,0.997893853432294,0.));
#1165=DIRECTION('',(-0.997893853432295,0.0648679989058282,0.));
#1166=DIRECTION('',(0.,0.,-1.));
#1167=DIRECTION('',(-0.892862275913407,-0.450329830513958,0.));
#1168=DIRECTION('',(0.450329830513958,-0.892862275913407,0.));
#1169=DIRECTION('',(0.892862275913408,0.450329830513958,0.));
#1170=DIRECTION('',(0.,0.,-1.));
#1171=DIRECTION('',(0.,0.,1.));
#1172=DIRECTION('',(1.,0.,0.));
#1173=DIRECTION('',(0.,0.,-1.));
#1174=DIRECTION('',(0.707106781186547,-0.707106781186548,0.));
#1175=DIRECTION('',(0.,0.,-1.));
#1176=DIRECTION('',(0.707106781186548,0.707106781186547,0.));
#1177=DIRECTION('',(-0.707106781186547,0.707106781186548,0.));
#1178=DIRECTION('',(0.,0.,-1.));
#1179=DIRECTION('',(0.707106781186548,0.707106781186547,0.));
#1180=DIRECTION('',(-0.707106781186547,0.707106781186548,0.));
#1181=DIRECTION('',(-0.707106781186548,-0.707106781186547,0.));
#1182=DIRECTION('',(0.,0.,-1.));
#1183=DIRECTION('',(-0.707106781186547,0.707106781186548,0.));
#1184=DIRECTION('',(-0.707106781186548,-0.707106781186547,0.));
#1185=DIRECTION('',(0.707106781186547,-0.707106781186548,0.));
#1186=DIRECTION('',(-0.707106781186548,-0.707106781186547,0.));
#1187=DIRECTION('',(0.707106781186547,-0.707106781186548,0.));
#1188=DIRECTION('',(0.707106781186548,0.707106781186547,0.));
#1189=DIRECTION('',(0.707106781186546,-0.707106781186549,0.));
#1190=DIRECTION('',(-0.707106781186549,-0.707106781186546,0.));
#1191=DIRECTION('',(-0.707106781186546,0.707106781186549,0.));
#1192=DIRECTION('',(0.707106781186549,0.707106781186546,0.));
#1193=DIRECTION('',(0.,0.,1.));
#1194=DIRECTION('',(1.,0.,0.));
#1195=DIRECTION('',(-0.555124261661252,-0.8317674278998,0.));
#1196=DIRECTION('',(0.,0.,-1.));
#1197=DIRECTION('',(0.8317674278998,-0.555124261661252,0.));
#1198=DIRECTION('',(0.555124261661252,0.8317674278998,0.));
#1199=DIRECTION('',(0.,0.,-1.));
#1200=DIRECTION('',(0.,0.,-1.));
#1201=DIRECTION('',(0.,0.,-1.));
#1202=DIRECTION('',(0.,0.,-1.));
#1203=DIRECTION('',(0.,0.,-1.));
#1204=DIRECTION('',(0.0564237562987918,0.998406910896121,0.));
#1205=DIRECTION('',(-0.998406910896121,0.0564237562987918,0.));
#1206=DIRECTION('',(-0.0564237562987918,-0.998406910896121,0.));
#1207=DIRECTION('',(0.,0.,-1.));
#1208=DIRECTION('',(0.,0.,-1.));
#1209=DIRECTION('',(-0.499999999999999,0.866025403784439,0.));
#1210=DIRECTION('',(0.,0.,-1.));
#1211=DIRECTION('',(-1.,0.,0.));
#1212=DIRECTION('',(0.,0.,-1.));
#1213=DIRECTION('',(-0.584878305031756,-0.811121056503393,0.));
#1214=DIRECTION('',(0.811121056503393,-0.584878305031756,0.));
#1215=DIRECTION('',(0.584878305031756,0.811121056503393,0.));
#1216=DIRECTION('',(-0.542738540825217,-0.839901706334089,0.));
#1217=DIRECTION('',(0.839901706334089,-0.542738540825217,0.));
#1218=DIRECTION('',(0.542738540825217,0.839901706334089,0.));
#1219=DIRECTION('',(0.,0.,1.));
#1220=DIRECTION('',(1.,0.,0.));
#1221=DIRECTION('',(0.,0.,-1.));
#1222=DIRECTION('',(0.,0.,-1.));
#1223=DIRECTION('',(0.,0.,-1.));
#1224=DIRECTION('',(0.,0.,-1.));
#1225=DIRECTION('',(0.,0.,-1.));
#1226=DIRECTION('',(0.836433870000591,-0.548067861779757,0.));
#1227=DIRECTION('',(0.548067861779757,0.836433870000591,0.));
#1228=DIRECTION('',(-0.836433870000591,0.548067861779757,0.));
#1229=DIRECTION('',(0.,0.,-1.));
#1230=DIRECTION('',(0.,0.,-1.));
#1231=DIRECTION('',(1.,1.22464679914735E-16,0.));
#1232=DIRECTION('',(0.,0.,-1.));
#1233=DIRECTION('',(-1.,0.,0.));
#1234=DIRECTION('',(0.,0.,-1.));
#1235=DIRECTION('',(-0.410012287960537,0.912079998531579,0.));
#1236=DIRECTION('',(-0.91207999853158,-0.410012287960537,0.));
#1237=DIRECTION('',(0.410012287960537,-0.91207999853158,0.));
#1238=DIRECTION('',(0.,0.,-1.));
#1239=DIRECTION('',(-0.456006943954612,0.889976217134579,0.));
#1240=DIRECTION('',(-0.889976217134579,-0.456006943954612,0.));
#1241=DIRECTION('',(0.456006943954612,-0.889976217134579,0.));
#1242=DIRECTION('',(-0.442769591771038,0.896635426805627,0.));
#1243=DIRECTION('',(-0.896635426805627,-0.442769591771038,0.));
#1244=DIRECTION('',(0.442769591771038,-0.896635426805627,0.));
#1245=DIRECTION('',(0.,0.,1.));
#1246=DIRECTION('',(1.,0.,0.));
#1247=DIRECTION('',(0.,0.,-1.));
#1248=DIRECTION('',(0.707106781186546,-0.707106781186549,0.));
#1249=DIRECTION('',(0.,0.,-1.));
#1250=DIRECTION('',(0.707106781186549,0.707106781186546,0.));
#1251=DIRECTION('',(-0.707106781186546,0.707106781186549,0.));
#1252=DIRECTION('',(0.,0.,-1.));
#1253=DIRECTION('',(0.707106781186549,0.707106781186546,0.));
#1254=DIRECTION('',(-0.707106781186546,0.707106781186549,0.));
#1255=DIRECTION('',(-0.707106781186549,-0.707106781186546,0.));
#1256=DIRECTION('',(0.,0.,-1.));
#1257=DIRECTION('',(-0.707106781186546,0.707106781186549,0.));
#1258=DIRECTION('',(-0.707106781186549,-0.707106781186546,0.));
#1259=DIRECTION('',(0.707106781186546,-0.707106781186549,0.));
#1260=DIRECTION('',(-0.707106781186549,-0.707106781186546,0.));
#1261=DIRECTION('',(0.707106781186546,-0.707106781186549,0.));
#1262=DIRECTION('',(0.707106781186549,0.707106781186546,0.));
#1263=DIRECTION('',(0.,0.,1.));
#1264=DIRECTION('',(1.,0.,0.));
#1265=CARTESIAN_POINT('',(0.,0.,0.));
#1266=CARTESIAN_POINT('Point6',(0.,0.,0.));
#1267=CARTESIAN_POINT('',(-10.9533318213996,20.2243546747558,5.));
#1268=CARTESIAN_POINT('',(-10.9533318213996,20.2243546747558,5.));
#1269=CARTESIAN_POINT('',(-11.1748705134695,20.6729840373176,5.));
#1270=CARTESIAN_POINT('',(-8.89171078474332,16.2007455703491,5.));
#1271=CARTESIAN_POINT('',(-8.89171078474332,16.2007455703491,5.));
#1272=CARTESIAN_POINT('',(-8.68603711711772,15.7432206522569,5.));
#1273=CARTESIAN_POINT('',(-8.68603711711773,15.7432206522569,5.));
#1274=CARTESIAN_POINT('',(0.,0.,5.));
#1275=CARTESIAN_POINT('',(-14.7720858762303,10.2509373313309,5.));
#1276=CARTESIAN_POINT('',(-15.1904700130487,10.5250808201262,5.));
#1277=CARTESIAN_POINT('',(-15.1904700130487,10.5250808201262,5.));
#1278=CARTESIAN_POINT('',(-18.9717452770845,13.0027795950398,5.));
#1279=CARTESIAN_POINT('',(-17.7113332431458,12.1768600819559,5.));
#1280=CARTESIAN_POINT('',(-16.4509016280972,11.3509704510411,5.));
#1281=CARTESIAN_POINT('',(-15.1904700130487,10.5250808201262,5.));
#1282=CARTESIAN_POINT('',(-18.9717452770845,13.0027795950398,5.));
#1283=CARTESIAN_POINT('',(-19.3900146023185,13.276947454964,5.));
#1284=CARTESIAN_POINT('',(-19.2505980209438,13.1855482075996,5.));
#1285=CARTESIAN_POINT('',(-19.1111814395691,13.0941489602352,5.));
#1286=CARTESIAN_POINT('',(-18.9717452770845,13.0027795950398,5.));
#1287=CARTESIAN_POINT('',(-19.3900146023185,13.276947454964,5.));
#1288=CARTESIAN_POINT('',(0.,0.,5.));
#1289=CARTESIAN_POINT('',(-23.3712645411486,2.45641888684542,5.));
#1290=CARTESIAN_POINT('',(-23.3712645411544,2.45641888678991,5.));
#1291=CARTESIAN_POINT('',(-29.8356568610482,3.13585389802967,5.));
#1292=CARTESIAN_POINT('',(0.,0.,5.));
#1293=CARTESIAN_POINT('',(-28.6891426788911,-8.77115114168195,5.));
#1294=CARTESIAN_POINT('',(-28.6891426788911,-8.77115114168202,5.));
#1295=CARTESIAN_POINT('',(-22.4731617651314,-6.87073506098425,5.));
#1296=CARTESIAN_POINT('',(0.,0.,5.));
#1297=CARTESIAN_POINT('',(-12.3158940916126,-20.014213767325,5.));
#1298=CARTESIAN_POINT('',(-12.0381390127853,-19.5980409507904,5.));
#1299=CARTESIAN_POINT('',(-12.0381390127853,-19.5980409507904,5.));
#1300=CARTESIAN_POINT('',(-9.58440183179891,-15.8008202078663,5.));
#1301=CARTESIAN_POINT('',(-9.58440183179891,-15.8008202078663,5.));
#1302=CARTESIAN_POINT('',(-9.29101046367948,-15.3939391277669,5.));
#1303=CARTESIAN_POINT('',(-9.29101046367948,-15.3939391277669,5.));
#1304=CARTESIAN_POINT('',(0.,0.,5.));
#1305=CARTESIAN_POINT('',(-1.49152920341965,-17.9184703013662,5.));
#1306=CARTESIAN_POINT('',(-1.51975236058938,-18.417873336789,5.));
#1307=CARTESIAN_POINT('',(-1.51975236058938,-18.417873336789,5.));
#1308=CARTESIAN_POINT('',(-1.7748648105722,-22.9314031616025,5.));
#1309=CARTESIAN_POINT('',(-1.68980354772963,-21.4268945644341,5.));
#1310=CARTESIAN_POINT('',(-1.6047779541595,-19.9223839506115,5.));
#1311=CARTESIAN_POINT('',(-1.51975236058938,-18.417873336789,5.));
#1312=CARTESIAN_POINT('',(-1.7748648105722,-22.9314031616025,5.));
#1313=CARTESIAN_POINT('',(-1.80316647955071,-23.4307189528411,5.));
#1314=CARTESIAN_POINT('',(-1.79372070013372,-23.2642810279796,5.));
#1315=CARTESIAN_POINT('',(-1.78427492071673,-23.0978431031181,5.));
#1316=CARTESIAN_POINT('',(-1.7748648105722,-22.9314031616025,5.));
#1317=CARTESIAN_POINT('',(-1.80316647955071,-23.430718952841,5.));
#1318=CARTESIAN_POINT('',(0.,0.,5.));
#1319=CARTESIAN_POINT('',(9.55831111223023,-21.4683182546239,5.));
#1320=CARTESIAN_POINT('',(9.55831111228122,-21.4683182546012,5.));
#1321=CARTESIAN_POINT('',(12.2020992922739,-27.4063637292781,5.));
#1322=CARTESIAN_POINT('',(0.,0.,5.));
#1323=CARTESIAN_POINT('',(21.940611048575,-20.4599508018751,5.));
#1324=CARTESIAN_POINT('',(21.940611048575,-20.4599508018751,5.));
#1325=CARTESIAN_POINT('',(17.1868119880504,-16.0269614614688,5.));
#1326=CARTESIAN_POINT('',(0.,0.,5.));
#1327=CARTESIAN_POINT('',(23.490764605082,-0.658770269992676,5.));
#1328=CARTESIAN_POINT('',(22.9914708341849,-0.626313723965417,5.));
#1329=CARTESIAN_POINT('',(22.9914708341849,-0.626313723965417,5.));
#1330=CARTESIAN_POINT('',(18.4761126165422,-0.399925362482829,5.));
#1331=CARTESIAN_POINT('',(18.4761126165422,-0.399925362482839,5.));
#1332=CARTESIAN_POINT('',(17.9770475807972,-0.349281524490023,5.));
#1333=CARTESIAN_POINT('',(17.9770475807972,-0.349281524490012,5.));
#1334=CARTESIAN_POINT('',(0.,0.,5.));
#1335=CARTESIAN_POINT('',(16.26361507965,7.66753297003529,5.));
#1336=CARTESIAN_POINT('',(16.7102441138973,7.89274907359357,5.));
#1337=CARTESIAN_POINT('',(16.5613733583114,7.81766595718269,5.));
#1338=CARTESIAN_POINT('',(16.4124942189807,7.74259946360899,5.));
#1339=CARTESIAN_POINT('',(16.26361507965,7.66753297003529,5.));
#1340=CARTESIAN_POINT('',(16.7102441138973,7.89274907359357,5.));
#1341=CARTESIAN_POINT('',(20.7466451423282,9.92855372421065,5.));
#1342=CARTESIAN_POINT('',(19.4011809274328,9.24994663305923,5.));
#1343=CARTESIAN_POINT('',(18.0557167125374,8.57133954190781,5.));
#1344=CARTESIAN_POINT('',(16.7102441138973,7.89274907359357,5.));
#1345=CARTESIAN_POINT('',(20.7466451423282,9.92855372421065,5.));
#1346=CARTESIAN_POINT('',(21.1931810818692,10.153771497877,5.));
#1347=CARTESIAN_POINT('',(21.1931810818692,10.153771497877,5.));
#1348=CARTESIAN_POINT('',(0.,0.,5.));
#1349=CARTESIAN_POINT('',(13.8129534289183,19.0118993677784,5.));
#1350=CARTESIAN_POINT('',(13.8129534288731,19.0118993678113,5.));
#1351=CARTESIAN_POINT('',(17.6335575687742,24.2705098312484,5.));
#1352=CARTESIAN_POINT('',(0.,0.,5.));
#1353=CARTESIAN_POINT('',(6.74853163031606,29.231101943557,5.));
#1354=CARTESIAN_POINT('',(6.74853163031599,29.231101943557,5.));
#1355=CARTESIAN_POINT('',(5.28634977708096,22.897696522453,5.));
#1356=CARTESIAN_POINT('',(0.,0.,5.));
#1357=CARTESIAN_POINT('',(-4.44089209850063E-15,-7.77817459305202,5.));
#1358=CARTESIAN_POINT('',(-3.46944695195361E-15,-7.77817459305202,5.));
#1359=CARTESIAN_POINT('',(7.77817459305202,-3.46944695195361E-15,5.));
#1360=CARTESIAN_POINT('',(-7.77817459305202,3.5527136788005E-15,5.));
#1361=CARTESIAN_POINT('',(-7.77817459305202,3.5527136788005E-15,5.));
#1362=CARTESIAN_POINT('',(6.21724893790088E-15,7.77817459305202,5.));
#1363=CARTESIAN_POINT('',(3.90312782094782E-15,7.77817459305202,5.));
#1364=CARTESIAN_POINT('',(7.77817459305202,-4.44089209850063E-15,5.));
#1365=CARTESIAN_POINT('',(0.,0.,5.));
#1366=CARTESIAN_POINT('',(0.,0.,0.));
#1367=CARTESIAN_POINT('',(5.28634977708096,22.897696522453,0.));
#1368=CARTESIAN_POINT('',(-23.3712645411486,2.45641888684542,0.));
#1369=CARTESIAN_POINT('',(-23.3712645411486,2.45641888684542,5.));
#1370=CARTESIAN_POINT('',(-19.3900146023185,13.276947454964,9.5));
#1371=CARTESIAN_POINT('',(-19.3900146023185,13.276947454964,9.5));
#1372=CARTESIAN_POINT('',(0.,0.,9.5));
#1373=CARTESIAN_POINT('',(-11.1748705134695,20.6729840373176,9.5));
#1374=CARTESIAN_POINT('',(-11.1748705134695,20.6729840373176,9.5));
#1375=CARTESIAN_POINT('',(5.28634977708096,22.897696522453,5.));
#1376=CARTESIAN_POINT('',(0.,0.,5.));
#1377=CARTESIAN_POINT('',(-23.3712645411544,2.45641888678991,0.));
#1378=CARTESIAN_POINT('',(-29.8356568610482,3.13585389802967,0.));
#1379=CARTESIAN_POINT('',(-29.8356568610482,3.13585389802967,5.));
#1380=CARTESIAN_POINT('',(-23.3712645411544,2.45641888678991,5.));
#1381=CARTESIAN_POINT('',(0.,0.,0.));
#1382=CARTESIAN_POINT('',(-28.6891426788911,-8.77115114168195,0.));
#1383=CARTESIAN_POINT('',(-28.6891426788911,-8.77115114168195,5.));
#1384=CARTESIAN_POINT('',(0.,0.,5.));
#1385=CARTESIAN_POINT('',(-28.6891426788911,-8.77115114168202,0.));
#1386=CARTESIAN_POINT('',(-22.4731617651314,-6.87073506098425,0.));
#1387=CARTESIAN_POINT('',(-22.4731617651314,-6.87073506098425,5.));
#1388=CARTESIAN_POINT('',(-28.6891426788911,-8.77115114168202,5.));
#1389=CARTESIAN_POINT('',(0.,0.,0.));
#1390=CARTESIAN_POINT('',(9.55831111223023,-21.4683182546239,0.));
#1391=CARTESIAN_POINT('',(9.55831111223023,-21.4683182546239,5.));
#1392=CARTESIAN_POINT('',(-1.80316647955071,-23.430718952841,9.5));
#1393=CARTESIAN_POINT('',(-1.80316647955071,-23.430718952841,9.5));
#1394=CARTESIAN_POINT('',(0.,0.,9.5));
#1395=CARTESIAN_POINT('',(-12.3158940916126,-20.014213767325,9.5));
#1396=CARTESIAN_POINT('',(-12.3158940916126,-20.014213767325,9.5));
#1397=CARTESIAN_POINT('',(0.,0.,5.));
#1398=CARTESIAN_POINT('',(9.55831111228122,-21.4683182546012,0.));
#1399=CARTESIAN_POINT('',(12.2020992922739,-27.4063637292781,0.));
#1400=CARTESIAN_POINT('',(12.2020992922739,-27.4063637292781,5.));
#1401=CARTESIAN_POINT('',(9.55831111228122,-21.4683182546012,5.));
#1402=CARTESIAN_POINT('',(0.,0.,0.));
#1403=CARTESIAN_POINT('',(21.940611048575,-20.4599508018751,0.));
#1404=CARTESIAN_POINT('',(21.940611048575,-20.4599508018751,5.));
#1405=CARTESIAN_POINT('',(0.,0.,5.));
#1406=CARTESIAN_POINT('',(21.940611048575,-20.4599508018751,0.));
#1407=CARTESIAN_POINT('',(17.1868119880504,-16.0269614614688,0.));
#1408=CARTESIAN_POINT('',(17.1868119880504,-16.0269614614688,5.));
#1409=CARTESIAN_POINT('',(21.940611048575,-20.4599508018751,5.));
#1410=CARTESIAN_POINT('',(0.,0.,0.));
#1411=CARTESIAN_POINT('',(13.8129534289183,19.0118993677784,0.));
#1412=CARTESIAN_POINT('',(13.8129534289183,19.0118993677784,5.));
#1413=CARTESIAN_POINT('',(21.1931810818692,10.153771497877,9.5));
#1414=CARTESIAN_POINT('',(21.1931810818692,10.153771497877,9.5));
#1415=CARTESIAN_POINT('',(0.,0.,9.5));
#1416=CARTESIAN_POINT('',(23.490764605082,-0.658770269992676,9.5));
#1417=CARTESIAN_POINT('',(23.490764605082,-0.658770269992676,9.5));
#1418=CARTESIAN_POINT('',(0.,0.,5.));
#1419=CARTESIAN_POINT('',(13.8129534288731,19.0118993678113,0.));
#1420=CARTESIAN_POINT('',(17.6335575687742,24.2705098312484,0.));
#1421=CARTESIAN_POINT('',(17.6335575687742,24.2705098312484,5.));
#1422=CARTESIAN_POINT('',(13.8129534288731,19.0118993678113,5.));
#1423=CARTESIAN_POINT('',(0.,0.,0.));
#1424=CARTESIAN_POINT('',(6.74853163031606,29.231101943557,0.));
#1425=CARTESIAN_POINT('',(6.74853163031606,29.231101943557,5.));
#1426=CARTESIAN_POINT('',(0.,0.,5.));
#1427=CARTESIAN_POINT('',(6.74853163031599,29.231101943557,0.));
#1428=CARTESIAN_POINT('',(6.74853163031599,29.231101943557,5.));
#1429=CARTESIAN_POINT('',(0.,0.,0.));
#1430=CARTESIAN_POINT('',(16.26361507965,7.66753297003529,9.5));
#1431=CARTESIAN_POINT('',(16.26361507965,7.66753297003529,9.5));
#1432=CARTESIAN_POINT('',(16.7102441138973,7.89274907359357,9.5));
#1433=CARTESIAN_POINT('',(16.5613733583114,7.81766595718269,9.5));
#1434=CARTESIAN_POINT('',(16.4124942189807,7.74259946360899,9.5));
#1435=CARTESIAN_POINT('',(16.26361507965,7.66753297003529,9.5));
#1436=CARTESIAN_POINT('',(16.7102441138973,7.89274907359357,9.5));
#1437=CARTESIAN_POINT('',(16.7102441138973,7.89274907359357,9.5));
#1438=CARTESIAN_POINT('',(16.7102441138973,7.89274907359357,9.5));
#1439=CARTESIAN_POINT('',(16.5613733583114,7.81766595718269,9.5));
#1440=CARTESIAN_POINT('',(16.4124942189807,7.74259946360899,9.5));
#1441=CARTESIAN_POINT('',(16.26361507965,7.66753297003529,9.5));
#1442=CARTESIAN_POINT('',(17.9770475807972,-0.349281524490012,9.5));
#1443=CARTESIAN_POINT('',(17.9770475807972,-0.349281524490012,9.5));
#1444=CARTESIAN_POINT('',(0.,0.,9.5));
#1445=CARTESIAN_POINT('',(0.,0.,9.5));
#1446=CARTESIAN_POINT('',(18.4761126165422,-0.399925362482839,9.5));
#1447=CARTESIAN_POINT('',(18.4761126165422,-0.399925362482839,9.5));
#1448=CARTESIAN_POINT('',(17.9770475807972,-0.349281524490023,9.5));
#1449=CARTESIAN_POINT('',(17.9770475807972,-0.349281524490023,9.5));
#1450=CARTESIAN_POINT('',(22.9914708341849,-0.626313723965417,9.5));
#1451=CARTESIAN_POINT('',(22.9914708341849,-0.626313723965417,9.5));
#1452=CARTESIAN_POINT('',(18.4761126165422,-0.399925362482829,9.5));
#1453=CARTESIAN_POINT('',(18.4761126165422,-0.399925362482829,9.5));
#1454=CARTESIAN_POINT('',(22.9914708341849,-0.626313723965417,9.5));
#1455=CARTESIAN_POINT('',(22.9914708341849,-0.626313723965417,9.5));
#1456=CARTESIAN_POINT('',(20.7466451423282,9.92855372421065,9.5));
#1457=CARTESIAN_POINT('',(20.7466451423282,9.92855372421065,9.5));
#1458=CARTESIAN_POINT('',(21.1931810818692,10.153771497877,9.5));
#1459=CARTESIAN_POINT('',(21.1931810818692,10.153771497877,9.5));
#1460=CARTESIAN_POINT('',(20.7466451423282,9.92855372421065,9.5));
#1461=CARTESIAN_POINT('',(19.4011809274328,9.24994663305923,9.5));
#1462=CARTESIAN_POINT('',(18.0557167125374,8.57133954190781,9.5));
#1463=CARTESIAN_POINT('',(16.7102441138973,7.89274907359357,9.5));
#1464=CARTESIAN_POINT('',(20.7466451423282,9.92855372421065,9.5));
#1465=CARTESIAN_POINT('',(19.4011809274328,9.24994663305923,9.5));
#1466=CARTESIAN_POINT('',(18.0557167125374,8.57133954190781,9.5));
#1467=CARTESIAN_POINT('',(16.7102441138973,7.89274907359357,9.5));
#1468=CARTESIAN_POINT('',(16.4869327406779,7.78013478825049,9.5));
#1469=CARTESIAN_POINT('',(-3.46944695195361E-15,-7.77817459305202,9.5));
#1470=CARTESIAN_POINT('',(-3.46944695195361E-15,-7.77817459305202,9.5));
#1471=CARTESIAN_POINT('',(-7.77817459305202,3.5527136788005E-15,9.5));
#1472=CARTESIAN_POINT('',(-7.77817459305202,3.5527136788005E-15,9.5));
#1473=CARTESIAN_POINT('',(-7.77817459305202,3.5527136788005E-15,9.5));
#1474=CARTESIAN_POINT('',(-7.77817459305202,3.5527136788005E-15,9.5));
#1475=CARTESIAN_POINT('',(7.77817459305202,-3.46944695195361E-15,9.5));
#1476=CARTESIAN_POINT('',(7.77817459305202,-3.46944695195361E-15,9.5));
#1477=CARTESIAN_POINT('',(-4.44089209850063E-15,-7.77817459305202,9.5));
#1478=CARTESIAN_POINT('',(-4.44089209850063E-15,-7.77817459305202,9.5));
#1479=CARTESIAN_POINT('',(3.46944695195361E-15,7.77817459305202,9.5));
#1480=CARTESIAN_POINT('',(3.46944695195361E-15,7.77817459305202,9.5));
#1481=CARTESIAN_POINT('',(7.77817459305202,-4.44089209850063E-15,9.5));
#1482=CARTESIAN_POINT('',(7.77817459305202,-4.44089209850063E-15,9.5));
#1483=CARTESIAN_POINT('',(6.21724893790088E-15,7.77817459305202,9.5));
#1484=CARTESIAN_POINT('',(6.21724893790088E-15,7.77817459305202,9.5));
#1485=CARTESIAN_POINT('',(-5.65685424949238,5.32907051820075E-15,9.5));
#1486=CARTESIAN_POINT('',(-5.65685424949238,5.32907051820075E-15,9.5));
#1487=CARTESIAN_POINT('',(-1.38777878078145E-14,-5.65685424949238,9.5));
#1488=CARTESIAN_POINT('',(5.32907051820075E-15,5.65685424949238,9.5));
#1489=CARTESIAN_POINT('',(1.38777878078145E-14,5.65685424949238,9.5));
#1490=CARTESIAN_POINT('',(5.65685424949238,-5.32907051820075E-15,9.5));
#1491=CARTESIAN_POINT('',(5.65685424949238,-1.38777878078145E-14,9.5));
#1492=CARTESIAN_POINT('',(-5.32907051820075E-15,-5.65685424949238,9.5));
#1493=CARTESIAN_POINT('',(0.,0.,9.5));
#1494=CARTESIAN_POINT('',(-12.0381390127853,-19.5980409507904,9.5));
#1495=CARTESIAN_POINT('',(-12.0381390127853,-19.5980409507904,9.5));
#1496=CARTESIAN_POINT('',(-12.0381390127853,-19.5980409507904,9.5));
#1497=CARTESIAN_POINT('',(-12.0381390127853,-19.5980409507904,9.5));
#1498=CARTESIAN_POINT('',(-1.7748648105722,-22.9314031616025,9.5));
#1499=CARTESIAN_POINT('',(-1.7748648105722,-22.9314031616025,9.5));
#1500=CARTESIAN_POINT('',(-1.80316647955071,-23.4307189528411,9.5));
#1501=CARTESIAN_POINT('',(-1.79372070013372,-23.2642810279796,9.5));
#1502=CARTESIAN_POINT('',(-1.78427492071673,-23.0978431031181,9.5));
#1503=CARTESIAN_POINT('',(-1.7748648105722,-22.9314031616025,9.5));
#1504=CARTESIAN_POINT('',(-1.80316647955071,-23.4307189528411,9.5));
#1505=CARTESIAN_POINT('',(-1.79372070013372,-23.2642810279796,9.5));
#1506=CARTESIAN_POINT('',(-1.78427492071673,-23.0978431031181,9.5));
#1507=CARTESIAN_POINT('',(-1.7748648105722,-22.9314031616025,9.5));
#1508=CARTESIAN_POINT('',(-1.51975236058938,-18.417873336789,9.5));
#1509=CARTESIAN_POINT('',(-1.51975236058938,-18.417873336789,9.5));
#1510=CARTESIAN_POINT('',(-1.7748648105722,-22.9314031616025,9.5));
#1511=CARTESIAN_POINT('',(-1.68980354772963,-21.4268945644341,9.5));
#1512=CARTESIAN_POINT('',(-1.6047779541595,-19.9223839506115,9.5));
#1513=CARTESIAN_POINT('',(-1.51975236058938,-18.417873336789,9.5));
#1514=CARTESIAN_POINT('',(-1.7748648105722,-22.9314031616025,9.5));
#1515=CARTESIAN_POINT('',(-1.68980354772963,-21.4268945644341,9.5));
#1516=CARTESIAN_POINT('',(-1.6047779541595,-19.9223839506115,9.5));
#1517=CARTESIAN_POINT('',(-1.51975236058938,-18.417873336789,9.5));
#1518=CARTESIAN_POINT('',(-1.49152920341965,-17.9184703013662,9.5));
#1519=CARTESIAN_POINT('',(-1.49152920341965,-17.9184703013662,9.5));
#1520=CARTESIAN_POINT('',(-1.51975236058938,-18.417873336789,9.5));
#1521=CARTESIAN_POINT('',(-1.51975236058938,-18.417873336789,9.5));
#1522=CARTESIAN_POINT('',(-9.29101046367948,-15.3939391277669,9.5));
#1523=CARTESIAN_POINT('',(-9.29101046367948,-15.3939391277669,9.5));
#1524=CARTESIAN_POINT('',(0.,0.,9.5));
#1525=CARTESIAN_POINT('',(0.,0.,9.5));
#1526=CARTESIAN_POINT('',(-9.58440183179892,-15.8008202078663,9.5));
#1527=CARTESIAN_POINT('',(-9.58440183179892,-15.8008202078663,9.5));
#1528=CARTESIAN_POINT('',(-9.29101046367948,-15.3939391277669,9.5));
#1529=CARTESIAN_POINT('',(-9.29101046367948,-15.3939391277669,9.5));
#1530=CARTESIAN_POINT('',(-9.58440183179891,-15.8008202078663,9.5));
#1531=CARTESIAN_POINT('',(-9.58440183179891,-15.8008202078663,9.5));
#1532=CARTESIAN_POINT('',(0.,0.,9.5));
#1533=CARTESIAN_POINT('',(-18.9717452770845,13.0027795950398,9.5));
#1534=CARTESIAN_POINT('',(-18.9717452770845,13.0027795950398,9.5));
#1535=CARTESIAN_POINT('',(-19.3900146023185,13.276947454964,9.5));
#1536=CARTESIAN_POINT('',(-19.2505980209438,13.1855482075996,9.5));
#1537=CARTESIAN_POINT('',(-19.1111814395691,13.0941489602352,9.5));
#1538=CARTESIAN_POINT('',(-18.9717452770845,13.0027795950398,9.5));
#1539=CARTESIAN_POINT('',(-19.3900146023185,13.276947454964,9.5));
#1540=CARTESIAN_POINT('',(-19.2505980209438,13.1855482075996,9.5));
#1541=CARTESIAN_POINT('',(-19.1111814395691,13.0941489602352,9.5));
#1542=CARTESIAN_POINT('',(-18.9717452770845,13.0027795950398,9.5));
#1543=CARTESIAN_POINT('',(-15.1904700130487,10.5250808201262,9.5));
#1544=CARTESIAN_POINT('',(-15.1904700130487,10.5250808201262,9.5));
#1545=CARTESIAN_POINT('',(-18.9717452770845,13.0027795950398,9.5));
#1546=CARTESIAN_POINT('',(-17.7113332431458,12.1768600819559,9.5));
#1547=CARTESIAN_POINT('',(-16.4509016280972,11.3509704510411,9.5));
#1548=CARTESIAN_POINT('',(-15.1904700130487,10.5250808201262,9.5));
#1549=CARTESIAN_POINT('',(-18.9717452770845,13.0027795950398,9.5));
#1550=CARTESIAN_POINT('',(-17.7113332431458,12.1768600819559,9.5));
#1551=CARTESIAN_POINT('',(-16.4509016280972,11.3509704510411,9.5));
#1552=CARTESIAN_POINT('',(-15.1904700130487,10.5250808201262,9.5));
#1553=CARTESIAN_POINT('',(-14.7720858762303,10.2509373313309,9.5));
#1554=CARTESIAN_POINT('',(-14.7720858762303,10.2509373313309,9.5));
#1555=CARTESIAN_POINT('',(-15.1904700130487,10.5250808201262,9.5));
#1556=CARTESIAN_POINT('',(-15.1904700130487,10.5250808201262,9.5));
#1557=CARTESIAN_POINT('',(-8.68603711711773,15.7432206522569,9.5));
#1558=CARTESIAN_POINT('',(-8.68603711711773,15.7432206522569,9.5));
#1559=CARTESIAN_POINT('',(0.,0.,9.5));
#1560=CARTESIAN_POINT('',(0.,0.,9.5));
#1561=CARTESIAN_POINT('',(-8.89171078474331,16.2007455703491,9.5));
#1562=CARTESIAN_POINT('',(-8.89171078474331,16.2007455703491,9.5));
#1563=CARTESIAN_POINT('',(-8.68603711711772,15.7432206522569,9.5));
#1564=CARTESIAN_POINT('',(-8.68603711711772,15.7432206522569,9.5));
#1565=CARTESIAN_POINT('',(-10.9533318213996,20.2243546747558,9.5));
#1566=CARTESIAN_POINT('',(-10.9533318213996,20.2243546747558,9.5));
#1567=CARTESIAN_POINT('',(-8.89171078474332,16.2007455703491,9.5));
#1568=CARTESIAN_POINT('',(-8.89171078474332,16.2007455703491,9.5));
#1569=CARTESIAN_POINT('',(-10.9533318213996,20.2243546747558,9.5));
#1570=CARTESIAN_POINT('',(-10.9533318213996,20.2243546747558,9.5));
#1571=CARTESIAN_POINT('',(0.,0.,9.5));
#1572=CARTESIAN_POINT('',(-1.38777878078145E-14,-5.65685424949238,15.));
#1573=CARTESIAN_POINT('',(-1.38777878078145E-14,-5.65685424949238,15.));
#1574=CARTESIAN_POINT('',(-5.65685424949238,5.32907051820075E-15,15.));
#1575=CARTESIAN_POINT('',(-5.65685424949238,5.32907051820075E-15,15.));
#1576=CARTESIAN_POINT('',(-5.65685424949238,5.32907051820075E-15,15.));
#1577=CARTESIAN_POINT('',(-5.65685424949238,5.32907051820075E-15,15.));
#1578=CARTESIAN_POINT('',(5.65685424949238,-1.38777878078145E-14,15.));
#1579=CARTESIAN_POINT('',(5.65685424949238,-1.38777878078145E-14,15.));
#1580=CARTESIAN_POINT('',(-5.32907051820075E-15,-5.65685424949238,15.));
#1581=CARTESIAN_POINT('',(-5.32907051820075E-15,-5.65685424949238,15.));
#1582=CARTESIAN_POINT('',(1.38777878078145E-14,5.65685424949238,15.));
#1583=CARTESIAN_POINT('',(1.38777878078145E-14,5.65685424949238,15.));
#1584=CARTESIAN_POINT('',(5.65685424949238,-5.32907051820075E-15,15.));
#1585=CARTESIAN_POINT('',(5.65685424949238,-5.32907051820075E-15,15.));
#1586=CARTESIAN_POINT('',(5.32907051820075E-15,5.65685424949238,15.));
#1587=CARTESIAN_POINT('',(5.32907051820075E-15,5.65685424949238,15.));
#1588=CARTESIAN_POINT('',(0.,0.,15.));
#1589=(
GEOMETRIC_REPRESENTATION_CONTEXT(3)
GLOBAL_UNCERTAINTY_ASSIGNED_CONTEXT((#1590))
GLOBAL_UNIT_ASSIGNED_CONTEXT((#1596,#1592,#1591))
REPRESENTATION_CONTEXT('tool','TOP_LEVEL_ASSEMBLY_PART')
);
#1590=UNCERTAINTY_MEASURE_WITH_UNIT(LENGTH_MEASURE(2.E-5),#1596,
'DISTANCE_ACCURACY_VALUE','Maximum Tolerance applied to model');
#1591=(
NAMED_UNIT(*)
SI_UNIT($,.STERADIAN.)
SOLID_ANGLE_UNIT()
);
#1592=(
CONVERSION_BASED_UNIT('DEGREE',#1594)
NAMED_UNIT(#1593)
PLANE_ANGLE_UNIT()
);
#1593=DIMENSIONAL_EXPONENTS(0.,0.,0.,0.,0.,0.,0.);
#1594=PLANE_ANGLE_MEASURE_WITH_UNIT(PLANE_ANGLE_MEASURE(0.0174532925),#1595);
#1595=(
NAMED_UNIT(*)
PLANE_ANGLE_UNIT()
SI_UNIT($,.RADIAN.)
);
#1596=(
LENGTH_UNIT()
NAMED_UNIT(*)
SI_UNIT(.MILLI.,.METRE.)
);
ENDSEC;
END-ISO-10303-21;
