ISO-10303-21;
HEADER;
/* Generated by software containing ST-Developer
 * from STEP Tools, Inc. (www.steptools.com) 
 */
/* OPTION: using custom schema-name function */

FILE_DESCRIPTION(
/* description */ (''),
/* implementation_level */ '2;1');

FILE_NAME(
/* name */ 'toolHandle2.stp',
/* time_stamp */ '2025-06-25T20:46:49+03:00',
/* author */ (''),
/* organization */ (''),
/* preprocessor_version */ 'ST-DEVELOPER v19.4',
/* originating_system */ 'SIEMENS PLM Software NX2306.4000',
/* authorisation */ '');

FILE_SCHEMA (('AUTOMOTIVE_DESIGN { 1 0 10303 214 3 1 1 1 }'));
ENDSEC;

DATA;
#10=SHAPE_REPRESENTATION_RELATIONSHIP('None',
'relationship between toolHandle2-None and toolHandle2-None',#22,#11);
#11=ADVANCED_BREP_SHAPE_REPRESENTATION('toolHandle2-None',(#32),#1045);
#12=SHAPE_DEFINITION_REPRESENTATION(#13,#22);
#13=PRODUCT_DEFINITION_SHAPE('','',#14);
#14=PRODUCT_DEFINITION(' ','',#16,#15);
#15=PRODUCT_DEFINITION_CONTEXT('part definition',#21,'design');
#16=PRODUCT_DEFINITION_FORMATION_WITH_SPECIFIED_SOURCE(' ',' ',#18,
 .NOT_KNOWN.);
#17=PRODUCT_RELATED_PRODUCT_CATEGORY('part','',(#18));
#18=PRODUCT('toolHandle2','toolHandle2',' ',(#19));
#19=PRODUCT_CONTEXT(' ',#21,'mechanical');
#20=APPLICATION_PROTOCOL_DEFINITION('international standard',
'automotive_design',2010,#21);
#21=APPLICATION_CONTEXT(
'core data for automotive mechanical design processes');
#22=SHAPE_REPRESENTATION('toolHandle2-None',(#568),#1045);
#23=PRESENTATION_LAYER_ASSIGNMENT('1','Layer 1',(#32));
#24=STYLED_ITEM('',(#25),#32);
#25=PRESENTATION_STYLE_ASSIGNMENT((#26));
#26=SURFACE_STYLE_USAGE(.BOTH.,#27);
#27=SURFACE_SIDE_STYLE('',(#28));
#28=SURFACE_STYLE_FILL_AREA(#29);
#29=FILL_AREA_STYLE('',(#30));
#30=FILL_AREA_STYLE_COLOUR('',#31);
#31=COLOUR_RGB('medium steel',0.611764705882353,0.658823529411765,0.670588235294118);
#32=MANIFOLD_SOLID_BREP('',#33);
#33=CLOSED_SHELL('',(#49,#50,#51,#52,#53,#54,#55,#56,#57,#58,#59,#60,#61,
#62,#63,#64,#65,#66,#67,#68,#69,#70,#71,#72,#73,#74,#75,#76));
#34=CYLINDRICAL_SURFACE('',#578,64.);
#35=CYLINDRICAL_SURFACE('',#581,25.);
#36=CYLINDRICAL_SURFACE('',#590,32.);
#37=CYLINDRICAL_SURFACE('',#593,25.);
#38=CYLINDRICAL_SURFACE('',#597,25.);
#39=CYLINDRICAL_SURFACE('',#600,32.);
#40=SURFACE_OF_LINEAR_EXTRUSION('',#48,#529);
#41=SURFACE_OF_LINEAR_EXTRUSION('',#174,#531);
#42=SURFACE_OF_LINEAR_EXTRUSION('',#176,#533);
#43=SURFACE_OF_LINEAR_EXTRUSION('',#178,#540);
#44=SURFACE_OF_LINEAR_EXTRUSION('',#180,#541);
#45=SURFACE_OF_LINEAR_EXTRUSION('',#182,#546);
#46=SURFACE_OF_LINEAR_EXTRUSION('',#186,#554);
#47=(
BOUNDED_CURVE()
B_SPLINE_CURVE(4,(#823,#824,#825,#826,#827,#828,#829,#830,#831,#832,#833,
#834,#835),.UNSPECIFIED.,.F.,.F.)
B_SPLINE_CURVE_WITH_KNOTS((5,1,3,3,1,5),(0.,0.0416666666666667,0.333333333333333,
0.666666666666667,0.958333333333333,1.),.UNSPECIFIED.)
CURVE()
GEOMETRIC_REPRESENTATION_ITEM()
RATIONAL_B_SPLINE_CURVE((0.551278823526664,0.551278823526664,0.549688873257061,
0.54014917163944,0.551278823526664,0.551278823526664,0.538559221369836,
0.551278823526664,0.551278823526664,0.54014917163944,0.549688873257061,
0.551278823526664,0.551278823526664))
REPRESENTATION_ITEM('')
);
#48=(
BOUNDED_CURVE()
B_SPLINE_CURVE(4,(#860,#861,#862,#863,#864,#865,#866,#867,#868,#869,#870,
#871,#872),.UNSPECIFIED.,.F.,.F.)
B_SPLINE_CURVE_WITH_KNOTS((5,1,3,3,1,5),(0.,0.0416666666666667,0.333333333333333,
0.666666666666667,0.958333333333333,1.),.UNSPECIFIED.)
CURVE()
GEOMETRIC_REPRESENTATION_ITEM()
RATIONAL_B_SPLINE_CURVE((0.551278823526664,0.551278823526664,0.549688873257061,
0.54014917163944,0.551278823526664,0.551278823526664,0.538559221369836,
0.551278823526664,0.551278823526664,0.54014917163944,0.549688873257061,
0.551278823526664,0.551278823526664))
REPRESENTATION_ITEM('')
);
#49=ADVANCED_FACE('',(#92),#77,.F.);
#50=ADVANCED_FACE('',(#93),#78,.F.);
#51=ADVANCED_FACE('',(#94),#40,.F.);
#52=ADVANCED_FACE('',(#95),#41,.F.);
#53=ADVANCED_FACE('',(#96),#42,.F.);
#54=ADVANCED_FACE('',(#97),#34,.T.);
#55=ADVANCED_FACE('',(#98),#43,.F.);
#56=ADVANCED_FACE('',(#99),#44,.F.);
#57=ADVANCED_FACE('',(#100),#79,.T.);
#58=ADVANCED_FACE('',(#101),#35,.F.);
#59=ADVANCED_FACE('',(#102),#80,.F.);
#60=ADVANCED_FACE('',(#103),#45,.F.);
#61=ADVANCED_FACE('',(#104),#81,.F.);
#62=ADVANCED_FACE('',(#105),#82,.F.);
#63=ADVANCED_FACE('',(#106),#83,.F.);
#64=ADVANCED_FACE('',(#107),#46,.F.);
#65=ADVANCED_FACE('',(#108),#84,.F.);
#66=ADVANCED_FACE('',(#109),#85,.F.);
#67=ADVANCED_FACE('',(#110),#86,.F.);
#68=ADVANCED_FACE('',(#111),#36,.T.);
#69=ADVANCED_FACE('',(#112),#87,.F.);
#70=ADVANCED_FACE('',(#113),#37,.F.);
#71=ADVANCED_FACE('',(#114),#88,.T.);
#72=ADVANCED_FACE('',(#115),#89,.F.);
#73=ADVANCED_FACE('',(#116),#38,.F.);
#74=ADVANCED_FACE('',(#117),#90,.F.);
#75=ADVANCED_FACE('',(#118),#39,.T.);
#76=ADVANCED_FACE('',(#119),#91,.F.);
#77=PLANE('',#572);
#78=PLANE('',#574);
#79=PLANE('',#579);
#80=PLANE('',#582);
#81=PLANE('',#583);
#82=PLANE('',#584);
#83=PLANE('',#585);
#84=PLANE('',#586);
#85=PLANE('',#587);
#86=PLANE('',#588);
#87=PLANE('',#591);
#88=PLANE('',#594);
#89=PLANE('',#595);
#90=PLANE('',#598);
#91=PLANE('',#601);
#92=FACE_OUTER_BOUND('',#120,.T.);
#93=FACE_OUTER_BOUND('',#121,.T.);
#94=FACE_OUTER_BOUND('',#122,.T.);
#95=FACE_OUTER_BOUND('',#123,.T.);
#96=FACE_OUTER_BOUND('',#124,.T.);
#97=FACE_OUTER_BOUND('',#125,.T.);
#98=FACE_OUTER_BOUND('',#126,.T.);
#99=FACE_OUTER_BOUND('',#127,.T.);
#100=FACE_OUTER_BOUND('',#128,.T.);
#101=FACE_OUTER_BOUND('',#129,.T.);
#102=FACE_OUTER_BOUND('',#130,.T.);
#103=FACE_OUTER_BOUND('',#131,.T.);
#104=FACE_OUTER_BOUND('',#132,.T.);
#105=FACE_OUTER_BOUND('',#133,.T.);
#106=FACE_OUTER_BOUND('',#134,.T.);
#107=FACE_OUTER_BOUND('',#135,.T.);
#108=FACE_OUTER_BOUND('',#136,.T.);
#109=FACE_OUTER_BOUND('',#137,.T.);
#110=FACE_OUTER_BOUND('',#138,.T.);
#111=FACE_OUTER_BOUND('',#139,.T.);
#112=FACE_OUTER_BOUND('',#140,.T.);
#113=FACE_OUTER_BOUND('',#141,.T.);
#114=FACE_OUTER_BOUND('',#142,.T.);
#115=FACE_OUTER_BOUND('',#143,.T.);
#116=FACE_OUTER_BOUND('',#144,.T.);
#117=FACE_OUTER_BOUND('',#145,.T.);
#118=FACE_OUTER_BOUND('',#146,.T.);
#119=FACE_OUTER_BOUND('',#147,.T.);
#120=EDGE_LOOP('',(#187,#188,#189,#190,#191,#192,#193,#194,#195,#196,#197,
#198,#199,#200,#201,#202,#203,#204));
#121=EDGE_LOOP('',(#205,#206,#207,#208,#209,#210,#211));
#122=EDGE_LOOP('',(#212,#213,#214,#215,#216,#217,#218));
#123=EDGE_LOOP('',(#219,#220,#221,#222));
#124=EDGE_LOOP('',(#223,#224,#225,#226));
#125=EDGE_LOOP('',(#227,#228,#229,#230,#231,#232,#233,#234,#235,#236));
#126=EDGE_LOOP('',(#237,#238,#239,#240));
#127=EDGE_LOOP('',(#241,#242,#243,#244));
#128=EDGE_LOOP('',(#245,#246,#247,#248,#249,#250));
#129=EDGE_LOOP('',(#251,#252,#253,#254));
#130=EDGE_LOOP('',(#255,#256,#257,#258));
#131=EDGE_LOOP('',(#259,#260,#261,#262));
#132=EDGE_LOOP('',(#263,#264,#265,#266,#267,#268));
#133=EDGE_LOOP('',(#269,#270,#271,#272));
#134=EDGE_LOOP('',(#273,#274,#275,#276,#277,#278,#279,#280));
#135=EDGE_LOOP('',(#281,#282,#283,#284));
#136=EDGE_LOOP('',(#285,#286,#287,#288));
#137=EDGE_LOOP('',(#289,#290,#291,#292,#293,#294,#295,#296,#297,#298,#299,
#300,#301));
#138=EDGE_LOOP('',(#302,#303,#304,#305));
#139=EDGE_LOOP('',(#306,#307,#308,#309,#310));
#140=EDGE_LOOP('',(#311,#312,#313,#314));
#141=EDGE_LOOP('',(#315,#316,#317,#318));
#142=EDGE_LOOP('',(#319,#320,#321,#322));
#143=EDGE_LOOP('',(#323,#324,#325,#326));
#144=EDGE_LOOP('',(#327,#328,#329,#330));
#145=EDGE_LOOP('',(#331,#332,#333,#334));
#146=EDGE_LOOP('',(#335,#336,#337,#338));
#147=EDGE_LOOP('',(#339,#340,#341,#342));
#148=CIRCLE('',#569,25.);
#149=CIRCLE('',#570,25.);
#150=CIRCLE('',#571,25.);
#151=CIRCLE('',#573,64.);
#152=CIRCLE('',#575,64.);
#153=CIRCLE('',#576,64.);
#154=CIRCLE('',#577,64.);
#155=CIRCLE('',#580,25.);
#156=CIRCLE('',#589,32.);
#157=CIRCLE('',#592,25.);
#158=CIRCLE('',#596,25.);
#159=CIRCLE('',#599,32.);
#160=B_SPLINE_CURVE_WITH_KNOTS('',3,(#725,#726,#727,#728),.UNSPECIFIED.,
 .F.,.F.,(4,4),(0.,1.),.UNSPECIFIED.);
#161=B_SPLINE_CURVE_WITH_KNOTS('',3,(#736,#737,#738,#739),.UNSPECIFIED.,
 .F.,.F.,(4,4),(0.,1.),.UNSPECIFIED.);
#162=B_SPLINE_CURVE_WITH_KNOTS('',3,(#741,#742,#743,#744,#745),
 .UNSPECIFIED.,.F.,.F.,(4,1,4),(0.,0.25,1.),.UNSPECIFIED.);
#163=B_SPLINE_CURVE_WITH_KNOTS('',3,(#747,#748,#749,#750,#751,#752,#753,
#754,#755,#756,#757),.UNSPECIFIED.,.F.,.F.,(4,1,1,1,1,1,1,1,4),(0.,0.125,
0.25,0.5,0.625,0.75,0.875,0.9375,1.),.UNSPECIFIED.);
#164=B_SPLINE_CURVE_WITH_KNOTS('',3,(#759,#760,#761,#762),.UNSPECIFIED.,
 .F.,.F.,(4,4),(0.,1.),.UNSPECIFIED.);
#165=B_SPLINE_CURVE_WITH_KNOTS('',3,(#770,#771,#772,#773),.UNSPECIFIED.,
 .F.,.F.,(4,4),(0.,1.),.UNSPECIFIED.);
#166=B_SPLINE_CURVE_WITH_KNOTS('',3,(#775,#776,#777,#778,#779,#780,#781,
#782,#783,#784,#785),.UNSPECIFIED.,.F.,.F.,(4,1,1,1,1,1,1,1,4),(0.,0.0625000000000001,
0.125,0.25,0.375,0.5,0.75,0.875,1.),.UNSPECIFIED.);
#167=B_SPLINE_CURVE_WITH_KNOTS('',3,(#787,#788,#789,#790,#791),
 .UNSPECIFIED.,.F.,.F.,(4,1,4),(0.,0.75,1.),.UNSPECIFIED.);
#168=B_SPLINE_CURVE_WITH_KNOTS('',3,(#793,#794,#795,#796),.UNSPECIFIED.,
 .F.,.F.,(4,4),(0.,1.),.UNSPECIFIED.);
#169=B_SPLINE_CURVE_WITH_KNOTS('',3,(#805,#806,#807,#808),.UNSPECIFIED.,
 .F.,.F.,(4,4),(0.,1.),.UNSPECIFIED.);
#170=B_SPLINE_CURVE_WITH_KNOTS('',3,(#810,#811,#812,#813),.UNSPECIFIED.,
 .F.,.F.,(4,4),(0.,1.),.UNSPECIFIED.);
#171=B_SPLINE_CURVE_WITH_KNOTS('',3,(#839,#840,#841,#842,#843,#844,#845,
#846,#847,#848),.UNSPECIFIED.,.F.,.F.,(4,2,2,2,4),(0.,0.25,0.5,0.75,1.),
 .UNSPECIFIED.);
#172=B_SPLINE_CURVE_WITH_KNOTS('',3,(#849,#850,#851,#852,#853,#854,#855,
#856,#857,#858),.UNSPECIFIED.,.F.,.F.,(4,2,2,2,4),(0.,0.25,0.5,0.75,1.),
 .UNSPECIFIED.);
#173=B_SPLINE_CURVE_WITH_KNOTS('',3,(#873,#874,#875,#876,#877),
 .UNSPECIFIED.,.F.,.F.,(4,1,4),(0.,0.25,1.),.UNSPECIFIED.);
#174=B_SPLINE_CURVE_WITH_KNOTS('',3,(#880,#881,#882,#883,#884),
 .UNSPECIFIED.,.F.,.F.,(4,1,4),(0.,0.25,1.),.UNSPECIFIED.);
#175=B_SPLINE_CURVE_WITH_KNOTS('',3,(#885,#886,#887,#888,#889,#890,#891,
#892,#893,#894,#895),.UNSPECIFIED.,.F.,.F.,(4,1,1,1,1,1,1,1,4),(0.,0.125,
0.25,0.5,0.625,0.75,0.875,0.9375,1.),.UNSPECIFIED.);
#176=B_SPLINE_CURVE_WITH_KNOTS('',3,(#898,#899,#900,#901,#902,#903,#904,
#905,#906,#907,#908),.UNSPECIFIED.,.F.,.F.,(4,1,1,1,1,1,1,1,4),(0.,0.125,
0.25,0.5,0.625,0.75,0.875,0.9375,1.),.UNSPECIFIED.);
#177=B_SPLINE_CURVE_WITH_KNOTS('',3,(#923,#924,#925,#926,#927,#928,#929,
#930,#931,#932,#933),.UNSPECIFIED.,.F.,.F.,(4,1,1,1,1,1,1,1,4),(0.,0.0625000000000001,
0.125,0.25,0.375,0.5,0.75,0.875,1.),.UNSPECIFIED.);
#178=B_SPLINE_CURVE_WITH_KNOTS('',3,(#936,#937,#938,#939,#940,#941,#942,
#943,#944,#945,#946),.UNSPECIFIED.,.F.,.F.,(4,1,1,1,1,1,1,1,4),(0.,0.0625000000000001,
0.125,0.25,0.375,0.5,0.75,0.875,1.),.UNSPECIFIED.);
#179=B_SPLINE_CURVE_WITH_KNOTS('',3,(#947,#948,#949,#950,#951),
 .UNSPECIFIED.,.F.,.F.,(4,1,4),(0.,0.75,1.),.UNSPECIFIED.);
#180=B_SPLINE_CURVE_WITH_KNOTS('',3,(#952,#953,#954,#955,#956),
 .UNSPECIFIED.,.F.,.F.,(4,1,4),(0.,0.75,1.),.UNSPECIFIED.);
#181=B_SPLINE_CURVE_WITH_KNOTS('',3,(#968,#969,#970,#971),.UNSPECIFIED.,
 .F.,.F.,(4,4),(0.,1.),.UNSPECIFIED.);
#182=B_SPLINE_CURVE_WITH_KNOTS('',3,(#972,#973,#974,#975),.UNSPECIFIED.,
 .F.,.F.,(4,4),(0.,1.),.UNSPECIFIED.);
#183=B_SPLINE_CURVE_WITH_KNOTS('',3,(#988,#989,#990,#991),.UNSPECIFIED.,
 .F.,.F.,(4,4),(0.,1.),.UNSPECIFIED.);
#184=B_SPLINE_CURVE_WITH_KNOTS('',3,(#993,#994,#995,#996),.UNSPECIFIED.,
 .F.,.F.,(4,4),(0.,1.),.UNSPECIFIED.);
#185=B_SPLINE_CURVE_WITH_KNOTS('',3,(#1000,#1001,#1002,#1003),
 .UNSPECIFIED.,.F.,.F.,(4,4),(0.,1.),.UNSPECIFIED.);
#186=B_SPLINE_CURVE_WITH_KNOTS('',3,(#1004,#1005,#1006,#1007),
 .UNSPECIFIED.,.F.,.F.,(4,4),(0.,1.),.UNSPECIFIED.);
#187=ORIENTED_EDGE('',*,*,#395,.F.);
#188=ORIENTED_EDGE('',*,*,#396,.T.);
#189=ORIENTED_EDGE('',*,*,#397,.F.);
#190=ORIENTED_EDGE('',*,*,#398,.F.);
#191=ORIENTED_EDGE('',*,*,#399,.F.);
#192=ORIENTED_EDGE('',*,*,#400,.F.);
#193=ORIENTED_EDGE('',*,*,#401,.T.);
#194=ORIENTED_EDGE('',*,*,#402,.T.);
#195=ORIENTED_EDGE('',*,*,#403,.F.);
#196=ORIENTED_EDGE('',*,*,#404,.F.);
#197=ORIENTED_EDGE('',*,*,#405,.F.);
#198=ORIENTED_EDGE('',*,*,#406,.F.);
#199=ORIENTED_EDGE('',*,*,#407,.F.);
#200=ORIENTED_EDGE('',*,*,#408,.T.);
#201=ORIENTED_EDGE('',*,*,#409,.T.);
#202=ORIENTED_EDGE('',*,*,#410,.T.);
#203=ORIENTED_EDGE('',*,*,#411,.F.);
#204=ORIENTED_EDGE('',*,*,#412,.F.);
#205=ORIENTED_EDGE('',*,*,#413,.F.);
#206=ORIENTED_EDGE('',*,*,#414,.F.);
#207=ORIENTED_EDGE('',*,*,#415,.F.);
#208=ORIENTED_EDGE('',*,*,#416,.F.);
#209=ORIENTED_EDGE('',*,*,#417,.F.);
#210=ORIENTED_EDGE('',*,*,#418,.F.);
#211=ORIENTED_EDGE('',*,*,#419,.T.);
#212=ORIENTED_EDGE('',*,*,#420,.T.);
#213=ORIENTED_EDGE('',*,*,#421,.F.);
#214=ORIENTED_EDGE('',*,*,#422,.F.);
#215=ORIENTED_EDGE('',*,*,#396,.F.);
#216=ORIENTED_EDGE('',*,*,#423,.F.);
#217=ORIENTED_EDGE('',*,*,#410,.F.);
#218=ORIENTED_EDGE('',*,*,#424,.T.);
#219=ORIENTED_EDGE('',*,*,#425,.T.);
#220=ORIENTED_EDGE('',*,*,#426,.F.);
#221=ORIENTED_EDGE('',*,*,#401,.F.);
#222=ORIENTED_EDGE('',*,*,#421,.T.);
#223=ORIENTED_EDGE('',*,*,#427,.T.);
#224=ORIENTED_EDGE('',*,*,#428,.F.);
#225=ORIENTED_EDGE('',*,*,#402,.F.);
#226=ORIENTED_EDGE('',*,*,#426,.T.);
#227=ORIENTED_EDGE('',*,*,#429,.T.);
#228=ORIENTED_EDGE('',*,*,#430,.F.);
#229=ORIENTED_EDGE('',*,*,#431,.F.);
#230=ORIENTED_EDGE('',*,*,#432,.F.);
#231=ORIENTED_EDGE('',*,*,#433,.T.);
#232=ORIENTED_EDGE('',*,*,#419,.F.);
#233=ORIENTED_EDGE('',*,*,#434,.F.);
#234=ORIENTED_EDGE('',*,*,#435,.F.);
#235=ORIENTED_EDGE('',*,*,#436,.T.);
#236=ORIENTED_EDGE('',*,*,#428,.T.);
#237=ORIENTED_EDGE('',*,*,#437,.T.);
#238=ORIENTED_EDGE('',*,*,#438,.F.);
#239=ORIENTED_EDGE('',*,*,#408,.F.);
#240=ORIENTED_EDGE('',*,*,#430,.T.);
#241=ORIENTED_EDGE('',*,*,#439,.T.);
#242=ORIENTED_EDGE('',*,*,#424,.F.);
#243=ORIENTED_EDGE('',*,*,#409,.F.);
#244=ORIENTED_EDGE('',*,*,#438,.T.);
#245=ORIENTED_EDGE('',*,*,#420,.F.);
#246=ORIENTED_EDGE('',*,*,#439,.F.);
#247=ORIENTED_EDGE('',*,*,#437,.F.);
#248=ORIENTED_EDGE('',*,*,#429,.F.);
#249=ORIENTED_EDGE('',*,*,#427,.F.);
#250=ORIENTED_EDGE('',*,*,#425,.F.);
#251=ORIENTED_EDGE('',*,*,#405,.T.);
#252=ORIENTED_EDGE('',*,*,#440,.F.);
#253=ORIENTED_EDGE('',*,*,#441,.F.);
#254=ORIENTED_EDGE('',*,*,#442,.T.);
#255=ORIENTED_EDGE('',*,*,#404,.T.);
#256=ORIENTED_EDGE('',*,*,#443,.F.);
#257=ORIENTED_EDGE('',*,*,#444,.F.);
#258=ORIENTED_EDGE('',*,*,#440,.T.);
#259=ORIENTED_EDGE('',*,*,#403,.T.);
#260=ORIENTED_EDGE('',*,*,#436,.F.);
#261=ORIENTED_EDGE('',*,*,#445,.F.);
#262=ORIENTED_EDGE('',*,*,#443,.T.);
#263=ORIENTED_EDGE('',*,*,#417,.T.);
#264=ORIENTED_EDGE('',*,*,#446,.F.);
#265=ORIENTED_EDGE('',*,*,#447,.F.);
#266=ORIENTED_EDGE('',*,*,#448,.F.);
#267=ORIENTED_EDGE('',*,*,#434,.T.);
#268=ORIENTED_EDGE('',*,*,#418,.T.);
#269=ORIENTED_EDGE('',*,*,#416,.T.);
#270=ORIENTED_EDGE('',*,*,#449,.F.);
#271=ORIENTED_EDGE('',*,*,#450,.F.);
#272=ORIENTED_EDGE('',*,*,#446,.T.);
#273=ORIENTED_EDGE('',*,*,#413,.T.);
#274=ORIENTED_EDGE('',*,*,#433,.F.);
#275=ORIENTED_EDGE('',*,*,#451,.F.);
#276=ORIENTED_EDGE('',*,*,#452,.F.);
#277=ORIENTED_EDGE('',*,*,#453,.F.);
#278=ORIENTED_EDGE('',*,*,#449,.T.);
#279=ORIENTED_EDGE('',*,*,#415,.T.);
#280=ORIENTED_EDGE('',*,*,#414,.T.);
#281=ORIENTED_EDGE('',*,*,#407,.T.);
#282=ORIENTED_EDGE('',*,*,#454,.F.);
#283=ORIENTED_EDGE('',*,*,#455,.F.);
#284=ORIENTED_EDGE('',*,*,#431,.T.);
#285=ORIENTED_EDGE('',*,*,#406,.T.);
#286=ORIENTED_EDGE('',*,*,#442,.F.);
#287=ORIENTED_EDGE('',*,*,#456,.F.);
#288=ORIENTED_EDGE('',*,*,#454,.T.);
#289=ORIENTED_EDGE('',*,*,#441,.T.);
#290=ORIENTED_EDGE('',*,*,#444,.T.);
#291=ORIENTED_EDGE('',*,*,#445,.T.);
#292=ORIENTED_EDGE('',*,*,#435,.T.);
#293=ORIENTED_EDGE('',*,*,#448,.T.);
#294=ORIENTED_EDGE('',*,*,#447,.T.);
#295=ORIENTED_EDGE('',*,*,#450,.T.);
#296=ORIENTED_EDGE('',*,*,#453,.T.);
#297=ORIENTED_EDGE('',*,*,#452,.T.);
#298=ORIENTED_EDGE('',*,*,#451,.T.);
#299=ORIENTED_EDGE('',*,*,#432,.T.);
#300=ORIENTED_EDGE('',*,*,#455,.T.);
#301=ORIENTED_EDGE('',*,*,#456,.T.);
#302=ORIENTED_EDGE('',*,*,#397,.T.);
#303=ORIENTED_EDGE('',*,*,#457,.F.);
#304=ORIENTED_EDGE('',*,*,#458,.F.);
#305=ORIENTED_EDGE('',*,*,#459,.T.);
#306=ORIENTED_EDGE('',*,*,#422,.T.);
#307=ORIENTED_EDGE('',*,*,#400,.T.);
#308=ORIENTED_EDGE('',*,*,#460,.F.);
#309=ORIENTED_EDGE('',*,*,#461,.F.);
#310=ORIENTED_EDGE('',*,*,#457,.T.);
#311=ORIENTED_EDGE('',*,*,#399,.T.);
#312=ORIENTED_EDGE('',*,*,#462,.F.);
#313=ORIENTED_EDGE('',*,*,#463,.F.);
#314=ORIENTED_EDGE('',*,*,#460,.T.);
#315=ORIENTED_EDGE('',*,*,#398,.T.);
#316=ORIENTED_EDGE('',*,*,#459,.F.);
#317=ORIENTED_EDGE('',*,*,#464,.F.);
#318=ORIENTED_EDGE('',*,*,#462,.T.);
#319=ORIENTED_EDGE('',*,*,#458,.T.);
#320=ORIENTED_EDGE('',*,*,#461,.T.);
#321=ORIENTED_EDGE('',*,*,#463,.T.);
#322=ORIENTED_EDGE('',*,*,#464,.T.);
#323=ORIENTED_EDGE('',*,*,#395,.T.);
#324=ORIENTED_EDGE('',*,*,#465,.F.);
#325=ORIENTED_EDGE('',*,*,#466,.F.);
#326=ORIENTED_EDGE('',*,*,#467,.T.);
#327=ORIENTED_EDGE('',*,*,#412,.T.);
#328=ORIENTED_EDGE('',*,*,#468,.F.);
#329=ORIENTED_EDGE('',*,*,#469,.F.);
#330=ORIENTED_EDGE('',*,*,#465,.T.);
#331=ORIENTED_EDGE('',*,*,#411,.T.);
#332=ORIENTED_EDGE('',*,*,#470,.F.);
#333=ORIENTED_EDGE('',*,*,#471,.F.);
#334=ORIENTED_EDGE('',*,*,#468,.T.);
#335=ORIENTED_EDGE('',*,*,#423,.T.);
#336=ORIENTED_EDGE('',*,*,#467,.F.);
#337=ORIENTED_EDGE('',*,*,#472,.F.);
#338=ORIENTED_EDGE('',*,*,#470,.T.);
#339=ORIENTED_EDGE('',*,*,#466,.T.);
#340=ORIENTED_EDGE('',*,*,#469,.T.);
#341=ORIENTED_EDGE('',*,*,#471,.T.);
#342=ORIENTED_EDGE('',*,*,#472,.T.);
#343=VERTEX_POINT('',#723);
#344=VERTEX_POINT('',#724);
#345=VERTEX_POINT('',#729);
#346=VERTEX_POINT('',#731);
#347=VERTEX_POINT('',#733);
#348=VERTEX_POINT('',#735);
#349=VERTEX_POINT('',#740);
#350=VERTEX_POINT('',#746);
#351=VERTEX_POINT('',#758);
#352=VERTEX_POINT('',#763);
#353=VERTEX_POINT('',#765);
#354=VERTEX_POINT('',#767);
#355=VERTEX_POINT('',#769);
#356=VERTEX_POINT('',#774);
#357=VERTEX_POINT('',#786);
#358=VERTEX_POINT('',#792);
#359=VERTEX_POINT('',#797);
#360=VERTEX_POINT('',#799);
#361=VERTEX_POINT('',#803);
#362=VERTEX_POINT('',#804);
#363=VERTEX_POINT('',#809);
#364=VERTEX_POINT('',#814);
#365=VERTEX_POINT('',#816);
#366=VERTEX_POINT('',#818);
#367=VERTEX_POINT('',#820);
#368=VERTEX_POINT('',#836);
#369=VERTEX_POINT('',#837);
#370=VERTEX_POINT('',#878);
#371=VERTEX_POINT('',#896);
#372=VERTEX_POINT('',#910);
#373=VERTEX_POINT('',#913);
#374=VERTEX_POINT('',#915);
#375=VERTEX_POINT('',#918);
#376=VERTEX_POINT('',#920);
#377=VERTEX_POINT('',#934);
#378=VERTEX_POINT('',#959);
#379=VERTEX_POINT('',#961);
#380=VERTEX_POINT('',#965);
#381=VERTEX_POINT('',#977);
#382=VERTEX_POINT('',#979);
#383=VERTEX_POINT('',#983);
#384=VERTEX_POINT('',#987);
#385=VERTEX_POINT('',#992);
#386=VERTEX_POINT('',#999);
#387=VERTEX_POINT('',#1012);
#388=VERTEX_POINT('',#1014);
#389=VERTEX_POINT('',#1018);
#390=VERTEX_POINT('',#1022);
#391=VERTEX_POINT('',#1029);
#392=VERTEX_POINT('',#1031);
#393=VERTEX_POINT('',#1035);
#394=VERTEX_POINT('',#1039);
#395=EDGE_CURVE('',#343,#344,#473,.T.);
#396=EDGE_CURVE('',#343,#345,#160,.T.);
#397=EDGE_CURVE('',#346,#345,#474,.T.);
#398=EDGE_CURVE('',#347,#346,#148,.T.);
#399=EDGE_CURVE('',#348,#347,#475,.T.);
#400=EDGE_CURVE('',#349,#348,#161,.T.);
#401=EDGE_CURVE('',#349,#350,#162,.T.);
#402=EDGE_CURVE('',#350,#351,#163,.T.);
#403=EDGE_CURVE('',#352,#351,#164,.T.);
#404=EDGE_CURVE('',#353,#352,#476,.T.);
#405=EDGE_CURVE('',#354,#353,#149,.T.);
#406=EDGE_CURVE('',#355,#354,#477,.T.);
#407=EDGE_CURVE('',#356,#355,#165,.T.);
#408=EDGE_CURVE('',#356,#357,#166,.T.);
#409=EDGE_CURVE('',#357,#358,#167,.T.);
#410=EDGE_CURVE('',#358,#359,#168,.T.);
#411=EDGE_CURVE('',#360,#359,#478,.T.);
#412=EDGE_CURVE('',#344,#360,#150,.T.);
#413=EDGE_CURVE('',#361,#362,#479,.T.);
#414=EDGE_CURVE('',#363,#361,#169,.T.);
#415=EDGE_CURVE('',#364,#363,#170,.T.);
#416=EDGE_CURVE('',#365,#364,#480,.T.);
#417=EDGE_CURVE('',#366,#365,#481,.T.);
#418=EDGE_CURVE('',#367,#366,#482,.T.);
#419=EDGE_CURVE('',#367,#362,#151,.T.);
#420=EDGE_CURVE('',#368,#369,#47,.T.);
#421=EDGE_CURVE('',#349,#369,#483,.T.);
#422=EDGE_CURVE('',#345,#349,#171,.T.);
#423=EDGE_CURVE('',#359,#343,#172,.T.);
#424=EDGE_CURVE('',#358,#368,#484,.T.);
#425=EDGE_CURVE('',#369,#370,#173,.T.);
#426=EDGE_CURVE('',#350,#370,#485,.T.);
#427=EDGE_CURVE('',#370,#371,#175,.T.);
#428=EDGE_CURVE('',#351,#371,#486,.T.);
#429=EDGE_CURVE('',#371,#372,#152,.T.);
#430=EDGE_CURVE('',#356,#372,#487,.T.);
#431=EDGE_CURVE('',#373,#356,#488,.T.);
#432=EDGE_CURVE('',#374,#373,#153,.T.);
#433=EDGE_CURVE('',#374,#362,#489,.T.);
#434=EDGE_CURVE('',#375,#367,#490,.T.);
#435=EDGE_CURVE('',#376,#375,#154,.T.);
#436=EDGE_CURVE('',#376,#351,#491,.T.);
#437=EDGE_CURVE('',#372,#377,#177,.T.);
#438=EDGE_CURVE('',#357,#377,#492,.T.);
#439=EDGE_CURVE('',#377,#368,#179,.T.);
#440=EDGE_CURVE('',#378,#353,#493,.T.);
#441=EDGE_CURVE('',#379,#378,#155,.T.);
#442=EDGE_CURVE('',#379,#354,#494,.T.);
#443=EDGE_CURVE('',#380,#352,#495,.T.);
#444=EDGE_CURVE('',#378,#380,#496,.T.);
#445=EDGE_CURVE('',#380,#376,#181,.T.);
#446=EDGE_CURVE('',#381,#365,#497,.T.);
#447=EDGE_CURVE('',#382,#381,#498,.T.);
#448=EDGE_CURVE('',#375,#382,#499,.T.);
#449=EDGE_CURVE('',#383,#364,#500,.T.);
#450=EDGE_CURVE('',#381,#383,#501,.T.);
#451=EDGE_CURVE('',#384,#374,#502,.T.);
#452=EDGE_CURVE('',#385,#384,#183,.T.);
#453=EDGE_CURVE('',#383,#385,#184,.T.);
#454=EDGE_CURVE('',#386,#355,#503,.T.);
#455=EDGE_CURVE('',#373,#386,#185,.T.);
#456=EDGE_CURVE('',#386,#379,#504,.T.);
#457=EDGE_CURVE('',#387,#345,#505,.T.);
#458=EDGE_CURVE('',#388,#387,#506,.T.);
#459=EDGE_CURVE('',#388,#346,#507,.T.);
#460=EDGE_CURVE('',#389,#348,#508,.T.);
#461=EDGE_CURVE('',#387,#389,#156,.T.);
#462=EDGE_CURVE('',#390,#347,#509,.T.);
#463=EDGE_CURVE('',#389,#390,#510,.T.);
#464=EDGE_CURVE('',#390,#388,#157,.T.);
#465=EDGE_CURVE('',#391,#344,#511,.T.);
#466=EDGE_CURVE('',#392,#391,#512,.T.);
#467=EDGE_CURVE('',#392,#343,#513,.T.);
#468=EDGE_CURVE('',#393,#360,#514,.T.);
#469=EDGE_CURVE('',#391,#393,#158,.T.);
#470=EDGE_CURVE('',#394,#359,#515,.T.);
#471=EDGE_CURVE('',#393,#394,#516,.T.);
#472=EDGE_CURVE('',#394,#392,#159,.T.);
#473=LINE('',#722,#517);
#474=LINE('',#730,#518);
#475=LINE('',#734,#519);
#476=LINE('',#764,#520);
#477=LINE('',#768,#521);
#478=LINE('',#798,#522);
#479=LINE('',#802,#523);
#480=LINE('',#815,#524);
#481=LINE('',#817,#525);
#482=LINE('',#819,#526);
#483=LINE('',#838,#527);
#484=LINE('',#859,#528);
#485=LINE('',#879,#530);
#486=LINE('',#897,#532);
#487=LINE('',#911,#534);
#488=LINE('',#912,#535);
#489=LINE('',#916,#536);
#490=LINE('',#917,#537);
#491=LINE('',#921,#538);
#492=LINE('',#935,#539);
#493=LINE('',#958,#542);
#494=LINE('',#962,#543);
#495=LINE('',#964,#544);
#496=LINE('',#966,#545);
#497=LINE('',#976,#547);
#498=LINE('',#978,#548);
#499=LINE('',#980,#549);
#500=LINE('',#982,#550);
#501=LINE('',#984,#551);
#502=LINE('',#986,#552);
#503=LINE('',#998,#553);
#504=LINE('',#1008,#555);
#505=LINE('',#1011,#556);
#506=LINE('',#1013,#557);
#507=LINE('',#1015,#558);
#508=LINE('',#1017,#559);
#509=LINE('',#1021,#560);
#510=LINE('',#1023,#561);
#511=LINE('',#1028,#562);
#512=LINE('',#1030,#563);
#513=LINE('',#1032,#564);
#514=LINE('',#1034,#565);
#515=LINE('',#1038,#566);
#516=LINE('',#1040,#567);
#517=VECTOR('',#604,1.);
#518=VECTOR('',#605,1.);
#519=VECTOR('',#608,1.);
#520=VECTOR('',#609,1.);
#521=VECTOR('',#612,1.);
#522=VECTOR('',#613,1.);
#523=VECTOR('',#618,1.);
#524=VECTOR('',#619,1.);
#525=VECTOR('',#620,1.);
#526=VECTOR('',#621,1.);
#527=VECTOR('',#626,1.);
#528=VECTOR('',#627,1.);
#529=VECTOR('',#628,1.);
#530=VECTOR('',#629,1.);
#531=VECTOR('',#630,1.);
#532=VECTOR('',#631,1.);
#533=VECTOR('',#632,1.);
#534=VECTOR('',#635,1.);
#535=VECTOR('',#636,1.);
#536=VECTOR('',#639,1.);
#537=VECTOR('',#640,1.);
#538=VECTOR('',#643,1.);
#539=VECTOR('',#646,1.);
#540=VECTOR('',#647,1.);
#541=VECTOR('',#648,1.);
#542=VECTOR('',#651,1.);
#543=VECTOR('',#654,1.);
#544=VECTOR('',#657,1.);
#545=VECTOR('',#658,1.);
#546=VECTOR('',#661,1.);
#547=VECTOR('',#662,1.);
#548=VECTOR('',#663,1.);
#549=VECTOR('',#664,1.);
#550=VECTOR('',#667,1.);
#551=VECTOR('',#668,1.);
#552=VECTOR('',#671,1.);
#553=VECTOR('',#674,1.);
#554=VECTOR('',#675,1.);
#555=VECTOR('',#676,1.);
#556=VECTOR('',#681,1.);
#557=VECTOR('',#682,1.);
#558=VECTOR('',#683,1.);
#559=VECTOR('',#686,1.);
#560=VECTOR('',#691,1.);
#561=VECTOR('',#692,1.);
#562=VECTOR('',#701,1.);
#563=VECTOR('',#702,1.);
#564=VECTOR('',#703,1.);
#565=VECTOR('',#706,1.);
#566=VECTOR('',#711,1.);
#567=VECTOR('',#712,1.);
#568=AXIS2_PLACEMENT_3D('',#721,#602,#603);
#569=AXIS2_PLACEMENT_3D('',#732,#606,#607);
#570=AXIS2_PLACEMENT_3D('',#766,#610,#611);
#571=AXIS2_PLACEMENT_3D('',#800,#614,#615);
#572=AXIS2_PLACEMENT_3D('',#801,#616,#617);
#573=AXIS2_PLACEMENT_3D('',#821,#622,#623);
#574=AXIS2_PLACEMENT_3D('',#822,#624,#625);
#575=AXIS2_PLACEMENT_3D('',#909,#633,#634);
#576=AXIS2_PLACEMENT_3D('',#914,#637,#638);
#577=AXIS2_PLACEMENT_3D('',#919,#641,#642);
#578=AXIS2_PLACEMENT_3D('',#922,#644,#645);
#579=AXIS2_PLACEMENT_3D('',#957,#649,#650);
#580=AXIS2_PLACEMENT_3D('',#960,#652,#653);
#581=AXIS2_PLACEMENT_3D('',#963,#655,#656);
#582=AXIS2_PLACEMENT_3D('',#967,#659,#660);
#583=AXIS2_PLACEMENT_3D('',#981,#665,#666);
#584=AXIS2_PLACEMENT_3D('',#985,#669,#670);
#585=AXIS2_PLACEMENT_3D('',#997,#672,#673);
#586=AXIS2_PLACEMENT_3D('',#1009,#677,#678);
#587=AXIS2_PLACEMENT_3D('',#1010,#679,#680);
#588=AXIS2_PLACEMENT_3D('',#1016,#684,#685);
#589=AXIS2_PLACEMENT_3D('',#1019,#687,#688);
#590=AXIS2_PLACEMENT_3D('',#1020,#689,#690);
#591=AXIS2_PLACEMENT_3D('',#1024,#693,#694);
#592=AXIS2_PLACEMENT_3D('',#1025,#695,#696);
#593=AXIS2_PLACEMENT_3D('',#1026,#697,#698);
#594=AXIS2_PLACEMENT_3D('',#1027,#699,#700);
#595=AXIS2_PLACEMENT_3D('',#1033,#704,#705);
#596=AXIS2_PLACEMENT_3D('',#1036,#707,#708);
#597=AXIS2_PLACEMENT_3D('',#1037,#709,#710);
#598=AXIS2_PLACEMENT_3D('',#1041,#713,#714);
#599=AXIS2_PLACEMENT_3D('',#1042,#715,#716);
#600=AXIS2_PLACEMENT_3D('',#1043,#717,#718);
#601=AXIS2_PLACEMENT_3D('',#1044,#719,#720);
#602=DIRECTION('',(0.,0.,1.));
#603=DIRECTION('',(1.,0.,0.));
#604=DIRECTION('',(0.994521895368273,-0.104528463267656,0.));
#605=DIRECTION('',(-0.956304755963036,-0.292371704722734,0.));
#606=DIRECTION('',(0.,0.,-1.));
#607=DIRECTION('',(1.,1.22464679914735E-16,0.));
#608=DIRECTION('',(-0.406700863728057,0.913561386795027,0.));
#609=DIRECTION('',(0.731380411535215,-0.681969716059723,0.));
#610=DIRECTION('',(0.,0.,-1.));
#611=DIRECTION('',(1.,1.22464679914735E-16,0.));
#612=DIRECTION('',(-0.587816937003506,-0.808993973136893,0.));
#613=DIRECTION('',(0.224951054343866,0.974370064785235,0.));
#614=DIRECTION('',(0.,0.,-1.));
#615=DIRECTION('',(1.,1.22464679914735E-16,0.));
#616=DIRECTION('',(0.,0.,-1.));
#617=DIRECTION('',(-1.,0.,0.));
#618=DIRECTION('',(0.999999999920609,1.26009088587974E-5,0.));
#619=DIRECTION('',(4.42911769854178E-16,1.,0.));
#620=DIRECTION('',(-0.999999999920609,1.26009088852847E-5,0.));
#621=DIRECTION('',(-0.999999999920149,1.26373587060063E-5,0.));
#622=DIRECTION('',(0.,0.,1.));
#623=DIRECTION('',(1.,0.,0.));
#624=DIRECTION('',(0.,0.,-1.));
#625=DIRECTION('',(-1.,0.,0.));
#626=DIRECTION('',(0.,0.,-1.));
#627=DIRECTION('',(0.,0.,-1.));
#628=DIRECTION('',(0.,0.,-1.));
#629=DIRECTION('',(0.,0.,-1.));
#630=DIRECTION('',(0.,0.,-1.));
#631=DIRECTION('',(0.,0.,-1.));
#632=DIRECTION('',(0.,0.,-1.));
#633=DIRECTION('',(0.,0.,1.));
#634=DIRECTION('',(1.,0.,0.));
#635=DIRECTION('',(0.,0.,-1.));
#636=DIRECTION('',(0.,0.,-1.));
#637=DIRECTION('',(0.,0.,1.));
#638=DIRECTION('',(1.,0.,0.));
#639=DIRECTION('',(0.,0.,-1.));
#640=DIRECTION('',(0.,0.,-1.));
#641=DIRECTION('',(0.,0.,1.));
#642=DIRECTION('',(1.,0.,0.));
#643=DIRECTION('',(0.,0.,-1.));
#644=DIRECTION('',(0.,0.,-1.));
#645=DIRECTION('',(-1.,0.,0.));
#646=DIRECTION('',(0.,0.,-1.));
#647=DIRECTION('',(0.,0.,-1.));
#648=DIRECTION('',(0.,0.,-1.));
#649=DIRECTION('',(0.,0.,-1.));
#650=DIRECTION('',(-1.,0.,0.));
#651=DIRECTION('',(0.,0.,-1.));
#652=DIRECTION('',(0.,0.,-1.));
#653=DIRECTION('',(1.,1.22464679914735E-16,0.));
#654=DIRECTION('',(0.,0.,-1.));
#655=DIRECTION('',(0.,0.,-1.));
#656=DIRECTION('',(-1.,0.,0.));
#657=DIRECTION('',(0.,0.,-1.));
#658=DIRECTION('',(0.731380411535215,-0.681969716059723,0.));
#659=DIRECTION('',(0.681969716059723,0.731380411535215,0.));
#660=DIRECTION('',(-0.731380411535215,0.681969716059723,0.));
#661=DIRECTION('',(0.,0.,-1.));
#662=DIRECTION('',(0.,0.,-1.));
#663=DIRECTION('',(-0.999999999920609,1.26009088948663E-5,0.));
#664=DIRECTION('',(-0.999999999920149,1.26373587060063E-5,0.));
#665=DIRECTION('',(-1.26009088852847E-5,-0.999999999920609,0.));
#666=DIRECTION('',(0.999999999920609,-1.26009088852845E-5,0.));
#667=DIRECTION('',(0.,0.,-1.));
#668=DIRECTION('',(1.32873530956253E-15,1.,0.));
#669=DIRECTION('',(-1.,4.42911769854178E-16,0.));
#670=DIRECTION('',(-4.44089209850063E-16,-1.,0.));
#671=DIRECTION('',(0.999999999920609,1.26009088587974E-5,0.));
#672=DIRECTION('',(-1.26009088587974E-5,0.999999999920609,0.));
#673=DIRECTION('',(-0.999999999920609,-1.26009088587987E-5,0.));
#674=DIRECTION('',(0.,0.,-1.));
#675=DIRECTION('',(0.,0.,-1.));
#676=DIRECTION('',(-0.587816937003506,-0.808993973136893,0.));
#677=DIRECTION('',(0.808993973136893,-0.587816937003506,0.));
#678=DIRECTION('',(0.587816937003506,0.808993973136893,0.));
#679=DIRECTION('',(0.,0.,-1.));
#680=DIRECTION('',(-1.,0.,0.));
#681=DIRECTION('',(0.,0.,-1.));
#682=DIRECTION('',(-0.956304755963036,-0.292371704722734,0.));
#683=DIRECTION('',(0.,0.,-1.));
#684=DIRECTION('',(0.292371704722734,-0.956304755963036,0.));
#685=DIRECTION('',(0.956304755963036,0.292371704722734,0.));
#686=DIRECTION('',(0.,0.,-1.));
#687=DIRECTION('',(0.,0.,1.));
#688=DIRECTION('',(1.,0.,0.));
#689=DIRECTION('',(0.,0.,-1.));
#690=DIRECTION('',(-1.,0.,0.));
#691=DIRECTION('',(0.,0.,-1.));
#692=DIRECTION('',(-0.406700863728057,0.913561386795027,0.));
#693=DIRECTION('',(-0.913561386795027,-0.406700863728057,0.));
#694=DIRECTION('',(0.406700863728057,-0.913561386795027,0.));
#695=DIRECTION('',(0.,0.,-1.));
#696=DIRECTION('',(1.,1.22464679914735E-16,0.));
#697=DIRECTION('',(0.,0.,-1.));
#698=DIRECTION('',(-1.,0.,0.));
#699=DIRECTION('',(0.,0.,1.));
#700=DIRECTION('',(1.,0.,0.));
#701=DIRECTION('',(0.,0.,-1.));
#702=DIRECTION('',(0.994521895368273,-0.104528463267656,0.));
#703=DIRECTION('',(0.,0.,-1.));
#704=DIRECTION('',(0.104528463267656,0.994521895368273,0.));
#705=DIRECTION('',(-0.994521895368273,0.104528463267656,0.));
#706=DIRECTION('',(0.,0.,-1.));
#707=DIRECTION('',(0.,0.,-1.));
#708=DIRECTION('',(1.,1.22464679914735E-16,0.));
#709=DIRECTION('',(0.,0.,-1.));
#710=DIRECTION('',(-1.,0.,0.));
#711=DIRECTION('',(0.,0.,-1.));
#712=DIRECTION('',(0.224951054343866,0.974370064785235,0.));
#713=DIRECTION('',(-0.974370064785235,0.224951054343866,0.));
#714=DIRECTION('',(-0.224951054343866,-0.974370064785235,0.));
#715=DIRECTION('',(0.,0.,1.));
#716=DIRECTION('',(1.,0.,0.));
#717=DIRECTION('',(0.,0.,-1.));
#718=DIRECTION('',(-1.,0.,0.));
#719=DIRECTION('',(0.,0.,-1.));
#720=DIRECTION('',(-1.,0.,0.));
#721=CARTESIAN_POINT('',(0.,0.,0.));
#722=CARTESIAN_POINT('',(-31.7439155081266,4.04027575951443,3.));
#723=CARTESIAN_POINT('',(-31.7443215980705,4.04031846611572,3.));
#724=CARTESIAN_POINT('',(-24.780129234318,3.30835232865215,3.));
#725=CARTESIAN_POINT('',(-31.7447265633789,4.04037000883995,3.));
#726=CARTESIAN_POINT('',(-32.3460185687353,-0.682387548425517,3.));
#727=CARTESIAN_POINT('',(-31.8402429489264,-5.62396951868534,3.));
#728=CARTESIAN_POINT('',(-30.3903460124888,-10.0232522427302,3.));
#729=CARTESIAN_POINT('',(-30.3900587644937,-10.023157503463,3.));
#730=CARTESIAN_POINT('',(-23.693585081571,-7.97584014272837,3.));
#731=CARTESIAN_POINT('',(-23.693585081571,-7.97584014272837,3.));
#732=CARTESIAN_POINT('',(0.,0.,3.));
#733=CARTESIAN_POINT('',(9.52520110926356,-23.1142930635588,3.));
#734=CARTESIAN_POINT('',(12.3729763078863,-29.5111751254416,3.));
#735=CARTESIAN_POINT('',(12.3729763078863,-29.5111751254416,3.));
#736=CARTESIAN_POINT('',(9.11246679998074,-30.6751193774246,3.));
#737=CARTESIAN_POINT('',(10.2192397947163,-30.3463372121279,3.));
#738=CARTESIAN_POINT('',(11.3081989790721,-29.9575980349528,3.));
#739=CARTESIAN_POINT('',(12.3729763078863,-29.5111751254416,3.));
#740=CARTESIAN_POINT('',(9.11311177253479,-30.6772907736265,3.));
#741=CARTESIAN_POINT('',(9.11375674576536,-30.6794621696276,3.));
#742=CARTESIAN_POINT('',(10.080883619688,-30.3962624503705,3.));
#743=CARTESIAN_POINT('',(14.0048410144073,-29.7327118912787,3.));
#744=CARTESIAN_POINT('',(18.0275619374455,-29.9767918109116,3.));
#745=CARTESIAN_POINT('',(20.926908619099,-29.151984339367,3.));
#746=CARTESIAN_POINT('',(20.926908619099,-29.151984339367,3.));
#747=CARTESIAN_POINT('',(20.926908619099,-29.151984339367,3.));
#748=CARTESIAN_POINT('',(22.5642073121919,-28.4665914920959,3.));
#749=CARTESIAN_POINT('',(25.8544163890668,-27.1058504908915,3.));
#750=CARTESIAN_POINT('',(32.4123422905262,-24.5508019628134,3.));
#751=CARTESIAN_POINT('',(38.9888699223683,-22.3703857637207,3.));
#752=CARTESIAN_POINT('',(45.6891313760214,-20.7481773225011,3.));
#753=CARTESIAN_POINT('',(50.7589265947416,-19.8212305642324,3.));
#754=CARTESIAN_POINT('',(55.0684103496753,-19.2623052043862,3.));
#755=CARTESIAN_POINT('',(58.4946024833516,-18.9435700135788,3.));
#756=CARTESIAN_POINT('',(60.3076926233993,-18.7936901714719,3.));
#757=CARTESIAN_POINT('',(61.2017384342719,-18.7175642812564,3.));
#758=CARTESIAN_POINT('',(61.2017384342719,-18.7175642812564,3.));
#759=CARTESIAN_POINT('',(23.8751172071026,-21.306777756083,3.));
#760=CARTESIAN_POINT('',(36.3144485268717,-20.4761002816295,3.));
#761=CARTESIAN_POINT('',(48.711703647483,-18.7107099880958,3.));
#762=CARTESIAN_POINT('',(61.2017384342718,-18.7175642812567,3.));
#763=CARTESIAN_POINT('',(23.8751172071026,-21.306777756083,3.));
#764=CARTESIAN_POINT('',(18.753891307465,-16.5315323194128,3.));
#765=CARTESIAN_POINT('',(18.753891307465,-16.5315323194128,3.));
#766=CARTESIAN_POINT('',(0.,0.,3.));
#767=CARTESIAN_POINT('',(15.2549644289285,19.8062126685574,3.));
#768=CARTESIAN_POINT('',(19.3709392001277,25.4708993658441,3.));
#769=CARTESIAN_POINT('',(19.3709392001581,25.4708993658209,3.));
#770=CARTESIAN_POINT('',(61.201738434272,18.7175642812561,3.));
#771=CARTESIAN_POINT('',(46.8824891410845,18.1803124361167,3.));
#772=CARTESIAN_POINT('',(33.2778665657394,23.081705259801,3.));
#773=CARTESIAN_POINT('',(19.3709392001581,25.4708993658209,3.));
#774=CARTESIAN_POINT('',(61.2017384342719,18.7175642812564,3.));
#775=CARTESIAN_POINT('',(61.2017384342719,18.7175642812564,3.));
#776=CARTESIAN_POINT('',(60.3076926233993,18.7936901714719,3.));
#777=CARTESIAN_POINT('',(58.4946024833516,18.9435700135788,3.));
#778=CARTESIAN_POINT('',(55.0684103496752,19.2623052043862,3.));
#779=CARTESIAN_POINT('',(50.7589265947416,19.8212305642324,3.));
#780=CARTESIAN_POINT('',(45.6891313760214,20.7481773225012,3.));
#781=CARTESIAN_POINT('',(38.9888699223682,22.3703857637207,3.));
#782=CARTESIAN_POINT('',(32.4123422905262,24.5508019628134,3.));
#783=CARTESIAN_POINT('',(25.8544163890667,27.1058504908915,3.));
#784=CARTESIAN_POINT('',(22.5642073121919,28.4665914920959,3.));
#785=CARTESIAN_POINT('',(20.926908619099,29.151984339367,3.));
#786=CARTESIAN_POINT('',(20.926908619099,29.151984339367,3.));
#787=CARTESIAN_POINT('',(20.926908619099,29.151984339367,3.));
#788=CARTESIAN_POINT('',(18.0275619374455,29.9767918109116,3.));
#789=CARTESIAN_POINT('',(14.0048410144073,29.7327118912787,3.));
#790=CARTESIAN_POINT('',(10.0808836196994,30.3962624503671,3.));
#791=CARTESIAN_POINT('',(9.11375674578073,30.6794621696233,3.));
#792=CARTESIAN_POINT('',(9.11375674578073,30.6794621696233,3.));
#793=CARTESIAN_POINT('',(9.11375674578073,30.6794621696233,3.));
#794=CARTESIAN_POINT('',(8.24983140978284,30.9324418139812,3.));
#795=CARTESIAN_POINT('',(7.38342651029066,31.1490664250936,3.));
#796=CARTESIAN_POINT('',(6.51454204730419,31.3293360029605,3.));
#797=CARTESIAN_POINT('',(6.51461096607348,31.3296679479938,3.));
#798=CARTESIAN_POINT('',(4.93951236065898,24.5071666587327,3.));
#799=CARTESIAN_POINT('',(4.93951236065887,24.5071666587327,3.));
#800=CARTESIAN_POINT('',(0.,0.,3.));
#801=CARTESIAN_POINT('',(-32.,7.97237569345384E-12,3.));
#802=CARTESIAN_POINT('',(58.1032720933194,15.6668666869843,3.));
#803=CARTESIAN_POINT('',(58.1032720933194,15.6668666869843,3.));
#804=CARTESIAN_POINT('',(62.0527817975228,15.6669164543961,3.));
#805=CARTESIAN_POINT('',(32.0752894143972,15.6665386628978,3.));
#806=CARTESIAN_POINT('',(40.7512836407042,15.6666480361586,3.));
#807=CARTESIAN_POINT('',(49.4272778670118,15.6667573615714,3.));
#808=CARTESIAN_POINT('',(58.1032720933194,15.6668666869843,3.));
#809=CARTESIAN_POINT('',(32.0752894143972,15.6665386628978,3.));
#810=CARTESIAN_POINT('',(32.,15.6665376180718,3.));
#811=CARTESIAN_POINT('',(32.0250964714656,15.6665379822964,3.));
#812=CARTESIAN_POINT('',(32.0501929429311,15.6665383465211,3.));
#813=CARTESIAN_POINT('',(32.0752894143972,15.6665386628978,3.));
#814=CARTESIAN_POINT('',(32.,15.6665376180718,3.));
#815=CARTESIAN_POINT('',(32.,5.32907051820075E-15,3.));
#816=CARTESIAN_POINT('',(32.,-15.6665376180718,3.));
#817=CARTESIAN_POINT('',(32.0752894144006,-15.6665385667868,3.));
#818=CARTESIAN_POINT('',(58.103272093323,-15.6668665430253,3.));
#819=CARTESIAN_POINT('',(62.0527817975227,-15.6669164543962,3.));
#820=CARTESIAN_POINT('',(62.0527817975227,-15.6669164543962,3.));
#821=CARTESIAN_POINT('',(0.,0.,3.));
#822=CARTESIAN_POINT('',(-32.,7.97237569345384E-12,3.));
#823=CARTESIAN_POINT('',(9.11375674578073,30.6794621696233,0.));
#824=CARTESIAN_POINT('',(7.99875615634295,31.0059631307845,0.));
#825=CARTESIAN_POINT('',(-1.20708509938,33.2699492704724,0.));
#826=CARTESIAN_POINT('',(-12.4998313506161,32.0374469046768,0.));
#827=CARTESIAN_POINT('',(-21.3223774854013,25.2091026112385,0.));
#828=CARTESIAN_POINT('',(-31.4462503569201,11.0237797658894,0.));
#829=CARTESIAN_POINT('',(-34.7870203400032,8.67095001047527E-12,0.));
#830=CARTESIAN_POINT('',(-31.4462503569256,-11.0237797658737,0.));
#831=CARTESIAN_POINT('',(-21.3223774854139,-25.2091026112279,0.));
#832=CARTESIAN_POINT('',(-12.499831350632,-32.0374469046705,0.));
#833=CARTESIAN_POINT('',(-1.20708509939659,-33.2699492704717,0.));
#834=CARTESIAN_POINT('',(7.9987561563275,-31.0059631307885,0.));
#835=CARTESIAN_POINT('',(9.11375674576536,-30.6794621696275,0.));
#836=CARTESIAN_POINT('',(9.11375674578073,30.6794621696233,0.));
#837=CARTESIAN_POINT('',(9.11375674576536,-30.6794621696275,0.));
#838=CARTESIAN_POINT('',(9.11375674576536,-30.6794621696275,3.));
#839=CARTESIAN_POINT('',(-30.3897694131258,-10.0230691415874,3.));
#840=CARTESIAN_POINT('',(-29.1026616265926,-13.9255573206112,3.));
#841=CARTESIAN_POINT('',(-27.0551591946755,-17.5756769824762,3.));
#842=CARTESIAN_POINT('',(-21.7366235258591,-23.841251186476,3.));
#843=CARTESIAN_POINT('',(-18.4675289950641,-26.4544218091804,3.));
#844=CARTESIAN_POINT('',(-11.184297010005,-30.2621473268763,3.));
#845=CARTESIAN_POINT('',(-7.17281443053863,-31.4553142344284,3.));
#846=CARTESIAN_POINT('',(1.0074927808997,-32.2470311616125,3.));
#847=CARTESIAN_POINT('',(5.17333553731183,-31.8452925855606,3.));
#848=CARTESIAN_POINT('',(9.11246679998074,-30.6751193774246,3.));
#849=CARTESIAN_POINT('',(6.51465220606027,31.329846897712,3.));
#850=CARTESIAN_POINT('',(2.20884544248828,32.2251858894012,3.));
#851=CARTESIAN_POINT('',(-2.2820506461897,32.2200845536365,3.));
#852=CARTESIAN_POINT('',(-10.8895737914737,30.4098468663575,3.));
#853=CARTESIAN_POINT('',(-15.0020885968927,28.6055753573712,3.));
#854=CARTESIAN_POINT('',(-22.1629005686074,23.4978178174333,3.));
#855=CARTESIAN_POINT('',(-25.2077766511565,20.1967720218027,3.));
#856=CARTESIAN_POINT('',(-29.7217254355862,12.6475547410119,3.));
#857=CARTESIAN_POINT('',(-31.1886415947618,8.4029899005507,3.));
#858=CARTESIAN_POINT('',(-31.7439155081266,4.04027575951443,3.));
#859=CARTESIAN_POINT('',(9.11375674578073,30.6794621696233,3.));
#860=CARTESIAN_POINT('',(9.11375674578073,30.6794621696233,3.));
#861=CARTESIAN_POINT('',(7.99875615634295,31.0059631307845,3.));
#862=CARTESIAN_POINT('',(-1.20708509938,33.2699492704724,3.));
#863=CARTESIAN_POINT('',(-12.4998313506161,32.0374469046768,3.));
#864=CARTESIAN_POINT('',(-21.3223774854013,25.2091026112385,3.));
#865=CARTESIAN_POINT('',(-31.4462503569201,11.0237797658894,3.));
#866=CARTESIAN_POINT('',(-34.7870203400032,8.67095001047527E-12,3.));
#867=CARTESIAN_POINT('',(-31.4462503569256,-11.0237797658737,3.));
#868=CARTESIAN_POINT('',(-21.3223774854139,-25.2091026112279,3.));
#869=CARTESIAN_POINT('',(-12.499831350632,-32.0374469046705,3.));
#870=CARTESIAN_POINT('',(-1.20708509939659,-33.2699492704717,3.));
#871=CARTESIAN_POINT('',(7.9987561563275,-31.0059631307885,3.));
#872=CARTESIAN_POINT('',(9.11375674576536,-30.6794621696275,3.));
#873=CARTESIAN_POINT('',(9.11375674576536,-30.6794621696276,0.));
#874=CARTESIAN_POINT('',(10.080883619688,-30.3962624503705,0.));
#875=CARTESIAN_POINT('',(14.0048410144073,-29.7327118912787,0.));
#876=CARTESIAN_POINT('',(18.0275619374455,-29.9767918109116,0.));
#877=CARTESIAN_POINT('',(20.926908619099,-29.151984339367,0.));
#878=CARTESIAN_POINT('',(20.926908619099,-29.151984339367,0.));
#879=CARTESIAN_POINT('',(20.926908619099,-29.151984339367,3.));
#880=CARTESIAN_POINT('',(9.11375674576536,-30.6794621696276,3.));
#881=CARTESIAN_POINT('',(10.080883619688,-30.3962624503705,3.));
#882=CARTESIAN_POINT('',(14.0048410144073,-29.7327118912787,3.));
#883=CARTESIAN_POINT('',(18.0275619374455,-29.9767918109116,3.));
#884=CARTESIAN_POINT('',(20.926908619099,-29.151984339367,3.));
#885=CARTESIAN_POINT('',(20.926908619099,-29.151984339367,0.));
#886=CARTESIAN_POINT('',(22.5642073121919,-28.4665914920959,0.));
#887=CARTESIAN_POINT('',(25.8544163890668,-27.1058504908915,0.));
#888=CARTESIAN_POINT('',(32.4123422905262,-24.5508019628134,0.));
#889=CARTESIAN_POINT('',(38.9888699223683,-22.3703857637207,0.));
#890=CARTESIAN_POINT('',(45.6891313760214,-20.7481773225011,0.));
#891=CARTESIAN_POINT('',(50.7589265947416,-19.8212305642324,0.));
#892=CARTESIAN_POINT('',(55.0684103496753,-19.2623052043862,0.));
#893=CARTESIAN_POINT('',(58.4946024833516,-18.9435700135788,0.));
#894=CARTESIAN_POINT('',(60.3076926233993,-18.7936901714719,0.));
#895=CARTESIAN_POINT('',(61.2017384342719,-18.7175642812564,0.));
#896=CARTESIAN_POINT('',(61.2017384342719,-18.7175642812564,0.));
#897=CARTESIAN_POINT('',(61.2017384342719,-18.7175642812564,3.));
#898=CARTESIAN_POINT('',(20.926908619099,-29.151984339367,3.));
#899=CARTESIAN_POINT('',(22.5642073121919,-28.4665914920959,3.));
#900=CARTESIAN_POINT('',(25.8544163890668,-27.1058504908915,3.));
#901=CARTESIAN_POINT('',(32.4123422905262,-24.5508019628134,3.));
#902=CARTESIAN_POINT('',(38.9888699223683,-22.3703857637207,3.));
#903=CARTESIAN_POINT('',(45.6891313760214,-20.7481773225011,3.));
#904=CARTESIAN_POINT('',(50.7589265947416,-19.8212305642324,3.));
#905=CARTESIAN_POINT('',(55.0684103496753,-19.2623052043862,3.));
#906=CARTESIAN_POINT('',(58.4946024833516,-18.9435700135788,3.));
#907=CARTESIAN_POINT('',(60.3076926233993,-18.7936901714719,3.));
#908=CARTESIAN_POINT('',(61.2017384342719,-18.7175642812564,3.));
#909=CARTESIAN_POINT('',(0.,0.,0.));
#910=CARTESIAN_POINT('',(61.2017384342719,18.7175642812564,0.));
#911=CARTESIAN_POINT('',(61.2017384342719,18.7175642812564,3.));
#912=CARTESIAN_POINT('',(61.201738434272,18.7175642812561,8.));
#913=CARTESIAN_POINT('',(61.201738434272,18.7175642812561,8.));
#914=CARTESIAN_POINT('',(0.,0.,8.));
#915=CARTESIAN_POINT('',(62.0527817975228,15.6669164543961,8.));
#916=CARTESIAN_POINT('',(62.0527817975228,15.6669164543961,8.));
#917=CARTESIAN_POINT('',(62.0527817975227,-15.6669164543962,8.));
#918=CARTESIAN_POINT('',(62.0527817975227,-15.6669164543962,8.));
#919=CARTESIAN_POINT('',(0.,0.,8.));
#920=CARTESIAN_POINT('',(61.2017384342718,-18.7175642812567,8.));
#921=CARTESIAN_POINT('',(61.2017384342718,-18.7175642812567,8.));
#922=CARTESIAN_POINT('',(0.,0.,3.));
#923=CARTESIAN_POINT('',(61.2017384342719,18.7175642812564,0.));
#924=CARTESIAN_POINT('',(60.3076926233993,18.7936901714719,0.));
#925=CARTESIAN_POINT('',(58.4946024833516,18.9435700135788,0.));
#926=CARTESIAN_POINT('',(55.0684103496752,19.2623052043862,0.));
#927=CARTESIAN_POINT('',(50.7589265947416,19.8212305642324,0.));
#928=CARTESIAN_POINT('',(45.6891313760214,20.7481773225012,0.));
#929=CARTESIAN_POINT('',(38.9888699223682,22.3703857637207,0.));
#930=CARTESIAN_POINT('',(32.4123422905262,24.5508019628134,0.));
#931=CARTESIAN_POINT('',(25.8544163890667,27.1058504908915,0.));
#932=CARTESIAN_POINT('',(22.5642073121919,28.4665914920959,0.));
#933=CARTESIAN_POINT('',(20.926908619099,29.151984339367,0.));
#934=CARTESIAN_POINT('',(20.926908619099,29.151984339367,0.));
#935=CARTESIAN_POINT('',(20.926908619099,29.151984339367,3.));
#936=CARTESIAN_POINT('',(61.2017384342719,18.7175642812564,3.));
#937=CARTESIAN_POINT('',(60.3076926233993,18.7936901714719,3.));
#938=CARTESIAN_POINT('',(58.4946024833516,18.9435700135788,3.));
#939=CARTESIAN_POINT('',(55.0684103496752,19.2623052043862,3.));
#940=CARTESIAN_POINT('',(50.7589265947416,19.8212305642324,3.));
#941=CARTESIAN_POINT('',(45.6891313760214,20.7481773225012,3.));
#942=CARTESIAN_POINT('',(38.9888699223682,22.3703857637207,3.));
#943=CARTESIAN_POINT('',(32.4123422905262,24.5508019628134,3.));
#944=CARTESIAN_POINT('',(25.8544163890667,27.1058504908915,3.));
#945=CARTESIAN_POINT('',(22.5642073121919,28.4665914920959,3.));
#946=CARTESIAN_POINT('',(20.926908619099,29.151984339367,3.));
#947=CARTESIAN_POINT('',(20.926908619099,29.151984339367,0.));
#948=CARTESIAN_POINT('',(18.0275619374455,29.9767918109116,0.));
#949=CARTESIAN_POINT('',(14.0048410144073,29.7327118912787,0.));
#950=CARTESIAN_POINT('',(10.0808836196994,30.3962624503671,0.));
#951=CARTESIAN_POINT('',(9.11375674578073,30.6794621696233,0.));
#952=CARTESIAN_POINT('',(20.926908619099,29.151984339367,3.));
#953=CARTESIAN_POINT('',(18.0275619374455,29.9767918109116,3.));
#954=CARTESIAN_POINT('',(14.0048410144073,29.7327118912787,3.));
#955=CARTESIAN_POINT('',(10.0808836196994,30.3962624503671,3.));
#956=CARTESIAN_POINT('',(9.11375674578073,30.6794621696233,3.));
#957=CARTESIAN_POINT('',(-32.,7.97237569345384E-12,0.));
#958=CARTESIAN_POINT('',(18.753891307465,-16.5315323194128,8.));
#959=CARTESIAN_POINT('',(18.753891307465,-16.5315323194128,8.));
#960=CARTESIAN_POINT('',(0.,0.,8.));
#961=CARTESIAN_POINT('',(15.2549644289285,19.8062126685574,8.));
#962=CARTESIAN_POINT('',(15.2549644289285,19.8062126685574,8.));
#963=CARTESIAN_POINT('',(0.,0.,8.));
#964=CARTESIAN_POINT('',(23.8751172071026,-21.306777756083,8.));
#965=CARTESIAN_POINT('',(23.8751172071026,-21.306777756083,8.));
#966=CARTESIAN_POINT('',(18.753891307465,-16.5315323194128,8.));
#967=CARTESIAN_POINT('',(18.753891307465,-16.5315323194128,8.));
#968=CARTESIAN_POINT('',(23.8751172071026,-21.306777756083,8.));
#969=CARTESIAN_POINT('',(36.3144485268717,-20.4761002816295,8.));
#970=CARTESIAN_POINT('',(48.711703647483,-18.7107099880958,8.));
#971=CARTESIAN_POINT('',(61.2017384342718,-18.7175642812567,8.));
#972=CARTESIAN_POINT('',(23.8751172071026,-21.306777756083,8.));
#973=CARTESIAN_POINT('',(36.3144485268717,-20.4761002816295,8.));
#974=CARTESIAN_POINT('',(48.711703647483,-18.7107099880958,8.));
#975=CARTESIAN_POINT('',(61.2017384342718,-18.7175642812567,8.));
#976=CARTESIAN_POINT('',(32.,-15.6665376180718,8.));
#977=CARTESIAN_POINT('',(32.,-15.6665376180718,8.));
#978=CARTESIAN_POINT('',(58.103272093323,-15.6668665430253,8.));
#979=CARTESIAN_POINT('',(58.103272093323,-15.6668665430253,8.));
#980=CARTESIAN_POINT('',(62.0527817975227,-15.6669164543962,8.));
#981=CARTESIAN_POINT('',(32.0752894144006,-15.6665385667868,8.));
#982=CARTESIAN_POINT('',(32.,15.6665376180718,8.));
#983=CARTESIAN_POINT('',(32.,15.6665376180718,8.));
#984=CARTESIAN_POINT('',(32.,-15.6665376180718,8.));
#985=CARTESIAN_POINT('',(32.,5.32907051820075E-15,8.));
#986=CARTESIAN_POINT('',(58.1032720933194,15.6668666869843,8.));
#987=CARTESIAN_POINT('',(58.1032720933194,15.6668666869843,8.));
#988=CARTESIAN_POINT('',(32.0752894143972,15.6665386628978,8.));
#989=CARTESIAN_POINT('',(40.7512836407042,15.6666480361586,8.));
#990=CARTESIAN_POINT('',(49.4272778670118,15.6667573615714,8.));
#991=CARTESIAN_POINT('',(58.1032720933194,15.6668666869843,8.));
#992=CARTESIAN_POINT('',(32.0752894143972,15.6665386628978,8.));
#993=CARTESIAN_POINT('',(32.,15.6665376180718,8.));
#994=CARTESIAN_POINT('',(32.0250964714656,15.6665379822964,8.));
#995=CARTESIAN_POINT('',(32.0501929429311,15.6665383465211,8.));
#996=CARTESIAN_POINT('',(32.0752894143972,15.6665386628978,8.));
#997=CARTESIAN_POINT('',(58.1032720933194,15.6668666869843,8.));
#998=CARTESIAN_POINT('',(19.3709392001581,25.4708993658209,8.));
#999=CARTESIAN_POINT('',(19.3709392001581,25.4708993658209,8.));
#1000=CARTESIAN_POINT('',(61.201738434272,18.7175642812561,8.));
#1001=CARTESIAN_POINT('',(46.8824891410845,18.1803124361167,8.));
#1002=CARTESIAN_POINT('',(33.2778665657394,23.081705259801,8.));
#1003=CARTESIAN_POINT('',(19.3709392001581,25.4708993658209,8.));
#1004=CARTESIAN_POINT('',(61.201738434272,18.7175642812561,8.));
#1005=CARTESIAN_POINT('',(46.8824891410845,18.1803124361167,8.));
#1006=CARTESIAN_POINT('',(33.2778665657394,23.081705259801,8.));
#1007=CARTESIAN_POINT('',(19.3709392001581,25.4708993658209,8.));
#1008=CARTESIAN_POINT('',(19.3709392001277,25.4708993658441,8.));
#1009=CARTESIAN_POINT('',(19.3709392001277,25.4708993658441,8.));
#1010=CARTESIAN_POINT('',(0.,0.,8.));
#1011=CARTESIAN_POINT('',(-30.3897694131258,-10.0230691415874,8.));
#1012=CARTESIAN_POINT('',(-30.3897694131258,-10.0230691415874,8.));
#1013=CARTESIAN_POINT('',(-23.693585081571,-7.97584014272837,8.));
#1014=CARTESIAN_POINT('',(-23.693585081571,-7.97584014272837,8.));
#1015=CARTESIAN_POINT('',(-23.693585081571,-7.97584014272837,8.));
#1016=CARTESIAN_POINT('',(-23.693585081571,-7.97584014272837,8.));
#1017=CARTESIAN_POINT('',(12.3729763078863,-29.5111751254416,8.));
#1018=CARTESIAN_POINT('',(12.3729763078863,-29.5111751254416,8.));
#1019=CARTESIAN_POINT('',(0.,0.,8.));
#1020=CARTESIAN_POINT('',(0.,0.,8.));
#1021=CARTESIAN_POINT('',(9.52520110926356,-23.1142930635588,8.));
#1022=CARTESIAN_POINT('',(9.52520110926356,-23.1142930635588,8.));
#1023=CARTESIAN_POINT('',(12.3729763078863,-29.5111751254416,8.));
#1024=CARTESIAN_POINT('',(12.3729763078863,-29.5111751254416,8.));
#1025=CARTESIAN_POINT('',(0.,0.,8.));
#1026=CARTESIAN_POINT('',(0.,0.,8.));
#1027=CARTESIAN_POINT('',(0.,0.,8.));
#1028=CARTESIAN_POINT('',(-24.780129234318,3.30835232865215,8.));
#1029=CARTESIAN_POINT('',(-24.780129234318,3.30835232865215,8.));
#1030=CARTESIAN_POINT('',(-31.7439155081266,4.04027575951443,8.));
#1031=CARTESIAN_POINT('',(-31.7439155081266,4.04027575951443,8.));
#1032=CARTESIAN_POINT('',(-31.7439155081266,4.04027575951443,8.));
#1033=CARTESIAN_POINT('',(-31.7439155081266,4.04027575951443,8.));
#1034=CARTESIAN_POINT('',(4.93951236065887,24.5071666587327,8.));
#1035=CARTESIAN_POINT('',(4.93951236065887,24.5071666587327,8.));
#1036=CARTESIAN_POINT('',(0.,0.,8.));
#1037=CARTESIAN_POINT('',(0.,0.,8.));
#1038=CARTESIAN_POINT('',(6.51465220606027,31.329846897712,8.));
#1039=CARTESIAN_POINT('',(6.51465220606027,31.329846897712,8.));
#1040=CARTESIAN_POINT('',(4.93951236065898,24.5071666587327,8.));
#1041=CARTESIAN_POINT('',(4.93951236065898,24.5071666587327,8.));
#1042=CARTESIAN_POINT('',(0.,0.,8.));
#1043=CARTESIAN_POINT('',(0.,0.,8.));
#1044=CARTESIAN_POINT('',(0.,0.,8.));
#1045=(
GEOMETRIC_REPRESENTATION_CONTEXT(3)
GLOBAL_UNCERTAINTY_ASSIGNED_CONTEXT((#1046))
GLOBAL_UNIT_ASSIGNED_CONTEXT((#1052,#1048,#1047))
REPRESENTATION_CONTEXT('toolHandle2','TOP_LEVEL_ASSEMBLY_PART')
);
#1046=UNCERTAINTY_MEASURE_WITH_UNIT(LENGTH_MEASURE(0.0508),#1052,
'DISTANCE_ACCURACY_VALUE','Maximum Tolerance applied to model');
#1047=(
NAMED_UNIT(*)
SI_UNIT($,.STERADIAN.)
SOLID_ANGLE_UNIT()
);
#1048=(
CONVERSION_BASED_UNIT('DEGREE',#1050)
NAMED_UNIT(#1049)
PLANE_ANGLE_UNIT()
);
#1049=DIMENSIONAL_EXPONENTS(0.,0.,0.,0.,0.,0.,0.);
#1050=PLANE_ANGLE_MEASURE_WITH_UNIT(PLANE_ANGLE_MEASURE(0.0174532925),#1051);
#1051=(
NAMED_UNIT(*)
PLANE_ANGLE_UNIT()
SI_UNIT($,.RADIAN.)
);
#1052=(
LENGTH_UNIT()
NAMED_UNIT(*)
SI_UNIT(.MILLI.,.METRE.)
);
ENDSEC;
END-ISO-10303-21;
