ISO-10303-21;
HEADER;
/* Generated by software containing ST-Developer
 * from STEP Tools, Inc. (www.steptools.com) 
 */
/* OPTION: using custom schema-name function */

FILE_DESCRIPTION(
/* description */ (''),
/* implementation_level */ '2;1');

FILE_NAME(
/* name */ 'float.stp',
/* time_stamp */ '2025-06-25T20:38:07+03:00',
/* author */ (''),
/* organization */ (''),
/* preprocessor_version */ 'ST-DEVELOPER v19.4',
/* originating_system */ 'SIEMENS PLM Software NX2306.4000',
/* authorisation */ '');

FILE_SCHEMA (('AUTOMOTIVE_DESIGN { 1 0 10303 214 3 1 1 1 }'));
ENDSEC;

DATA;
#10=SHAPE_REPRESENTATION_RELATIONSHIP('None',
'relationship between float-None and float-None',#22,#11);
#11=ADVANCED_BREP_SHAPE_REPRESENTATION('float-None',(#92,#93,#94,#95,#96),
#1698);
#12=SHAPE_DEFINITION_REPRESENTATION(#13,#22);
#13=PRODUCT_DEFINITION_SHAPE('','',#14);
#14=PRODUCT_DEFINITION(' ','',#16,#15);
#15=PRODUCT_DEFINITION_CONTEXT('part definition',#21,'design');
#16=PRODUCT_DEFINITION_FORMATION_WITH_SPECIFIED_SOURCE(' ',' ',#18,
 .NOT_KNOWN.);
#17=PRODUCT_RELATED_PRODUCT_CATEGORY('part','',(#18));
#18=PRODUCT('float','float',' ',(#19));
#19=PRODUCT_CONTEXT(' ',#21,'mechanical');
#20=APPLICATION_PROTOCOL_DEFINITION('international standard',
'automotive_design',2010,#21);
#21=APPLICATION_CONTEXT(
'core data for automotive mechanical design processes');
#22=SHAPE_REPRESENTATION('float-None',(#992),#1698);
#23=SURFACE_OF_REVOLUTION('',#170,#39);
#24=SURFACE_OF_REVOLUTION('',#984,#40);
#25=SURFACE_OF_REVOLUTION('',#171,#41);
#26=SURFACE_OF_REVOLUTION('',#985,#42);
#27=SURFACE_OF_REVOLUTION('',#172,#43);
#28=SURFACE_OF_REVOLUTION('',#986,#44);
#29=SURFACE_OF_REVOLUTION('',#173,#45);
#30=SURFACE_OF_REVOLUTION('',#987,#46);
#31=SURFACE_OF_REVOLUTION('',#174,#47);
#32=SURFACE_OF_REVOLUTION('',#988,#48);
#33=SURFACE_OF_REVOLUTION('',#175,#49);
#34=SURFACE_OF_REVOLUTION('',#989,#50);
#35=SURFACE_OF_REVOLUTION('',#176,#51);
#36=SURFACE_OF_REVOLUTION('',#990,#52);
#37=SURFACE_OF_REVOLUTION('',#177,#53);
#38=SURFACE_OF_REVOLUTION('',#991,#54);
#39=AXIS1_PLACEMENT('',#1615,#1228);
#40=AXIS1_PLACEMENT('',#1622,#1231);
#41=AXIS1_PLACEMENT('',#1626,#1235);
#42=AXIS1_PLACEMENT('',#1631,#1236);
#43=AXIS1_PLACEMENT('',#1637,#1242);
#44=AXIS1_PLACEMENT('',#1644,#1245);
#45=AXIS1_PLACEMENT('',#1648,#1249);
#46=AXIS1_PLACEMENT('',#1653,#1250);
#47=AXIS1_PLACEMENT('',#1659,#1256);
#48=AXIS1_PLACEMENT('',#1666,#1259);
#49=AXIS1_PLACEMENT('',#1670,#1263);
#50=AXIS1_PLACEMENT('',#1675,#1264);
#51=AXIS1_PLACEMENT('',#1681,#1270);
#52=AXIS1_PLACEMENT('',#1688,#1273);
#53=AXIS1_PLACEMENT('',#1692,#1277);
#54=AXIS1_PLACEMENT('',#1697,#1278);
#55=PRESENTATION_LAYER_ASSIGNMENT('1','Layer 1',(#92,#93,#94,#95,#96));
#56=STYLED_ITEM('',(#61),#92);
#57=STYLED_ITEM('',(#62),#93);
#58=STYLED_ITEM('',(#63),#94);
#59=STYLED_ITEM('',(#64),#95);
#60=STYLED_ITEM('',(#65),#96);
#61=PRESENTATION_STYLE_ASSIGNMENT((#66));
#62=PRESENTATION_STYLE_ASSIGNMENT((#67));
#63=PRESENTATION_STYLE_ASSIGNMENT((#68));
#64=PRESENTATION_STYLE_ASSIGNMENT((#69));
#65=PRESENTATION_STYLE_ASSIGNMENT((#70));
#66=SURFACE_STYLE_USAGE(.BOTH.,#71);
#67=SURFACE_STYLE_USAGE(.BOTH.,#72);
#68=SURFACE_STYLE_USAGE(.BOTH.,#73);
#69=SURFACE_STYLE_USAGE(.BOTH.,#74);
#70=SURFACE_STYLE_USAGE(.BOTH.,#75);
#71=SURFACE_SIDE_STYLE('',(#76));
#72=SURFACE_SIDE_STYLE('',(#77));
#73=SURFACE_SIDE_STYLE('',(#78));
#74=SURFACE_SIDE_STYLE('',(#79));
#75=SURFACE_SIDE_STYLE('',(#80));
#76=SURFACE_STYLE_FILL_AREA(#81);
#77=SURFACE_STYLE_FILL_AREA(#82);
#78=SURFACE_STYLE_FILL_AREA(#83);
#79=SURFACE_STYLE_FILL_AREA(#84);
#80=SURFACE_STYLE_FILL_AREA(#85);
#81=FILL_AREA_STYLE('',(#86));
#82=FILL_AREA_STYLE('',(#87));
#83=FILL_AREA_STYLE('',(#88));
#84=FILL_AREA_STYLE('',(#89));
#85=FILL_AREA_STYLE('',(#90));
#86=FILL_AREA_STYLE_COLOUR('',#91);
#87=FILL_AREA_STYLE_COLOUR('',#91);
#88=FILL_AREA_STYLE_COLOUR('',#91);
#89=FILL_AREA_STYLE_COLOUR('',#91);
#90=FILL_AREA_STYLE_COLOUR('',#91);
#91=COLOUR_RGB('medium steel',0.611764705882353,0.658823529411765,0.670588235294118);
#92=MANIFOLD_SOLID_BREP('',#97);
#93=MANIFOLD_SOLID_BREP('',#98);
#94=MANIFOLD_SOLID_BREP('',#99);
#95=MANIFOLD_SOLID_BREP('',#100);
#96=MANIFOLD_SOLID_BREP('',#101);
#97=CLOSED_SHELL('',(#331,#332,#333,#334,#335,#336,#337,#338,#339,#340,
#341,#342,#343,#344,#345,#346,#347,#348,#349,#350,#351,#352,#353,#354,#355,
#356,#357,#358,#359,#360,#361,#362,#363,#364,#365,#366,#367,#368,#369,#370,
#371,#372));
#98=CLOSED_SHELL('',(#373,#374,#375,#376));
#99=CLOSED_SHELL('',(#377,#378,#379,#380));
#100=CLOSED_SHELL('',(#381,#382,#383,#384));
#101=CLOSED_SHELL('',(#385,#386,#387,#388));
#102=LINE('',#1470,#178);
#103=LINE('',#1472,#179);
#104=LINE('',#1474,#180);
#105=LINE('',#1476,#181);
#106=LINE('',#1478,#182);
#107=LINE('',#1480,#183);
#108=LINE('',#1482,#184);
#109=LINE('',#1484,#185);
#110=LINE('',#1486,#186);
#111=LINE('',#1488,#187);
#112=LINE('',#1490,#188);
#113=LINE('',#1492,#189);
#114=LINE('',#1494,#190);
#115=LINE('',#1496,#191);
#116=LINE('',#1498,#192);
#117=LINE('',#1500,#193);
#118=LINE('',#1502,#194);
#119=LINE('',#1505,#195);
#120=LINE('',#1508,#196);
#121=LINE('',#1509,#197);
#122=LINE('',#1511,#198);
#123=LINE('',#1513,#199);
#124=LINE('',#1515,#200);
#125=LINE('',#1517,#201);
#126=LINE('',#1519,#202);
#127=LINE('',#1521,#203);
#128=LINE('',#1523,#204);
#129=LINE('',#1525,#205);
#130=LINE('',#1527,#206);
#131=LINE('',#1529,#207);
#132=LINE('',#1531,#208);
#133=LINE('',#1533,#209);
#134=LINE('',#1535,#210);
#135=LINE('',#1536,#211);
#136=LINE('',#1540,#212);
#137=LINE('',#1543,#213);
#138=LINE('',#1544,#214);
#139=LINE('',#1546,#215);
#140=LINE('',#1548,#216);
#141=LINE('',#1550,#217);
#142=LINE('',#1552,#218);
#143=LINE('',#1554,#219);
#144=LINE('',#1556,#220);
#145=LINE('',#1558,#221);
#146=LINE('',#1560,#222);
#147=LINE('',#1562,#223);
#148=LINE('',#1564,#224);
#149=LINE('',#1566,#225);
#150=LINE('',#1568,#226);
#151=LINE('',#1570,#227);
#152=LINE('',#1571,#228);
#153=LINE('',#1575,#229);
#154=LINE('',#1578,#230);
#155=LINE('',#1579,#231);
#156=LINE('',#1581,#232);
#157=LINE('',#1583,#233);
#158=LINE('',#1585,#234);
#159=LINE('',#1587,#235);
#160=LINE('',#1589,#236);
#161=LINE('',#1591,#237);
#162=LINE('',#1593,#238);
#163=LINE('',#1595,#239);
#164=LINE('',#1597,#240);
#165=LINE('',#1599,#241);
#166=LINE('',#1601,#242);
#167=LINE('',#1603,#243);
#168=LINE('',#1605,#244);
#169=LINE('',#1606,#245);
#170=LINE('',#1614,#246);
#171=LINE('',#1625,#247);
#172=LINE('',#1636,#248);
#173=LINE('',#1647,#249);
#174=LINE('',#1658,#250);
#175=LINE('',#1669,#251);
#176=LINE('',#1680,#252);
#177=LINE('',#1691,#253);
#178=VECTOR('',#1091,1.);
#179=VECTOR('',#1092,1.);
#180=VECTOR('',#1093,1.);
#181=VECTOR('',#1094,1.);
#182=VECTOR('',#1095,1.);
#183=VECTOR('',#1096,1.);
#184=VECTOR('',#1099,1.);
#185=VECTOR('',#1100,1.);
#186=VECTOR('',#1101,1.);
#187=VECTOR('',#1102,1.);
#188=VECTOR('',#1103,1.);
#189=VECTOR('',#1104,1.);
#190=VECTOR('',#1107,1.);
#191=VECTOR('',#1110,1.);
#192=VECTOR('',#1113,1.);
#193=VECTOR('',#1116,1.);
#194=VECTOR('',#1119,1.);
#195=VECTOR('',#1124,1.);
#196=VECTOR('',#1125,1.);
#197=VECTOR('',#1126,1.);
#198=VECTOR('',#1129,1.);
#199=VECTOR('',#1130,1.);
#200=VECTOR('',#1131,1.);
#201=VECTOR('',#1134,1.);
#202=VECTOR('',#1135,1.);
#203=VECTOR('',#1136,1.);
#204=VECTOR('',#1139,1.);
#205=VECTOR('',#1140,1.);
#206=VECTOR('',#1141,1.);
#207=VECTOR('',#1144,1.);
#208=VECTOR('',#1145,1.);
#209=VECTOR('',#1146,1.);
#210=VECTOR('',#1149,1.);
#211=VECTOR('',#1150,1.);
#212=VECTOR('',#1157,1.);
#213=VECTOR('',#1158,1.);
#214=VECTOR('',#1159,1.);
#215=VECTOR('',#1162,1.);
#216=VECTOR('',#1163,1.);
#217=VECTOR('',#1164,1.);
#218=VECTOR('',#1167,1.);
#219=VECTOR('',#1168,1.);
#220=VECTOR('',#1169,1.);
#221=VECTOR('',#1172,1.);
#222=VECTOR('',#1173,1.);
#223=VECTOR('',#1174,1.);
#224=VECTOR('',#1177,1.);
#225=VECTOR('',#1178,1.);
#226=VECTOR('',#1179,1.);
#227=VECTOR('',#1182,1.);
#228=VECTOR('',#1183,1.);
#229=VECTOR('',#1190,1.);
#230=VECTOR('',#1191,1.);
#231=VECTOR('',#1192,1.);
#232=VECTOR('',#1195,1.);
#233=VECTOR('',#1196,1.);
#234=VECTOR('',#1197,1.);
#235=VECTOR('',#1200,1.);
#236=VECTOR('',#1201,1.);
#237=VECTOR('',#1202,1.);
#238=VECTOR('',#1205,1.);
#239=VECTOR('',#1206,1.);
#240=VECTOR('',#1207,1.);
#241=VECTOR('',#1210,1.);
#242=VECTOR('',#1211,1.);
#243=VECTOR('',#1212,1.);
#244=VECTOR('',#1215,1.);
#245=VECTOR('',#1216,1.);
#246=VECTOR('',#1227,2.00013511174764);
#247=VECTOR('',#1234,2.00013511976057);
#248=VECTOR('',#1241,2.00013510706385);
#249=VECTOR('',#1248,2.00013512420077);
#250=VECTOR('',#1255,2.0001351108427);
#251=VECTOR('',#1262,2.00013511886427);
#252=VECTOR('',#1269,2.000135106135);
#253=VECTOR('',#1276,2.00013512332715);
#254=CYLINDRICAL_SURFACE('',#999,5.75);
#255=CYLINDRICAL_SURFACE('',#1002,5.75);
#256=CYLINDRICAL_SURFACE('',#1005,5.75);
#257=CYLINDRICAL_SURFACE('',#1008,5.75);
#258=PLANE('',#998);
#259=PLANE('',#1001);
#260=PLANE('',#1004);
#261=PLANE('',#1007);
#262=PLANE('',#1009);
#263=PLANE('',#1010);
#264=PLANE('',#1011);
#265=PLANE('',#1012);
#266=PLANE('',#1013);
#267=PLANE('',#1014);
#268=PLANE('',#1015);
#269=PLANE('',#1016);
#270=PLANE('',#1017);
#271=PLANE('',#1018);
#272=PLANE('',#1019);
#273=PLANE('',#1020);
#274=PLANE('',#1021);
#275=PLANE('',#1022);
#276=PLANE('',#1023);
#277=PLANE('',#1024);
#278=PLANE('',#1025);
#279=PLANE('',#1026);
#280=PLANE('',#1027);
#281=PLANE('',#1028);
#282=PLANE('',#1029);
#283=PLANE('',#1030);
#284=PLANE('',#1031);
#285=PLANE('',#1032);
#286=PLANE('',#1033);
#287=PLANE('',#1034);
#288=PLANE('',#1035);
#289=PLANE('',#1036);
#290=PLANE('',#1037);
#291=PLANE('',#1038);
#292=PLANE('',#1039);
#293=PLANE('',#1040);
#294=FACE_OUTER_BOUND('',#476,.T.);
#295=FACE_OUTER_BOUND('',#479,.T.);
#296=FACE_OUTER_BOUND('',#482,.T.);
#297=FACE_OUTER_BOUND('',#485,.T.);
#298=FACE_OUTER_BOUND('',#488,.T.);
#299=FACE_OUTER_BOUND('',#489,.T.);
#300=FACE_OUTER_BOUND('',#490,.T.);
#301=FACE_OUTER_BOUND('',#491,.T.);
#302=FACE_OUTER_BOUND('',#492,.T.);
#303=FACE_OUTER_BOUND('',#493,.T.);
#304=FACE_OUTER_BOUND('',#494,.T.);
#305=FACE_OUTER_BOUND('',#495,.T.);
#306=FACE_OUTER_BOUND('',#496,.T.);
#307=FACE_OUTER_BOUND('',#497,.T.);
#308=FACE_OUTER_BOUND('',#498,.T.);
#309=FACE_OUTER_BOUND('',#499,.T.);
#310=FACE_OUTER_BOUND('',#500,.T.);
#311=FACE_OUTER_BOUND('',#501,.T.);
#312=FACE_OUTER_BOUND('',#502,.T.);
#313=FACE_OUTER_BOUND('',#503,.T.);
#314=FACE_OUTER_BOUND('',#504,.T.);
#315=FACE_OUTER_BOUND('',#505,.T.);
#316=FACE_OUTER_BOUND('',#506,.T.);
#317=FACE_OUTER_BOUND('',#507,.T.);
#318=FACE_OUTER_BOUND('',#508,.T.);
#319=FACE_OUTER_BOUND('',#509,.T.);
#320=FACE_OUTER_BOUND('',#510,.T.);
#321=FACE_OUTER_BOUND('',#511,.T.);
#322=FACE_OUTER_BOUND('',#512,.T.);
#323=FACE_OUTER_BOUND('',#513,.T.);
#324=FACE_OUTER_BOUND('',#514,.T.);
#325=FACE_OUTER_BOUND('',#515,.T.);
#326=FACE_OUTER_BOUND('',#516,.T.);
#327=FACE_OUTER_BOUND('',#517,.T.);
#328=FACE_OUTER_BOUND('',#518,.T.);
#329=FACE_OUTER_BOUND('',#519,.T.);
#330=TOROIDAL_SURFACE('',#996,26.0198522787174,10.0000197056291);
#331=ADVANCED_FACE('',(#412,#413,#414,#415,#416,#417,#418,#419,#420,#421),
#389,.T.);
#332=ADVANCED_FACE('',(#422,#423),#330,.T.);
#333=ADVANCED_FACE('',(#294),#258,.F.);
#334=ADVANCED_FACE('',(#424,#425),#254,.F.);
#335=ADVANCED_FACE('',(#295),#259,.F.);
#336=ADVANCED_FACE('',(#426,#427),#255,.F.);
#337=ADVANCED_FACE('',(#296),#260,.F.);
#338=ADVANCED_FACE('',(#428,#429),#256,.F.);
#339=ADVANCED_FACE('',(#297),#261,.F.);
#340=ADVANCED_FACE('',(#430,#431),#257,.F.);
#341=ADVANCED_FACE('',(#298),#262,.T.);
#342=ADVANCED_FACE('',(#299),#263,.T.);
#343=ADVANCED_FACE('',(#300),#264,.T.);
#344=ADVANCED_FACE('',(#301),#265,.T.);
#345=ADVANCED_FACE('',(#302),#266,.T.);
#346=ADVANCED_FACE('',(#303),#267,.T.);
#347=ADVANCED_FACE('',(#304),#268,.T.);
#348=ADVANCED_FACE('',(#305),#269,.T.);
#349=ADVANCED_FACE('',(#306),#270,.T.);
#350=ADVANCED_FACE('',(#307),#271,.T.);
#351=ADVANCED_FACE('',(#308),#272,.T.);
#352=ADVANCED_FACE('',(#309),#273,.T.);
#353=ADVANCED_FACE('',(#310),#274,.T.);
#354=ADVANCED_FACE('',(#311),#275,.T.);
#355=ADVANCED_FACE('',(#312),#276,.T.);
#356=ADVANCED_FACE('',(#313),#277,.T.);
#357=ADVANCED_FACE('',(#314),#278,.T.);
#358=ADVANCED_FACE('',(#315),#279,.T.);
#359=ADVANCED_FACE('',(#316),#280,.T.);
#360=ADVANCED_FACE('',(#317),#281,.T.);
#361=ADVANCED_FACE('',(#318),#282,.T.);
#362=ADVANCED_FACE('',(#319),#283,.T.);
#363=ADVANCED_FACE('',(#320),#284,.T.);
#364=ADVANCED_FACE('',(#321),#285,.T.);
#365=ADVANCED_FACE('',(#322),#286,.T.);
#366=ADVANCED_FACE('',(#323),#287,.T.);
#367=ADVANCED_FACE('',(#324),#288,.T.);
#368=ADVANCED_FACE('',(#325),#289,.T.);
#369=ADVANCED_FACE('',(#326),#290,.T.);
#370=ADVANCED_FACE('',(#327),#291,.T.);
#371=ADVANCED_FACE('',(#328),#292,.T.);
#372=ADVANCED_FACE('',(#329),#293,.T.);
#373=ADVANCED_FACE('',(#432,#433),#23,.T.);
#374=ADVANCED_FACE('',(#434,#435),#24,.T.);
#375=ADVANCED_FACE('',(#436,#437),#25,.T.);
#376=ADVANCED_FACE('',(#438,#439),#26,.T.);
#377=ADVANCED_FACE('',(#440,#441),#27,.T.);
#378=ADVANCED_FACE('',(#442,#443),#28,.T.);
#379=ADVANCED_FACE('',(#444,#445),#29,.T.);
#380=ADVANCED_FACE('',(#446,#447),#30,.T.);
#381=ADVANCED_FACE('',(#448,#449),#31,.T.);
#382=ADVANCED_FACE('',(#450,#451),#32,.T.);
#383=ADVANCED_FACE('',(#452,#453),#33,.T.);
#384=ADVANCED_FACE('',(#454,#455),#34,.T.);
#385=ADVANCED_FACE('',(#456,#457),#35,.T.);
#386=ADVANCED_FACE('',(#458,#459),#36,.T.);
#387=ADVANCED_FACE('',(#460,#461),#37,.T.);
#388=ADVANCED_FACE('',(#462,#463),#38,.T.);
#389=CONICAL_SURFACE('',#995,36.0198006624876,89.891802109919);
#390=CIRCLE('',#993,16.0198325730883);
#391=CIRCLE('',#994,36.0198006624876);
#392=CIRCLE('',#997,5.75);
#393=CIRCLE('',#1000,5.75);
#394=CIRCLE('',#1003,5.75);
#395=CIRCLE('',#1006,5.75);
#396=CIRCLE('',#1041,22.0658921062493);
#397=CIRCLE('',#1042,20.0709327786423);
#398=CIRCLE('',#1043,22.064070348248);
#399=CIRCLE('',#1044,20.068930103724);
#400=CIRCLE('',#1045,20.0709327566288);
#401=CIRCLE('',#1046,22.0658920840614);
#402=CIRCLE('',#1047,20.0689300781372);
#403=CIRCLE('',#1048,22.0640703228098);
#404=CIRCLE('',#1049,22.039166554683);
#405=CIRCLE('',#1050,20.0442204188991);
#406=CIRCLE('',#1051,22.0373425862452);
#407=CIRCLE('',#1052,20.0422150735729);
#408=CIRCLE('',#1053,20.0442203932808);
#409=CIRCLE('',#1054,22.0391665292161);
#410=CIRCLE('',#1055,20.0422150515278);
#411=CIRCLE('',#1056,22.0373425640285);
#412=FACE_BOUND('',#464,.T.);
#413=FACE_BOUND('',#465,.T.);
#414=FACE_BOUND('',#466,.T.);
#415=FACE_BOUND('',#467,.T.);
#416=FACE_BOUND('',#468,.T.);
#417=FACE_BOUND('',#469,.T.);
#418=FACE_BOUND('',#470,.T.);
#419=FACE_BOUND('',#471,.T.);
#420=FACE_BOUND('',#472,.T.);
#421=FACE_BOUND('',#473,.T.);
#422=FACE_BOUND('',#474,.T.);
#423=FACE_BOUND('',#475,.T.);
#424=FACE_BOUND('',#477,.T.);
#425=FACE_BOUND('',#478,.T.);
#426=FACE_BOUND('',#480,.T.);
#427=FACE_BOUND('',#481,.T.);
#428=FACE_BOUND('',#483,.T.);
#429=FACE_BOUND('',#484,.T.);
#430=FACE_BOUND('',#486,.T.);
#431=FACE_BOUND('',#487,.T.);
#432=FACE_BOUND('',#520,.T.);
#433=FACE_BOUND('',#521,.T.);
#434=FACE_BOUND('',#522,.T.);
#435=FACE_BOUND('',#523,.T.);
#436=FACE_BOUND('',#524,.T.);
#437=FACE_BOUND('',#525,.T.);
#438=FACE_BOUND('',#526,.T.);
#439=FACE_BOUND('',#527,.T.);
#440=FACE_BOUND('',#528,.T.);
#441=FACE_BOUND('',#529,.T.);
#442=FACE_BOUND('',#530,.T.);
#443=FACE_BOUND('',#531,.T.);
#444=FACE_BOUND('',#532,.T.);
#445=FACE_BOUND('',#533,.T.);
#446=FACE_BOUND('',#534,.T.);
#447=FACE_BOUND('',#535,.T.);
#448=FACE_BOUND('',#536,.T.);
#449=FACE_BOUND('',#537,.T.);
#450=FACE_BOUND('',#538,.T.);
#451=FACE_BOUND('',#539,.T.);
#452=FACE_BOUND('',#540,.T.);
#453=FACE_BOUND('',#541,.T.);
#454=FACE_BOUND('',#542,.T.);
#455=FACE_BOUND('',#543,.T.);
#456=FACE_BOUND('',#544,.T.);
#457=FACE_BOUND('',#545,.T.);
#458=FACE_BOUND('',#546,.T.);
#459=FACE_BOUND('',#547,.T.);
#460=FACE_BOUND('',#548,.T.);
#461=FACE_BOUND('',#549,.T.);
#462=FACE_BOUND('',#550,.T.);
#463=FACE_BOUND('',#551,.T.);
#464=EDGE_LOOP('',(#552));
#465=EDGE_LOOP('',(#553));
#466=EDGE_LOOP('',(#554));
#467=EDGE_LOOP('',(#555));
#468=EDGE_LOOP('',(#556));
#469=EDGE_LOOP('',(#557));
#470=EDGE_LOOP('',(#558,#559,#560,#561));
#471=EDGE_LOOP('',(#562,#563,#564,#565));
#472=EDGE_LOOP('',(#566,#567,#568,#569));
#473=EDGE_LOOP('',(#570,#571,#572,#573));
#474=EDGE_LOOP('',(#574));
#475=EDGE_LOOP('',(#575));
#476=EDGE_LOOP('',(#576));
#477=EDGE_LOOP('',(#577));
#478=EDGE_LOOP('',(#578));
#479=EDGE_LOOP('',(#579));
#480=EDGE_LOOP('',(#580));
#481=EDGE_LOOP('',(#581));
#482=EDGE_LOOP('',(#582));
#483=EDGE_LOOP('',(#583));
#484=EDGE_LOOP('',(#584));
#485=EDGE_LOOP('',(#585));
#486=EDGE_LOOP('',(#586));
#487=EDGE_LOOP('',(#587));
#488=EDGE_LOOP('',(#588,#589,#590,#591,#592,#593,#594));
#489=EDGE_LOOP('',(#595,#596,#597,#598,#599,#600,#601));
#490=EDGE_LOOP('',(#602,#603,#604,#605));
#491=EDGE_LOOP('',(#606,#607,#608,#609));
#492=EDGE_LOOP('',(#610,#611,#612,#613));
#493=EDGE_LOOP('',(#614,#615,#616,#617));
#494=EDGE_LOOP('',(#618,#619,#620,#621));
#495=EDGE_LOOP('',(#622,#623,#624,#625));
#496=EDGE_LOOP('',(#626,#627,#628,#629));
#497=EDGE_LOOP('',(#630,#631,#632,#633));
#498=EDGE_LOOP('',(#634,#635,#636,#637));
#499=EDGE_LOOP('',(#638,#639,#640,#641));
#500=EDGE_LOOP('',(#642,#643,#644,#645));
#501=EDGE_LOOP('',(#646,#647,#648,#649));
#502=EDGE_LOOP('',(#650,#651,#652,#653,#654,#655,#656));
#503=EDGE_LOOP('',(#657,#658,#659,#660,#661,#662,#663));
#504=EDGE_LOOP('',(#664,#665,#666,#667));
#505=EDGE_LOOP('',(#668,#669,#670,#671));
#506=EDGE_LOOP('',(#672,#673,#674,#675));
#507=EDGE_LOOP('',(#676,#677,#678,#679));
#508=EDGE_LOOP('',(#680,#681,#682,#683));
#509=EDGE_LOOP('',(#684,#685,#686,#687));
#510=EDGE_LOOP('',(#688,#689,#690,#691,#692,#693,#694));
#511=EDGE_LOOP('',(#695,#696,#697,#698,#699,#700,#701));
#512=EDGE_LOOP('',(#702,#703,#704,#705));
#513=EDGE_LOOP('',(#706,#707,#708,#709));
#514=EDGE_LOOP('',(#710,#711,#712,#713));
#515=EDGE_LOOP('',(#714,#715,#716,#717));
#516=EDGE_LOOP('',(#718,#719,#720,#721));
#517=EDGE_LOOP('',(#722,#723,#724,#725));
#518=EDGE_LOOP('',(#726,#727,#728,#729,#730,#731,#732));
#519=EDGE_LOOP('',(#733,#734,#735,#736,#737,#738,#739));
#520=EDGE_LOOP('',(#740));
#521=EDGE_LOOP('',(#741));
#522=EDGE_LOOP('',(#742));
#523=EDGE_LOOP('',(#743));
#524=EDGE_LOOP('',(#744));
#525=EDGE_LOOP('',(#745));
#526=EDGE_LOOP('',(#746));
#527=EDGE_LOOP('',(#747));
#528=EDGE_LOOP('',(#748));
#529=EDGE_LOOP('',(#749));
#530=EDGE_LOOP('',(#750));
#531=EDGE_LOOP('',(#751));
#532=EDGE_LOOP('',(#752));
#533=EDGE_LOOP('',(#753));
#534=EDGE_LOOP('',(#754));
#535=EDGE_LOOP('',(#755));
#536=EDGE_LOOP('',(#756));
#537=EDGE_LOOP('',(#757));
#538=EDGE_LOOP('',(#758));
#539=EDGE_LOOP('',(#759));
#540=EDGE_LOOP('',(#760));
#541=EDGE_LOOP('',(#761));
#542=EDGE_LOOP('',(#762));
#543=EDGE_LOOP('',(#763));
#544=EDGE_LOOP('',(#764));
#545=EDGE_LOOP('',(#765));
#546=EDGE_LOOP('',(#766));
#547=EDGE_LOOP('',(#767));
#548=EDGE_LOOP('',(#768));
#549=EDGE_LOOP('',(#769));
#550=EDGE_LOOP('',(#770));
#551=EDGE_LOOP('',(#771));
#552=ORIENTED_EDGE('',*,*,#854,.F.);
#553=ORIENTED_EDGE('',*,*,#855,.F.);
#554=ORIENTED_EDGE('',*,*,#856,.F.);
#555=ORIENTED_EDGE('',*,*,#857,.F.);
#556=ORIENTED_EDGE('',*,*,#858,.F.);
#557=ORIENTED_EDGE('',*,*,#859,.F.);
#558=ORIENTED_EDGE('',*,*,#860,.T.);
#559=ORIENTED_EDGE('',*,*,#861,.T.);
#560=ORIENTED_EDGE('',*,*,#862,.T.);
#561=ORIENTED_EDGE('',*,*,#863,.T.);
#562=ORIENTED_EDGE('',*,*,#864,.T.);
#563=ORIENTED_EDGE('',*,*,#865,.T.);
#564=ORIENTED_EDGE('',*,*,#866,.T.);
#565=ORIENTED_EDGE('',*,*,#867,.T.);
#566=ORIENTED_EDGE('',*,*,#868,.T.);
#567=ORIENTED_EDGE('',*,*,#869,.T.);
#568=ORIENTED_EDGE('',*,*,#870,.T.);
#569=ORIENTED_EDGE('',*,*,#871,.T.);
#570=ORIENTED_EDGE('',*,*,#872,.T.);
#571=ORIENTED_EDGE('',*,*,#873,.T.);
#572=ORIENTED_EDGE('',*,*,#874,.T.);
#573=ORIENTED_EDGE('',*,*,#875,.T.);
#574=ORIENTED_EDGE('',*,*,#859,.T.);
#575=ORIENTED_EDGE('',*,*,#858,.T.);
#576=ORIENTED_EDGE('',*,*,#876,.T.);
#577=ORIENTED_EDGE('',*,*,#857,.T.);
#578=ORIENTED_EDGE('',*,*,#876,.F.);
#579=ORIENTED_EDGE('',*,*,#877,.T.);
#580=ORIENTED_EDGE('',*,*,#856,.T.);
#581=ORIENTED_EDGE('',*,*,#877,.F.);
#582=ORIENTED_EDGE('',*,*,#878,.T.);
#583=ORIENTED_EDGE('',*,*,#855,.T.);
#584=ORIENTED_EDGE('',*,*,#878,.F.);
#585=ORIENTED_EDGE('',*,*,#879,.T.);
#586=ORIENTED_EDGE('',*,*,#854,.T.);
#587=ORIENTED_EDGE('',*,*,#879,.F.);
#588=ORIENTED_EDGE('',*,*,#880,.F.);
#589=ORIENTED_EDGE('',*,*,#860,.F.);
#590=ORIENTED_EDGE('',*,*,#881,.F.);
#591=ORIENTED_EDGE('',*,*,#882,.F.);
#592=ORIENTED_EDGE('',*,*,#883,.F.);
#593=ORIENTED_EDGE('',*,*,#884,.F.);
#594=ORIENTED_EDGE('',*,*,#885,.F.);
#595=ORIENTED_EDGE('',*,*,#862,.F.);
#596=ORIENTED_EDGE('',*,*,#886,.T.);
#597=ORIENTED_EDGE('',*,*,#887,.T.);
#598=ORIENTED_EDGE('',*,*,#888,.T.);
#599=ORIENTED_EDGE('',*,*,#889,.T.);
#600=ORIENTED_EDGE('',*,*,#890,.T.);
#601=ORIENTED_EDGE('',*,*,#891,.T.);
#602=ORIENTED_EDGE('',*,*,#886,.F.);
#603=ORIENTED_EDGE('',*,*,#861,.F.);
#604=ORIENTED_EDGE('',*,*,#880,.T.);
#605=ORIENTED_EDGE('',*,*,#892,.T.);
#606=ORIENTED_EDGE('',*,*,#887,.F.);
#607=ORIENTED_EDGE('',*,*,#892,.F.);
#608=ORIENTED_EDGE('',*,*,#885,.T.);
#609=ORIENTED_EDGE('',*,*,#893,.T.);
#610=ORIENTED_EDGE('',*,*,#888,.F.);
#611=ORIENTED_EDGE('',*,*,#893,.F.);
#612=ORIENTED_EDGE('',*,*,#884,.T.);
#613=ORIENTED_EDGE('',*,*,#894,.T.);
#614=ORIENTED_EDGE('',*,*,#889,.F.);
#615=ORIENTED_EDGE('',*,*,#894,.F.);
#616=ORIENTED_EDGE('',*,*,#883,.T.);
#617=ORIENTED_EDGE('',*,*,#895,.T.);
#618=ORIENTED_EDGE('',*,*,#890,.F.);
#619=ORIENTED_EDGE('',*,*,#895,.F.);
#620=ORIENTED_EDGE('',*,*,#882,.T.);
#621=ORIENTED_EDGE('',*,*,#896,.T.);
#622=ORIENTED_EDGE('',*,*,#891,.F.);
#623=ORIENTED_EDGE('',*,*,#896,.F.);
#624=ORIENTED_EDGE('',*,*,#881,.T.);
#625=ORIENTED_EDGE('',*,*,#863,.F.);
#626=ORIENTED_EDGE('',*,*,#897,.T.);
#627=ORIENTED_EDGE('',*,*,#898,.F.);
#628=ORIENTED_EDGE('',*,*,#866,.F.);
#629=ORIENTED_EDGE('',*,*,#899,.T.);
#630=ORIENTED_EDGE('',*,*,#900,.F.);
#631=ORIENTED_EDGE('',*,*,#897,.F.);
#632=ORIENTED_EDGE('',*,*,#901,.T.);
#633=ORIENTED_EDGE('',*,*,#902,.T.);
#634=ORIENTED_EDGE('',*,*,#903,.F.);
#635=ORIENTED_EDGE('',*,*,#902,.F.);
#636=ORIENTED_EDGE('',*,*,#904,.T.);
#637=ORIENTED_EDGE('',*,*,#905,.T.);
#638=ORIENTED_EDGE('',*,*,#906,.F.);
#639=ORIENTED_EDGE('',*,*,#905,.F.);
#640=ORIENTED_EDGE('',*,*,#907,.T.);
#641=ORIENTED_EDGE('',*,*,#908,.T.);
#642=ORIENTED_EDGE('',*,*,#909,.F.);
#643=ORIENTED_EDGE('',*,*,#908,.F.);
#644=ORIENTED_EDGE('',*,*,#910,.T.);
#645=ORIENTED_EDGE('',*,*,#911,.T.);
#646=ORIENTED_EDGE('',*,*,#912,.F.);
#647=ORIENTED_EDGE('',*,*,#911,.F.);
#648=ORIENTED_EDGE('',*,*,#913,.T.);
#649=ORIENTED_EDGE('',*,*,#864,.F.);
#650=ORIENTED_EDGE('',*,*,#899,.F.);
#651=ORIENTED_EDGE('',*,*,#865,.F.);
#652=ORIENTED_EDGE('',*,*,#913,.F.);
#653=ORIENTED_EDGE('',*,*,#910,.F.);
#654=ORIENTED_EDGE('',*,*,#907,.F.);
#655=ORIENTED_EDGE('',*,*,#904,.F.);
#656=ORIENTED_EDGE('',*,*,#901,.F.);
#657=ORIENTED_EDGE('',*,*,#867,.F.);
#658=ORIENTED_EDGE('',*,*,#898,.T.);
#659=ORIENTED_EDGE('',*,*,#900,.T.);
#660=ORIENTED_EDGE('',*,*,#903,.T.);
#661=ORIENTED_EDGE('',*,*,#906,.T.);
#662=ORIENTED_EDGE('',*,*,#909,.T.);
#663=ORIENTED_EDGE('',*,*,#912,.T.);
#664=ORIENTED_EDGE('',*,*,#914,.T.);
#665=ORIENTED_EDGE('',*,*,#915,.F.);
#666=ORIENTED_EDGE('',*,*,#870,.F.);
#667=ORIENTED_EDGE('',*,*,#916,.T.);
#668=ORIENTED_EDGE('',*,*,#917,.F.);
#669=ORIENTED_EDGE('',*,*,#914,.F.);
#670=ORIENTED_EDGE('',*,*,#918,.T.);
#671=ORIENTED_EDGE('',*,*,#919,.T.);
#672=ORIENTED_EDGE('',*,*,#920,.F.);
#673=ORIENTED_EDGE('',*,*,#919,.F.);
#674=ORIENTED_EDGE('',*,*,#921,.T.);
#675=ORIENTED_EDGE('',*,*,#922,.T.);
#676=ORIENTED_EDGE('',*,*,#923,.F.);
#677=ORIENTED_EDGE('',*,*,#922,.F.);
#678=ORIENTED_EDGE('',*,*,#924,.T.);
#679=ORIENTED_EDGE('',*,*,#925,.T.);
#680=ORIENTED_EDGE('',*,*,#926,.F.);
#681=ORIENTED_EDGE('',*,*,#925,.F.);
#682=ORIENTED_EDGE('',*,*,#927,.T.);
#683=ORIENTED_EDGE('',*,*,#928,.T.);
#684=ORIENTED_EDGE('',*,*,#929,.F.);
#685=ORIENTED_EDGE('',*,*,#928,.F.);
#686=ORIENTED_EDGE('',*,*,#930,.T.);
#687=ORIENTED_EDGE('',*,*,#868,.F.);
#688=ORIENTED_EDGE('',*,*,#916,.F.);
#689=ORIENTED_EDGE('',*,*,#869,.F.);
#690=ORIENTED_EDGE('',*,*,#930,.F.);
#691=ORIENTED_EDGE('',*,*,#927,.F.);
#692=ORIENTED_EDGE('',*,*,#924,.F.);
#693=ORIENTED_EDGE('',*,*,#921,.F.);
#694=ORIENTED_EDGE('',*,*,#918,.F.);
#695=ORIENTED_EDGE('',*,*,#871,.F.);
#696=ORIENTED_EDGE('',*,*,#915,.T.);
#697=ORIENTED_EDGE('',*,*,#917,.T.);
#698=ORIENTED_EDGE('',*,*,#920,.T.);
#699=ORIENTED_EDGE('',*,*,#923,.T.);
#700=ORIENTED_EDGE('',*,*,#926,.T.);
#701=ORIENTED_EDGE('',*,*,#929,.T.);
#702=ORIENTED_EDGE('',*,*,#931,.T.);
#703=ORIENTED_EDGE('',*,*,#932,.F.);
#704=ORIENTED_EDGE('',*,*,#874,.F.);
#705=ORIENTED_EDGE('',*,*,#933,.T.);
#706=ORIENTED_EDGE('',*,*,#934,.F.);
#707=ORIENTED_EDGE('',*,*,#931,.F.);
#708=ORIENTED_EDGE('',*,*,#935,.T.);
#709=ORIENTED_EDGE('',*,*,#936,.T.);
#710=ORIENTED_EDGE('',*,*,#937,.F.);
#711=ORIENTED_EDGE('',*,*,#936,.F.);
#712=ORIENTED_EDGE('',*,*,#938,.T.);
#713=ORIENTED_EDGE('',*,*,#939,.T.);
#714=ORIENTED_EDGE('',*,*,#940,.F.);
#715=ORIENTED_EDGE('',*,*,#939,.F.);
#716=ORIENTED_EDGE('',*,*,#941,.T.);
#717=ORIENTED_EDGE('',*,*,#942,.T.);
#718=ORIENTED_EDGE('',*,*,#943,.F.);
#719=ORIENTED_EDGE('',*,*,#942,.F.);
#720=ORIENTED_EDGE('',*,*,#944,.T.);
#721=ORIENTED_EDGE('',*,*,#945,.T.);
#722=ORIENTED_EDGE('',*,*,#946,.F.);
#723=ORIENTED_EDGE('',*,*,#945,.F.);
#724=ORIENTED_EDGE('',*,*,#947,.T.);
#725=ORIENTED_EDGE('',*,*,#872,.F.);
#726=ORIENTED_EDGE('',*,*,#933,.F.);
#727=ORIENTED_EDGE('',*,*,#873,.F.);
#728=ORIENTED_EDGE('',*,*,#947,.F.);
#729=ORIENTED_EDGE('',*,*,#944,.F.);
#730=ORIENTED_EDGE('',*,*,#941,.F.);
#731=ORIENTED_EDGE('',*,*,#938,.F.);
#732=ORIENTED_EDGE('',*,*,#935,.F.);
#733=ORIENTED_EDGE('',*,*,#875,.F.);
#734=ORIENTED_EDGE('',*,*,#932,.T.);
#735=ORIENTED_EDGE('',*,*,#934,.T.);
#736=ORIENTED_EDGE('',*,*,#937,.T.);
#737=ORIENTED_EDGE('',*,*,#940,.T.);
#738=ORIENTED_EDGE('',*,*,#943,.T.);
#739=ORIENTED_EDGE('',*,*,#946,.T.);
#740=ORIENTED_EDGE('',*,*,#948,.F.);
#741=ORIENTED_EDGE('',*,*,#949,.T.);
#742=ORIENTED_EDGE('',*,*,#950,.F.);
#743=ORIENTED_EDGE('',*,*,#948,.T.);
#744=ORIENTED_EDGE('',*,*,#951,.F.);
#745=ORIENTED_EDGE('',*,*,#950,.T.);
#746=ORIENTED_EDGE('',*,*,#949,.F.);
#747=ORIENTED_EDGE('',*,*,#951,.T.);
#748=ORIENTED_EDGE('',*,*,#952,.F.);
#749=ORIENTED_EDGE('',*,*,#953,.T.);
#750=ORIENTED_EDGE('',*,*,#954,.F.);
#751=ORIENTED_EDGE('',*,*,#952,.T.);
#752=ORIENTED_EDGE('',*,*,#955,.F.);
#753=ORIENTED_EDGE('',*,*,#954,.T.);
#754=ORIENTED_EDGE('',*,*,#953,.F.);
#755=ORIENTED_EDGE('',*,*,#955,.T.);
#756=ORIENTED_EDGE('',*,*,#956,.F.);
#757=ORIENTED_EDGE('',*,*,#957,.T.);
#758=ORIENTED_EDGE('',*,*,#958,.F.);
#759=ORIENTED_EDGE('',*,*,#956,.T.);
#760=ORIENTED_EDGE('',*,*,#959,.F.);
#761=ORIENTED_EDGE('',*,*,#958,.T.);
#762=ORIENTED_EDGE('',*,*,#957,.F.);
#763=ORIENTED_EDGE('',*,*,#959,.T.);
#764=ORIENTED_EDGE('',*,*,#960,.F.);
#765=ORIENTED_EDGE('',*,*,#961,.T.);
#766=ORIENTED_EDGE('',*,*,#962,.F.);
#767=ORIENTED_EDGE('',*,*,#960,.T.);
#768=ORIENTED_EDGE('',*,*,#963,.F.);
#769=ORIENTED_EDGE('',*,*,#962,.T.);
#770=ORIENTED_EDGE('',*,*,#961,.F.);
#771=ORIENTED_EDGE('',*,*,#963,.T.);
#772=VERTEX_POINT('',#1298);
#773=VERTEX_POINT('',#1317);
#774=VERTEX_POINT('',#1336);
#775=VERTEX_POINT('',#1355);
#776=VERTEX_POINT('',#1357);
#777=VERTEX_POINT('',#1359);
#778=VERTEX_POINT('',#1364);
#779=VERTEX_POINT('',#1365);
#780=VERTEX_POINT('',#1370);
#781=VERTEX_POINT('',#1378);
#782=VERTEX_POINT('',#1387);
#783=VERTEX_POINT('',#1388);
#784=VERTEX_POINT('',#1393);
#785=VERTEX_POINT('',#1398);
#786=VERTEX_POINT('',#1410);
#787=VERTEX_POINT('',#1411);
#788=VERTEX_POINT('',#1416);
#789=VERTEX_POINT('',#1421);
#790=VERTEX_POINT('',#1433);
#791=VERTEX_POINT('',#1434);
#792=VERTEX_POINT('',#1439);
#793=VERTEX_POINT('',#1444);
#794=VERTEX_POINT('',#1455);
#795=VERTEX_POINT('',#1459);
#796=VERTEX_POINT('',#1463);
#797=VERTEX_POINT('',#1467);
#798=VERTEX_POINT('',#1471);
#799=VERTEX_POINT('',#1473);
#800=VERTEX_POINT('',#1475);
#801=VERTEX_POINT('',#1477);
#802=VERTEX_POINT('',#1479);
#803=VERTEX_POINT('',#1483);
#804=VERTEX_POINT('',#1485);
#805=VERTEX_POINT('',#1487);
#806=VERTEX_POINT('',#1489);
#807=VERTEX_POINT('',#1491);
#808=VERTEX_POINT('',#1506);
#809=VERTEX_POINT('',#1507);
#810=VERTEX_POINT('',#1512);
#811=VERTEX_POINT('',#1514);
#812=VERTEX_POINT('',#1518);
#813=VERTEX_POINT('',#1520);
#814=VERTEX_POINT('',#1524);
#815=VERTEX_POINT('',#1526);
#816=VERTEX_POINT('',#1530);
#817=VERTEX_POINT('',#1532);
#818=VERTEX_POINT('',#1541);
#819=VERTEX_POINT('',#1542);
#820=VERTEX_POINT('',#1547);
#821=VERTEX_POINT('',#1549);
#822=VERTEX_POINT('',#1553);
#823=VERTEX_POINT('',#1555);
#824=VERTEX_POINT('',#1559);
#825=VERTEX_POINT('',#1561);
#826=VERTEX_POINT('',#1565);
#827=VERTEX_POINT('',#1567);
#828=VERTEX_POINT('',#1576);
#829=VERTEX_POINT('',#1577);
#830=VERTEX_POINT('',#1582);
#831=VERTEX_POINT('',#1584);
#832=VERTEX_POINT('',#1588);
#833=VERTEX_POINT('',#1590);
#834=VERTEX_POINT('',#1594);
#835=VERTEX_POINT('',#1596);
#836=VERTEX_POINT('',#1600);
#837=VERTEX_POINT('',#1602);
#838=VERTEX_POINT('',#1611);
#839=VERTEX_POINT('',#1613);
#840=VERTEX_POINT('',#1617);
#841=VERTEX_POINT('',#1624);
#842=VERTEX_POINT('',#1633);
#843=VERTEX_POINT('',#1635);
#844=VERTEX_POINT('',#1639);
#845=VERTEX_POINT('',#1646);
#846=VERTEX_POINT('',#1655);
#847=VERTEX_POINT('',#1657);
#848=VERTEX_POINT('',#1661);
#849=VERTEX_POINT('',#1668);
#850=VERTEX_POINT('',#1677);
#851=VERTEX_POINT('',#1679);
#852=VERTEX_POINT('',#1683);
#853=VERTEX_POINT('',#1690);
#854=EDGE_CURVE('',#772,#772,#964,.T.);
#855=EDGE_CURVE('',#773,#773,#965,.T.);
#856=EDGE_CURVE('',#774,#774,#966,.T.);
#857=EDGE_CURVE('',#775,#775,#967,.T.);
#858=EDGE_CURVE('',#776,#776,#390,.T.);
#859=EDGE_CURVE('',#777,#777,#391,.T.);
#860=EDGE_CURVE('',#778,#779,#968,.T.);
#861=EDGE_CURVE('',#779,#780,#969,.T.);
#862=EDGE_CURVE('',#780,#781,#970,.T.);
#863=EDGE_CURVE('',#781,#778,#971,.T.);
#864=EDGE_CURVE('',#782,#783,#972,.T.);
#865=EDGE_CURVE('',#783,#784,#973,.T.);
#866=EDGE_CURVE('',#784,#785,#974,.T.);
#867=EDGE_CURVE('',#785,#782,#975,.T.);
#868=EDGE_CURVE('',#786,#787,#976,.T.);
#869=EDGE_CURVE('',#787,#788,#977,.T.);
#870=EDGE_CURVE('',#788,#789,#978,.T.);
#871=EDGE_CURVE('',#789,#786,#979,.T.);
#872=EDGE_CURVE('',#790,#791,#980,.T.);
#873=EDGE_CURVE('',#791,#792,#981,.T.);
#874=EDGE_CURVE('',#792,#793,#982,.T.);
#875=EDGE_CURVE('',#793,#790,#983,.T.);
#876=EDGE_CURVE('',#794,#794,#392,.T.);
#877=EDGE_CURVE('',#795,#795,#393,.T.);
#878=EDGE_CURVE('',#796,#796,#394,.T.);
#879=EDGE_CURVE('',#797,#797,#395,.T.);
#880=EDGE_CURVE('',#779,#798,#102,.T.);
#881=EDGE_CURVE('',#799,#778,#103,.T.);
#882=EDGE_CURVE('',#800,#799,#104,.T.);
#883=EDGE_CURVE('',#801,#800,#105,.T.);
#884=EDGE_CURVE('',#802,#801,#106,.T.);
#885=EDGE_CURVE('',#798,#802,#107,.T.);
#886=EDGE_CURVE('',#780,#803,#108,.T.);
#887=EDGE_CURVE('',#803,#804,#109,.T.);
#888=EDGE_CURVE('',#804,#805,#110,.T.);
#889=EDGE_CURVE('',#805,#806,#111,.T.);
#890=EDGE_CURVE('',#806,#807,#112,.T.);
#891=EDGE_CURVE('',#807,#781,#113,.T.);
#892=EDGE_CURVE('',#798,#803,#114,.T.);
#893=EDGE_CURVE('',#802,#804,#115,.T.);
#894=EDGE_CURVE('',#801,#805,#116,.T.);
#895=EDGE_CURVE('',#800,#806,#117,.T.);
#896=EDGE_CURVE('',#799,#807,#118,.T.);
#897=EDGE_CURVE('',#808,#809,#119,.T.);
#898=EDGE_CURVE('',#785,#809,#120,.T.);
#899=EDGE_CURVE('',#784,#808,#121,.T.);
#900=EDGE_CURVE('',#809,#810,#122,.T.);
#901=EDGE_CURVE('',#808,#811,#123,.T.);
#902=EDGE_CURVE('',#811,#810,#124,.T.);
#903=EDGE_CURVE('',#810,#812,#125,.T.);
#904=EDGE_CURVE('',#811,#813,#126,.T.);
#905=EDGE_CURVE('',#813,#812,#127,.T.);
#906=EDGE_CURVE('',#812,#814,#128,.T.);
#907=EDGE_CURVE('',#813,#815,#129,.T.);
#908=EDGE_CURVE('',#815,#814,#130,.T.);
#909=EDGE_CURVE('',#814,#816,#131,.T.);
#910=EDGE_CURVE('',#815,#817,#132,.T.);
#911=EDGE_CURVE('',#817,#816,#133,.T.);
#912=EDGE_CURVE('',#816,#782,#134,.T.);
#913=EDGE_CURVE('',#817,#783,#135,.T.);
#914=EDGE_CURVE('',#818,#819,#136,.T.);
#915=EDGE_CURVE('',#789,#819,#137,.T.);
#916=EDGE_CURVE('',#788,#818,#138,.T.);
#917=EDGE_CURVE('',#819,#820,#139,.T.);
#918=EDGE_CURVE('',#818,#821,#140,.T.);
#919=EDGE_CURVE('',#821,#820,#141,.T.);
#920=EDGE_CURVE('',#820,#822,#142,.T.);
#921=EDGE_CURVE('',#821,#823,#143,.T.);
#922=EDGE_CURVE('',#823,#822,#144,.T.);
#923=EDGE_CURVE('',#822,#824,#145,.T.);
#924=EDGE_CURVE('',#823,#825,#146,.T.);
#925=EDGE_CURVE('',#825,#824,#147,.T.);
#926=EDGE_CURVE('',#824,#826,#148,.T.);
#927=EDGE_CURVE('',#825,#827,#149,.T.);
#928=EDGE_CURVE('',#827,#826,#150,.T.);
#929=EDGE_CURVE('',#826,#786,#151,.T.);
#930=EDGE_CURVE('',#827,#787,#152,.T.);
#931=EDGE_CURVE('',#828,#829,#153,.T.);
#932=EDGE_CURVE('',#793,#829,#154,.T.);
#933=EDGE_CURVE('',#792,#828,#155,.T.);
#934=EDGE_CURVE('',#829,#830,#156,.T.);
#935=EDGE_CURVE('',#828,#831,#157,.T.);
#936=EDGE_CURVE('',#831,#830,#158,.T.);
#937=EDGE_CURVE('',#830,#832,#159,.T.);
#938=EDGE_CURVE('',#831,#833,#160,.T.);
#939=EDGE_CURVE('',#833,#832,#161,.T.);
#940=EDGE_CURVE('',#832,#834,#162,.T.);
#941=EDGE_CURVE('',#833,#835,#163,.T.);
#942=EDGE_CURVE('',#835,#834,#164,.T.);
#943=EDGE_CURVE('',#834,#836,#165,.T.);
#944=EDGE_CURVE('',#835,#837,#166,.T.);
#945=EDGE_CURVE('',#837,#836,#167,.T.);
#946=EDGE_CURVE('',#836,#790,#168,.T.);
#947=EDGE_CURVE('',#837,#791,#169,.T.);
#948=EDGE_CURVE('',#838,#838,#396,.T.);
#949=EDGE_CURVE('',#839,#839,#397,.T.);
#950=EDGE_CURVE('',#840,#840,#398,.T.);
#951=EDGE_CURVE('',#841,#841,#399,.T.);
#952=EDGE_CURVE('',#842,#842,#400,.T.);
#953=EDGE_CURVE('',#843,#843,#401,.T.);
#954=EDGE_CURVE('',#844,#844,#402,.T.);
#955=EDGE_CURVE('',#845,#845,#403,.T.);
#956=EDGE_CURVE('',#846,#846,#404,.T.);
#957=EDGE_CURVE('',#847,#847,#405,.T.);
#958=EDGE_CURVE('',#848,#848,#406,.T.);
#959=EDGE_CURVE('',#849,#849,#407,.T.);
#960=EDGE_CURVE('',#850,#850,#408,.T.);
#961=EDGE_CURVE('',#851,#851,#409,.T.);
#962=EDGE_CURVE('',#852,#852,#410,.T.);
#963=EDGE_CURVE('',#853,#853,#411,.T.);
#964=B_SPLINE_CURVE_WITH_KNOTS('',3,(#1280,#1281,#1282,#1283,#1284,#1285,
#1286,#1287,#1288,#1289,#1290,#1291,#1292,#1293,#1294,#1295,#1296,#1297),
 .UNSPECIFIED.,.T.,.F.,(2,2,2,2,2,2,2,2,2,2,2),(-0.125,0.,0.125,0.25,0.375,
0.5,0.625,0.75,0.875,1.,1.125),.UNSPECIFIED.);
#965=B_SPLINE_CURVE_WITH_KNOTS('',3,(#1299,#1300,#1301,#1302,#1303,#1304,
#1305,#1306,#1307,#1308,#1309,#1310,#1311,#1312,#1313,#1314,#1315,#1316),
 .UNSPECIFIED.,.T.,.F.,(2,2,2,2,2,2,2,2,2,2,2),(-0.125,0.,0.125,0.25,0.375,
0.5,0.625,0.75,0.875,1.,1.125),.UNSPECIFIED.);
#966=B_SPLINE_CURVE_WITH_KNOTS('',3,(#1318,#1319,#1320,#1321,#1322,#1323,
#1324,#1325,#1326,#1327,#1328,#1329,#1330,#1331,#1332,#1333,#1334,#1335),
 .UNSPECIFIED.,.T.,.F.,(2,2,2,2,2,2,2,2,2,2,2),(-0.125,0.,0.125,0.25,0.375,
0.5,0.625,0.75,0.875,1.,1.125),.UNSPECIFIED.);
#967=B_SPLINE_CURVE_WITH_KNOTS('',3,(#1337,#1338,#1339,#1340,#1341,#1342,
#1343,#1344,#1345,#1346,#1347,#1348,#1349,#1350,#1351,#1352,#1353,#1354),
 .UNSPECIFIED.,.T.,.F.,(2,2,2,2,2,2,2,2,2,2,2),(-0.125,0.,0.125,0.25,0.375,
0.5,0.625,0.75,0.875,1.,1.125),.UNSPECIFIED.);
#968=B_SPLINE_CURVE_WITH_KNOTS('',3,(#1360,#1361,#1362,#1363),
 .UNSPECIFIED.,.F.,.F.,(4,4),(0.,1.),.UNSPECIFIED.);
#969=B_SPLINE_CURVE_WITH_KNOTS('',3,(#1366,#1367,#1368,#1369),
 .UNSPECIFIED.,.F.,.F.,(4,4),(0.,1.),.UNSPECIFIED.);
#970=B_SPLINE_CURVE_WITH_KNOTS('',3,(#1371,#1372,#1373,#1374,#1375,#1376,
#1377),.UNSPECIFIED.,.F.,.F.,(4,3,4),(0.,0.500000016111204,1.),
 .UNSPECIFIED.);
#971=B_SPLINE_CURVE_WITH_KNOTS('',3,(#1379,#1380,#1381,#1382),
 .UNSPECIFIED.,.F.,.F.,(4,4),(0.,1.),.UNSPECIFIED.);
#972=B_SPLINE_CURVE_WITH_KNOTS('',3,(#1383,#1384,#1385,#1386),
 .UNSPECIFIED.,.F.,.F.,(4,4),(0.,1.),.UNSPECIFIED.);
#973=B_SPLINE_CURVE_WITH_KNOTS('',3,(#1389,#1390,#1391,#1392),
 .UNSPECIFIED.,.F.,.F.,(4,4),(0.,1.),.UNSPECIFIED.);
#974=B_SPLINE_CURVE_WITH_KNOTS('',3,(#1394,#1395,#1396,#1397),
 .UNSPECIFIED.,.F.,.F.,(4,4),(0.,1.),.UNSPECIFIED.);
#975=B_SPLINE_CURVE_WITH_KNOTS('',3,(#1399,#1400,#1401,#1402,#1403,#1404,
#1405),.UNSPECIFIED.,.F.,.F.,(4,3,4),(0.,0.500000016050182,1.),
 .UNSPECIFIED.);
#976=B_SPLINE_CURVE_WITH_KNOTS('',3,(#1406,#1407,#1408,#1409),
 .UNSPECIFIED.,.F.,.F.,(4,4),(0.,1.),.UNSPECIFIED.);
#977=B_SPLINE_CURVE_WITH_KNOTS('',3,(#1412,#1413,#1414,#1415),
 .UNSPECIFIED.,.F.,.F.,(4,4),(0.,1.),.UNSPECIFIED.);
#978=B_SPLINE_CURVE_WITH_KNOTS('',3,(#1417,#1418,#1419,#1420),
 .UNSPECIFIED.,.F.,.F.,(4,4),(0.,1.),.UNSPECIFIED.);
#979=B_SPLINE_CURVE_WITH_KNOTS('',3,(#1422,#1423,#1424,#1425,#1426,#1427,
#1428),.UNSPECIFIED.,.F.,.F.,(4,3,4),(0.,0.500000016027201,1.),
 .UNSPECIFIED.);
#980=B_SPLINE_CURVE_WITH_KNOTS('',3,(#1429,#1430,#1431,#1432),
 .UNSPECIFIED.,.F.,.F.,(4,4),(0.,1.),.UNSPECIFIED.);
#981=B_SPLINE_CURVE_WITH_KNOTS('',3,(#1435,#1436,#1437,#1438),
 .UNSPECIFIED.,.F.,.F.,(4,4),(0.,1.),.UNSPECIFIED.);
#982=B_SPLINE_CURVE_WITH_KNOTS('',3,(#1440,#1441,#1442,#1443),
 .UNSPECIFIED.,.F.,.F.,(4,4),(0.,1.),.UNSPECIFIED.);
#983=B_SPLINE_CURVE_WITH_KNOTS('',3,(#1445,#1446,#1447,#1448,#1449,#1450,
#1451),.UNSPECIFIED.,.F.,.F.,(4,3,4),(0.,0.500000016088176,1.),
 .UNSPECIFIED.);
#984=B_SPLINE_CURVE_WITH_KNOTS('',3,(#1618,#1619,#1620,#1621),
 .UNSPECIFIED.,.F.,.F.,(4,4),(0.,1.),.UNSPECIFIED.);
#985=B_SPLINE_CURVE_WITH_KNOTS('',3,(#1627,#1628,#1629,#1630),
 .UNSPECIFIED.,.F.,.F.,(4,4),(0.,1.),.UNSPECIFIED.);
#986=B_SPLINE_CURVE_WITH_KNOTS('',3,(#1640,#1641,#1642,#1643),
 .UNSPECIFIED.,.F.,.F.,(4,4),(0.,1.),.UNSPECIFIED.);
#987=B_SPLINE_CURVE_WITH_KNOTS('',3,(#1649,#1650,#1651,#1652),
 .UNSPECIFIED.,.F.,.F.,(4,4),(0.,1.),.UNSPECIFIED.);
#988=B_SPLINE_CURVE_WITH_KNOTS('',3,(#1662,#1663,#1664,#1665),
 .UNSPECIFIED.,.F.,.F.,(4,4),(0.,1.),.UNSPECIFIED.);
#989=B_SPLINE_CURVE_WITH_KNOTS('',3,(#1671,#1672,#1673,#1674),
 .UNSPECIFIED.,.F.,.F.,(4,4),(0.,1.),.UNSPECIFIED.);
#990=B_SPLINE_CURVE_WITH_KNOTS('',3,(#1684,#1685,#1686,#1687),
 .UNSPECIFIED.,.F.,.F.,(4,4),(0.,1.),.UNSPECIFIED.);
#991=B_SPLINE_CURVE_WITH_KNOTS('',3,(#1693,#1694,#1695,#1696),
 .UNSPECIFIED.,.F.,.F.,(4,4),(0.,1.),.UNSPECIFIED.);
#992=AXIS2_PLACEMENT_3D('',#1279,#1057,#1058);
#993=AXIS2_PLACEMENT_3D('',#1356,#1059,#1060);
#994=AXIS2_PLACEMENT_3D('',#1358,#1061,#1062);
#995=AXIS2_PLACEMENT_3D('',#1452,#1063,#1064);
#996=AXIS2_PLACEMENT_3D('',#1453,#1065,#1066);
#997=AXIS2_PLACEMENT_3D('',#1454,#1067,#1068);
#998=AXIS2_PLACEMENT_3D('',#1456,#1069,#1070);
#999=AXIS2_PLACEMENT_3D('',#1457,#1071,#1072);
#1000=AXIS2_PLACEMENT_3D('',#1458,#1073,#1074);
#1001=AXIS2_PLACEMENT_3D('',#1460,#1075,#1076);
#1002=AXIS2_PLACEMENT_3D('',#1461,#1077,#1078);
#1003=AXIS2_PLACEMENT_3D('',#1462,#1079,#1080);
#1004=AXIS2_PLACEMENT_3D('',#1464,#1081,#1082);
#1005=AXIS2_PLACEMENT_3D('',#1465,#1083,#1084);
#1006=AXIS2_PLACEMENT_3D('',#1466,#1085,#1086);
#1007=AXIS2_PLACEMENT_3D('',#1468,#1087,#1088);
#1008=AXIS2_PLACEMENT_3D('',#1469,#1089,#1090);
#1009=AXIS2_PLACEMENT_3D('',#1481,#1097,#1098);
#1010=AXIS2_PLACEMENT_3D('',#1493,#1105,#1106);
#1011=AXIS2_PLACEMENT_3D('',#1495,#1108,#1109);
#1012=AXIS2_PLACEMENT_3D('',#1497,#1111,#1112);
#1013=AXIS2_PLACEMENT_3D('',#1499,#1114,#1115);
#1014=AXIS2_PLACEMENT_3D('',#1501,#1117,#1118);
#1015=AXIS2_PLACEMENT_3D('',#1503,#1120,#1121);
#1016=AXIS2_PLACEMENT_3D('',#1504,#1122,#1123);
#1017=AXIS2_PLACEMENT_3D('',#1510,#1127,#1128);
#1018=AXIS2_PLACEMENT_3D('',#1516,#1132,#1133);
#1019=AXIS2_PLACEMENT_3D('',#1522,#1137,#1138);
#1020=AXIS2_PLACEMENT_3D('',#1528,#1142,#1143);
#1021=AXIS2_PLACEMENT_3D('',#1534,#1147,#1148);
#1022=AXIS2_PLACEMENT_3D('',#1537,#1151,#1152);
#1023=AXIS2_PLACEMENT_3D('',#1538,#1153,#1154);
#1024=AXIS2_PLACEMENT_3D('',#1539,#1155,#1156);
#1025=AXIS2_PLACEMENT_3D('',#1545,#1160,#1161);
#1026=AXIS2_PLACEMENT_3D('',#1551,#1165,#1166);
#1027=AXIS2_PLACEMENT_3D('',#1557,#1170,#1171);
#1028=AXIS2_PLACEMENT_3D('',#1563,#1175,#1176);
#1029=AXIS2_PLACEMENT_3D('',#1569,#1180,#1181);
#1030=AXIS2_PLACEMENT_3D('',#1572,#1184,#1185);
#1031=AXIS2_PLACEMENT_3D('',#1573,#1186,#1187);
#1032=AXIS2_PLACEMENT_3D('',#1574,#1188,#1189);
#1033=AXIS2_PLACEMENT_3D('',#1580,#1193,#1194);
#1034=AXIS2_PLACEMENT_3D('',#1586,#1198,#1199);
#1035=AXIS2_PLACEMENT_3D('',#1592,#1203,#1204);
#1036=AXIS2_PLACEMENT_3D('',#1598,#1208,#1209);
#1037=AXIS2_PLACEMENT_3D('',#1604,#1213,#1214);
#1038=AXIS2_PLACEMENT_3D('',#1607,#1217,#1218);
#1039=AXIS2_PLACEMENT_3D('',#1608,#1219,#1220);
#1040=AXIS2_PLACEMENT_3D('',#1609,#1221,#1222);
#1041=AXIS2_PLACEMENT_3D('',#1610,#1223,#1224);
#1042=AXIS2_PLACEMENT_3D('',#1612,#1225,#1226);
#1043=AXIS2_PLACEMENT_3D('',#1616,#1229,#1230);
#1044=AXIS2_PLACEMENT_3D('',#1623,#1232,#1233);
#1045=AXIS2_PLACEMENT_3D('',#1632,#1237,#1238);
#1046=AXIS2_PLACEMENT_3D('',#1634,#1239,#1240);
#1047=AXIS2_PLACEMENT_3D('',#1638,#1243,#1244);
#1048=AXIS2_PLACEMENT_3D('',#1645,#1246,#1247);
#1049=AXIS2_PLACEMENT_3D('',#1654,#1251,#1252);
#1050=AXIS2_PLACEMENT_3D('',#1656,#1253,#1254);
#1051=AXIS2_PLACEMENT_3D('',#1660,#1257,#1258);
#1052=AXIS2_PLACEMENT_3D('',#1667,#1260,#1261);
#1053=AXIS2_PLACEMENT_3D('',#1676,#1265,#1266);
#1054=AXIS2_PLACEMENT_3D('',#1678,#1267,#1268);
#1055=AXIS2_PLACEMENT_3D('',#1682,#1271,#1272);
#1056=AXIS2_PLACEMENT_3D('',#1689,#1274,#1275);
#1057=DIRECTION('',(0.,0.,1.));
#1058=DIRECTION('',(1.,0.,0.));
#1059=DIRECTION('',(0.,0.,1.));
#1060=DIRECTION('',(-1.,0.,0.));
#1061=DIRECTION('',(0.,0.,-1.));
#1062=DIRECTION('',(-1.,0.,0.));
#1063=DIRECTION('',(0.,0.,-1.));
#1064=DIRECTION('',(-1.,0.,-6.22373356844492E-20));
#1065=DIRECTION('',(0.,0.,-1.));
#1066=DIRECTION('',(-1.,0.,0.));
#1067=DIRECTION('',(-0.0018884083032789,0.,0.99999821695545));
#1068=DIRECTION('',(-0.99999821695545,0.,-0.00188840830327888));
#1069=DIRECTION('',(0.0018884083032789,0.,-0.99999821695545));
#1070=DIRECTION('',(-0.99999821695545,0.,-0.0018884083032789));
#1071=DIRECTION('',(0.0018884083032789,0.,-0.99999821695545));
#1072=DIRECTION('',(-0.99999821695545,0.,-0.00188840830327888));
#1073=DIRECTION('',(-0.00188840830325162,0.,0.99999821695545));
#1074=DIRECTION('',(-0.99999821695545,0.,-0.00188840830325173));
#1075=DIRECTION('',(0.00188840830325162,0.,-0.99999821695545));
#1076=DIRECTION('',(-0.999998216955451,0.,-0.00188840830325162));
#1077=DIRECTION('',(0.00188840830325162,0.,-0.99999821695545));
#1078=DIRECTION('',(-0.999998216955451,0.,-0.00188840830325173));
#1079=DIRECTION('',(-0.0018884083032789,0.,0.99999821695545));
#1080=DIRECTION('',(-0.99999821695545,0.,-0.00188840830327888));
#1081=DIRECTION('',(0.0018884083032789,0.,-0.99999821695545));
#1082=DIRECTION('',(-0.99999821695545,0.,-0.0018884083032789));
#1083=DIRECTION('',(0.0018884083032789,0.,-0.99999821695545));
#1084=DIRECTION('',(-0.99999821695545,0.,-0.00188840830327888));
#1085=DIRECTION('',(-0.0018884083032789,0.,0.99999821695545));
#1086=DIRECTION('',(-0.999998216955451,0.,-0.00188840830327888));
#1087=DIRECTION('',(0.0018884083032789,0.,-0.99999821695545));
#1088=DIRECTION('',(-0.99999821695545,0.,-0.0018884083032789));
#1089=DIRECTION('',(0.0018884083032789,0.,-0.99999821695545));
#1090=DIRECTION('',(-0.99999821695545,0.,-0.00188840830327888));
#1091=DIRECTION('',(-4.39746556867615E-8,0.0493253122022568,0.998782765958718));
#1092=DIRECTION('',(4.39746537112107E-8,-0.0493253122022588,-0.998782765958718));
#1093=DIRECTION('',(-0.676593508559892,-0.689376093073333,-0.258808474501053));
#1094=DIRECTION('',(0.0493253122022588,4.39746536383522E-8,-0.998782765958718));
#1095=DIRECTION('',(0.473265498689226,0.435448406793065,-0.765770496148696));
#1096=DIRECTION('',(0.707106150784259,0.707107411588274,-6.93889390390722E-15));
#1097=DIRECTION('',(0.706676660858537,-0.70667540082257,0.034899496702501));
#1098=DIRECTION('',(0.707106150784259,0.707107411588274,0.));
#1099=DIRECTION('',(0.0493253122022568,4.39746517128077E-8,0.998782765958718));
#1100=DIRECTION('',(0.707106150784259,0.707107411588274,-6.93889390390722E-15));
#1101=DIRECTION('',(0.435447562938153,0.473266275113073,-0.765770496148696));
#1102=DIRECTION('',(-4.39746537597829E-8,0.0493253122022587,-0.998782765958718));
#1103=DIRECTION('',(-0.689374886674796,-0.676594737748196,-0.258808474501053));
#1104=DIRECTION('',(-0.0493253122022588,-4.39746536869245E-8,-0.998782765958718));
#1105=DIRECTION('',(-0.706676660858537,0.70667540082257,0.034899496702501));
#1106=DIRECTION('',(-0.707106150784259,-0.707107411588274,0.));
#1107=DIRECTION('',(-0.707107411588274,0.707106150784259,0.));
#1108=DIRECTION('',(-0.70667540082257,-0.706676660858537,0.0348994967024982));
#1109=DIRECTION('',(0.707107411588274,-0.707106150784259,0.));
#1110=DIRECTION('',(-0.707107411588274,0.707106150784259,0.));
#1111=DIRECTION('',(4.90653455909219E-15,4.90654330767749E-15,1.));
#1112=DIRECTION('',(0.,-1.,4.90579799006241E-15));
#1113=DIRECTION('',(-0.707107411588274,0.707106150784259,0.));
#1114=DIRECTION('',(0.541674737503532,0.541675703335442,0.642787609686539));
#1115=DIRECTION('',(0.,-0.764687904671116,0.644400813507943));
#1116=DIRECTION('',(-0.707107411588274,0.707106150784259,0.));
#1117=DIRECTION('',(0.70667540082257,0.706676660858537,0.0348994967025009));
#1118=DIRECTION('',(-0.707107411588274,0.707106150784259,0.));
#1119=DIRECTION('',(-0.707107411588274,0.707106150784259,0.));
#1120=DIRECTION('',(0.183012538732101,0.183012865052193,-0.965925826289068));
#1121=DIRECTION('',(0.,0.982520020493593,0.186156948109036));
#1122=DIRECTION('',(0.70667540082257,0.706676660858537,-0.0348994967025009));
#1123=DIRECTION('',(-0.707107411588274,0.707106150784259,0.));
#1124=DIRECTION('',(-0.707106150784259,-0.707107411588274,0.));
#1125=DIRECTION('',(-4.39746518085182E-8,0.049325312202257,0.998782765958718));
#1126=DIRECTION('',(-0.0493253122022569,-4.39746555465495E-8,0.998782765958718));
#1127=DIRECTION('',(0.706676660858537,-0.70667540082257,0.0348994967024983));
#1128=DIRECTION('',(0.707106150784259,0.707107411588274,0.));
#1129=DIRECTION('',(-0.707107411588273,0.70710615078426,-6.93889390390722E-15));
#1130=DIRECTION('',(-0.707107411588273,0.70710615078426,-6.93889390390722E-15));
#1131=DIRECTION('',(-0.707106150784259,-0.707107411588274,0.));
#1132=DIRECTION('',(-4.90654330767749E-15,4.9065345590922E-15,1.));
#1133=DIRECTION('',(1.,0.,4.90579799006241E-15));
#1134=DIRECTION('',(-0.473266275113073,0.435447562938154,-0.765770496148696));
#1135=DIRECTION('',(-0.435448406793064,0.473265498689226,-0.765770496148696));
#1136=DIRECTION('',(-0.707106150784259,-0.707107411588274,0.));
#1137=DIRECTION('',(-0.541675703335442,0.541674737503532,0.642787609686539));
#1138=DIRECTION('',(0.764687904671116,0.,0.644400813507943));
#1139=DIRECTION('',(-0.0493253122022587,-4.39746537438698E-8,-0.998782765958718));
#1140=DIRECTION('',(-4.39746536175355E-8,0.0493253122022588,-0.998782765958718));
#1141=DIRECTION('',(-0.707106150784259,-0.707107411588274,0.));
#1142=DIRECTION('',(-0.706676660858537,0.70667540082257,0.0348994967025009));
#1143=DIRECTION('',(-0.707106150784259,-0.707107411588274,0.));
#1144=DIRECTION('',(0.676594737748195,-0.689374886674796,-0.258808474501053));
#1145=DIRECTION('',(0.689376093073333,-0.676593508559893,-0.258808474501053));
#1146=DIRECTION('',(-0.707106150784259,-0.707107411588274,0.));
#1147=DIRECTION('',(-0.183012865052193,0.183012538732101,-0.965925826289068));
#1148=DIRECTION('',(-0.982520020493593,0.,0.186156948109036));
#1149=DIRECTION('',(4.39746534163074E-8,-0.0493253122022586,-0.998782765958718));
#1150=DIRECTION('',(0.0493253122022585,4.39746539401943E-8,-0.998782765958718));
#1151=DIRECTION('',(-0.706676660858537,0.70667540082257,-0.0348994967025006));
#1152=DIRECTION('',(-0.707106150784259,-0.707107411588274,0.));
#1153=DIRECTION('',(0.706675400822571,0.706676660858537,0.034899496702501));
#1154=DIRECTION('',(-0.707107411588273,0.70710615078426,0.));
#1155=DIRECTION('',(-0.706675400822571,-0.706676660858537,0.034899496702501));
#1156=DIRECTION('',(0.707107411588273,-0.70710615078426,0.));
#1157=DIRECTION('',(0.707107411588273,-0.70710615078426,0.));
#1158=DIRECTION('',(-0.049325312202257,-4.39746517113736E-8,0.998782765958718));
#1159=DIRECTION('',(4.39746554430672E-8,-0.0493253122022569,0.998782765958718));
#1160=DIRECTION('',(0.706675400822571,0.706676660858537,0.0348994967024983));
#1161=DIRECTION('',(-0.707107411588273,0.70710615078426,0.));
#1162=DIRECTION('',(-0.707106150784261,-0.707107411588271,-6.93889390390723E-15));
#1163=DIRECTION('',(-0.707106150784262,-0.707107411588271,-6.93889390390723E-15));
#1164=DIRECTION('',(0.707107411588273,-0.70710615078426,0.));
#1165=DIRECTION('',(-4.90653455909221E-15,-4.90654330767749E-15,1.));
#1166=DIRECTION('',(0.,-1.,-4.90579799006241E-15));
#1167=DIRECTION('',(-0.435447562938155,-0.473266275113072,-0.765770496148696));
#1168=DIRECTION('',(-0.473265498689228,-0.435448406793064,-0.765770496148696));
#1169=DIRECTION('',(0.707107411588273,-0.70710615078426,0.));
#1170=DIRECTION('',(-0.541674737503532,-0.541675703335441,0.64278760968654));
#1171=DIRECTION('',(0.,-0.764687904671117,-0.644400813507942));
#1172=DIRECTION('',(4.39746542197856E-8,-0.0493253122022581,-0.998782765958718));
#1173=DIRECTION('',(-0.0493253122022582,-4.39746529508E-8,-0.998782765958718));
#1174=DIRECTION('',(0.707107411588273,-0.70710615078426,0.));
#1175=DIRECTION('',(-0.706675400822571,-0.706676660858537,0.0348994967025001));
#1176=DIRECTION('',(0.707107411588273,-0.70710615078426,0.));
#1177=DIRECTION('',(0.689374886674798,0.676594737748194,-0.258808474501054));
#1178=DIRECTION('',(0.676593508559894,0.689376093073331,-0.258808474501054));
#1179=DIRECTION('',(0.707107411588273,-0.70710615078426,0.));
#1180=DIRECTION('',(-0.183012538732102,-0.183012865052192,-0.965925826289068));
#1181=DIRECTION('',(0.,0.982520020493593,-0.186156948109035));
#1182=DIRECTION('',(0.0493253122022589,4.39746535738668E-8,-0.998782765958718));
#1183=DIRECTION('',(-4.39746536016224E-8,0.0493253122022587,-0.998782765958718));
#1184=DIRECTION('',(-0.706675400822571,-0.706676660858537,-0.0348994967025009));
#1185=DIRECTION('',(0.707107411588273,-0.70710615078426,0.));
#1186=DIRECTION('',(-0.706676660858535,0.706675400822573,0.034899496702501));
#1187=DIRECTION('',(-0.707106150784262,-0.707107411588271,0.));
#1188=DIRECTION('',(0.706676660858535,-0.706675400822573,0.034899496702501));
#1189=DIRECTION('',(0.707106150784262,0.707107411588271,0.));
#1190=DIRECTION('',(0.707106150784261,0.707107411588272,0.));
#1191=DIRECTION('',(4.39746515240234E-8,-0.0493253122022569,0.998782765958718));
#1192=DIRECTION('',(0.0493253122022567,4.39746554994113E-8,0.998782765958718));
#1193=DIRECTION('',(-0.706676660858536,0.706675400822572,0.0348994967024982));
#1194=DIRECTION('',(-0.707106150784261,-0.707107411588272,0.));
#1195=DIRECTION('',(0.70710741158827,-0.707106150784263,-6.93889390390722E-15));
#1196=DIRECTION('',(0.70710741158827,-0.707106150784263,-6.93889390390722E-15));
#1197=DIRECTION('',(0.707106150784261,0.707107411588272,0.));
#1198=DIRECTION('',(4.90654330767748E-15,-4.90653455909221E-15,1.));
#1199=DIRECTION('',(1.,0.,-4.90579799006241E-15));
#1200=DIRECTION('',(0.473266275113071,-0.435447562938156,-0.765770496148696));
#1201=DIRECTION('',(0.435448406793063,-0.473265498689228,-0.765770496148696));
#1202=DIRECTION('',(0.707106150784261,0.707107411588272,0.));
#1203=DIRECTION('',(0.54167570333544,-0.541674737503533,0.642787609686539));
#1204=DIRECTION('',(0.764687904671117,0.,-0.644400813507942));
#1205=DIRECTION('',(0.0493253122022581,4.39746541518307E-8,-0.998782765958718));
#1206=DIRECTION('',(4.39746528716039E-8,-0.0493253122022582,-0.998782765958718));
#1207=DIRECTION('',(0.707106150784261,0.707107411588272,0.));
#1208=DIRECTION('',(0.706676660858536,-0.706675400822572,0.0348994967025001));
#1209=DIRECTION('',(0.707106150784261,0.707107411588272,0.));
#1210=DIRECTION('',(-0.676594737748192,0.689374886674799,-0.258808474501053));
#1211=DIRECTION('',(-0.68937609307333,0.676593508559895,-0.258808474501053));
#1212=DIRECTION('',(0.707106150784261,0.707107411588272,0.));
#1213=DIRECTION('',(0.183012865052192,-0.183012538732102,-0.965925826289068));
#1214=DIRECTION('',(-0.982520020493593,0.,-0.186156948109035));
#1215=DIRECTION('',(-4.39746534995742E-8,0.0493253122022589,-0.998782765958718));
#1216=DIRECTION('',(-0.0493253122022587,-4.39746535287639E-8,-0.998782765958718));
#1217=DIRECTION('',(0.706676660858536,-0.706675400822572,-0.0348994967025009));
#1218=DIRECTION('',(0.707106150784261,0.707107411588272,0.));
#1219=DIRECTION('',(-0.706675400822574,-0.706676660858534,0.034899496702501));
#1220=DIRECTION('',(0.70710741158827,-0.707106150784263,0.));
#1221=DIRECTION('',(0.706675400822574,0.706676660858534,0.034899496702501));
#1222=DIRECTION('',(-0.70710741158827,0.707106150784263,0.));
#1223=DIRECTION('',(0.,0.,-1.));
#1224=DIRECTION('',(-1.,0.,0.));
#1225=DIRECTION('',(0.,0.,-1.));
#1226=DIRECTION('',(-1.,0.,0.));
#1227=DIRECTION('',(-0.70715265371465,0.707058398230657,-0.00188303898708929));
#1228=DIRECTION('',(0.,0.,-1.));
#1229=DIRECTION('',(0.,0.,-1.));
#1230=DIRECTION('',(-1.,0.,0.));
#1231=DIRECTION('',(0.,0.,-1.));
#1232=DIRECTION('',(0.,0.,-1.));
#1233=DIRECTION('',(-1.,0.,0.));
#1234=DIRECTION('',(0.707059630916659,-0.707151418304847,0.00188412245918161));
#1235=DIRECTION('',(0.,0.,-1.));
#1236=DIRECTION('',(0.,0.,-1.));
#1237=DIRECTION('',(0.,0.,-1.));
#1238=DIRECTION('',(-1.,0.,0.));
#1239=DIRECTION('',(0.,0.,-1.));
#1240=DIRECTION('',(-1.,0.,0.));
#1241=DIRECTION('',(0.707151414675054,0.707059634960984,0.00188396706702266));
#1242=DIRECTION('',(0.,0.,-1.));
#1243=DIRECTION('',(0.,0.,-1.));
#1244=DIRECTION('',(-1.,0.,0.));
#1245=DIRECTION('',(0.,0.,-1.));
#1246=DIRECTION('',(0.,0.,-1.));
#1247=DIRECTION('',(-1.,0.,0.));
#1248=DIRECTION('',(-0.707058393344796,-0.707152658099937,-0.00188322671744334));
#1249=DIRECTION('',(0.,0.,-1.));
#1250=DIRECTION('',(0.,0.,-1.));
#1251=DIRECTION('',(0.,0.,-1.));
#1252=DIRECTION('',(-1.,0.,0.));
#1253=DIRECTION('',(0.,0.,-1.));
#1254=DIRECTION('',(-1.,0.,0.));
#1255=DIRECTION('',(0.707058398603903,0.707152653379642,-0.00188302464576972));
#1256=DIRECTION('',(0.,0.,-1.));
#1257=DIRECTION('',(0.,0.,-1.));
#1258=DIRECTION('',(-1.,0.,0.));
#1259=DIRECTION('',(0.,0.,-1.));
#1260=DIRECTION('',(0.,0.,-1.));
#1261=DIRECTION('',(-1.,0.,0.));
#1262=DIRECTION('',(-0.707151418061579,-0.70705963118771,0.00188411204502565));
#1263=DIRECTION('',(0.,0.,-1.));
#1264=DIRECTION('',(0.,0.,-1.));
#1265=DIRECTION('',(0.,0.,-1.));
#1266=DIRECTION('',(-1.,0.,0.));
#1267=DIRECTION('',(0.,0.,-1.));
#1268=DIRECTION('',(-1.,0.,0.));
#1269=DIRECTION('',(-0.707059635241852,0.70715141442297,0.00188395627661388));
#1270=DIRECTION('',(0.,0.,-1.));
#1271=DIRECTION('',(0.,0.,-1.));
#1272=DIRECTION('',(-1.,0.,0.));
#1273=DIRECTION('',(0.,0.,-1.));
#1274=DIRECTION('',(0.,0.,-1.));
#1275=DIRECTION('',(-1.,0.,0.));
#1276=DIRECTION('',(0.707152657776597,-0.707058393705047,-0.00188321287547055));
#1277=DIRECTION('',(0.,0.,-1.));
#1278=DIRECTION('',(0.,0.,-1.));
#1279=CARTESIAN_POINT('',(0.,0.,0.));
#1280=CARTESIAN_POINT('',(20.6098202934208,-2.99155081484378,9.99095579981404));
#1281=CARTESIAN_POINT('',(22.7587723383379,-5.14038283411034,9.98621935623381));
#1282=CARTESIAN_POINT('',(24.2502855877848,-5.75016913612743,9.98319178306886));
#1283=CARTESIAN_POINT('',(27.2511767793037,-5.74983079077679,9.97766120923964));
#1284=CARTESIAN_POINT('',(28.7527181044854,-5.1280263881685,9.97514437322744));
#1285=CARTESIAN_POINT('',(30.875072929114,-3.00784310619434,9.97171456542735));
#1286=CARTESIAN_POINT('',(31.4993669158349,-1.52081247478758,9.97076801007643));
#1287=CARTESIAN_POINT('',(31.5008544442043,1.51517790692858,9.97076571377224));
#1288=CARTESIAN_POINT('',(30.878308795485,3.00283097138592,9.97170950243575));
#1289=CARTESIAN_POINT('',(28.7562927167146,5.12622931278045,9.97513843075408));
#1290=CARTESIAN_POINT('',(27.2550564989754,5.74857839838609,9.97765454960614));
#1291=CARTESIAN_POINT('',(24.2559919592391,5.75141645238961,9.98318077732144));
#1292=CARTESIAN_POINT('',(22.7616974357162,5.141212215121,9.98621534637662));
#1293=CARTESIAN_POINT('',(20.6148225326533,2.99863513485371,9.99094621999274));
#1294=CARTESIAN_POINT('',(20.0012158229618,1.50602512636627,9.99248087638713));
#1295=CARTESIAN_POINT('',(19.9988873433319,-1.49710866146746,9.99248653767773));
#1296=CARTESIAN_POINT('',(20.6098202934208,-2.99155081484378,9.99095579981404));
#1297=CARTESIAN_POINT('',(22.7587723383379,-5.14038283411034,9.98621935623381));
#1298=CARTESIAN_POINT('',(21.6842979798931,-4.06596574926732,9.98858951480918));
#1299=CARTESIAN_POINT('',(-5.14019889334851,22.7584167501098,9.98622009536894));
#1300=CARTESIAN_POINT('',(-2.99124484489265,20.6095941487593,9.9909563136709));
#1301=CARTESIAN_POINT('',(-1.49972549669499,19.9998160155827,9.99248425471808));
#1302=CARTESIAN_POINT('',(1.50116434945757,20.0001840709132,9.99248335583168));
#1303=CARTESIAN_POINT('',(3.00269661858238,20.622006191476,9.99093112154368));
#1304=CARTESIAN_POINT('',(5.12502821836723,22.7422071356782,9.98625750631503));
#1305=CARTESIAN_POINT('',(5.74930849866066,24.2292317733815,9.98323092077259));
#1306=CARTESIAN_POINT('',(5.75078456791608,27.2652170671813,9.97763495925295));
#1307=CARTESIAN_POINT('',(5.12823897895085,28.7528613212897,9.97514410999933));
#1308=CARTESIAN_POINT('',(3.00622122138521,30.8762484630527,9.97171272092409));
#1309=CARTESIAN_POINT('',(1.50498177989877,31.498590863875,9.97076924147524));
#1310=CARTESIAN_POINT('',(-1.49408399690495,31.5014040766868,9.97076490864252));
#1311=CARTESIAN_POINT('',(-2.98837002473114,30.8911845923741,9.97168886682972));
#1312=CARTESIAN_POINT('',(-5.13522533698549,28.7485821547785,9.97515079494187));
#1313=CARTESIAN_POINT('',(-5.74881357335991,27.2559745347658,9.97765276595068));
#1314=CARTESIAN_POINT('',(-5.7511295913846,24.2528542737728,9.98318667314331));
#1315=CARTESIAN_POINT('',(-5.14019889334851,22.7584167501098,9.98622009536894));
#1316=CARTESIAN_POINT('',(-2.99124484489265,20.6095941487593,9.9909563136709));
#1317=CARTESIAN_POINT('',(-4.0657202105038,21.6840065280939,9.98859014121494));
#1318=CARTESIAN_POINT('',(-30.8901875562857,-2.99162908085918,9.9716902621594));
#1319=CARTESIAN_POINT('',(-28.7412170026454,-5.14042827666026,9.9751628882616));
#1320=CARTESIAN_POINT('',(-27.2496999754678,-5.75019536940374,9.97766378848137));
#1321=CARTESIAN_POINT('',(-24.2488201692186,-5.74980453306159,9.98319462641495));
#1322=CARTESIAN_POINT('',(-22.7472977833831,-5.12796977285125,9.9862468033153));
#1323=CARTESIAN_POINT('',(-20.624997847843,-3.00774564547608,9.99092404237376));
#1324=CARTESIAN_POINT('',(-20.0007398048548,-1.52071111533401,9.99248201832557));
#1325=CARTESIAN_POINT('',(-19.999304414877,1.51527399075016,9.99248550823352));
#1326=CARTESIAN_POINT('',(-20.6218654864591,3.00290906188477,9.99093135043499));
#1327=CARTESIAN_POINT('',(-22.7438960885011,5.12627344428775,9.98625389660408));
#1328=CARTESIAN_POINT('',(-24.2451344704816,5.74860301966087,9.98320189038984));
#1329=CARTESIAN_POINT('',(-27.2441889856303,5.75139200765746,9.97767347610876));
#1330=CARTESIAN_POINT('',(-28.7384663887134,5.14115940072598,9.9751675220703));
#1331=CARTESIAN_POINT('',(-30.8852915222589,2.9985368121124,9.97169798561309));
#1332=CARTESIAN_POINT('',(-31.4988605727309,1.50592080229024,9.97076882977536));
#1333=CARTESIAN_POINT('',(-31.5011380447028,-1.49719955683102,9.97076531403893));
#1334=CARTESIAN_POINT('',(-30.8901875562857,-2.99162908085918,9.9716902621594));
#1335=CARTESIAN_POINT('',(-28.7412170026454,-5.14042827666026,9.9751628882616));
#1336=CARTESIAN_POINT('',(-29.8157022794647,-4.06602867875918,9.9734265752105));
#1337=CARTESIAN_POINT('',(-5.14018249271037,-28.741569137569,9.97516231930178));
#1338=CARTESIAN_POINT('',(-2.99122731766186,-30.8903911467782,9.97168995652839));
#1339=CARTESIAN_POINT('',(-1.49971379524055,-31.5001764290265,9.97076680378145));
#1340=CARTESIAN_POINT('',(1.50117673359899,-31.4998234914373,9.97076733868005));
#1341=CARTESIAN_POINT('',(3.00271318595908,-30.8780070124207,9.97171004260832));
#1342=CARTESIAN_POINT('',(5.12504398404954,-28.7578046016989,9.97513595868854));
#1343=CARTESIAN_POINT('',(5.74931771512026,-27.2707735889375,9.97762529348407));
#1344=CARTESIAN_POINT('',(5.75077538513009,-24.2347879241741,9.98322010564604));
#1345=CARTESIAN_POINT('',(5.12822242427149,-22.7471493954586,9.98624702742893));
#1346=CARTESIAN_POINT('',(3.00620465029476,-20.6237649610235,9.99092683048212));
#1347=CARTESIAN_POINT('',(1.50496915608912,-20.0014167969497,9.99248035866094));
#1348=CARTESIAN_POINT('',(-1.49409484657631,-19.9985883175562,9.99248723965143));
#1349=CARTESIAN_POINT('',(-2.98838590022349,-20.6088025551391,9.99096048618836));
#1350=CARTESIAN_POINT('',(-5.13523782542043,-22.7514017909403,9.98623700919102));
#1351=CARTESIAN_POINT('',(-5.7488210630867,-24.2440138776567,9.9832038711252));
#1352=CARTESIAN_POINT('',(-5.75112214562415,-27.2471344592497,9.97766815343923));
#1353=CARTESIAN_POINT('',(-5.14018249271037,-28.741569137569,9.97516231930178));
#1354=CARTESIAN_POINT('',(-2.99122731766186,-30.8903911467782,9.97168995652839));
#1355=CARTESIAN_POINT('',(-4.06570490518526,-29.815980142173,9.97342613791509));
#1356=CARTESIAN_POINT('',(0.,0.,10.));
#1357=CARTESIAN_POINT('',(-16.0198325730883,0.,10.));
#1358=CARTESIAN_POINT('',(0.,0.,9.96223182685289));
#1359=CARTESIAN_POINT('',(-36.0198006624876,0.,9.96223182685289));
#1360=CARTESIAN_POINT('',(-13.1003904672632,-15.2033458188124,9.99235363701699));
#1361=CARTESIAN_POINT('',(-13.5717945758702,-15.6748127748352,9.99109806771692));
#1362=CARTESIAN_POINT('',(-14.0431986756018,-16.1462797388241,9.98984215739658));
#1363=CARTESIAN_POINT('',(-14.5146027686658,-16.6177467087971,9.98858599089492));
#1364=CARTESIAN_POINT('',(-13.1003904672632,-15.2033458188124,9.99235363701699));
#1365=CARTESIAN_POINT('',(-14.5146027686658,-16.6177467087971,9.98858599089492));
#1366=CARTESIAN_POINT('',(-14.5146027686658,-16.6177467087971,9.98858599089492));
#1367=CARTESIAN_POINT('',(-15.2219527374451,-15.9103917128974,9.9887133232482));
#1368=CARTESIAN_POINT('',(-15.9293058963993,-15.2030398723417,9.98871216589513));
#1369=CARTESIAN_POINT('',(-16.6366622096984,-14.4956912213883,9.98858255065971));
#1370=CARTESIAN_POINT('',(-16.6366622096984,-14.4956912213883,9.98858255065971));
#1371=CARTESIAN_POINT('',(-16.6366622096984,-14.4956912213883,9.98858255065971));
#1372=CARTESIAN_POINT('',(-16.4009291400761,-14.2599887470717,9.9892105821259));
#1373=CARTESIAN_POINT('',(-16.1651960720159,-14.0242862710147,9.98983854672132));
#1374=CARTESIAN_POINT('',(-15.9294630057506,-13.7885837929578,9.99046643447459));
#1375=CARTESIAN_POINT('',(-15.6937299546771,-13.5528813300908,9.99109432218739));
#1376=CARTESIAN_POINT('',(-15.4579969053978,-13.3171788652246,9.99172213309077));
#1377=CARTESIAN_POINT('',(-15.2222638581942,-13.0814763980459,9.99234985513556));
#1378=CARTESIAN_POINT('',(-15.2222638581942,-13.0814763980459,9.99234985513556));
#1379=CARTESIAN_POINT('',(-15.2222638581942,-13.0814763980459,9.99234985513556));
#1380=CARTESIAN_POINT('',(-14.5149692481406,-13.7887627108526,9.99249232865448));
#1381=CARTESIAN_POINT('',(-13.8076781033668,-14.4960525315421,9.99249360337426));
#1382=CARTESIAN_POINT('',(-13.1003904672632,-15.2033458188124,9.99235363701699));
#1383=CARTESIAN_POINT('',(13.0625352205799,-15.2033201895351,9.99240029907425));
#1384=CARTESIAN_POINT('',(13.7698206982482,-14.4960264052611,9.99254296212774));
#1385=CARTESIAN_POINT('',(14.4771096884935,-13.7887360908476,9.99254423858031));
#1386=CARTESIAN_POINT('',(15.1844021499049,-13.0814492898017,9.99240408598502));
#1387=CARTESIAN_POINT('',(13.0625352205799,-15.2033201895351,9.99240029907425));
#1388=CARTESIAN_POINT('',(15.1844021499049,-13.0814492898017,9.99240408598502));
#1389=CARTESIAN_POINT('',(15.1844021499049,-13.0814492898017,9.99240408598502));
#1390=CARTESIAN_POINT('',(15.6558691055035,-13.5528533984403,9.99114852591411));
#1391=CARTESIAN_POINT('',(16.1273360691,-14.0242574981682,9.98989262346421));
#1392=CARTESIAN_POINT('',(16.5988030387021,-14.4956615912043,9.98863646390653));
#1393=CARTESIAN_POINT('',(16.5988030387021,-14.4956615912043,9.98863646390653));
#1394=CARTESIAN_POINT('',(16.5988030387021,-14.4956615912043,9.98863646390653));
#1395=CARTESIAN_POINT('',(15.8914488698524,-15.2030107253202,9.98876395039466));
#1396=CARTESIAN_POINT('',(15.1840978601457,-15.9103630534943,9.98876279161656));
#1397=CARTESIAN_POINT('',(14.4767500439223,-16.6177185398091,9.98863301951024));
#1398=CARTESIAN_POINT('',(14.4767500439223,-16.6177185398091,9.98863301951024));
#1399=CARTESIAN_POINT('',(14.4767500439223,-16.6177185398091,9.98863301951024));
#1400=CARTESIAN_POINT('',(14.241047569649,-16.3819854704076,9.98926104737902));
#1401=CARTESIAN_POINT('',(14.0053450936288,-16.1462524025739,9.98988900813298));
#1402=CARTESIAN_POINT('',(13.7696426156012,-15.910519336542,9.99051689175294));
#1403=CARTESIAN_POINT('',(13.5339401527058,-15.6747862856443,9.99114477533258));
#1404=CARTESIAN_POINT('',(13.2982376878038,-15.4390532365477,9.99177258181032));
#1405=CARTESIAN_POINT('',(13.0625352205799,-15.2033201895351,9.99240029907425));
#1406=CARTESIAN_POINT('',(15.1843788250552,13.0814763980435,9.99240408594339));
#1407=CARTESIAN_POINT('',(14.4770851025192,13.7887619379539,9.99254423853628));
#1408=CARTESIAN_POINT('',(13.7697948511431,14.4960509912382,9.99254296208143));
#1409=CARTESIAN_POINT('',(13.0625081123378,15.2033435143892,9.99240029902587));
#1410=CARTESIAN_POINT('',(15.1843788250552,13.0814763980435,9.99240408594339));
#1411=CARTESIAN_POINT('',(13.0625081123378,15.2033435143892,9.99240029902587));
#1412=CARTESIAN_POINT('',(13.0625081123378,15.2033435143892,9.99240029902587));
#1413=CARTESIAN_POINT('',(13.5339122212713,15.6748104640847,9.99114486445782));
#1414=CARTESIAN_POINT('',(14.0053163209726,16.1462774220666,9.98988907515844));
#1415=CARTESIAN_POINT('',(14.4767204137405,16.6177443862712,9.98863301946129));
#1416=CARTESIAN_POINT('',(14.4767204137405,16.6177443862712,9.98863301946129));
#1417=CARTESIAN_POINT('',(14.4767204137405,16.6177443862712,9.98863301946129));
#1418=CARTESIAN_POINT('',(15.1840694912109,15.9103901611906,9.9887627915695));
#1419=CARTESIAN_POINT('',(15.891421762159,15.2030390942563,9.98876395035053));
#1420=CARTESIAN_POINT('',(16.5987771922444,14.4956912213859,9.98863646386457));
#1421=CARTESIAN_POINT('',(16.5987771922444,14.4956912213859,9.98863646386457));
#1422=CARTESIAN_POINT('',(16.5987771922444,14.4956912213859,9.98863646386457));
#1423=CARTESIAN_POINT('',(16.3630441201551,14.2599887469892,9.98926454366359));
#1424=CARTESIAN_POINT('',(16.1273110495787,14.0242862709066,9.98989255868888));
#1425=CARTESIAN_POINT('',(15.8915779807414,13.7885837928865,9.99052049926715));
#1426=CARTESIAN_POINT('',(15.6558449270167,13.552881329977,9.99114843980517));
#1427=CARTESIAN_POINT('',(15.4201118750302,13.3171788651307,9.991776305928));
#1428=CARTESIAN_POINT('',(15.1843788250552,13.0814763980435,9.99240408594339));
#1429=CARTESIAN_POINT('',(-13.1004175755094,15.203322493963,9.99235363696867));
#1430=CARTESIAN_POINT('',(-13.807703950476,14.4960279455666,9.99249360332801));
#1431=CARTESIAN_POINT('',(-14.5149938341189,13.7887368637446,9.99249232861138));
#1432=CARTESIAN_POINT('',(-15.2222871830479,13.0814492897994,9.99234985509486));
#1433=CARTESIAN_POINT('',(-13.1004175755094,15.203322493963,9.99235363696867));
#1434=CARTESIAN_POINT('',(-15.2222871830479,13.0814492897994,9.99234985509486));
#1435=CARTESIAN_POINT('',(-15.2222871830479,13.0814492897994,9.99234985509486));
#1436=CARTESIAN_POINT('',(-15.6937541331829,13.5528533987001,9.99109441096471));
#1437=CARTESIAN_POINT('',(-16.1652210915715,14.0242574984053,9.98983861350982));
#1438=CARTESIAN_POINT('',(-16.6366880561603,14.495661591202,9.98858255061781));
#1439=CARTESIAN_POINT('',(-16.6366880561603,14.495661591202,9.98858255061781));
#1440=CARTESIAN_POINT('',(-16.6366880561603,14.495661591202,9.98858255061781));
#1441=CARTESIAN_POINT('',(-15.9293330040969,15.203011503404,9.98871216585105));
#1442=CARTESIAN_POINT('',(-15.2219811063841,15.9103646052027,9.98871332320206));
#1443=CARTESIAN_POINT('',(-14.5146323988518,16.6177208623396,9.98858599084688));
#1444=CARTESIAN_POINT('',(-14.5146323988518,16.6177208623396,9.98858599084688));
#1445=CARTESIAN_POINT('',(-14.5146323988518,16.6177208623396,9.98858599084688));
#1446=CARTESIAN_POINT('',(-14.2789299244124,16.3819877900361,9.98921407411788));
#1447=CARTESIAN_POINT('',(-14.0432274482933,16.1462547192402,9.98984209284989));
#1448=CARTESIAN_POINT('',(-13.807524970244,15.9105216501766,9.99047003741745));
#1449=CARTESIAN_POINT('',(-13.5718225073628,15.6747885962832,9.99109798194459));
#1450=CARTESIAN_POINT('',(-13.3361200425521,15.4390555441214,9.99172585233889));
#1451=CARTESIAN_POINT('',(-13.1004175755094,15.203322493963,9.99235363696867));
#1452=CARTESIAN_POINT('',(0.,0.,9.96223182685289));
#1453=CARTESIAN_POINT('',(0.,0.,10.));
#1454=CARTESIAN_POINT('',(0.00277548435278125,-25.75,8.53025460691952));
#1455=CARTESIAN_POINT('',(-5.74721426314106,-25.75,8.51939625917567));
#1456=CARTESIAN_POINT('',(0.00277548435278125,-25.75,8.53025460691952));
#1457=CARTESIAN_POINT('',(-5.71281021371009E-5,-25.75,10.0302519323527));
#1458=CARTESIAN_POINT('',(-25.7471786022501,0.,8.48162809311005));
#1459=CARTESIAN_POINT('',(-31.497168349744,0.,8.47076974536636));
#1460=CARTESIAN_POINT('',(-25.7471786022501,0.,8.48162809311005));
#1461=CARTESIAN_POINT('',(-25.750011214705,0.,9.98162541854323));
#1462=CARTESIAN_POINT('',(0.00277548435290763,25.75,8.53025460691952));
#1463=CARTESIAN_POINT('',(-5.74721426314093,25.75,8.51939625917567));
#1464=CARTESIAN_POINT('',(0.00277548435290763,25.75,8.53025460691952));
#1465=CARTESIAN_POINT('',(-5.71281020107228E-5,25.75,10.0302519323527));
#1466=CARTESIAN_POINT('',(25.7527295709556,-4.42437207479651E-17,8.57888112072892));
#1467=CARTESIAN_POINT('',(20.0027398234618,-4.42437207479651E-17,8.56802277298507));
#1468=CARTESIAN_POINT('',(25.7527295709556,-4.42437207479651E-17,8.57888112072892));
#1469=CARTESIAN_POINT('',(25.7498969585007,-4.42437207479651E-17,10.0788784461621));
#1470=CARTESIAN_POINT('',(-14.5146027723904,-16.6135689106862,10.0731817606228));
#1471=CARTESIAN_POINT('',(-14.5146031019246,-16.2439383969557,17.5577889613373));
#1472=CARTESIAN_POINT('',(-13.1003904677544,-15.2027948499073,10.0035101451555));
#1473=CARTESIAN_POINT('',(-13.1003906218533,-15.0299458595243,13.5035101451555));
#1474=CARTESIAN_POINT('',(-13.7938905230042,-15.7365477502515,13.2382346891944));
#1475=CARTESIAN_POINT('',(-12.0496559932504,-13.9593601622644,13.9054339338022));
#1476=CARTESIAN_POINT('',(-11.8599830828512,-13.9593599931666,10.0647682468001));
#1477=CARTESIAN_POINT('',(-12.1237341319859,-13.9593602283068,15.4054339338022));
#1478=CARTESIAN_POINT('',(-10.6410101316387,-12.5951158338743,13.0063021641249));
#1479=CARTESIAN_POINT('',(-13.4539438757482,-15.1832772795732,17.5577889613373));
#1480=CARTESIAN_POINT('',(-13.2869262721193,-15.016259378144,17.5577889613373));
#1481=CARTESIAN_POINT('',(-13.1003904677544,-15.2027948499073,10.0035101451555));
#1482=CARTESIAN_POINT('',(-16.6324842416901,-14.4956912176635,10.0731817606228));
#1483=CARTESIAN_POINT('',(-16.2628537279595,-14.4956908881294,17.5577889613373));
#1484=CARTESIAN_POINT('',(-15.0351768981543,-13.2680118693178,17.5577889613373));
#1485=CARTESIAN_POINT('',(-15.2021945017832,-13.435029770747,17.5577889613373));
#1486=CARTESIAN_POINT('',(-12.614038071679,-10.6220914118307,13.0063021641249));
#1487=CARTESIAN_POINT('',(-13.978279822344,-12.1048178446863,15.4054339338022));
#1488=CARTESIAN_POINT('',(-13.9782800574841,-11.8410667955516,10.0647682468001));
#1489=CARTESIAN_POINT('',(-13.9782798883863,-12.0307397059507,13.9054339338022));
#1490=CARTESIAN_POINT('',(-15.75546436632,-13.7749774045093,13.2382346891944));
#1491=CARTESIAN_POINT('',(-15.0488637121362,-13.0814762434557,13.5035101451555));
#1492=CARTESIAN_POINT('',(-15.2217127025192,-13.0814763975545,10.0035101451555));
#1493=CARTESIAN_POINT('',(-15.2217127025192,-13.0814763975545,10.0035101451555));
#1494=CARTESIAN_POINT('',(-14.3280672975596,-16.4304738687189,17.5577889613373));
#1495=CARTESIAN_POINT('',(-14.5146027693229,-16.6170096730838,10.0035101451555));
#1496=CARTESIAN_POINT('',(-13.2674080713833,-15.3698127513365,17.5577889613373));
#1497=CARTESIAN_POINT('',(-14.3280672975596,-16.4304738687189,17.5577889613373));
#1498=CARTESIAN_POINT('',(-11.9903458597825,-14.0927482626729,15.4054339338022));
#1499=CARTESIAN_POINT('',(-13.2674080713833,-15.3698127513365,17.5577889613373));
#1500=CARTESIAN_POINT('',(-11.9533068234359,-14.0557091602839,13.9054339338022));
#1501=CARTESIAN_POINT('',(-11.9903458597825,-14.0927482626729,15.4054339338022));
#1502=CARTESIAN_POINT('',(-13.0139660496123,-15.1163702776664,13.5035101451555));
#1503=CARTESIAN_POINT('',(-11.9533068234359,-14.0557091602839,13.9054339338022));
#1504=CARTESIAN_POINT('',(-13.0139660496123,-15.1163702776664,13.5035101451555));
#1505=CARTESIAN_POINT('',(16.4115326912552,-14.3091261200959,17.5577889613373));
#1506=CARTESIAN_POINT('',(16.2249972194919,-14.4956619244609,17.5577889613373));
#1507=CARTESIAN_POINT('',(14.4767497106657,-16.2439125504958,17.5577889613373));
#1508=CARTESIAN_POINT('',(14.4767500401998,-16.6135430642263,10.0731817606228));
#1509=CARTESIAN_POINT('',(16.5946277332224,-14.4956615949267,10.0731817606228));
#1510=CARTESIAN_POINT('',(16.5980684956201,-14.4956615918592,10.0035101451555));
#1511=CARTESIAN_POINT('',(13.249070691854,-15.0162357206906,17.5577889613373));
#1512=CARTESIAN_POINT('',(13.4160885932833,-15.1832533243194,17.5577889613373));
#1513=CARTESIAN_POINT('',(14.9973182006803,-13.2679850946556,17.5577889613373));
#1514=CARTESIAN_POINT('',(15.1643361021095,-13.4350026982845,17.5577889613373));
#1515=CARTESIAN_POINT('',(15.3508715738728,-13.2484668939195,17.5577889613373));
#1516=CARTESIAN_POINT('',(16.4115326912552,-14.3091261200959,17.5577889613373));
#1517=CARTESIAN_POINT('',(10.603150234367,-12.5950968942153,13.0063021641249));
#1518=CARTESIAN_POINT('',(12.0858766672226,-13.9593386448802,15.4054339338022));
#1519=CARTESIAN_POINT('',(12.5761746564106,-10.622068954175,13.0063021641249));
#1520=CARTESIAN_POINT('',(13.940419050843,-12.1047929545222,15.4054339338022));
#1521=CARTESIAN_POINT('',(14.0738070852092,-11.9714046823188,15.4054339338022));
#1522=CARTESIAN_POINT('',(15.3508715738728,-13.2484668939195,17.5577889613373));
#1523=CARTESIAN_POINT('',(11.8221256180879,-13.9593388800204,10.0647682468001));
#1524=CARTESIAN_POINT('',(12.011798528487,-13.9593387109226,13.9054339338022));
#1525=CARTESIAN_POINT('',(13.9404188157029,-11.8410419053875,10.0647682468001));
#1526=CARTESIAN_POINT('',(13.9404189848006,-12.0307148157866,13.9054339338022));
#1527=CARTESIAN_POINT('',(14.0367679828202,-11.9343656459722,13.9054339338022));
#1528=CARTESIAN_POINT('',(14.0738070852092,-11.9714046823188,15.4054339338022));
#1529=CARTESIAN_POINT('',(13.7560362270456,-15.7365231888563,13.2382346891944));
#1530=CARTESIAN_POINT('',(13.0625350659919,-15.0299225346725,13.5035101451555));
#1531=CARTESIAN_POINT('',(15.7176065727878,-13.7749493455405,13.2382346891944));
#1532=CARTESIAN_POINT('',(15.0110046820605,-13.0814494443895,13.5035101451555));
#1533=CARTESIAN_POINT('',(15.0974291002026,-12.9950248721486,13.5035101451555));
#1534=CARTESIAN_POINT('',(14.0367679828202,-11.9343656459722,13.9054339338022));
#1535=CARTESIAN_POINT('',(13.0625352200908,-15.2027715250555,10.0035101451555));
#1536=CARTESIAN_POINT('',(15.1838536724435,-13.0814492902907,10.0035101451555));
#1537=CARTESIAN_POINT('',(15.0974291002026,-12.9950248721486,13.5035101451555));
#1538=CARTESIAN_POINT('',(15.1838536724436,-13.0814492902907,10.0035101451555));
#1539=CARTESIAN_POINT('',(13.0625352200908,-15.2027715250555,10.0035101451555));
#1540=CARTESIAN_POINT('',(14.2901849426322,16.4304738687189,17.5577889613373));
#1541=CARTESIAN_POINT('',(14.4767207469972,16.2439383969556,17.5577889613373));
#1542=CARTESIAN_POINT('',(16.2249713730321,14.4956908881294,17.5577889613373));
#1543=CARTESIAN_POINT('',(16.5946018867626,14.4956912176635,10.0731817606228));
#1544=CARTESIAN_POINT('',(14.476720417463,16.6135689106861,10.0731817606228));
#1545=CARTESIAN_POINT('',(14.4767204143955,16.6170096730838,10.0035101451555));
#1546=CARTESIAN_POINT('',(14.9972945432269,13.2680118693177,17.5577889613373));
#1547=CARTESIAN_POINT('',(15.1643121468557,13.435029770747,17.5577889613373));
#1548=CARTESIAN_POINT('',(13.2490439171919,15.016259378144,17.5577889613373));
#1549=CARTESIAN_POINT('',(13.4160615208208,15.1832772795732,17.5577889613373));
#1550=CARTESIAN_POINT('',(13.2295257164558,15.3698127513365,17.5577889613373));
#1551=CARTESIAN_POINT('',(14.2901849426322,16.4304738687189,17.5577889613373));
#1552=CARTESIAN_POINT('',(12.5761557167516,10.6220914118307,13.0063021641249));
#1553=CARTESIAN_POINT('',(13.9403974674165,12.1048178446863,15.4054339338022));
#1554=CARTESIAN_POINT('',(10.6031277767113,12.5951158338743,13.0063021641249));
#1555=CARTESIAN_POINT('',(12.0858517770585,13.9593602283067,15.4054339338022));
#1556=CARTESIAN_POINT('',(11.9524635048551,14.0927482626729,15.4054339338022));
#1557=CARTESIAN_POINT('',(13.2295257164558,15.3698127513365,17.5577889613373));
#1558=CARTESIAN_POINT('',(13.9403977025567,11.8410667955516,10.0647682468001));
#1559=CARTESIAN_POINT('',(13.9403975334589,12.0307397059507,13.9054339338022));
#1560=CARTESIAN_POINT('',(11.8221007279238,13.9593599931666,10.0647682468001));
#1561=CARTESIAN_POINT('',(12.0117736383229,13.9593601622643,13.9054339338022));
#1562=CARTESIAN_POINT('',(11.9154244685085,14.0557091602839,13.9054339338022));
#1563=CARTESIAN_POINT('',(11.9524635048551,14.0927482626729,15.4054339338022));
#1564=CARTESIAN_POINT('',(15.7175820113926,13.7749774045093,13.2382346891944));
#1565=CARTESIAN_POINT('',(15.0109813572088,13.0814762434556,13.5035101451555));
#1566=CARTESIAN_POINT('',(13.7560081680768,15.7365477502515,13.2382346891944));
#1567=CARTESIAN_POINT('',(13.0625082669258,15.0299458595243,13.5035101451555));
#1568=CARTESIAN_POINT('',(12.9760836946849,15.1163702776663,13.5035101451555));
#1569=CARTESIAN_POINT('',(11.9154244685085,14.0557091602839,13.9054339338022));
#1570=CARTESIAN_POINT('',(15.1838303475918,13.0814763975545,10.0035101451555));
#1571=CARTESIAN_POINT('',(13.062508112827,15.2027948499073,10.0035101451555));
#1572=CARTESIAN_POINT('',(12.9760836946849,15.1163702776663,13.5035101451555));
#1573=CARTESIAN_POINT('',(13.062508112827,15.2027948499073,10.0035101451555));
#1574=CARTESIAN_POINT('',(15.1838303475918,13.0814763975545,10.0035101451555));
#1575=CARTESIAN_POINT('',(-16.4494150461826,14.309126120096,17.5577889613373));
#1576=CARTESIAN_POINT('',(-16.2628795744193,14.4956619244609,17.5577889613373));
#1577=CARTESIAN_POINT('',(-14.5146320655931,16.2439125504959,17.5577889613373));
#1578=CARTESIAN_POINT('',(-14.5146323951272,16.6135430642264,10.0731817606228));
#1579=CARTESIAN_POINT('',(-16.6325100881498,14.4956615949268,10.0731817606228));
#1580=CARTESIAN_POINT('',(-16.6359508505475,14.4956615918592,10.0035101451555));
#1581=CARTESIAN_POINT('',(-13.2869530467814,15.0162357206906,17.5577889613373));
#1582=CARTESIAN_POINT('',(-13.4539709482107,15.1832533243195,17.5577889613373));
#1583=CARTESIAN_POINT('',(-15.0352005556077,13.2679850946556,17.5577889613373));
#1584=CARTESIAN_POINT('',(-15.2022184570369,13.4350026982845,17.5577889613373));
#1585=CARTESIAN_POINT('',(-15.3887539288002,13.2484668939196,17.5577889613373));
#1586=CARTESIAN_POINT('',(-16.4494150461826,14.309126120096,17.5577889613373));
#1587=CARTESIAN_POINT('',(-10.6410325892944,12.5950968942153,13.0063021641249));
#1588=CARTESIAN_POINT('',(-12.12375902215,13.9593386448803,15.4054339338022));
#1589=CARTESIAN_POINT('',(-12.614057011338,10.622068954175,13.0063021641249));
#1590=CARTESIAN_POINT('',(-13.9783014057704,12.1047929545222,15.4054339338022));
#1591=CARTESIAN_POINT('',(-14.1116894401366,11.9714046823189,15.4054339338022));
#1592=CARTESIAN_POINT('',(-15.3887539288002,13.2484668939196,17.5577889613373));
#1593=CARTESIAN_POINT('',(-11.8600079730153,13.9593388800204,10.0647682468001));
#1594=CARTESIAN_POINT('',(-12.0496808834144,13.9593387109226,13.9054339338022));
#1595=CARTESIAN_POINT('',(-13.9783011706303,11.8410419053876,10.0647682468001));
#1596=CARTESIAN_POINT('',(-13.9783013397281,12.0307148157867,13.9054339338022));
#1597=CARTESIAN_POINT('',(-14.0746503377476,11.9343656459722,13.9054339338022));
#1598=CARTESIAN_POINT('',(-14.1116894401366,11.9714046823189,15.4054339338022));
#1599=CARTESIAN_POINT('',(-13.793918581973,15.7365231888563,13.2382346891944));
#1600=CARTESIAN_POINT('',(-13.1004174209193,15.0299225346725,13.5035101451555));
#1601=CARTESIAN_POINT('',(-15.7554889277152,13.7749493455406,13.2382346891944));
#1602=CARTESIAN_POINT('',(-15.048887036988,13.0814494443896,13.5035101451555));
#1603=CARTESIAN_POINT('',(-15.13531145513,12.9950248721486,13.5035101451555));
#1604=CARTESIAN_POINT('',(-14.0746503377476,11.9343656459722,13.9054339338022));
#1605=CARTESIAN_POINT('',(-13.1004175750182,15.2027715250555,10.0035101451555));
#1606=CARTESIAN_POINT('',(-15.221736027371,13.0814492902907,10.0035101451555));
#1607=CARTESIAN_POINT('',(-15.13531145513,12.9950248721486,13.5035101451555));
#1608=CARTESIAN_POINT('',(-15.221736027371,13.0814492902907,10.0035101451555));
#1609=CARTESIAN_POINT('',(-13.1004175750182,15.2027715250555,10.0035101451555));
#1610=CARTESIAN_POINT('',(0.,0.,9.98858255061782));
#1611=CARTESIAN_POINT('',(-22.0658921062493,0.,9.98858255061782));
#1612=CARTESIAN_POINT('',(0.,0.,9.99234985509486));
#1613=CARTESIAN_POINT('',(-20.0709327786423,0.,9.99234985509486));
#1614=CARTESIAN_POINT('',(-15.2222871830479,13.0814492897994,9.99234985509486));
#1615=CARTESIAN_POINT('',(0.,0.,0.));
#1616=CARTESIAN_POINT('',(0.,0.,9.98858599084688));
#1617=CARTESIAN_POINT('',(-22.064070348248,0.,9.98858599084688));
#1618=CARTESIAN_POINT('',(-16.6366880561603,14.495661591202,9.98858255061782));
#1619=CARTESIAN_POINT('',(-15.9293330040969,15.203011503404,9.98871216585105));
#1620=CARTESIAN_POINT('',(-15.2219811063841,15.9103646052027,9.98871332320206));
#1621=CARTESIAN_POINT('',(-14.5146323988518,16.6177208623396,9.98858599084688));
#1622=CARTESIAN_POINT('',(0.,0.,0.));
#1623=CARTESIAN_POINT('',(0.,0.,9.99235363696867));
#1624=CARTESIAN_POINT('',(-20.068930103724,0.,9.99235363696867));
#1625=CARTESIAN_POINT('',(-14.5146323988518,16.6177208623396,9.98858599084688));
#1626=CARTESIAN_POINT('',(0.,0.,0.));
#1627=CARTESIAN_POINT('',(-13.1004175755094,15.203322493963,9.99235363696867));
#1628=CARTESIAN_POINT('',(-13.807703950476,14.4960279455666,9.99249360332801));
#1629=CARTESIAN_POINT('',(-14.5149938341189,13.7887368637446,9.99249232861051));
#1630=CARTESIAN_POINT('',(-15.2222871830479,13.0814492897994,9.99234985509399));
#1631=CARTESIAN_POINT('',(0.,0.,0.));
#1632=CARTESIAN_POINT('',(0.,0.,9.99234985513556));
#1633=CARTESIAN_POINT('',(-20.0709327566288,0.,9.99234985513556));
#1634=CARTESIAN_POINT('',(0.,0.,9.98858255065971));
#1635=CARTESIAN_POINT('',(-22.0658920840614,0.,9.98858255065971));
#1636=CARTESIAN_POINT('',(-16.6366622096984,-14.4956912213883,9.98858255065971));
#1637=CARTESIAN_POINT('',(0.,0.,0.));
#1638=CARTESIAN_POINT('',(0.,0.,9.99235363701699));
#1639=CARTESIAN_POINT('',(-20.0689300781372,0.,9.99235363701699));
#1640=CARTESIAN_POINT('',(-15.2222638581942,-13.0814763980459,9.99234985513556));
#1641=CARTESIAN_POINT('',(-14.5149692481406,-13.7887627108526,9.99249232865448));
#1642=CARTESIAN_POINT('',(-13.8076781033668,-14.4960525315421,9.99249360337426));
#1643=CARTESIAN_POINT('',(-13.1003904672632,-15.2033458188124,9.99235363701699));
#1644=CARTESIAN_POINT('',(0.,0.,0.));
#1645=CARTESIAN_POINT('',(0.,0.,9.98858599089492));
#1646=CARTESIAN_POINT('',(-22.0640703228098,0.,9.98858599089492));
#1647=CARTESIAN_POINT('',(-13.1003904672632,-15.2033458188124,9.99235363701699));
#1648=CARTESIAN_POINT('',(0.,0.,0.));
#1649=CARTESIAN_POINT('',(-14.5146027686658,-16.6177467087971,9.98858599089492));
#1650=CARTESIAN_POINT('',(-15.2219527374451,-15.9103917128974,9.9887133232482));
#1651=CARTESIAN_POINT('',(-15.9293058963993,-15.2030398723417,9.98871216589513));
#1652=CARTESIAN_POINT('',(-16.6366622096984,-14.4956912213883,9.98858255065971));
#1653=CARTESIAN_POINT('',(0.,0.,0.));
#1654=CARTESIAN_POINT('',(0.,0.,9.98863301946129));
#1655=CARTESIAN_POINT('',(-22.039166554683,0.,9.98863301946129));
#1656=CARTESIAN_POINT('',(0.,0.,9.99240029902587));
#1657=CARTESIAN_POINT('',(-20.0442204188991,0.,9.99240029902587));
#1658=CARTESIAN_POINT('',(13.0625081123378,15.2033435143892,9.99240029902587));
#1659=CARTESIAN_POINT('',(0.,0.,0.));
#1660=CARTESIAN_POINT('',(0.,0.,9.98863646386457));
#1661=CARTESIAN_POINT('',(-22.0373425862452,0.,9.98863646386457));
#1662=CARTESIAN_POINT('',(14.4767204137405,16.6177443862712,9.98863301946129));
#1663=CARTESIAN_POINT('',(15.1840694912109,15.9103901611906,9.9887627915695));
#1664=CARTESIAN_POINT('',(15.891421762159,15.2030390942563,9.98876395035053));
#1665=CARTESIAN_POINT('',(16.5987771922444,14.4956912213859,9.98863646386457));
#1666=CARTESIAN_POINT('',(0.,0.,0.));
#1667=CARTESIAN_POINT('',(0.,0.,9.99240408594339));
#1668=CARTESIAN_POINT('',(-20.0422150735729,0.,9.99240408594339));
#1669=CARTESIAN_POINT('',(16.5987771922444,14.4956912213859,9.98863646386457));
#1670=CARTESIAN_POINT('',(0.,0.,0.));
#1671=CARTESIAN_POINT('',(15.1843788250552,13.0814763980435,9.99240408594339));
#1672=CARTESIAN_POINT('',(14.4770851025192,13.7887619379539,9.99254423853628));
#1673=CARTESIAN_POINT('',(13.7697948511431,14.4960509912382,9.99254296208143));
#1674=CARTESIAN_POINT('',(13.0625081123378,15.2033435143892,9.99240029902587));
#1675=CARTESIAN_POINT('',(0.,0.,0.));
#1676=CARTESIAN_POINT('',(0.,0.,9.99240029907425));
#1677=CARTESIAN_POINT('',(-20.0442203932808,0.,9.99240029907425));
#1678=CARTESIAN_POINT('',(0.,0.,9.98863301950938));
#1679=CARTESIAN_POINT('',(-22.0391665292161,0.,9.98863301950938));
#1680=CARTESIAN_POINT('',(14.4767500439223,-16.6177185398091,9.98863301950938));
#1681=CARTESIAN_POINT('',(0.,0.,0.));
#1682=CARTESIAN_POINT('',(0.,0.,9.99240408598502));
#1683=CARTESIAN_POINT('',(-20.0422150515278,0.,9.99240408598502));
#1684=CARTESIAN_POINT('',(13.0625352205799,-15.2033201895351,9.99240029907425));
#1685=CARTESIAN_POINT('',(13.7698206982482,-14.4960264052611,9.99254296212774));
#1686=CARTESIAN_POINT('',(14.4771096884935,-13.7887360908476,9.99254423858032));
#1687=CARTESIAN_POINT('',(15.1844021499049,-13.0814492898017,9.99240408598502));
#1688=CARTESIAN_POINT('',(0.,0.,0.));
#1689=CARTESIAN_POINT('',(0.,0.,9.98863646390653));
#1690=CARTESIAN_POINT('',(-22.0373425640285,0.,9.98863646390653));
#1691=CARTESIAN_POINT('',(15.1844021499049,-13.0814492898017,9.99240408598502));
#1692=CARTESIAN_POINT('',(0.,0.,0.));
#1693=CARTESIAN_POINT('',(16.5988030387021,-14.4956615912043,9.98863646390653));
#1694=CARTESIAN_POINT('',(15.8914488698524,-15.2030107253202,9.98876395039466));
#1695=CARTESIAN_POINT('',(15.1840978601457,-15.9103630534943,9.9887627916157));
#1696=CARTESIAN_POINT('',(14.4767500439223,-16.6177185398091,9.98863301950938));
#1697=CARTESIAN_POINT('',(0.,0.,0.));
#1698=(
GEOMETRIC_REPRESENTATION_CONTEXT(3)
GLOBAL_UNCERTAINTY_ASSIGNED_CONTEXT((#1699))
GLOBAL_UNIT_ASSIGNED_CONTEXT((#1705,#1701,#1700))
REPRESENTATION_CONTEXT('float','TOP_LEVEL_ASSEMBLY_PART')
);
#1699=UNCERTAINTY_MEASURE_WITH_UNIT(LENGTH_MEASURE(0.0508),#1705,
'DISTANCE_ACCURACY_VALUE','Maximum Tolerance applied to model');
#1700=(
NAMED_UNIT(*)
SI_UNIT($,.STERADIAN.)
SOLID_ANGLE_UNIT()
);
#1701=(
CONVERSION_BASED_UNIT('DEGREE',#1703)
NAMED_UNIT(#1702)
PLANE_ANGLE_UNIT()
);
#1702=DIMENSIONAL_EXPONENTS(0.,0.,0.,0.,0.,0.,0.);
#1703=PLANE_ANGLE_MEASURE_WITH_UNIT(PLANE_ANGLE_MEASURE(0.0174532925),#1704);
#1704=(
NAMED_UNIT(*)
PLANE_ANGLE_UNIT()
SI_UNIT($,.RADIAN.)
);
#1705=(
LENGTH_UNIT()
NAMED_UNIT(*)
SI_UNIT(.MILLI.,.METRE.)
);
ENDSEC;
END-ISO-10303-21;
