ISO-10303-21;
HEADER;
/* Generated by software containing ST-Developer
 * from STEP Tools, Inc. (www.steptools.com) 
 */
/* OPTION: using custom schema-name function */

FILE_DESCRIPTION(
/* description */ (''),
/* implementation_level */ '2;1');

FILE_NAME(
/* name */ 'floatWithGroove.stp',
/* time_stamp */ '2025-07-09T14:26:55+03:00',
/* author */ (''),
/* organization */ (''),
/* preprocessor_version */ 'ST-DEVELOPER v19.4',
/* originating_system */ 'SIEMENS PLM Software NX2306.4000',
/* authorisation */ '');

FILE_SCHEMA (('AUTOMOTIVE_DESIGN { 1 0 10303 214 3 1 1 1 }'));
ENDSEC;

DATA;
#10=SHAPE_REPRESENTATION_RELATIONSHIP('None',
'relationship between float-None and float-None',#22,#11);
#11=ADVANCED_BREP_SHAPE_REPRESENTATION('float-None',(#32),#792);
#12=SHAPE_DEFINITION_REPRESENTATION(#13,#22);
#13=PRODUCT_DEFINITION_SHAPE('','',#14);
#14=PRODUCT_DEFINITION(' ','',#16,#15);
#15=PRODUCT_DEFINITION_CONTEXT('part definition',#21,'design');
#16=PRODUCT_DEFINITION_FORMATION_WITH_SPECIFIED_SOURCE(' ',' ',#18,
 .NOT_KNOWN.);
#17=PRODUCT_RELATED_PRODUCT_CATEGORY('part','',(#18));
#18=PRODUCT('float','float',' ',(#19));
#19=PRODUCT_CONTEXT(' ',#21,'mechanical');
#20=APPLICATION_PROTOCOL_DEFINITION('international standard',
'automotive_design',2010,#21);
#21=APPLICATION_CONTEXT(
'core data for automotive mechanical design processes');
#22=SHAPE_REPRESENTATION('float-None',(#325),#792);
#23=PRESENTATION_LAYER_ASSIGNMENT('1','Layer 1',(#32));
#24=STYLED_ITEM('',(#25),#32);
#25=PRESENTATION_STYLE_ASSIGNMENT((#26));
#26=SURFACE_STYLE_USAGE(.BOTH.,#27);
#27=SURFACE_SIDE_STYLE('',(#28));
#28=SURFACE_STYLE_FILL_AREA(#29);
#29=FILL_AREA_STYLE('',(#30));
#30=FILL_AREA_STYLE_COLOUR('',#31);
#31=COLOUR_RGB('medium steel',0.611764705882353,0.658823529411765,0.670588235294118);
#32=MANIFOLD_SOLID_BREP('',#33);
#33=CLOSED_SHELL('',(#68,#69,#70,#71,#72,#73,#74,#75,#76,#77,#78,#79,#80,
#81,#82,#83,#84,#85,#86,#87,#88,#89,#90,#91,#92,#93));
#34=FACE_OUTER_BOUND('',#176,.T.);
#35=FACE_OUTER_BOUND('',#179,.T.);
#36=FACE_OUTER_BOUND('',#182,.T.);
#37=FACE_OUTER_BOUND('',#185,.T.);
#38=FACE_OUTER_BOUND('',#188,.T.);
#39=FACE_OUTER_BOUND('',#191,.T.);
#40=FACE_OUTER_BOUND('',#194,.T.);
#41=FACE_OUTER_BOUND('',#197,.T.);
#42=FACE_OUTER_BOUND('',#200,.T.);
#43=FACE_OUTER_BOUND('',#203,.T.);
#44=PLANE('',#335);
#45=PLANE('',#338);
#46=PLANE('',#341);
#47=PLANE('',#344);
#48=PLANE('',#347);
#49=PLANE('',#350);
#50=PLANE('',#353);
#51=PLANE('',#356);
#52=PLANE('',#359);
#53=PLANE('',#362);
#54=PLANE('',#365);
#55=CYLINDRICAL_SURFACE('',#332,35.);
#56=CYLINDRICAL_SURFACE('',#334,33.);
#57=CYLINDRICAL_SURFACE('',#337,5.75);
#58=CYLINDRICAL_SURFACE('',#340,5.75);
#59=CYLINDRICAL_SURFACE('',#343,5.75);
#60=CYLINDRICAL_SURFACE('',#346,5.75);
#61=CYLINDRICAL_SURFACE('',#349,5.75);
#62=CYLINDRICAL_SURFACE('',#352,5.75);
#63=CYLINDRICAL_SURFACE('',#355,5.75);
#64=CYLINDRICAL_SURFACE('',#358,5.75);
#65=CYLINDRICAL_SURFACE('',#361,5.75);
#66=CYLINDRICAL_SURFACE('',#364,5.75);
#67=TOROIDAL_SURFACE('',#329,28.,11.5);
#68=ADVANCED_FACE('',(#110,#111,#112,#113,#114,#115,#116,#117,#118,#119,
#120,#121),#94,.T.);
#69=ADVANCED_FACE('',(#122,#123),#67,.T.);
#70=ADVANCED_FACE('',(#124,#125),#95,.T.);
#71=ADVANCED_FACE('',(#126,#127),#55,.F.);
#72=ADVANCED_FACE('',(#128,#129),#56,.T.);
#73=ADVANCED_FACE('',(#130,#131),#44,.T.);
#74=ADVANCED_FACE('',(#132,#133),#57,.F.);
#75=ADVANCED_FACE('',(#34),#45,.T.);
#76=ADVANCED_FACE('',(#134,#135),#58,.F.);
#77=ADVANCED_FACE('',(#35),#46,.T.);
#78=ADVANCED_FACE('',(#136,#137),#59,.F.);
#79=ADVANCED_FACE('',(#36),#47,.T.);
#80=ADVANCED_FACE('',(#138,#139),#60,.F.);
#81=ADVANCED_FACE('',(#37),#48,.T.);
#82=ADVANCED_FACE('',(#140,#141),#61,.F.);
#83=ADVANCED_FACE('',(#38),#49,.T.);
#84=ADVANCED_FACE('',(#142,#143),#62,.F.);
#85=ADVANCED_FACE('',(#39),#50,.T.);
#86=ADVANCED_FACE('',(#144,#145),#63,.F.);
#87=ADVANCED_FACE('',(#40),#51,.T.);
#88=ADVANCED_FACE('',(#146,#147),#64,.F.);
#89=ADVANCED_FACE('',(#41),#52,.T.);
#90=ADVANCED_FACE('',(#148,#149),#65,.F.);
#91=ADVANCED_FACE('',(#42),#53,.T.);
#92=ADVANCED_FACE('',(#150,#151),#66,.F.);
#93=ADVANCED_FACE('',(#43),#54,.T.);
#94=CONICAL_SURFACE('',#327,39.4999094976378,89.8863448926408);
#95=CONICAL_SURFACE('',#330,39.4999094976378,89.8863448926408);
#96=CIRCLE('',#326,16.5);
#97=CIRCLE('',#328,39.4999094976378);
#98=CIRCLE('',#331,35.);
#99=CIRCLE('',#333,33.);
#100=CIRCLE('',#336,5.75);
#101=CIRCLE('',#339,5.75);
#102=CIRCLE('',#342,5.75);
#103=CIRCLE('',#345,5.75);
#104=CIRCLE('',#348,5.75);
#105=CIRCLE('',#351,5.75);
#106=CIRCLE('',#354,5.75);
#107=CIRCLE('',#357,5.75);
#108=CIRCLE('',#360,5.75);
#109=CIRCLE('',#363,5.75);
#110=FACE_BOUND('',#152,.T.);
#111=FACE_BOUND('',#153,.T.);
#112=FACE_BOUND('',#154,.T.);
#113=FACE_BOUND('',#155,.T.);
#114=FACE_BOUND('',#156,.T.);
#115=FACE_BOUND('',#157,.T.);
#116=FACE_BOUND('',#158,.T.);
#117=FACE_BOUND('',#159,.T.);
#118=FACE_BOUND('',#160,.T.);
#119=FACE_BOUND('',#161,.T.);
#120=FACE_BOUND('',#162,.T.);
#121=FACE_BOUND('',#163,.T.);
#122=FACE_BOUND('',#164,.T.);
#123=FACE_BOUND('',#165,.T.);
#124=FACE_BOUND('',#166,.T.);
#125=FACE_BOUND('',#167,.T.);
#126=FACE_BOUND('',#168,.T.);
#127=FACE_BOUND('',#169,.T.);
#128=FACE_BOUND('',#170,.T.);
#129=FACE_BOUND('',#171,.T.);
#130=FACE_BOUND('',#172,.T.);
#131=FACE_BOUND('',#173,.T.);
#132=FACE_BOUND('',#174,.T.);
#133=FACE_BOUND('',#175,.T.);
#134=FACE_BOUND('',#177,.T.);
#135=FACE_BOUND('',#178,.T.);
#136=FACE_BOUND('',#180,.T.);
#137=FACE_BOUND('',#181,.T.);
#138=FACE_BOUND('',#183,.T.);
#139=FACE_BOUND('',#184,.T.);
#140=FACE_BOUND('',#186,.T.);
#141=FACE_BOUND('',#187,.T.);
#142=FACE_BOUND('',#189,.T.);
#143=FACE_BOUND('',#190,.T.);
#144=FACE_BOUND('',#192,.T.);
#145=FACE_BOUND('',#193,.T.);
#146=FACE_BOUND('',#195,.T.);
#147=FACE_BOUND('',#196,.T.);
#148=FACE_BOUND('',#198,.T.);
#149=FACE_BOUND('',#199,.T.);
#150=FACE_BOUND('',#201,.T.);
#151=FACE_BOUND('',#202,.T.);
#152=EDGE_LOOP('',(#204));
#153=EDGE_LOOP('',(#205));
#154=EDGE_LOOP('',(#206));
#155=EDGE_LOOP('',(#207));
#156=EDGE_LOOP('',(#208));
#157=EDGE_LOOP('',(#209));
#158=EDGE_LOOP('',(#210));
#159=EDGE_LOOP('',(#211));
#160=EDGE_LOOP('',(#212));
#161=EDGE_LOOP('',(#213,#214));
#162=EDGE_LOOP('',(#215));
#163=EDGE_LOOP('',(#216));
#164=EDGE_LOOP('',(#217));
#165=EDGE_LOOP('',(#218));
#166=EDGE_LOOP('',(#219));
#167=EDGE_LOOP('',(#220));
#168=EDGE_LOOP('',(#221));
#169=EDGE_LOOP('',(#222));
#170=EDGE_LOOP('',(#223));
#171=EDGE_LOOP('',(#224));
#172=EDGE_LOOP('',(#225));
#173=EDGE_LOOP('',(#226));
#174=EDGE_LOOP('',(#227));
#175=EDGE_LOOP('',(#228,#229));
#176=EDGE_LOOP('',(#230));
#177=EDGE_LOOP('',(#231));
#178=EDGE_LOOP('',(#232));
#179=EDGE_LOOP('',(#233));
#180=EDGE_LOOP('',(#234));
#181=EDGE_LOOP('',(#235));
#182=EDGE_LOOP('',(#236));
#183=EDGE_LOOP('',(#237));
#184=EDGE_LOOP('',(#238));
#185=EDGE_LOOP('',(#239));
#186=EDGE_LOOP('',(#240));
#187=EDGE_LOOP('',(#241));
#188=EDGE_LOOP('',(#242));
#189=EDGE_LOOP('',(#243));
#190=EDGE_LOOP('',(#244));
#191=EDGE_LOOP('',(#245));
#192=EDGE_LOOP('',(#246));
#193=EDGE_LOOP('',(#247));
#194=EDGE_LOOP('',(#248));
#195=EDGE_LOOP('',(#249));
#196=EDGE_LOOP('',(#250));
#197=EDGE_LOOP('',(#251));
#198=EDGE_LOOP('',(#252));
#199=EDGE_LOOP('',(#253));
#200=EDGE_LOOP('',(#254));
#201=EDGE_LOOP('',(#255));
#202=EDGE_LOOP('',(#256));
#203=EDGE_LOOP('',(#257));
#204=ORIENTED_EDGE('',*,*,#285,.F.);
#205=ORIENTED_EDGE('',*,*,#286,.F.);
#206=ORIENTED_EDGE('',*,*,#287,.F.);
#207=ORIENTED_EDGE('',*,*,#288,.F.);
#208=ORIENTED_EDGE('',*,*,#289,.F.);
#209=ORIENTED_EDGE('',*,*,#290,.F.);
#210=ORIENTED_EDGE('',*,*,#291,.F.);
#211=ORIENTED_EDGE('',*,*,#292,.F.);
#212=ORIENTED_EDGE('',*,*,#293,.F.);
#213=ORIENTED_EDGE('',*,*,#294,.F.);
#214=ORIENTED_EDGE('',*,*,#295,.F.);
#215=ORIENTED_EDGE('',*,*,#296,.T.);
#216=ORIENTED_EDGE('',*,*,#297,.T.);
#217=ORIENTED_EDGE('',*,*,#298,.F.);
#218=ORIENTED_EDGE('',*,*,#296,.F.);
#219=ORIENTED_EDGE('',*,*,#299,.F.);
#220=ORIENTED_EDGE('',*,*,#298,.T.);
#221=ORIENTED_EDGE('',*,*,#299,.T.);
#222=ORIENTED_EDGE('',*,*,#300,.T.);
#223=ORIENTED_EDGE('',*,*,#297,.F.);
#224=ORIENTED_EDGE('',*,*,#301,.F.);
#225=ORIENTED_EDGE('',*,*,#300,.F.);
#226=ORIENTED_EDGE('',*,*,#301,.T.);
#227=ORIENTED_EDGE('',*,*,#302,.T.);
#228=ORIENTED_EDGE('',*,*,#295,.T.);
#229=ORIENTED_EDGE('',*,*,#294,.T.);
#230=ORIENTED_EDGE('',*,*,#302,.F.);
#231=ORIENTED_EDGE('',*,*,#293,.T.);
#232=ORIENTED_EDGE('',*,*,#303,.T.);
#233=ORIENTED_EDGE('',*,*,#303,.F.);
#234=ORIENTED_EDGE('',*,*,#292,.T.);
#235=ORIENTED_EDGE('',*,*,#304,.T.);
#236=ORIENTED_EDGE('',*,*,#304,.F.);
#237=ORIENTED_EDGE('',*,*,#291,.T.);
#238=ORIENTED_EDGE('',*,*,#305,.T.);
#239=ORIENTED_EDGE('',*,*,#305,.F.);
#240=ORIENTED_EDGE('',*,*,#290,.T.);
#241=ORIENTED_EDGE('',*,*,#306,.T.);
#242=ORIENTED_EDGE('',*,*,#306,.F.);
#243=ORIENTED_EDGE('',*,*,#289,.T.);
#244=ORIENTED_EDGE('',*,*,#307,.T.);
#245=ORIENTED_EDGE('',*,*,#307,.F.);
#246=ORIENTED_EDGE('',*,*,#288,.T.);
#247=ORIENTED_EDGE('',*,*,#308,.T.);
#248=ORIENTED_EDGE('',*,*,#308,.F.);
#249=ORIENTED_EDGE('',*,*,#287,.T.);
#250=ORIENTED_EDGE('',*,*,#309,.T.);
#251=ORIENTED_EDGE('',*,*,#309,.F.);
#252=ORIENTED_EDGE('',*,*,#286,.T.);
#253=ORIENTED_EDGE('',*,*,#310,.T.);
#254=ORIENTED_EDGE('',*,*,#310,.F.);
#255=ORIENTED_EDGE('',*,*,#285,.T.);
#256=ORIENTED_EDGE('',*,*,#311,.T.);
#257=ORIENTED_EDGE('',*,*,#311,.F.);
#258=VERTEX_POINT('',#467);
#259=VERTEX_POINT('',#486);
#260=VERTEX_POINT('',#505);
#261=VERTEX_POINT('',#524);
#262=VERTEX_POINT('',#543);
#263=VERTEX_POINT('',#562);
#264=VERTEX_POINT('',#581);
#265=VERTEX_POINT('',#600);
#266=VERTEX_POINT('',#619);
#267=VERTEX_POINT('',#638);
#268=VERTEX_POINT('',#639);
#269=VERTEX_POINT('',#647);
#270=VERTEX_POINT('',#690);
#271=VERTEX_POINT('',#693);
#272=VERTEX_POINT('',#743);
#273=VERTEX_POINT('',#746);
#274=VERTEX_POINT('',#749);
#275=VERTEX_POINT('',#753);
#276=VERTEX_POINT('',#757);
#277=VERTEX_POINT('',#761);
#278=VERTEX_POINT('',#765);
#279=VERTEX_POINT('',#769);
#280=VERTEX_POINT('',#773);
#281=VERTEX_POINT('',#777);
#282=VERTEX_POINT('',#781);
#283=VERTEX_POINT('',#785);
#284=VERTEX_POINT('',#789);
#285=EDGE_CURVE('',#258,#258,#312,.T.);
#286=EDGE_CURVE('',#259,#259,#313,.T.);
#287=EDGE_CURVE('',#260,#260,#314,.T.);
#288=EDGE_CURVE('',#261,#261,#315,.T.);
#289=EDGE_CURVE('',#262,#262,#316,.T.);
#290=EDGE_CURVE('',#263,#263,#317,.T.);
#291=EDGE_CURVE('',#264,#264,#318,.T.);
#292=EDGE_CURVE('',#265,#265,#319,.T.);
#293=EDGE_CURVE('',#266,#266,#320,.T.);
#294=EDGE_CURVE('',#267,#268,#321,.T.);
#295=EDGE_CURVE('',#268,#267,#322,.T.);
#296=EDGE_CURVE('',#269,#269,#96,.T.);
#297=EDGE_CURVE('',#270,#270,#323,.T.);
#298=EDGE_CURVE('',#271,#271,#97,.T.);
#299=EDGE_CURVE('',#272,#272,#324,.T.);
#300=EDGE_CURVE('',#273,#273,#98,.T.);
#301=EDGE_CURVE('',#274,#274,#99,.T.);
#302=EDGE_CURVE('',#275,#275,#100,.T.);
#303=EDGE_CURVE('',#276,#276,#101,.T.);
#304=EDGE_CURVE('',#277,#277,#102,.T.);
#305=EDGE_CURVE('',#278,#278,#103,.T.);
#306=EDGE_CURVE('',#279,#279,#104,.T.);
#307=EDGE_CURVE('',#280,#280,#105,.T.);
#308=EDGE_CURVE('',#281,#281,#106,.T.);
#309=EDGE_CURVE('',#282,#282,#107,.T.);
#310=EDGE_CURVE('',#283,#283,#108,.T.);
#311=EDGE_CURVE('',#284,#284,#109,.T.);
#312=B_SPLINE_CURVE_WITH_KNOTS('',3,(#449,#450,#451,#452,#453,#454,#455,
#456,#457,#458,#459,#460,#461,#462,#463,#464,#465,#466),.UNSPECIFIED.,.T.,
 .F.,(2,2,2,2,2,2,2,2,2,2,2),(-0.125,0.,0.125,0.25,0.375,0.5,0.625,0.75,
0.875,1.,1.125),.UNSPECIFIED.);
#313=B_SPLINE_CURVE_WITH_KNOTS('',3,(#468,#469,#470,#471,#472,#473,#474,
#475,#476,#477,#478,#479,#480,#481,#482,#483,#484,#485),.UNSPECIFIED.,.T.,
 .F.,(2,2,2,2,2,2,2,2,2,2,2),(-0.125,0.,0.125,0.25,0.375,0.5,0.625,0.75,
0.875,1.,1.125),.UNSPECIFIED.);
#314=B_SPLINE_CURVE_WITH_KNOTS('',3,(#487,#488,#489,#490,#491,#492,#493,
#494,#495,#496,#497,#498,#499,#500,#501,#502,#503,#504),.UNSPECIFIED.,.T.,
 .F.,(2,2,2,2,2,2,2,2,2,2,2),(-0.125,0.,0.125,0.25,0.375,0.5,0.625,0.75,
0.875,1.,1.125),.UNSPECIFIED.);
#315=B_SPLINE_CURVE_WITH_KNOTS('',3,(#506,#507,#508,#509,#510,#511,#512,
#513,#514,#515,#516,#517,#518,#519,#520,#521,#522,#523),.UNSPECIFIED.,.T.,
 .F.,(2,2,2,2,2,2,2,2,2,2,2),(-0.125,0.,0.125,0.25,0.375,0.5,0.625,0.75,
0.875,1.,1.125),.UNSPECIFIED.);
#316=B_SPLINE_CURVE_WITH_KNOTS('',3,(#525,#526,#527,#528,#529,#530,#531,
#532,#533,#534,#535,#536,#537,#538,#539,#540,#541,#542),.UNSPECIFIED.,.T.,
 .F.,(2,2,2,2,2,2,2,2,2,2,2),(-0.125,0.,0.125,0.25,0.375,0.5,0.625,0.75,
0.875,1.,1.125),.UNSPECIFIED.);
#317=B_SPLINE_CURVE_WITH_KNOTS('',3,(#544,#545,#546,#547,#548,#549,#550,
#551,#552,#553,#554,#555,#556,#557,#558,#559,#560,#561),.UNSPECIFIED.,.T.,
 .F.,(2,2,2,2,2,2,2,2,2,2,2),(-0.125,0.,0.125,0.25,0.375,0.5,0.625,0.75,
0.875,1.,1.125),.UNSPECIFIED.);
#318=B_SPLINE_CURVE_WITH_KNOTS('',3,(#563,#564,#565,#566,#567,#568,#569,
#570,#571,#572,#573,#574,#575,#576,#577,#578,#579,#580),.UNSPECIFIED.,.T.,
 .F.,(2,2,2,2,2,2,2,2,2,2,2),(-0.125,0.,0.125,0.25,0.375,0.5,0.625,0.75,
0.875,1.,1.125),.UNSPECIFIED.);
#319=B_SPLINE_CURVE_WITH_KNOTS('',3,(#582,#583,#584,#585,#586,#587,#588,
#589,#590,#591,#592,#593,#594,#595,#596,#597,#598,#599),.UNSPECIFIED.,.T.,
 .F.,(2,2,2,2,2,2,2,2,2,2,2),(-0.125,0.,0.125,0.25,0.375,0.5,0.625,0.75,
0.875,1.,1.125),.UNSPECIFIED.);
#320=B_SPLINE_CURVE_WITH_KNOTS('',3,(#601,#602,#603,#604,#605,#606,#607,
#608,#609,#610,#611,#612,#613,#614,#615,#616,#617,#618),.UNSPECIFIED.,.T.,
 .F.,(2,2,2,2,2,2,2,2,2,2,2),(-0.125,0.,0.125,0.25,0.375,0.500000000000001,
0.625,0.75,0.875,1.,1.125),.UNSPECIFIED.);
#321=B_SPLINE_CURVE_WITH_KNOTS('',3,(#620,#621,#622,#623,#624,#625,#626,
#627,#628,#629,#630,#631,#632,#633,#634,#635,#636,#637),.UNSPECIFIED.,.F.,
 .F.,(4,2,2,2,2,2,2,2,4),(0.,0.125,0.25,0.375,0.5,0.625,0.75,0.875,1.),
 .UNSPECIFIED.);
#322=B_SPLINE_CURVE_WITH_KNOTS('',3,(#640,#641,#642,#643,#644,#645),
 .UNSPECIFIED.,.F.,.F.,(4,2,4),(0.,0.5,1.),.UNSPECIFIED.);
#323=B_SPLINE_CURVE_WITH_KNOTS('',3,(#648,#649,#650,#651,#652,#653,#654,
#655,#656,#657,#658,#659,#660,#661,#662,#663,#664,#665,#666,#667,#668,#669,
#670,#671,#672,#673,#674,#675,#676,#677,#678,#679,#680,#681,#682,#683,#684,
#685,#686,#687,#688,#689),.UNSPECIFIED.,.T.,.F.,(2,2,2,2,2,2,2,2,2,2,2,
2,2,2,2,2,2,2,2,2,2,2,2),(-0.0625,0.,0.0624999999999999,0.0937499999999999,
0.125,0.1875,0.25,0.28125,0.3125,0.375,0.4375,0.46875,0.5,0.5625,0.625,
0.6875,0.75,0.8125,0.84375,0.875,0.9375,1.,1.0625),.UNSPECIFIED.);
#324=B_SPLINE_CURVE_WITH_KNOTS('',3,(#695,#696,#697,#698,#699,#700,#701,
#702,#703,#704,#705,#706,#707,#708,#709,#710,#711,#712,#713,#714,#715,#716,
#717,#718,#719,#720,#721,#722,#723,#724,#725,#726,#727,#728,#729,#730,#731,
#732,#733,#734,#735,#736,#737,#738,#739,#740,#741,#742),.UNSPECIFIED.,.T.,
 .F.,(2,2,2,2,2,2,2,2,2,2,2,2,2,2,2,2,2,2,2,2,2,2,2,2,2,2),(-0.0625,0.,
0.0625,0.09375,0.125,0.1875,0.25,0.28125,0.3125,0.34375,0.375,0.4375,0.46875,
0.5,0.5625,0.625,0.65625,0.6875,0.71875,0.75,0.8125,0.84375,0.875,0.9375,
1.,1.0625),.UNSPECIFIED.);
#325=AXIS2_PLACEMENT_3D('',#448,#366,#367);
#326=AXIS2_PLACEMENT_3D('',#646,#368,#369);
#327=AXIS2_PLACEMENT_3D('',#691,#370,#371);
#328=AXIS2_PLACEMENT_3D('',#692,#372,#373);
#329=AXIS2_PLACEMENT_3D('',#694,#374,#375);
#330=AXIS2_PLACEMENT_3D('',#744,#376,#377);
#331=AXIS2_PLACEMENT_3D('',#745,#378,#379);
#332=AXIS2_PLACEMENT_3D('',#747,#380,#381);
#333=AXIS2_PLACEMENT_3D('',#748,#382,#383);
#334=AXIS2_PLACEMENT_3D('',#750,#384,#385);
#335=AXIS2_PLACEMENT_3D('',#751,#386,#387);
#336=AXIS2_PLACEMENT_3D('',#752,#388,#389);
#337=AXIS2_PLACEMENT_3D('',#754,#390,#391);
#338=AXIS2_PLACEMENT_3D('',#755,#392,#393);
#339=AXIS2_PLACEMENT_3D('',#756,#394,#395);
#340=AXIS2_PLACEMENT_3D('',#758,#396,#397);
#341=AXIS2_PLACEMENT_3D('',#759,#398,#399);
#342=AXIS2_PLACEMENT_3D('',#760,#400,#401);
#343=AXIS2_PLACEMENT_3D('',#762,#402,#403);
#344=AXIS2_PLACEMENT_3D('',#763,#404,#405);
#345=AXIS2_PLACEMENT_3D('',#764,#406,#407);
#346=AXIS2_PLACEMENT_3D('',#766,#408,#409);
#347=AXIS2_PLACEMENT_3D('',#767,#410,#411);
#348=AXIS2_PLACEMENT_3D('',#768,#412,#413);
#349=AXIS2_PLACEMENT_3D('',#770,#414,#415);
#350=AXIS2_PLACEMENT_3D('',#771,#416,#417);
#351=AXIS2_PLACEMENT_3D('',#772,#418,#419);
#352=AXIS2_PLACEMENT_3D('',#774,#420,#421);
#353=AXIS2_PLACEMENT_3D('',#775,#422,#423);
#354=AXIS2_PLACEMENT_3D('',#776,#424,#425);
#355=AXIS2_PLACEMENT_3D('',#778,#426,#427);
#356=AXIS2_PLACEMENT_3D('',#779,#428,#429);
#357=AXIS2_PLACEMENT_3D('',#780,#430,#431);
#358=AXIS2_PLACEMENT_3D('',#782,#432,#433);
#359=AXIS2_PLACEMENT_3D('',#783,#434,#435);
#360=AXIS2_PLACEMENT_3D('',#784,#436,#437);
#361=AXIS2_PLACEMENT_3D('',#786,#438,#439);
#362=AXIS2_PLACEMENT_3D('',#787,#440,#441);
#363=AXIS2_PLACEMENT_3D('',#788,#442,#443);
#364=AXIS2_PLACEMENT_3D('',#790,#444,#445);
#365=AXIS2_PLACEMENT_3D('',#791,#446,#447);
#366=DIRECTION('',(0.,0.,1.));
#367=DIRECTION('',(1.,0.,0.));
#368=DIRECTION('',(0.,0.,-1.));
#369=DIRECTION('',(-1.,0.,0.));
#370=DIRECTION('',(0.,0.,-1.));
#371=DIRECTION('',(-1.,0.,4.12899510604237E-20));
#372=DIRECTION('',(0.,0.,1.));
#373=DIRECTION('',(-1.,0.,0.));
#374=DIRECTION('',(0.,0.,-1.));
#375=DIRECTION('',(-1.,0.,0.));
#376=DIRECTION('',(0.,0.,-1.));
#377=DIRECTION('',(-1.,0.,4.12899510604237E-20));
#378=DIRECTION('',(0.00198365453424336,0.,-0.999998032555408));
#379=DIRECTION('',(-0.999998032555409,1.22464679914735E-16,-0.00198365453424337));
#380=DIRECTION('',(-0.00198365453424336,0.,0.999998032555409));
#381=DIRECTION('',(0.999998032555409,0.,0.00198365453424337));
#382=DIRECTION('',(0.00198365453424336,0.,-0.999998032555408));
#383=DIRECTION('',(-0.999998032555409,1.22464679914735E-16,-0.00198365453424337));
#384=DIRECTION('',(-0.00198365453424336,0.,0.999998032555409));
#385=DIRECTION('',(0.999998032555409,0.,0.00198365453424337));
#386=DIRECTION('',(-0.00198365453424336,0.,0.999998032555408));
#387=DIRECTION('',(0.999998032555409,0.,0.00198365453424336));
#388=DIRECTION('',(0.00198365453424336,0.,-0.999998032555408));
#389=DIRECTION('',(-0.999998032555409,1.22464679914735E-16,-0.00198365453424332));
#390=DIRECTION('',(-0.00198365453424336,0.,0.999998032555409));
#391=DIRECTION('',(0.999998032555409,0.,0.00198365453424332));
#392=DIRECTION('',(-0.00198365453424336,0.,0.999998032555408));
#393=DIRECTION('',(0.999998032555409,0.,0.00198365453424336));
#394=DIRECTION('',(0.00198365453424336,-2.16840434497101E-19,-0.999998032555408));
#395=DIRECTION('',(-0.809015402678838,-0.587785252292473,-0.00160481022917166));
#396=DIRECTION('',(-0.00198365453424336,0.,0.999998032555409));
#397=DIRECTION('',(0.999998032555409,0.,0.00198365453424332));
#398=DIRECTION('',(-0.00198365453424336,2.16840434497101E-19,0.999998032555408));
#399=DIRECTION('',(0.999998032555409,0.,0.00198365453424336));
#400=DIRECTION('',(0.00198365453424336,8.67361737988404E-19,-0.999998032555409));
#401=DIRECTION('',(0.309016386401137,0.951056516295152,0.000612982962049996));
#402=DIRECTION('',(-0.00198365453424336,0.,0.999998032555409));
#403=DIRECTION('',(0.999998032555409,0.,0.00198365453424332));
#404=DIRECTION('',(-0.00198365453424336,-8.67361737988404E-19,0.999998032555409));
#405=DIRECTION('',(0.999998032555409,0.,0.00198365453424336));
#406=DIRECTION('',(0.00198365453424336,-4.33680868994202E-19,-0.999998032555409));
#407=DIRECTION('',(0.809015402678836,-0.587785252292474,0.00160481022917166));
#408=DIRECTION('',(-0.00198365453424336,0.,0.999998032555409));
#409=DIRECTION('',(0.999998032555409,0.,0.00198365453424332));
#410=DIRECTION('',(-0.00198365453424336,4.33680868994202E-19,0.999998032555409));
#411=DIRECTION('',(0.999998032555409,0.,0.00198365453424336));
#412=DIRECTION('',(0.00198365453424336,0.,-0.999998032555409));
#413=DIRECTION('',(0.809015402678839,0.58778525229247,0.00160481022917166));
#414=DIRECTION('',(-0.00198365453424336,0.,0.999998032555409));
#415=DIRECTION('',(0.999998032555409,0.,0.00198365453424332));
#416=DIRECTION('',(-0.00198365453424336,0.,0.999998032555409));
#417=DIRECTION('',(0.999998032555409,0.,0.00198365453424336));
#418=DIRECTION('',(0.00198365453424336,0.,-0.999998032555409));
#419=DIRECTION('',(0.999998032555409,0.,0.00198365453424332));
#420=DIRECTION('',(-0.00198365453424336,0.,0.999998032555409));
#421=DIRECTION('',(0.999998032555409,0.,0.00198365453424332));
#422=DIRECTION('',(-0.00198365453424336,0.,0.999998032555409));
#423=DIRECTION('',(0.999998032555409,0.,0.00198365453424336));
#424=DIRECTION('',(0.00198365453424336,2.16840434497101E-19,-0.999998032555408));
#425=DIRECTION('',(-0.809015402678835,0.587785252292477,-0.00160481022917166));
#426=DIRECTION('',(-0.00198365453424336,0.,0.999998032555409));
#427=DIRECTION('',(0.999998032555409,0.,0.00198365453424332));
#428=DIRECTION('',(-0.00198365453424336,-2.16840434497101E-19,0.999998032555408));
#429=DIRECTION('',(0.999998032555409,0.,0.00198365453424336));
#430=DIRECTION('',(0.00198365453424336,-4.33680868994202E-19,-0.999998032555409));
#431=DIRECTION('',(-0.309016386401134,-0.951056516295154,-0.000612982962049996));
#432=DIRECTION('',(-0.00198365453424336,0.,0.999998032555409));
#433=DIRECTION('',(0.999998032555409,0.,0.00198365453424332));
#434=DIRECTION('',(-0.00198365453424336,4.33680868994202E-19,0.999998032555409));
#435=DIRECTION('',(0.999998032555409,0.,0.00198365453424336));
#436=DIRECTION('',(0.00198365453424336,4.33680868994202E-19,-0.999998032555409));
#437=DIRECTION('',(-0.30901638640113,0.951056516295155,-0.000612982962049996));
#438=DIRECTION('',(-0.00198365453424336,0.,0.999998032555409));
#439=DIRECTION('',(0.999998032555409,0.,0.00198365453424332));
#440=DIRECTION('',(-0.00198365453424336,-4.33680868994202E-19,0.999998032555409));
#441=DIRECTION('',(0.999998032555409,0.,0.00198365453424336));
#442=DIRECTION('',(0.00198365453424336,-4.33680868994202E-19,-0.999998032555409));
#443=DIRECTION('',(0.309016386401132,-0.951056516295154,0.000612982962049996));
#444=DIRECTION('',(-0.00198365453424336,0.,0.999998032555409));
#445=DIRECTION('',(0.999998032555409,0.,0.00198365453424332));
#446=DIRECTION('',(-0.00198365453424336,4.33680868994202E-19,0.999998032555409));
#447=DIRECTION('',(0.999998032555409,0.,0.00198365453424336));
#448=CARTESIAN_POINT('',(0.,0.,0.));
#449=CARTESIAN_POINT('',(2.25174718791792,-25.7419164734126,9.98150380803095));
#450=CARTESIAN_POINT('',(4.40067665899042,-27.8907665149729,9.97674892443453));
#451=CARTESIAN_POINT('',(5.89218324179859,-28.5005697123442,9.97507135487354));
#452=CARTESIAN_POINT('',(8.89307601152569,-28.5002581080203,9.97357735082695));
#453=CARTESIAN_POINT('',(10.3946228787473,-27.8784627607919,9.97377470200455));
#454=CARTESIAN_POINT('',(12.516986240263,-25.7582887032586,9.97598851353109));
#455=CARTESIAN_POINT('',(13.1412819404853,-24.2712636736412,9.97800115556212));
#456=CARTESIAN_POINT('',(13.1427794575426,-21.2352758061605,9.98321465070656));
#457=CARTESIAN_POINT('',(12.5202437370651,-19.7476280016791,9.98635332861934));
#458=CARTESIAN_POINT('',(10.3982510065584,-17.6242176707189,9.99214456842628));
#459=CARTESIAN_POINT('',(8.89702381859055,-17.0018513244832,9.99476359081009));
#460=CARTESIAN_POINT('',(5.89795873786451,-16.9989818218334,9.9971425006318));
#461=CARTESIAN_POINT('',(4.40365621654938,-17.6091746656644,9.99680885118365));
#462=CARTESIAN_POINT('',(2.25677146762511,-19.7517445545549,9.99337211581808));
#463=CARTESIAN_POINT('',(1.64316655801093,-21.2443510201882,9.99046351793556));
#464=CARTESIAN_POINT('',(1.64082721667708,-24.2474736003422,9.98452214421469));
#465=CARTESIAN_POINT('',(2.25174718791792,-25.7419164734126,9.98150380803095));
#466=CARTESIAN_POINT('',(4.40067665899042,-27.8907665149729,9.97674892443453));
#467=CARTESIAN_POINT('',(3.32621192345417,-26.8163414941928,9.97912636623274));
#468=CARTESIAN_POINT('',(-12.5323953207471,19.758889408603,9.98631972621541));
#469=CARTESIAN_POINT('',(-10.3834695406594,17.6100431822517,9.99218188522477));
#470=CARTESIAN_POINT('',(-8.8919606342645,17.000247531264,9.99477132024379));
#471=CARTESIAN_POINT('',(-5.89107288843681,17.0005804218558,9.9971442348168));
#472=CARTESIAN_POINT('',(-4.38953343029873,17.6223863716535,9.99678824775364));
#473=CARTESIAN_POINT('',(-2.26717886477326,19.7425651500477,9.99338613768033));
#474=CARTESIAN_POINT('',(-1.64288281617557,21.2295825072945,9.99049277801194));
#475=CARTESIAN_POINT('',(-1.64137159306585,24.265566158435,9.98448627025648));
#476=CARTESIAN_POINT('',(-2.26389833785919,25.7532159074392,9.98148041678686));
#477=CARTESIAN_POINT('',(-4.38588799990985,27.8766269060355,9.97678234338695));
#478=CARTESIAN_POINT('',(-5.88711867742729,28.4989871739867,9.97507634902877));
#479=CARTESIAN_POINT('',(-8.88618263497942,28.5018355217731,9.9735783199386));
#480=CARTESIAN_POINT('',(-10.3804755348283,27.8916330331074,9.97376146017015));
#481=CARTESIAN_POINT('',(-12.5273543498415,25.7490543796768,9.97599751987335));
#482=CARTESIAN_POINT('',(-13.1409588322878,24.2564532154728,9.9780268753114));
#483=CARTESIAN_POINT('',(-13.143308623175,21.2533336537965,9.98318314837086));
#484=CARTESIAN_POINT('',(-12.5323953207471,19.758889408603,9.98631972621541));
#485=CARTESIAN_POINT('',(-10.3834695406594,17.6100431822517,9.99218188522477));
#486=CARTESIAN_POINT('',(-11.4579324307032,18.6844662954274,9.98925080572009));
#487=CARTESIAN_POINT('',(-12.532370603341,-25.7419400256697,9.97600608757322));
#488=CARTESIAN_POINT('',(-10.3834341765871,-27.8907806602185,9.97376121101809));
#489=CARTESIAN_POINT('',(-8.89192582090345,-28.5005783733374,9.9735774174436));
#490=CARTESIAN_POINT('',(-5.89103704191119,-28.5002494399398,9.97507243191048));
#491=CARTESIAN_POINT('',(-4.38949711716056,-27.8784447453248,9.97677768149796));
#492=CARTESIAN_POINT('',(-2.26715239445661,-25.7582600455683,9.98146989439847));
#493=CARTESIAN_POINT('',(-1.64286827984865,-24.2712357421093,9.98447483530179));
#494=CARTESIAN_POINT('',(-1.64138607520361,-21.2352517050451,9.990481779069));
#495=CARTESIAN_POINT('',(-2.26392546164931,-19.7476084282919,9.99337690779952));
#496=CARTESIAN_POINT('',(-4.38592422904412,-17.6242044499028,9.99678646400031));
#497=CARTESIAN_POINT('',(-5.88715461284615,-17.0018427773436,9.99714438399426));
#498=CARTESIAN_POINT('',(-8.88621671960153,-16.9989903066476,9.9947788018372));
#499=CARTESIAN_POINT('',(-10.3805098025017,-17.6091928499624,9.99218831932837));
#500=CARTESIAN_POINT('',(-12.5273760809166,-19.7517744363548,9.98633897443458));
#501=CARTESIAN_POINT('',(-13.1409705293166,-21.2443800334907,9.98320059364936));
#502=CARTESIAN_POINT('',(-13.1432969956867,-24.2474998135747,9.97804018821111));
#503=CARTESIAN_POINT('',(-12.532370603341,-25.7419400256697,9.97600608757322));
#504=CARTESIAN_POINT('',(-10.3834341765871,-27.8907806602185,9.97376121101809));
#505=CARTESIAN_POINT('',(-11.4579023899641,-26.8163603429441,9.97488364929565));
#506=CARTESIAN_POINT('',(-24.4929860035109,11.0689717225311,9.97942345652269));
#507=CARTESIAN_POINT('',(-22.3440484625122,8.92014087158018,9.98501725206466));
#508=CARTESIAN_POINT('',(-20.8525395403528,8.31035438088346,9.98821768467601));
#509=CARTESIAN_POINT('',(-17.8516585209499,8.31070384465373,9.99368710897786));
#510=CARTESIAN_POINT('',(-16.3501255232753,8.93251843459525,9.9958875917288));
#511=CARTESIAN_POINT('',(-14.2277899598599,11.0527136234608,9.99711070446432));
#512=CARTESIAN_POINT('',(-13.6035070976102,12.5397384227636,9.99608982163518));
#513=CARTESIAN_POINT('',(-13.602020719431,15.5757219896627,9.99176396575877));
#514=CARTESIAN_POINT('',(-14.2245570753144,17.0633652607339,9.98866454385953));
#515=CARTESIAN_POINT('',(-16.3465555737581,19.1867602042524,9.98273093154213));
#516=CARTESIAN_POINT('',(-17.8477864111845,19.8091111855371,9.97988175722958));
#517=CARTESIAN_POINT('',(-20.8468444374564,19.8119418396543,9.97572113908648));
#518=CARTESIAN_POINT('',(-22.3411321959654,19.201729985312,9.97437000417082));
#519=CARTESIAN_POINT('',(-24.4879924205457,17.0591374310007,9.97360492278502));
#520=CARTESIAN_POINT('',(-25.1015850786303,15.5665307749119,9.97419768298818));
#521=CARTESIAN_POINT('',(-25.1039106923233,12.5634108551399,9.97710552015507));
#522=CARTESIAN_POINT('',(-24.4929860035109,11.0689717225311,9.97942345652269));
#523=CARTESIAN_POINT('',(-22.3440484625122,8.92014087158018,9.98501725206466));
#524=CARTESIAN_POINT('',(-23.4185172330115,9.99455629705563,9.98222035429368));
#525=CARTESIAN_POINT('',(18.7808937391224,-2.99149952989821,9.99504040233046));
#526=CARTESIAN_POINT('',(20.9298254614167,-5.14035281049083,9.99000917975553));
#527=CARTESIAN_POINT('',(22.421332021597,-5.75015358507125,9.98682003397535));
#528=CARTESIAN_POINT('',(25.4222239367027,-5.74984635465884,9.98103228522884));
#529=CARTESIAN_POINT('',(26.9237722529927,-5.12805787363293,9.97841497122095));
#530=CARTESIAN_POINT('',(29.0461502806945,-3.00789686390525,9.97485367672351));
#531=CARTESIAN_POINT('',(29.6704604325017,-1.52087190120232,9.97387401284747));
#532=CARTESIAN_POINT('',(29.6719792216585,1.51511892487691,9.97387158392948));
#533=CARTESIAN_POINT('',(29.0494480790449,3.0027792021126,9.97484832917195));
#534=CARTESIAN_POINT('',(26.9274520872024,5.12619920856947,9.9784086110995));
#535=CARTESIAN_POINT('',(25.4262216547855,5.74856309101009,9.98102513698141));
#536=CARTESIAN_POINT('',(22.4271566107402,5.75143164847909,9.9868082400108));
#537=CARTESIAN_POINT('',(20.9328553731563,5.14124298016875,9.99000467596904));
#538=CARTESIAN_POINT('',(18.7859574660911,2.99868902485557,9.99502995283549));
#539=CARTESIAN_POINT('',(18.1723341187772,1.50608493072938,9.99668191872553));
#540=CARTESIAN_POINT('',(18.1699747687591,-1.49705026490903,9.99668807982318));
#541=CARTESIAN_POINT('',(18.7808937391224,-2.99149952989821,9.99504040233046));
#542=CARTESIAN_POINT('',(20.9298254614167,-5.14035281049083,9.99000917975553));
#543=CARTESIAN_POINT('',(19.8553596002696,-4.06592617019452,9.99252479104299));
#544=CARTESIAN_POINT('',(14.2123350925503,11.0690319983059,9.99711617129192));
#545=CARTESIAN_POINT('',(16.3612654377499,8.92017298030186,9.99588092488658));
#546=CARTESIAN_POINT('',(17.8527756149027,8.31037320848494,9.99368535632492));
#547=CARTESIAN_POINT('',(20.8536663121976,8.31068500114694,9.98821534743472));
#548=CARTESIAN_POINT('',(22.3552115976435,8.93247451391702,9.98498915521074));
#549=CARTESIAN_POINT('',(24.4775885180051,11.0526323129726,9.97946623217891));
#550=CARTESIAN_POINT('',(25.1019006304645,12.5396520832499,9.97713145450633));
#551=CARTESIAN_POINT('',(25.103428284338,15.5756416187448,9.97418623741831));
#552=CARTESIAN_POINT('',(24.4809023840376,17.0633031269638,9.97361022835124));
#553=CARTESIAN_POINT('',(22.3589102603015,19.1867277864437,9.97436109198554));
#554=CARTESIAN_POINT('',(20.8576785370343,19.8090933880342,9.97570956787263));
#555=CARTESIAN_POINT('',(17.8586110336372,19.81195950797,9.97986330601381));
#556=CARTESIAN_POINT('',(16.3643121101974,19.2017684972543,9.98268545912725));
#557=CARTESIAN_POINT('',(14.2174151193893,17.0592125967768,9.98867998042378));
#558=CARTESIAN_POINT('',(13.6037928898366,15.5666146270987,9.99177395261617));
#559=CARTESIAN_POINT('',(13.6014233378981,12.5634847630725,9.99605939344009));
#560=CARTESIAN_POINT('',(14.2123350925503,11.0690319983059,9.99711617129192));
#561=CARTESIAN_POINT('',(16.3612654377499,8.92017298030186,9.99588092488658));
#562=CARTESIAN_POINT('',(15.2868002651501,9.99460248930389,9.99649854808925));
#563=CARTESIAN_POINT('',(14.2123527044243,-17.0520242795901,9.98869540466129));
#564=CARTESIAN_POINT('',(16.3612807376946,-19.2008768463169,9.98268874836228));
#565=CARTESIAN_POINT('',(17.8527858412164,-19.8106811685391,9.9798729248443));
#566=CARTESIAN_POINT('',(20.8536793717495,-19.8103769199143,9.97571356094336));
#567=CARTESIAN_POINT('',(22.3552291758402,-19.1885873119574,9.97436412040789));
#568=CARTESIAN_POINT('',(24.4776043386376,-17.0684214520233,9.97360967515155));
#569=CARTESIAN_POINT('',(25.1019094583325,-15.5813954415857,9.97418283003565));
#570=CARTESIAN_POINT('',(25.1034194898653,-12.5454046250778,9.97712370777662));
#571=CARTESIAN_POINT('',(24.4808859539659,-11.0577498043654,9.97945615138985));
#572=CARTESIAN_POINT('',(22.3588925759474,-8.93433412466492,9.98498107160478));
#573=CARTESIAN_POINT('',(20.8576651880663,-8.31196854250985,9.98820694622992));
#574=CARTESIAN_POINT('',(17.8586011208342,-8.3090948842858,9.99367584605725));
#575=CARTESIAN_POINT('',(16.364296763884,-8.91928200260542,9.9958779815318));
#576=CARTESIAN_POINT('',(14.2173995381776,-11.0618412415944,9.99711849502731));
#577=CARTESIAN_POINT('',(13.6037828290607,-12.5544493593229,9.99606835566528));
#578=CARTESIAN_POINT('',(13.6014333383166,-15.5575793212606,9.99179075355972));
#579=CARTESIAN_POINT('',(14.2123527044243,-17.0520242795901,9.98869540466129));
#580=CARTESIAN_POINT('',(16.3612807376946,-19.2008768463169,9.98268874836228));
#581=CARTESIAN_POINT('',(15.2868167210595,-18.1264505629535,9.98569207651178));
#582=CARTESIAN_POINT('',(2.2517187649142,19.7589161236964,9.99335724492034));
#583=CARTESIAN_POINT('',(4.40064172009851,17.6100563796601,9.99680677260322));
#584=CARTESIAN_POINT('',(5.89215303318509,17.0002550543161,9.99714411840689));
#585=CARTESIAN_POINT('',(8.89304428786899,17.0005728925496,9.99476972512652));
#586=CARTESIAN_POINT('',(10.394587126964,17.622367683998,9.99215145985614));
#587=CARTESIAN_POINT('',(12.5169578104566,19.7425294798743,9.98636539409975));
#588=CARTESIAN_POINT('',(13.1412661958878,21.2295441929371,9.98322583285055));
#589=CARTESIAN_POINT('',(13.1427951428002,24.2655314052019,9.9780096646096));
#590=CARTESIAN_POINT('',(12.5202730925553,25.7531888961267,9.97599482253127));
#591=CARTESIAN_POINT('',(10.398286947091,27.8766128799644,9.97377565284152));
#592=CARTESIAN_POINT('',(8.89705608756175,28.4989797010093,9.97357735920984));
#593=CARTESIAN_POINT('',(5.89798825301672,28.5018429403689,9.97506648143566));
#594=CARTESIAN_POINT('',(4.40369139550971,27.8916491802313,9.97674810641814));
#595=CARTESIAN_POINT('',(2.25679748968035,25.7490852071028,9.98149059879215));
#596=CARTESIAN_POINT('',(1.64318150891389,24.2564886188005,9.9845039656052));
#597=CARTESIAN_POINT('',(1.64081235527019,21.2533664202263,9.99044602313364));
#598=CARTESIAN_POINT('',(2.2517187649142,19.7589161236964,9.99335724492034));
#599=CARTESIAN_POINT('',(4.40064172009851,17.6100563796601,9.99680677260322));
#600=CARTESIAN_POINT('',(3.32618024250635,18.6844862516783,9.99508200876178));
#601=CARTESIAN_POINT('',(-24.4929733156265,-17.0520839950757,9.97360511816739));
#602=CARTESIAN_POINT('',(-22.3440290440521,-19.2009137216593,9.97436700858624));
#603=CARTESIAN_POINT('',(-20.8525188748121,-19.8107026301808,9.9757147709456));
#604=CARTESIAN_POINT('',(-17.8516357005615,-19.8103554404113,9.97987491779121));
#605=CARTESIAN_POINT('',(-16.350103160979,-19.1885420317869,9.9827236884446));
#606=CARTESIAN_POINT('',(-14.2277749108576,-17.0683476785679,9.98865287774947));
#607=CARTESIAN_POINT('',(-13.6034992221347,-15.5813224795366,9.99175352530041));
#608=CARTESIAN_POINT('',(-13.6020285659043,-12.5453388949428,9.99608429321265));
#609=CARTESIAN_POINT('',(-14.2245721651731,-11.0576959913145,9.99710989208879));
#610=CARTESIAN_POINT('',(-16.3465778292213,-8.93430035743286,9.99589229460464));
#611=CARTESIAN_POINT('',(-17.8478091047092,-8.31194815828577,9.99369304604943));
#612=CARTESIAN_POINT('',(-20.8468648121631,-8.30911512027124,9.98822910294848));
#613=CARTESIAN_POINT('',(-22.3411504061988,-8.9193262697683,9.98502499974063));
#614=CARTESIAN_POINT('',(-24.4880030181626,-11.0619187138838,9.9794400475871));
#615=CARTESIAN_POINT('',(-25.1015905761922,-12.5545262448864,9.97711744794634));
#616=CARTESIAN_POINT('',(-25.1039052271942,-15.5576461732511,9.97420298024334));
#617=CARTESIAN_POINT('',(-24.4929733156265,-17.0520839950757,9.97360511816739));
#618=CARTESIAN_POINT('',(-22.3440290440521,-19.2009137216593,9.97436700858624));
#619=CARTESIAN_POINT('',(-23.4185011798393,-18.1264988583675,9.97398606337681));
#620=CARTESIAN_POINT('',(-27.9871648810614,-4.06586431213732,9.97721338989888));
#621=CARTESIAN_POINT('',(-27.0557810375396,-4.99724984135702,9.97906093731815));
#622=CARTESIAN_POINT('',(-25.7957392705759,-5.59320627191235,9.98156042980014));
#623=CARTESIAN_POINT('',(-23.1740732544265,-5.85141816251984,9.98676091971203));
#624=CARTESIAN_POINT('',(-21.8219777801895,-5.51273511897181,9.9894430153071));
#625=CARTESIAN_POINT('',(-19.6315949630577,-4.04916504500299,9.99378798666252));
#626=CARTESIAN_POINT('',(-18.8012688420682,-2.92959754413727,9.99543507007787));
#627=CARTESIAN_POINT('',(-18.0365572018318,-0.408675702429496,9.99695199677488));
#628=CARTESIAN_POINT('',(-18.1049511232441,0.983516030839805,9.99681632659563));
#629=CARTESIAN_POINT('',(-19.1130737473992,3.41734385987002,9.99481655564672));
#630=CARTESIAN_POINT('',(-20.0491383016397,4.45013390220393,9.99295972329614));
#631=CARTESIAN_POINT('',(-22.372428607959,5.69196079795685,9.98835110887845));
#632=CARTESIAN_POINT('',(-23.7512100691429,5.89648407529794,9.98561607740022));
#633=CARTESIAN_POINT('',(-26.3349428599786,5.38254660515189,9.98049083405077));
#634=CARTESIAN_POINT('',(-27.5305032877612,4.66595382805477,9.97811925052128));
#635=CARTESIAN_POINT('',(-29.2017179257488,2.629568852285,9.97480413150463));
#636=CARTESIAN_POINT('',(-29.6712978961085,1.31717815098975,9.97387264523459));
#637=CARTESIAN_POINT('',(-29.6712978961085,2.11251572852918E-15,9.97387264523459));
#638=CARTESIAN_POINT('',(-27.9871643030439,-4.06586431214464,9.97692199657326));
#639=CARTESIAN_POINT('',(-29.6712978961085,7.04171909509727E-16,9.97387264523459));
#640=CARTESIAN_POINT('',(-29.6712978961085,1.20555305639084E-15,9.97387264523459));
#641=CARTESIAN_POINT('',(-29.6712978961085,-0.75267331542145,9.97387264523459));
#642=CARTESIAN_POINT('',(-29.5216410510006,-1.50505048591556,9.97416951329804));
#643=CARTESIAN_POINT('',(-28.9455709140157,-2.89580940479428,9.97531223968556));
#644=CARTESIAN_POINT('',(-28.5193842812289,-3.53364394871376,9.97615764839542));
#645=CARTESIAN_POINT('',(-27.9871648810614,-4.06586431213732,9.97721338989888));
#646=CARTESIAN_POINT('',(0.,0.,10.));
#647=CARTESIAN_POINT('',(-16.5,0.,10.));
#648=CARTESIAN_POINT('',(-29.3876259258344,-15.6327992205245,9.96726948924682));
#649=CARTESIAN_POINT('',(-24.318878617305,-22.7290074877022,9.96726952923389));
#650=CARTESIAN_POINT('',(-21.1335208509751,-25.7117060414887,9.96726955207293));
#651=CARTESIAN_POINT('',(-15.6274459871103,-29.1455548143694,9.96726958328061));
#652=CARTESIAN_POINT('',(-13.7009323636081,-30.0987803190246,9.96726959300726));
#653=CARTESIAN_POINT('',(-9.66722790897878,-31.6258794603997,9.96726961035636));
#654=CARTESIAN_POINT('',(-7.54579125788549,-32.1977673325993,9.96726961798872));
#655=CARTESIAN_POINT('',(-1.17513561459514,-33.2589451025937,9.96726963595355));
#656=CARTESIAN_POINT('',(3.24977522116897,-33.1197093574146,9.96726964161168));
#657=CARTESIAN_POINT('',(11.6254157205537,-31.1821416525375,9.96726963975405));
#658=CARTESIAN_POINT('',(15.6627974485513,-29.3632995963931,9.96726963230943));
#659=CARTESIAN_POINT('',(20.9185450210016,-25.6134092177694,9.96726961656291));
#660=CARTESIAN_POINT('',(22.5728358742843,-24.168642593572,9.96726961049255));
#661=CARTESIAN_POINT('',(25.5276367257185,-21.0237098422911,9.96726959822664));
#662=CARTESIAN_POINT('',(26.8395683416337,-19.3212745613362,9.96726959201562));
#663=CARTESIAN_POINT('',(30.2761928904144,-13.8218910973199,9.96726957455104));
#664=CARTESIAN_POINT('',(31.8299322389376,-9.7381900418696,9.96726956496784));
#665=CARTESIAN_POINT('',(33.2665757247466,-1.14549800619825,9.96726955611635));
#666=CARTESIAN_POINT('',(33.126762229551,3.21878720612339,9.96726955705074));
#667=CARTESIAN_POINT('',(31.6634646784018,9.54528238158562,9.96726956592903));
#668=CARTESIAN_POINT('',(30.9758858590325,11.582014035526,9.96726957003002));
#669=CARTESIAN_POINT('',(29.2060465491582,15.5130612793245,9.96726957990573));
#670=CARTESIAN_POINT('',(28.1111051932345,17.4185338145468,9.96726958573705));
#671=CARTESIAN_POINT('',(24.3577284328824,22.677162296608,9.96726960381245));
#672=CARTESIAN_POINT('',(21.1324651403792,25.7079205033044,9.96726961703659));
#673=CARTESIAN_POINT('',(13.8416387882859,30.2636194919888,9.96726963598389));
#674=CARTESIAN_POINT('',(9.70046603297661,31.8342050450532,9.9672696417053));
#675=CARTESIAN_POINT('',(1.21292546694135,33.2572478356334,9.96726963961099));
#676=CARTESIAN_POINT('',(-3.19722870769186,33.1277143987854,9.96726963176236));
#677=CARTESIAN_POINT('',(-11.6179166300809,31.1880212181722,9.96726960406233));
#678=CARTESIAN_POINT('',(-15.6096957681805,29.3985993729615,9.96726958446033));
#679=CARTESIAN_POINT('',(-22.6973389548866,24.3469193601325,9.96726954145423));
#680=CARTESIAN_POINT('',(-25.6885014995579,21.162988592877,9.96726951887742));
#681=CARTESIAN_POINT('',(-29.1324081060694,15.6524582369579,9.9672694907872));
#682=CARTESIAN_POINT('',(-30.0872089329711,13.7261542949656,9.96726948254561));
#683=CARTESIAN_POINT('',(-31.6165685979158,9.69744774420164,9.96726946903413));
#684=CARTESIAN_POINT('',(-32.1908700038938,7.57595660548468,9.96726946376329));
#685=CARTESIAN_POINT('',(-33.2585098335668,1.20149952517862,9.96726945390299));
#686=CARTESIAN_POINT('',(-33.1226984449886,-3.22071365584652,9.96726945522825));
#687=CARTESIAN_POINT('',(-31.1921720662379,-11.5988776703215,9.96726947288005));
#688=CARTESIAN_POINT('',(-29.3876259258344,-15.6327992205245,9.96726948924682));
#689=CARTESIAN_POINT('',(-24.318878617305,-22.7290074877022,9.96726952923389));
#690=CARTESIAN_POINT('',(-26.8532522715697,-19.1809033541133,9.96726950924036));
#691=CARTESIAN_POINT('',(0.,0.,9.95437603547587));
#692=CARTESIAN_POINT('',(0.,0.,9.95437603547587));
#693=CARTESIAN_POINT('',(-39.4999094976378,0.,9.95437603547587));
#694=CARTESIAN_POINT('',(0.,0.,10.));
#695=CARTESIAN_POINT('',(-31.1686867915687,-16.5802377481688,9.96330218011633));
#696=CARTESIAN_POINT('',(-25.7927436059601,-24.106519907592,9.96330221965677));
#697=CARTESIAN_POINT('',(-22.4143342444903,-27.2699884879456,9.9633022420918));
#698=CARTESIAN_POINT('',(-16.5745583235045,-30.9119500288825,9.96330227207311));
#699=CARTESIAN_POINT('',(-14.5312864234351,-31.9229470285891,9.96330228129839));
#700=CARTESIAN_POINT('',(-10.2531152321863,-33.5425981614339,9.96330229741493));
#701=CARTESIAN_POINT('',(-8.00310673775275,-34.1491461825529,9.96330230430863));
#702=CARTESIAN_POINT('',(-1.24635089144019,-35.2746385912522,9.96330231975494));
#703=CARTESIAN_POINT('',(3.44673637685277,-35.1269648956617,9.96330232325044));
#704=CARTESIAN_POINT('',(12.3299917057564,-33.0719699421248,9.96330231653762));
#705=CARTESIAN_POINT('',(16.6120634736964,-31.1428955629339,9.96330230635569));
#706=CARTESIAN_POINT('',(22.1863416932408,-27.165739789188,9.96330228667882));
#707=CARTESIAN_POINT('',(23.9408927874837,-25.6334117680923,9.96330227930384));
#708=CARTESIAN_POINT('',(27.0747728903452,-22.2978774189235,9.96330226462141));
#709=CARTESIAN_POINT('',(28.4662157362829,-20.4922644139981,9.9633022572911));
#710=CARTESIAN_POINT('',(30.8961527661582,-16.6038117597435,9.9633022436451));
#711=CARTESIAN_POINT('',(31.9273880271592,-14.5205528277234,9.96330223736396));
#712=CARTESIAN_POINT('',(33.5418091214383,-10.2543629859479,9.96330222719838));
#713=CARTESIAN_POINT('',(34.139955664031,-8.05002228157452,9.96330222322795));
#714=CARTESIAN_POINT('',(35.2827410991617,-1.2149264852423,9.96330221557688));
#715=CARTESIAN_POINT('',(35.1344546304646,3.41386087947634,9.96330221664707));
#716=CARTESIAN_POINT('',(33.582473207927,10.1237801966422,9.963302226892));
#717=CARTESIAN_POINT('',(32.8532232117419,12.2839502227037,9.96330223163088));
#718=CARTESIAN_POINT('',(30.9761214283002,16.4532429858306,9.96330224310726));
#719=CARTESIAN_POINT('',(29.8148202397878,18.4741988484283,9.96330224991198));
#720=CARTESIAN_POINT('',(25.8339667888213,24.0515325786184,9.96330227120817));
#721=CARTESIAN_POINT('',(22.4132333907245,27.2659735233351,9.96330228706005));
#722=CARTESIAN_POINT('',(14.6805393715922,32.0977764360226,9.96330231128403));
#723=CARTESIAN_POINT('',(10.2883866550158,33.7635495347357,9.9633023196971));
#724=CARTESIAN_POINT('',(3.53693407182778,34.8955162246871,9.96330232163565));
#725=CARTESIAN_POINT('',(1.21401482618468,35.05379391953,9.96330232055437));
#726=CARTESIAN_POINT('',(-3.36306592453633,34.913210802397,9.96330231486426));
#727=CARTESIAN_POINT('',(-5.62374461011907,34.6211427741448,9.96330231030205));
#728=CARTESIAN_POINT('',(-10.0892610596368,33.5925181541031,9.9633022979967));
#729=CARTESIAN_POINT('',(-12.2937353261664,32.8491851397549,9.96330229020891));
#730=CARTESIAN_POINT('',(-16.4536511219075,30.9755205807553,9.96330227269961));
#731=CARTESIAN_POINT('',(-18.4350241604916,29.8408743355726,9.96330226291449));
#732=CARTESIAN_POINT('',(-24.0729226461964,25.8224932034743,9.96330223171504));
#733=CARTESIAN_POINT('',(-27.2453681863873,22.4455973269751,9.96330220946365));
#734=CARTESIAN_POINT('',(-30.8979971272245,16.6010958854368,9.96330218162102));
#735=CARTESIAN_POINT('',(-31.9106649232293,14.5580463750558,9.96330217342057));
#736=CARTESIAN_POINT('',(-33.5327135804244,10.2851759912365,9.96330215995619));
#737=CARTESIAN_POINT('',(-34.1418214101069,8.03510970721591,9.96330215469109));
#738=CARTESIAN_POINT('',(-35.274167518972,1.2743220346128,9.96330214483771));
#739=CARTESIAN_POINT('',(-35.1301257163963,-3.41590408426619,9.96330214616639));
#740=CARTESIAN_POINT('',(-33.0825988363546,-12.3018358676466,9.96330216379486));
#741=CARTESIAN_POINT('',(-31.1686867915687,-16.5802377481688,9.96330218011633));
#742=CARTESIAN_POINT('',(-25.7927436059601,-24.106519907592,9.96330221965677));
#743=CARTESIAN_POINT('',(-28.4807151987644,-20.3433788278804,9.96330219988655));
#744=CARTESIAN_POINT('',(0.,0.,9.95437603547587));
#745=CARTESIAN_POINT('',(0.00182822691772673,-3.76158192263132E-34,9.03273202477167));
#746=CARTESIAN_POINT('',(-34.9981029125216,4.28626379701574E-15,8.96330411607315));
#747=CARTESIAN_POINT('',(0.00182822691772673,-3.76158192263132E-34,9.03273202477167));
#748=CARTESIAN_POINT('',(0.00182822691772675,0.,9.03273202477167));
#749=CARTESIAN_POINT('',(-32.9981068474108,4.04133443718627E-15,8.96727142514164));
#750=CARTESIAN_POINT('',(0.00182822691772675,0.,9.03273202477167));
#751=CARTESIAN_POINT('',(0.00182822691772674,-1.88079096131566E-34,9.03273202477167));
#752=CARTESIAN_POINT('',(-23.9193255543807,-3.85185988877447E-31,8.98528062625108));
#753=CARTESIAN_POINT('',(-29.6693142415743,7.04171909509728E-16,8.97387461267918));
#754=CARTESIAN_POINT('',(-23.9193255543807,-3.85185988877447E-31,8.98528062625108));
#755=CARTESIAN_POINT('',(-23.9193255543807,-3.85185988877447E-31,8.98528062625108));
#756=CARTESIAN_POINT('',(-19.3507917072092,-14.0605290737794,8.99434303696164));
#757=CARTESIAN_POINT('',(-24.0026302726126,-17.4402942744611,8.98511537814391));
#758=CARTESIAN_POINT('',(-19.3507917072092,-14.0605290737794,8.99434303696164));
#759=CARTESIAN_POINT('',(-19.3507917072092,-14.0605290737794,8.99434303696164));
#760=CARTESIAN_POINT('',(7.39387127039557,22.7504139411812,9.0473953133214));
#761=CARTESIAN_POINT('',(9.1707154922021,28.2189889098783,9.05091996535318));
#762=CARTESIAN_POINT('',(7.39387127039557,22.7504139411812,9.0473953133214));
#763=CARTESIAN_POINT('',(7.39387127039557,22.7504139411812,9.0473953133214));
#764=CARTESIAN_POINT('',(19.3544481610447,-14.0605290737794,9.07112101258168));
#765=CARTESIAN_POINT('',(24.006286726448,-17.4402942744612,9.08034867139942));
#766=CARTESIAN_POINT('',(19.3544481610447,-14.0605290737794,9.07112101258168));
#767=CARTESIAN_POINT('',(19.3544481610447,-14.0605290737794,9.07112101258168));
#768=CARTESIAN_POINT('',(19.3544481610447,14.0605290737793,9.07112101258169));
#769=CARTESIAN_POINT('',(24.0062867264481,17.440294274461,9.08034867139943));
#770=CARTESIAN_POINT('',(19.3544481610447,14.0605290737793,9.07112101258169));
#771=CARTESIAN_POINT('',(19.3544481610447,14.0605290737793,9.07112101258169));
#772=CARTESIAN_POINT('',(23.9229820082161,-3.83275547724049E-17,9.08018342329227));
#773=CARTESIAN_POINT('',(29.6729706954097,-3.83275547724049E-17,9.09158943686417));
#774=CARTESIAN_POINT('',(23.9229820082161,-3.83275547724049E-17,9.08018342329227));
#775=CARTESIAN_POINT('',(23.9229820082161,-3.83275547724049E-17,9.08018342329227));
#776=CARTESIAN_POINT('',(-19.3507917072092,14.0605290737795,8.99434303696164));
#777=CARTESIAN_POINT('',(-24.0026302726125,17.4402942744612,8.98511537814391));
#778=CARTESIAN_POINT('',(-19.3507917072092,14.0605290737795,8.99434303696164));
#779=CARTESIAN_POINT('',(-19.3507917072092,14.0605290737795,8.99434303696164));
#780=CARTESIAN_POINT('',(-7.39021481656005,-22.7504139411812,9.01806873622194));
#781=CARTESIAN_POINT('',(-9.16705903836657,-28.2189889098783,9.01454408419015));
#782=CARTESIAN_POINT('',(-7.39021481656005,-22.7504139411812,9.01806873622194));
#783=CARTESIAN_POINT('',(-7.39021481656005,-22.7504139411812,9.01806873622194));
#784=CARTESIAN_POINT('',(-7.39021481655994,22.7504139411812,9.01806873622195));
#785=CARTESIAN_POINT('',(-9.16705903836644,28.2189889098784,9.01454408419016));
#786=CARTESIAN_POINT('',(-7.39021481655994,22.7504139411812,9.01806873622195));
#787=CARTESIAN_POINT('',(-7.39021481655994,22.7504139411812,9.01806873622195));
#788=CARTESIAN_POINT('',(7.39387127039544,-22.7504139411812,9.0473953133214));
#789=CARTESIAN_POINT('',(9.17071549220194,-28.2189889098783,9.05091996535319));
#790=CARTESIAN_POINT('',(7.39387127039544,-22.7504139411812,9.0473953133214));
#791=CARTESIAN_POINT('',(7.39387127039544,-22.7504139411812,9.0473953133214));
#792=(
GEOMETRIC_REPRESENTATION_CONTEXT(3)
GLOBAL_UNCERTAINTY_ASSIGNED_CONTEXT((#793))
GLOBAL_UNIT_ASSIGNED_CONTEXT((#799,#795,#794))
REPRESENTATION_CONTEXT('floatWithGroove','TOP_LEVEL_ASSEMBLY_PART')
);
#793=UNCERTAINTY_MEASURE_WITH_UNIT(LENGTH_MEASURE(0.0508),#799,
'DISTANCE_ACCURACY_VALUE','Maximum Tolerance applied to model');
#794=(
NAMED_UNIT(*)
SI_UNIT($,.STERADIAN.)
SOLID_ANGLE_UNIT()
);
#795=(
CONVERSION_BASED_UNIT('DEGREE',#797)
NAMED_UNIT(#796)
PLANE_ANGLE_UNIT()
);
#796=DIMENSIONAL_EXPONENTS(0.,0.,0.,0.,0.,0.,0.);
#797=PLANE_ANGLE_MEASURE_WITH_UNIT(PLANE_ANGLE_MEASURE(0.0174532925),#798);
#798=(
NAMED_UNIT(*)
PLANE_ANGLE_UNIT()
SI_UNIT($,.RADIAN.)
);
#799=(
LENGTH_UNIT()
NAMED_UNIT(*)
SI_UNIT(.MILLI.,.METRE.)
);
ENDSEC;
END-ISO-10303-21;
