ISO-10303-21;
HEADER;
/* Generated by software containing ST-Developer
 * from STEP Tools, Inc. (www.steptools.com) 
 */
/* OPTION: using custom schema-name function */

FILE_DESCRIPTION(
/* description */ (''),
/* implementation_level */ '2;1');

FILE_NAME(
/* name */ 'floatWithoutGroove.stp',
/* time_stamp */ '2025-07-09T14:28:27+03:00',
/* author */ (''),
/* organization */ (''),
/* preprocessor_version */ 'ST-DEVELOPER v19.4',
/* originating_system */ 'SIEMENS PLM Software NX2306.4000',
/* authorisation */ '');

FILE_SCHEMA (('AUTOMOTIVE_DESIGN { 1 0 10303 214 3 1 1 1 }'));
ENDSEC;

DATA;
#10=SHAPE_REPRESENTATION_RELATIONSHIP('None',
'relationship between float - Copie-None and float - Copie-None',#22,#11);
#11=ADVANCED_BREP_SHAPE_REPRESENTATION('float - Copie-None',(#32),#630);
#12=SHAPE_DEFINITION_REPRESENTATION(#13,#22);
#13=PRODUCT_DEFINITION_SHAPE('','',#14);
#14=PRODUCT_DEFINITION(' ','',#16,#15);
#15=PRODUCT_DEFINITION_CONTEXT('part definition',#21,'design');
#16=PRODUCT_DEFINITION_FORMATION_WITH_SPECIFIED_SOURCE(' ',' ',#18,
 .NOT_KNOWN.);
#17=PRODUCT_RELATED_PRODUCT_CATEGORY('part','',(#18));
#18=PRODUCT('float - Copie','float - Copie',' ',(#19));
#19=PRODUCT_CONTEXT(' ',#21,'mechanical');
#20=APPLICATION_PROTOCOL_DEFINITION('international standard',
'automotive_design',2010,#21);
#21=APPLICATION_CONTEXT(
'core data for automotive mechanical design processes');
#22=SHAPE_REPRESENTATION('float - Copie-None',(#281),#630);
#23=PRESENTATION_LAYER_ASSIGNMENT('1','Layer 1',(#32));
#24=STYLED_ITEM('',(#25),#32);
#25=PRESENTATION_STYLE_ASSIGNMENT((#26));
#26=SURFACE_STYLE_USAGE(.BOTH.,#27);
#27=SURFACE_SIDE_STYLE('',(#28));
#28=SURFACE_STYLE_FILL_AREA(#29);
#29=FILL_AREA_STYLE('',(#30));
#30=FILL_AREA_STYLE_COLOUR('',#31);
#31=COLOUR_RGB('medium steel',0.611764705882353,0.658823529411765,0.670588235294118);
#32=MANIFOLD_SOLID_BREP('',#33);
#33=CLOSED_SHELL('',(#76,#77,#78,#79,#80,#81,#82,#83,#84,#85,#86,#87,#88,
#89,#90,#91,#92,#93,#94,#95,#96,#97));
#34=PLANE('',#288);
#35=PLANE('',#291);
#36=PLANE('',#294);
#37=PLANE('',#297);
#38=PLANE('',#300);
#39=PLANE('',#303);
#40=PLANE('',#306);
#41=PLANE('',#309);
#42=PLANE('',#312);
#43=PLANE('',#315);
#44=FACE_OUTER_BOUND('',#149,.T.);
#45=FACE_OUTER_BOUND('',#152,.T.);
#46=FACE_OUTER_BOUND('',#155,.T.);
#47=FACE_OUTER_BOUND('',#158,.T.);
#48=FACE_OUTER_BOUND('',#161,.T.);
#49=FACE_OUTER_BOUND('',#164,.T.);
#50=FACE_OUTER_BOUND('',#167,.T.);
#51=FACE_OUTER_BOUND('',#170,.T.);
#52=FACE_OUTER_BOUND('',#173,.T.);
#53=FACE_OUTER_BOUND('',#176,.T.);
#54=CYLINDRICAL_SURFACE('',#287,5.75);
#55=CYLINDRICAL_SURFACE('',#290,5.75);
#56=CYLINDRICAL_SURFACE('',#293,5.75);
#57=CYLINDRICAL_SURFACE('',#296,5.75);
#58=CYLINDRICAL_SURFACE('',#299,5.75);
#59=CYLINDRICAL_SURFACE('',#302,5.75);
#60=CYLINDRICAL_SURFACE('',#305,5.75);
#61=CYLINDRICAL_SURFACE('',#308,5.75);
#62=CYLINDRICAL_SURFACE('',#311,5.75);
#63=CYLINDRICAL_SURFACE('',#314,5.75);
#64=CONICAL_SURFACE('',#285,39.4999094976378,89.8863448926408);
#65=B_SPLINE_CURVE_WITH_KNOTS('',3,(#392,#393,#394,#395,#396,#397,#398,
#399,#400,#401,#402,#403,#404,#405,#406,#407,#408,#409),.UNSPECIFIED.,.T.,
 .F.,(2,2,2,2,2,2,2,2,2,2,2),(-0.125,0.,0.125,0.25,0.375,0.5,0.625,0.75,
0.875,1.,1.125),.UNSPECIFIED.);
#66=B_SPLINE_CURVE_WITH_KNOTS('',3,(#411,#412,#413,#414,#415,#416,#417,
#418,#419,#420,#421,#422,#423,#424,#425,#426,#427,#428),.UNSPECIFIED.,.T.,
 .F.,(2,2,2,2,2,2,2,2,2,2,2),(-0.125,0.,0.125,0.25,0.375,0.5,0.625,0.75,
0.875,1.,1.125),.UNSPECIFIED.);
#67=B_SPLINE_CURVE_WITH_KNOTS('',3,(#430,#431,#432,#433,#434,#435,#436,
#437,#438,#439,#440,#441,#442,#443,#444,#445,#446,#447),.UNSPECIFIED.,.T.,
 .F.,(2,2,2,2,2,2,2,2,2,2,2),(-0.125,0.,0.125,0.25,0.375,0.5,0.625,0.75,
0.875,1.,1.125),.UNSPECIFIED.);
#68=B_SPLINE_CURVE_WITH_KNOTS('',3,(#449,#450,#451,#452,#453,#454,#455,
#456,#457,#458,#459,#460,#461,#462,#463,#464,#465,#466),.UNSPECIFIED.,.T.,
 .F.,(2,2,2,2,2,2,2,2,2,2,2),(-0.125,0.,0.125,0.25,0.375,0.5,0.625,0.75,
0.875,1.,1.125),.UNSPECIFIED.);
#69=B_SPLINE_CURVE_WITH_KNOTS('',3,(#468,#469,#470,#471,#472,#473,#474,
#475,#476,#477,#478,#479,#480,#481,#482,#483,#484,#485),.UNSPECIFIED.,.T.,
 .F.,(2,2,2,2,2,2,2,2,2,2,2),(-0.125,0.,0.125,0.25,0.375,0.5,0.625,0.75,
0.875,1.,1.125),.UNSPECIFIED.);
#70=B_SPLINE_CURVE_WITH_KNOTS('',3,(#487,#488,#489,#490,#491,#492,#493,
#494,#495,#496,#497,#498,#499,#500,#501,#502,#503,#504),.UNSPECIFIED.,.T.,
 .F.,(2,2,2,2,2,2,2,2,2,2,2),(-0.125,0.,0.125,0.25,0.375,0.5,0.625,0.75,
0.875,1.,1.125),.UNSPECIFIED.);
#71=B_SPLINE_CURVE_WITH_KNOTS('',3,(#506,#507,#508,#509,#510,#511,#512,
#513,#514,#515,#516,#517,#518,#519,#520,#521,#522,#523),.UNSPECIFIED.,.T.,
 .F.,(2,2,2,2,2,2,2,2,2,2,2),(-0.125,0.,0.125,0.25,0.375,0.5,0.625,0.75,
0.875,1.,1.125),.UNSPECIFIED.);
#72=B_SPLINE_CURVE_WITH_KNOTS('',3,(#525,#526,#527,#528,#529,#530,#531,
#532,#533,#534,#535,#536,#537,#538,#539,#540,#541,#542),.UNSPECIFIED.,.T.,
 .F.,(2,2,2,2,2,2,2,2,2,2,2),(-0.125,0.,0.125,0.25,0.375,0.5,0.625,0.75,
0.875,1.,1.125),.UNSPECIFIED.);
#73=B_SPLINE_CURVE_WITH_KNOTS('',3,(#544,#545,#546,#547,#548,#549,#550,
#551,#552,#553,#554,#555,#556,#557,#558,#559,#560,#561),.UNSPECIFIED.,.F.,
 .F.,(4,2,2,2,2,2,2,2,4),(0.,0.125,0.25,0.375,0.5,0.625,0.75,0.875,1.),
 .UNSPECIFIED.);
#74=B_SPLINE_CURVE_WITH_KNOTS('',3,(#564,#565,#566,#567,#568,#569),
 .UNSPECIFIED.,.F.,.F.,(4,2,4),(0.,0.5,1.),.UNSPECIFIED.);
#75=B_SPLINE_CURVE_WITH_KNOTS('',3,(#570,#571,#572,#573,#574,#575,#576,
#577,#578,#579,#580,#581,#582,#583,#584,#585,#586,#587),.UNSPECIFIED.,.T.,
 .F.,(2,2,2,2,2,2,2,2,2,2,2),(-0.125,0.,0.125,0.25,0.375,0.5,0.625,0.75,
0.875,1.,1.125),.UNSPECIFIED.);
#76=ADVANCED_FACE('',(#99,#100),#98,.T.);
#77=ADVANCED_FACE('',(#101,#102,#103,#104,#105,#106,#107,#108,#109,#110,
#111,#112),#64,.T.);
#78=ADVANCED_FACE('',(#113,#114),#54,.F.);
#79=ADVANCED_FACE('',(#44),#34,.T.);
#80=ADVANCED_FACE('',(#115,#116),#55,.F.);
#81=ADVANCED_FACE('',(#45),#35,.T.);
#82=ADVANCED_FACE('',(#117,#118),#56,.F.);
#83=ADVANCED_FACE('',(#46),#36,.T.);
#84=ADVANCED_FACE('',(#119,#120),#57,.F.);
#85=ADVANCED_FACE('',(#47),#37,.T.);
#86=ADVANCED_FACE('',(#121,#122),#58,.F.);
#87=ADVANCED_FACE('',(#48),#38,.T.);
#88=ADVANCED_FACE('',(#123,#124),#59,.F.);
#89=ADVANCED_FACE('',(#49),#39,.T.);
#90=ADVANCED_FACE('',(#125,#126),#60,.F.);
#91=ADVANCED_FACE('',(#50),#40,.T.);
#92=ADVANCED_FACE('',(#127,#128),#61,.F.);
#93=ADVANCED_FACE('',(#51),#41,.T.);
#94=ADVANCED_FACE('',(#129,#130),#62,.F.);
#95=ADVANCED_FACE('',(#52),#42,.T.);
#96=ADVANCED_FACE('',(#131,#132),#63,.F.);
#97=ADVANCED_FACE('',(#53),#43,.T.);
#98=TOROIDAL_SURFACE('',#284,28.,11.5);
#99=FACE_BOUND('',#133,.T.);
#100=FACE_BOUND('',#134,.T.);
#101=FACE_BOUND('',#135,.T.);
#102=FACE_BOUND('',#136,.T.);
#103=FACE_BOUND('',#137,.T.);
#104=FACE_BOUND('',#138,.T.);
#105=FACE_BOUND('',#139,.T.);
#106=FACE_BOUND('',#140,.T.);
#107=FACE_BOUND('',#141,.T.);
#108=FACE_BOUND('',#142,.T.);
#109=FACE_BOUND('',#143,.T.);
#110=FACE_BOUND('',#144,.T.);
#111=FACE_BOUND('',#145,.T.);
#112=FACE_BOUND('',#146,.T.);
#113=FACE_BOUND('',#147,.T.);
#114=FACE_BOUND('',#148,.T.);
#115=FACE_BOUND('',#150,.T.);
#116=FACE_BOUND('',#151,.T.);
#117=FACE_BOUND('',#153,.T.);
#118=FACE_BOUND('',#154,.T.);
#119=FACE_BOUND('',#156,.T.);
#120=FACE_BOUND('',#157,.T.);
#121=FACE_BOUND('',#159,.T.);
#122=FACE_BOUND('',#160,.T.);
#123=FACE_BOUND('',#162,.T.);
#124=FACE_BOUND('',#163,.T.);
#125=FACE_BOUND('',#165,.T.);
#126=FACE_BOUND('',#166,.T.);
#127=FACE_BOUND('',#168,.T.);
#128=FACE_BOUND('',#169,.T.);
#129=FACE_BOUND('',#171,.T.);
#130=FACE_BOUND('',#172,.T.);
#131=FACE_BOUND('',#174,.T.);
#132=FACE_BOUND('',#175,.T.);
#133=EDGE_LOOP('',(#177));
#134=EDGE_LOOP('',(#178));
#135=EDGE_LOOP('',(#179));
#136=EDGE_LOOP('',(#180));
#137=EDGE_LOOP('',(#181));
#138=EDGE_LOOP('',(#182));
#139=EDGE_LOOP('',(#183));
#140=EDGE_LOOP('',(#184));
#141=EDGE_LOOP('',(#185));
#142=EDGE_LOOP('',(#186));
#143=EDGE_LOOP('',(#187,#188));
#144=EDGE_LOOP('',(#189));
#145=EDGE_LOOP('',(#190));
#146=EDGE_LOOP('',(#191));
#147=EDGE_LOOP('',(#192));
#148=EDGE_LOOP('',(#193));
#149=EDGE_LOOP('',(#194));
#150=EDGE_LOOP('',(#195));
#151=EDGE_LOOP('',(#196,#197));
#152=EDGE_LOOP('',(#198));
#153=EDGE_LOOP('',(#199));
#154=EDGE_LOOP('',(#200));
#155=EDGE_LOOP('',(#201));
#156=EDGE_LOOP('',(#202));
#157=EDGE_LOOP('',(#203));
#158=EDGE_LOOP('',(#204));
#159=EDGE_LOOP('',(#205));
#160=EDGE_LOOP('',(#206));
#161=EDGE_LOOP('',(#207));
#162=EDGE_LOOP('',(#208));
#163=EDGE_LOOP('',(#209));
#164=EDGE_LOOP('',(#210));
#165=EDGE_LOOP('',(#211));
#166=EDGE_LOOP('',(#212));
#167=EDGE_LOOP('',(#213));
#168=EDGE_LOOP('',(#214));
#169=EDGE_LOOP('',(#215));
#170=EDGE_LOOP('',(#216));
#171=EDGE_LOOP('',(#217));
#172=EDGE_LOOP('',(#218));
#173=EDGE_LOOP('',(#219));
#174=EDGE_LOOP('',(#220));
#175=EDGE_LOOP('',(#221));
#176=EDGE_LOOP('',(#222));
#177=ORIENTED_EDGE('',*,*,#246,.F.);
#178=ORIENTED_EDGE('',*,*,#247,.F.);
#179=ORIENTED_EDGE('',*,*,#248,.F.);
#180=ORIENTED_EDGE('',*,*,#249,.F.);
#181=ORIENTED_EDGE('',*,*,#250,.F.);
#182=ORIENTED_EDGE('',*,*,#251,.F.);
#183=ORIENTED_EDGE('',*,*,#252,.F.);
#184=ORIENTED_EDGE('',*,*,#253,.F.);
#185=ORIENTED_EDGE('',*,*,#254,.F.);
#186=ORIENTED_EDGE('',*,*,#255,.F.);
#187=ORIENTED_EDGE('',*,*,#256,.F.);
#188=ORIENTED_EDGE('',*,*,#257,.F.);
#189=ORIENTED_EDGE('',*,*,#258,.F.);
#190=ORIENTED_EDGE('',*,*,#247,.T.);
#191=ORIENTED_EDGE('',*,*,#246,.T.);
#192=ORIENTED_EDGE('',*,*,#258,.T.);
#193=ORIENTED_EDGE('',*,*,#259,.T.);
#194=ORIENTED_EDGE('',*,*,#259,.F.);
#195=ORIENTED_EDGE('',*,*,#260,.T.);
#196=ORIENTED_EDGE('',*,*,#257,.T.);
#197=ORIENTED_EDGE('',*,*,#256,.T.);
#198=ORIENTED_EDGE('',*,*,#260,.F.);
#199=ORIENTED_EDGE('',*,*,#255,.T.);
#200=ORIENTED_EDGE('',*,*,#261,.T.);
#201=ORIENTED_EDGE('',*,*,#261,.F.);
#202=ORIENTED_EDGE('',*,*,#254,.T.);
#203=ORIENTED_EDGE('',*,*,#262,.T.);
#204=ORIENTED_EDGE('',*,*,#262,.F.);
#205=ORIENTED_EDGE('',*,*,#253,.T.);
#206=ORIENTED_EDGE('',*,*,#263,.T.);
#207=ORIENTED_EDGE('',*,*,#263,.F.);
#208=ORIENTED_EDGE('',*,*,#252,.T.);
#209=ORIENTED_EDGE('',*,*,#264,.T.);
#210=ORIENTED_EDGE('',*,*,#264,.F.);
#211=ORIENTED_EDGE('',*,*,#251,.T.);
#212=ORIENTED_EDGE('',*,*,#265,.T.);
#213=ORIENTED_EDGE('',*,*,#265,.F.);
#214=ORIENTED_EDGE('',*,*,#250,.T.);
#215=ORIENTED_EDGE('',*,*,#266,.T.);
#216=ORIENTED_EDGE('',*,*,#266,.F.);
#217=ORIENTED_EDGE('',*,*,#249,.T.);
#218=ORIENTED_EDGE('',*,*,#267,.T.);
#219=ORIENTED_EDGE('',*,*,#267,.F.);
#220=ORIENTED_EDGE('',*,*,#248,.T.);
#221=ORIENTED_EDGE('',*,*,#268,.T.);
#222=ORIENTED_EDGE('',*,*,#268,.F.);
#223=VERTEX_POINT('',#388);
#224=VERTEX_POINT('',#390);
#225=VERTEX_POINT('',#410);
#226=VERTEX_POINT('',#429);
#227=VERTEX_POINT('',#448);
#228=VERTEX_POINT('',#467);
#229=VERTEX_POINT('',#486);
#230=VERTEX_POINT('',#505);
#231=VERTEX_POINT('',#524);
#232=VERTEX_POINT('',#543);
#233=VERTEX_POINT('',#562);
#234=VERTEX_POINT('',#563);
#235=VERTEX_POINT('',#588);
#236=VERTEX_POINT('',#591);
#237=VERTEX_POINT('',#595);
#238=VERTEX_POINT('',#599);
#239=VERTEX_POINT('',#603);
#240=VERTEX_POINT('',#607);
#241=VERTEX_POINT('',#611);
#242=VERTEX_POINT('',#615);
#243=VERTEX_POINT('',#619);
#244=VERTEX_POINT('',#623);
#245=VERTEX_POINT('',#627);
#246=EDGE_CURVE('',#223,#223,#269,.T.);
#247=EDGE_CURVE('',#224,#224,#270,.T.);
#248=EDGE_CURVE('',#225,#225,#65,.T.);
#249=EDGE_CURVE('',#226,#226,#66,.T.);
#250=EDGE_CURVE('',#227,#227,#67,.T.);
#251=EDGE_CURVE('',#228,#228,#68,.T.);
#252=EDGE_CURVE('',#229,#229,#69,.T.);
#253=EDGE_CURVE('',#230,#230,#70,.T.);
#254=EDGE_CURVE('',#231,#231,#71,.T.);
#255=EDGE_CURVE('',#232,#232,#72,.T.);
#256=EDGE_CURVE('',#233,#234,#73,.T.);
#257=EDGE_CURVE('',#234,#233,#74,.T.);
#258=EDGE_CURVE('',#235,#235,#75,.T.);
#259=EDGE_CURVE('',#236,#236,#271,.T.);
#260=EDGE_CURVE('',#237,#237,#272,.T.);
#261=EDGE_CURVE('',#238,#238,#273,.T.);
#262=EDGE_CURVE('',#239,#239,#274,.T.);
#263=EDGE_CURVE('',#240,#240,#275,.T.);
#264=EDGE_CURVE('',#241,#241,#276,.T.);
#265=EDGE_CURVE('',#242,#242,#277,.T.);
#266=EDGE_CURVE('',#243,#243,#278,.T.);
#267=EDGE_CURVE('',#244,#244,#279,.T.);
#268=EDGE_CURVE('',#245,#245,#280,.T.);
#269=CIRCLE('',#282,39.4999094976378);
#270=CIRCLE('',#283,16.5);
#271=CIRCLE('',#286,5.75);
#272=CIRCLE('',#289,5.75);
#273=CIRCLE('',#292,5.75);
#274=CIRCLE('',#295,5.75);
#275=CIRCLE('',#298,5.75);
#276=CIRCLE('',#301,5.75);
#277=CIRCLE('',#304,5.75);
#278=CIRCLE('',#307,5.75);
#279=CIRCLE('',#310,5.75);
#280=CIRCLE('',#313,5.75);
#281=AXIS2_PLACEMENT_3D('',#386,#316,#317);
#282=AXIS2_PLACEMENT_3D('',#387,#318,#319);
#283=AXIS2_PLACEMENT_3D('',#389,#320,#321);
#284=AXIS2_PLACEMENT_3D('',#391,#322,#323);
#285=AXIS2_PLACEMENT_3D('',#589,#324,#325);
#286=AXIS2_PLACEMENT_3D('',#590,#326,#327);
#287=AXIS2_PLACEMENT_3D('',#592,#328,#329);
#288=AXIS2_PLACEMENT_3D('',#593,#330,#331);
#289=AXIS2_PLACEMENT_3D('',#594,#332,#333);
#290=AXIS2_PLACEMENT_3D('',#596,#334,#335);
#291=AXIS2_PLACEMENT_3D('',#597,#336,#337);
#292=AXIS2_PLACEMENT_3D('',#598,#338,#339);
#293=AXIS2_PLACEMENT_3D('',#600,#340,#341);
#294=AXIS2_PLACEMENT_3D('',#601,#342,#343);
#295=AXIS2_PLACEMENT_3D('',#602,#344,#345);
#296=AXIS2_PLACEMENT_3D('',#604,#346,#347);
#297=AXIS2_PLACEMENT_3D('',#605,#348,#349);
#298=AXIS2_PLACEMENT_3D('',#606,#350,#351);
#299=AXIS2_PLACEMENT_3D('',#608,#352,#353);
#300=AXIS2_PLACEMENT_3D('',#609,#354,#355);
#301=AXIS2_PLACEMENT_3D('',#610,#356,#357);
#302=AXIS2_PLACEMENT_3D('',#612,#358,#359);
#303=AXIS2_PLACEMENT_3D('',#613,#360,#361);
#304=AXIS2_PLACEMENT_3D('',#614,#362,#363);
#305=AXIS2_PLACEMENT_3D('',#616,#364,#365);
#306=AXIS2_PLACEMENT_3D('',#617,#366,#367);
#307=AXIS2_PLACEMENT_3D('',#618,#368,#369);
#308=AXIS2_PLACEMENT_3D('',#620,#370,#371);
#309=AXIS2_PLACEMENT_3D('',#621,#372,#373);
#310=AXIS2_PLACEMENT_3D('',#622,#374,#375);
#311=AXIS2_PLACEMENT_3D('',#624,#376,#377);
#312=AXIS2_PLACEMENT_3D('',#625,#378,#379);
#313=AXIS2_PLACEMENT_3D('',#626,#380,#381);
#314=AXIS2_PLACEMENT_3D('',#628,#382,#383);
#315=AXIS2_PLACEMENT_3D('',#629,#384,#385);
#316=DIRECTION('',(0.,0.,1.));
#317=DIRECTION('',(1.,0.,0.));
#318=DIRECTION('',(0.,0.,1.));
#319=DIRECTION('',(-1.,0.,0.));
#320=DIRECTION('',(0.,0.,-1.));
#321=DIRECTION('',(-1.,0.,0.));
#322=DIRECTION('',(0.,0.,-1.));
#323=DIRECTION('',(-1.,0.,0.));
#324=DIRECTION('',(0.,0.,-1.));
#325=DIRECTION('',(-1.,0.,4.12899510604237E-20));
#326=DIRECTION('',(0.00198365453424336,0.,-0.999998032555409));
#327=DIRECTION('',(0.999998032555409,0.,0.00198365453424332));
#328=DIRECTION('',(-0.00198365453424336,0.,0.999998032555409));
#329=DIRECTION('',(0.999998032555409,0.,0.00198365453424332));
#330=DIRECTION('',(-0.00198365453424336,0.,0.999998032555409));
#331=DIRECTION('',(0.999998032555409,0.,0.00198365453424336));
#332=DIRECTION('',(0.00198365453424336,0.,-0.999998032555408));
#333=DIRECTION('',(-0.999998032555409,1.22464679914735E-16,-0.00198365453424332));
#334=DIRECTION('',(-0.00198365453424336,0.,0.999998032555409));
#335=DIRECTION('',(0.999998032555409,0.,0.00198365453424332));
#336=DIRECTION('',(-0.00198365453424336,0.,0.999998032555408));
#337=DIRECTION('',(0.999998032555409,0.,0.00198365453424336));
#338=DIRECTION('',(0.00198365453424336,-2.16840434497101E-19,-0.999998032555408));
#339=DIRECTION('',(-0.809015402678838,-0.587785252292473,-0.00160481022917166));
#340=DIRECTION('',(-0.00198365453424336,0.,0.999998032555409));
#341=DIRECTION('',(0.999998032555409,0.,0.00198365453424332));
#342=DIRECTION('',(-0.00198365453424336,2.16840434497101E-19,0.999998032555408));
#343=DIRECTION('',(0.999998032555409,0.,0.00198365453424336));
#344=DIRECTION('',(0.00198365453424336,2.16840434497101E-19,-0.999998032555408));
#345=DIRECTION('',(-0.809015402678835,0.587785252292477,-0.00160481022917166));
#346=DIRECTION('',(-0.00198365453424336,0.,0.999998032555409));
#347=DIRECTION('',(0.999998032555409,0.,0.00198365453424332));
#348=DIRECTION('',(-0.00198365453424336,-2.16840434497101E-19,0.999998032555408));
#349=DIRECTION('',(0.999998032555409,0.,0.00198365453424336));
#350=DIRECTION('',(0.00198365453424336,-4.33680868994202E-19,-0.999998032555409));
#351=DIRECTION('',(-0.309016386401134,-0.951056516295154,-0.000612982962049996));
#352=DIRECTION('',(-0.00198365453424336,0.,0.999998032555409));
#353=DIRECTION('',(0.999998032555409,0.,0.00198365453424332));
#354=DIRECTION('',(-0.00198365453424336,4.33680868994202E-19,0.999998032555409));
#355=DIRECTION('',(0.999998032555409,0.,0.00198365453424336));
#356=DIRECTION('',(0.00198365453424336,4.33680868994202E-19,-0.999998032555409));
#357=DIRECTION('',(-0.30901638640113,0.951056516295155,-0.000612982962049996));
#358=DIRECTION('',(-0.00198365453424336,0.,0.999998032555409));
#359=DIRECTION('',(0.999998032555409,0.,0.00198365453424332));
#360=DIRECTION('',(-0.00198365453424336,-4.33680868994202E-19,0.999998032555409));
#361=DIRECTION('',(0.999998032555409,0.,0.00198365453424336));
#362=DIRECTION('',(0.00198365453424336,-4.33680868994202E-19,-0.999998032555409));
#363=DIRECTION('',(0.309016386401132,-0.951056516295154,0.000612982962049996));
#364=DIRECTION('',(-0.00198365453424336,0.,0.999998032555409));
#365=DIRECTION('',(0.999998032555409,0.,0.00198365453424332));
#366=DIRECTION('',(-0.00198365453424336,4.33680868994202E-19,0.999998032555409));
#367=DIRECTION('',(0.999998032555409,0.,0.00198365453424336));
#368=DIRECTION('',(0.00198365453424336,8.67361737988404E-19,-0.999998032555409));
#369=DIRECTION('',(0.309016386401137,0.951056516295152,0.000612982962049996));
#370=DIRECTION('',(-0.00198365453424336,0.,0.999998032555409));
#371=DIRECTION('',(0.999998032555409,0.,0.00198365453424332));
#372=DIRECTION('',(-0.00198365453424336,-8.67361737988404E-19,0.999998032555409));
#373=DIRECTION('',(0.999998032555409,0.,0.00198365453424336));
#374=DIRECTION('',(0.00198365453424336,-4.33680868994202E-19,-0.999998032555409));
#375=DIRECTION('',(0.809015402678836,-0.587785252292474,0.00160481022917166));
#376=DIRECTION('',(-0.00198365453424336,0.,0.999998032555409));
#377=DIRECTION('',(0.999998032555409,0.,0.00198365453424332));
#378=DIRECTION('',(-0.00198365453424336,4.33680868994202E-19,0.999998032555409));
#379=DIRECTION('',(0.999998032555409,0.,0.00198365453424336));
#380=DIRECTION('',(0.00198365453424336,0.,-0.999998032555409));
#381=DIRECTION('',(0.809015402678839,0.58778525229247,0.00160481022917166));
#382=DIRECTION('',(-0.00198365453424336,0.,0.999998032555409));
#383=DIRECTION('',(0.999998032555409,0.,0.00198365453424332));
#384=DIRECTION('',(-0.00198365453424336,0.,0.999998032555409));
#385=DIRECTION('',(0.999998032555409,0.,0.00198365453424336));
#386=CARTESIAN_POINT('',(0.,0.,0.));
#387=CARTESIAN_POINT('',(0.,0.,9.95437603547587));
#388=CARTESIAN_POINT('',(-39.4999094976378,0.,9.95437603547587));
#389=CARTESIAN_POINT('',(0.,0.,10.));
#390=CARTESIAN_POINT('',(-16.5,0.,10.));
#391=CARTESIAN_POINT('',(0.,0.,10.));
#392=CARTESIAN_POINT('',(14.2123350925503,11.0690319983059,9.99711617129192));
#393=CARTESIAN_POINT('',(16.3612654377499,8.92017298030186,9.99588092488658));
#394=CARTESIAN_POINT('',(17.8527763918084,8.31037300886463,9.99368535508192));
#395=CARTESIAN_POINT('',(20.8536670658962,8.31068520092638,9.98821534588775));
#396=CARTESIAN_POINT('',(22.3552122725861,8.93247490606147,9.9849891536864));
#397=CARTESIAN_POINT('',(24.4775889255808,11.0526330022147,9.97946623088628));
#398=CARTESIAN_POINT('',(25.1019008352403,12.5396528238316,9.97713145349577));
#399=CARTESIAN_POINT('',(25.1034280803412,15.5756424266695,9.97418623692666));
#400=CARTESIAN_POINT('',(24.480901975216,17.063303818782,9.97361022822841));
#401=CARTESIAN_POINT('',(22.3589095868009,19.1867281776783,9.97436109249136));
#402=CARTESIAN_POINT('',(20.8576777816241,19.8090935882152,9.97570956867798));
#403=CARTESIAN_POINT('',(17.8586102593731,19.8119593092507,9.97986330732706));
#404=CARTESIAN_POINT('',(16.3643114414145,19.2017681180489,9.98268546055828));
#405=CARTESIAN_POINT('',(14.2174146931475,17.0592118831715,9.98867998205026));
#406=CARTESIAN_POINT('',(13.6037926892188,15.5666138474387,9.99177395406079));
#407=CARTESIAN_POINT('',(13.6014235373074,12.563484010986,9.99605939418124));
#408=CARTESIAN_POINT('',(14.2123350925503,11.0690319983059,9.99711617129192));
#409=CARTESIAN_POINT('',(16.3612654377499,8.92017298030186,9.99588092488658));
#410=CARTESIAN_POINT('',(15.2868020013865,9.99460361449781,9.99650057015219));
#411=CARTESIAN_POINT('',(14.2123527044243,-17.0520242795901,9.98869540466129));
#412=CARTESIAN_POINT('',(16.3612807376946,-19.2008768463169,9.98268874836228));
#413=CARTESIAN_POINT('',(17.8527865889408,-19.8106813606637,9.97987292357571));
#414=CARTESIAN_POINT('',(20.8536800971376,-19.8103767276402,9.97571356017015));
#415=CARTESIAN_POINT('',(22.3552298254321,-19.1885869345411,9.97436411992009));
#416=CARTESIAN_POINT('',(24.4776047309012,-17.0684207886685,9.97360967526902));
#417=CARTESIAN_POINT('',(25.1019096554125,-15.5813947288204,9.97418283044502));
#418=CARTESIAN_POINT('',(25.1034192935264,-12.5454038475017,9.9771237088109));
#419=CARTESIAN_POINT('',(24.4808855604989,-11.057749138537,9.97945615263818));
#420=CARTESIAN_POINT('',(22.3588919277462,-8.93433374812706,9.98498107306859));
#421=CARTESIAN_POINT('',(20.857664461032,-8.31196834984708,9.98820694772201));
#422=CARTESIAN_POINT('',(17.858600375654,-8.309095075538,9.99367584724979));
#423=CARTESIAN_POINT('',(16.3642961202204,-8.91928236756673,9.99587798232211));
#424=CARTESIAN_POINT('',(14.2173991279482,-11.0618419283968,9.99711849484597));
#425=CARTESIAN_POINT('',(13.6037826359835,-12.5544501096983,9.99606835491637));
#426=CARTESIAN_POINT('',(13.6014335302405,-15.5575800450955,9.9917907522088));
#427=CARTESIAN_POINT('',(14.2123527044243,-17.0520242795901,9.98869540466129));
#428=CARTESIAN_POINT('',(16.3612807376946,-19.2008768463169,9.98268874836228));
#429=CARTESIAN_POINT('',(15.2868183905642,-18.1264494858923,9.98569402084732));
#430=CARTESIAN_POINT('',(2.2517187649142,19.7589161236964,9.99335724492034));
#431=CARTESIAN_POINT('',(4.40064172009851,17.6100563796601,9.99680677260322));
#432=CARTESIAN_POINT('',(5.89215380596442,17.0002548557566,9.99714411825957));
#433=CARTESIAN_POINT('',(8.89304503756542,17.0005730912705,9.99476972406921));
#434=CARTESIAN_POINT('',(10.3945877983194,17.6223680740606,9.99215145850602));
#435=CARTESIAN_POINT('',(12.5169582158673,19.7425301654572,9.98636539251437));
#436=CARTESIAN_POINT('',(13.1412663995759,21.2295449295835,9.98322583140521));
#437=CARTESIAN_POINT('',(13.1427949398878,24.2655322088369,9.97800966340857));
#438=CARTESIAN_POINT('',(12.5202726859074,25.7531895842695,9.97599482165999));
#439=CARTESIAN_POINT('',(10.3982862771679,27.876613269122,9.97377565258693));
#440=CARTESIAN_POINT('',(8.89705533616443,28.4989799001271,9.97357735927404));
#441=CARTESIAN_POINT('',(5.89798748286337,28.5018427427036,9.97506648212696));
#442=CARTESIAN_POINT('',(4.40369073027977,27.8916488030389,9.97674810735569));
#443=CARTESIAN_POINT('',(2.25679706570264,25.7490844972842,9.98149060026067));
#444=CARTESIAN_POINT('',(1.64318130936325,24.2564878432846,9.98450396716856));
#445=CARTESIAN_POINT('',(1.64081255361896,21.2533656721346,9.99044602458493));
#446=CARTESIAN_POINT('',(2.2517187649142,19.7589161236964,9.99335724492034));
#447=CARTESIAN_POINT('',(4.40064172009851,17.6100563796601,9.99680677260322));
#448=CARTESIAN_POINT('',(3.32618196664101,18.6844873722995,9.99508402033547));
#449=CARTESIAN_POINT('',(2.25174718791792,-25.7419164734126,9.98150380803095));
#450=CARTESIAN_POINT('',(4.40067665899042,-27.8907665149729,9.97674892443453));
#451=CARTESIAN_POINT('',(5.89218397154864,-28.5005698998492,9.97507135421814));
#452=CARTESIAN_POINT('',(8.89307671947599,-28.5002579203659,9.97357735076658));
#453=CARTESIAN_POINT('',(10.3946235127211,-27.8784623924463,9.97377470224565));
#454=CARTESIAN_POINT('',(12.516986623094,-25.7582880558481,9.9759885143506));
#455=CARTESIAN_POINT('',(13.1412821328243,-24.2712629780108,9.97800115658708));
#456=CARTESIAN_POINT('',(13.142779265921,-21.2352750472769,9.98321465217933));
#457=CARTESIAN_POINT('',(12.5202433530567,-19.7476273518589,9.98635333012171));
#458=CARTESIAN_POINT('',(10.3982503739394,-17.6242173032327,9.99214456969844));
#459=CARTESIAN_POINT('',(8.89702310903309,-17.0018511364519,9.99476359181054));
#460=CARTESIAN_POINT('',(5.89795801059723,-16.99898200849,9.99714250077106));
#461=CARTESIAN_POINT('',(4.40365558836074,-17.6091750218549,9.99680885078436));
#462=CARTESIAN_POINT('',(2.2567710672609,-19.7517452248502,9.99337211457086));
#463=CARTESIAN_POINT('',(1.64316636957911,-21.2443517525227,9.99046351651404));
#464=CARTESIAN_POINT('',(1.64082740398824,-24.2474743067763,9.98452214278975));
#465=CARTESIAN_POINT('',(2.25174718791792,-25.7419164734126,9.98150380803095));
#466=CARTESIAN_POINT('',(4.40067665899042,-27.8907665149729,9.97674892443453));
#467=CARTESIAN_POINT('',(3.32621355105638,-26.8163404437103,9.97912826425158));
#468=CARTESIAN_POINT('',(-12.5323953207471,19.758889408603,9.98631972621541));
#469=CARTESIAN_POINT('',(-10.3834695406594,17.6100431822517,9.99218188522477));
#470=CARTESIAN_POINT('',(-8.89195987757426,17.0002473368415,9.99477132129663));
#471=CARTESIAN_POINT('',(-5.89107215435053,17.0005806164438,9.99714423494278));
#472=CARTESIAN_POINT('',(-4.38953277292357,17.6223867536002,9.99678824731509));
#473=CARTESIAN_POINT('',(-2.26717846780837,19.7425658213603,9.99338613642879));
#474=CARTESIAN_POINT('',(-1.64288261673333,21.2295832286044,9.99049277661383));
#475=CARTESIAN_POINT('',(-1.64137179175745,24.2655669453365,9.98448626867069));
#476=CARTESIAN_POINT('',(-2.26389873604258,25.7532165812519,9.98148041539424));
#477=CARTESIAN_POINT('',(-4.38588865588536,27.8766272870877,9.97678234244568));
#478=CARTESIAN_POINT('',(-5.88711941318065,28.4989873689556,9.97507634835871));
#479=CARTESIAN_POINT('',(-8.88618338909655,28.5018353282191,9.97357831986446));
#480=CARTESIAN_POINT('',(-10.3804761862057,27.891632663764,9.97376146040344));
#481=CARTESIAN_POINT('',(-12.5273547649872,25.7490536846331,9.97599752075088));
#482=CARTESIAN_POINT('',(-13.1409590276782,24.2564524561027,9.97802687644316));
#483=CARTESIAN_POINT('',(-13.1433084289519,21.2533329212814,9.98318314980062));
#484=CARTESIAN_POINT('',(-12.5323953207471,19.758889408603,9.98631972621541));
#485=CARTESIAN_POINT('',(-10.3834695406594,17.6100431822517,9.99218188522477));
#486=CARTESIAN_POINT('',(-11.4579307457065,18.6844673917309,9.98925277504417));
#487=CARTESIAN_POINT('',(-12.532370603341,-25.7419400256697,9.97600608757322));
#488=CARTESIAN_POINT('',(-10.3834341765871,-27.8907806602185,9.97376121101809));
#489=CARTESIAN_POINT('',(-8.89192582090309,-28.5005783733375,9.9735774174436));
#490=CARTESIAN_POINT('',(-5.89103704191084,-28.5002494399397,9.97507243191048));
#491=CARTESIAN_POINT('',(-4.38949711716024,-27.8784447453246,9.97677768149796));
#492=CARTESIAN_POINT('',(-2.26715239445642,-25.7582600455679,9.98146989439847));
#493=CARTESIAN_POINT('',(-1.64286827984855,-24.271235742109,9.98447483530179));
#494=CARTESIAN_POINT('',(-1.64138607520371,-21.2352517050448,9.990481779069));
#495=CARTESIAN_POINT('',(-2.2639254616495,-19.7476084282916,9.99337690779952));
#496=CARTESIAN_POINT('',(-4.38592422904444,-17.6242044499026,9.99678646400031));
#497=CARTESIAN_POINT('',(-5.8871546128465,-17.0018427773435,9.99714438399427));
#498=CARTESIAN_POINT('',(-8.8862167196019,-16.9989903066477,9.9947788018372));
#499=CARTESIAN_POINT('',(-10.380509802502,-17.6091928499626,9.99218831932837));
#500=CARTESIAN_POINT('',(-12.5273760809168,-19.7517744363551,9.98633897443458));
#501=CARTESIAN_POINT('',(-13.1409705293167,-21.2443800334911,9.98320059364936));
#502=CARTESIAN_POINT('',(-13.1432969956866,-24.2474998135751,9.97804018821111));
#503=CARTESIAN_POINT('',(-12.532370603341,-25.7419400256697,9.97600608757322));
#504=CARTESIAN_POINT('',(-10.3834341765871,-27.8907806602185,9.97376121101809));
#505=CARTESIAN_POINT('',(-11.4579023899632,-26.8163603429436,9.97488364929566));
#506=CARTESIAN_POINT('',(-24.4929860035109,11.0689717225311,9.9794234565227));
#507=CARTESIAN_POINT('',(-22.3440484625122,8.92014087158017,9.98501725206466));
#508=CARTESIAN_POINT('',(-20.8525388028556,8.3103541913965,9.98821768618456));
#509=CARTESIAN_POINT('',(-17.8516578054863,8.31070403430999,9.99368711011748));
#510=CARTESIAN_POINT('',(-16.3501248825772,8.93251880685878,9.99588759250197));
#511=CARTESIAN_POINT('',(-14.2277895729698,11.0527142777493,9.99711070428336));
#512=CARTESIAN_POINT('',(-13.603506903233,12.53973912578,9.99608982095589));
#513=CARTESIAN_POINT('',(-13.6020209130886,15.5757227566028,9.99176396434357));
#514=CARTESIAN_POINT('',(-14.2245574634017,17.0633659174523,9.98866454236803));
#515=CARTESIAN_POINT('',(-16.3465562130958,19.1867605756351,9.98273093016071));
#516=CARTESIAN_POINT('',(-17.8477871282759,19.8091113755564,9.97988175600589));
#517=CARTESIAN_POINT('',(-20.8468451724429,19.8119416510054,9.97572113829569));
#518=CARTESIAN_POINT('',(-22.3411328308179,19.2017296253325,9.97437000368568));
#519=CARTESIAN_POINT('',(-24.4879928251557,17.0591367535839,9.97360492289974));
#520=CARTESIAN_POINT('',(-25.1015852690586,15.5665300348009,9.97419768343359));
#521=CARTESIAN_POINT('',(-25.1039105030209,12.5634101412061,9.97710552111757));
#522=CARTESIAN_POINT('',(-24.4929860035109,11.0689717225311,9.9794234565227));
#523=CARTESIAN_POINT('',(-22.3440484625122,8.92014087158017,9.98501725206466));
#524=CARTESIAN_POINT('',(-23.4185155922497,9.99455736388008,9.98222227369105));
#525=CARTESIAN_POINT('',(-24.4929733156265,-17.0520839950757,9.97360511816738));
#526=CARTESIAN_POINT('',(-22.3440290440521,-19.2009137216593,9.97436700858624));
#527=CARTESIAN_POINT('',(-20.8525188748117,-19.8107026301809,9.9757147709456));
#528=CARTESIAN_POINT('',(-17.8516357005611,-19.8103554404113,9.97987491779121));
#529=CARTESIAN_POINT('',(-16.3501031609787,-19.1885420317867,9.9827236884446));
#530=CARTESIAN_POINT('',(-14.2277749108574,-17.0683476785676,9.98865287774946));
#531=CARTESIAN_POINT('',(-13.6034992221346,-15.5813224795362,9.99175352530041));
#532=CARTESIAN_POINT('',(-13.6020285659044,-12.5453388949424,9.99608429321265));
#533=CARTESIAN_POINT('',(-14.2245721651733,-11.0576959913141,9.99710989208879));
#534=CARTESIAN_POINT('',(-16.3465778292216,-8.93430035743267,9.99589229460464));
#535=CARTESIAN_POINT('',(-17.8478091047095,-8.31194815828566,9.99369304604943));
#536=CARTESIAN_POINT('',(-20.8468648121634,-8.30911512027134,9.98822910294848));
#537=CARTESIAN_POINT('',(-22.3411504061991,-8.91932626976847,9.98502499974063));
#538=CARTESIAN_POINT('',(-24.4880030181628,-11.0619187138841,9.97944004758709));
#539=CARTESIAN_POINT('',(-25.1015905761923,-12.5545262448868,9.97711744794633));
#540=CARTESIAN_POINT('',(-25.1039052271941,-15.5576461732515,9.97420298024333));
#541=CARTESIAN_POINT('',(-24.4929733156265,-17.0520839950757,9.97360511816738));
#542=CARTESIAN_POINT('',(-22.3440290440521,-19.2009137216593,9.97436700858624));
#543=CARTESIAN_POINT('',(-23.4185011798385,-18.126498858367,9.97398606337681));
#544=CARTESIAN_POINT('',(-27.9871648810614,-4.06586431213732,9.97721338989888));
#545=CARTESIAN_POINT('',(-27.0557810375396,-4.99724984135702,9.97906093731815));
#546=CARTESIAN_POINT('',(-25.7957392705759,-5.59320627191235,9.98156042980014));
#547=CARTESIAN_POINT('',(-23.1740732544265,-5.85141816251984,9.98676091971203));
#548=CARTESIAN_POINT('',(-21.8219777801895,-5.51273511897181,9.9894430153071));
#549=CARTESIAN_POINT('',(-19.6315949630577,-4.04916504500299,9.99378798666252));
#550=CARTESIAN_POINT('',(-18.8012688420682,-2.92959754413727,9.99543507007787));
#551=CARTESIAN_POINT('',(-18.0365572018318,-0.408675702429496,9.99695199677488));
#552=CARTESIAN_POINT('',(-18.1049511232441,0.983516030839805,9.99681632659563));
#553=CARTESIAN_POINT('',(-19.1130737473992,3.41734385987002,9.99481655564672));
#554=CARTESIAN_POINT('',(-20.0491383016397,4.45013390220393,9.99295972329614));
#555=CARTESIAN_POINT('',(-22.372428607959,5.69196079795685,9.98835110887845));
#556=CARTESIAN_POINT('',(-23.7512100691429,5.89648407529794,9.98561607740022));
#557=CARTESIAN_POINT('',(-26.3349428599786,5.38254660515189,9.98049083405077));
#558=CARTESIAN_POINT('',(-27.5305032877612,4.66595382805477,9.97811925052128));
#559=CARTESIAN_POINT('',(-29.2017179257488,2.629568852285,9.97480413150463));
#560=CARTESIAN_POINT('',(-29.6712978961085,1.31717815098975,9.97387264523459));
#561=CARTESIAN_POINT('',(-29.6712978961085,2.11251572852918E-15,9.97387264523459));
#562=CARTESIAN_POINT('',(-27.9871643030439,-4.06586431214464,9.97692199657326));
#563=CARTESIAN_POINT('',(-29.6712978961085,7.04171909509727E-16,9.97387264523459));
#564=CARTESIAN_POINT('',(-29.6712978961085,1.20555305639084E-15,9.97387264523459));
#565=CARTESIAN_POINT('',(-29.6712978961085,-0.75267331542145,9.97387264523459));
#566=CARTESIAN_POINT('',(-29.5216410510006,-1.50505048591556,9.97416951329804));
#567=CARTESIAN_POINT('',(-28.9455709140157,-2.89580940479428,9.97531223968556));
#568=CARTESIAN_POINT('',(-28.5193842812289,-3.53364394871376,9.97615764839542));
#569=CARTESIAN_POINT('',(-27.9871648810614,-4.06586431213732,9.97721338989888));
#570=CARTESIAN_POINT('',(18.7808937391224,-2.99149952989821,9.99504040233046));
#571=CARTESIAN_POINT('',(20.9298254614167,-5.14035281049084,9.99000917975552));
#572=CARTESIAN_POINT('',(22.4213327878084,-5.75015378194476,9.98682003241126));
#573=CARTESIAN_POINT('',(25.4222246800255,-5.74984615763068,9.98103228388153));
#574=CARTESIAN_POINT('',(26.9237729186457,-5.12805748688582,9.97841497007557));
#575=CARTESIAN_POINT('',(29.0461506826581,-3.00789618415091,9.97485367607746));
#576=CARTESIAN_POINT('',(29.6704606344566,-1.52087117081392,9.97387401252449));
#577=CARTESIAN_POINT('',(29.6719790204675,1.51511972167839,9.97387158425124));
#578=CARTESIAN_POINT('',(29.0494476758492,3.00277988440588,9.97484832982001));
#579=CARTESIAN_POINT('',(26.9274514229736,5.12619959441687,9.97840861224236));
#580=CARTESIAN_POINT('',(25.4262209097744,5.74856328843518,9.98102513833186));
#581=CARTESIAN_POINT('',(22.4271558471362,5.75143145249686,9.98680824156942));
#582=CARTESIAN_POINT('',(20.932854713579,5.14124260618399,9.99000467743395));
#583=CARTESIAN_POINT('',(18.7859570457176,2.99868832107457,9.99502995389844));
#584=CARTESIAN_POINT('',(18.1723339209227,1.50608416179931,9.99668191924219));
#585=CARTESIAN_POINT('',(18.1699749654269,-1.49705100664149,9.9966880793096));
#586=CARTESIAN_POINT('',(18.7808937391224,-2.99149952989821,9.99504040233046));
#587=CARTESIAN_POINT('',(20.9298254614167,-5.14035281049084,9.99000917975552));
#588=CARTESIAN_POINT('',(19.8553613126067,-4.06592506398104,9.99252678396127));
#589=CARTESIAN_POINT('',(0.,0.,9.95437603547587));
#590=CARTESIAN_POINT('',(23.9229820082161,-3.83275547724049E-17,9.08018342329227));
#591=CARTESIAN_POINT('',(29.6729706954097,-3.83275547724049E-17,9.09158943686417));
#592=CARTESIAN_POINT('',(23.9229820082161,-3.83275547724049E-17,9.08018342329227));
#593=CARTESIAN_POINT('',(23.9229820082161,-3.83275547724049E-17,9.08018342329227));
#594=CARTESIAN_POINT('',(-23.9193255543807,-3.85185988877447E-31,8.98528062625108));
#595=CARTESIAN_POINT('',(-29.6693142415743,7.04171909509728E-16,8.97387461267918));
#596=CARTESIAN_POINT('',(-23.9193255543807,-3.85185988877447E-31,8.98528062625108));
#597=CARTESIAN_POINT('',(-23.9193255543807,-3.85185988877447E-31,8.98528062625108));
#598=CARTESIAN_POINT('',(-19.3507917072092,-14.0605290737794,8.99434303696164));
#599=CARTESIAN_POINT('',(-24.0026302726126,-17.4402942744611,8.98511537814391));
#600=CARTESIAN_POINT('',(-19.3507917072092,-14.0605290737794,8.99434303696164));
#601=CARTESIAN_POINT('',(-19.3507917072092,-14.0605290737794,8.99434303696164));
#602=CARTESIAN_POINT('',(-19.3507917072092,14.0605290737795,8.99434303696164));
#603=CARTESIAN_POINT('',(-24.0026302726125,17.4402942744612,8.98511537814391));
#604=CARTESIAN_POINT('',(-19.3507917072092,14.0605290737795,8.99434303696164));
#605=CARTESIAN_POINT('',(-19.3507917072092,14.0605290737795,8.99434303696164));
#606=CARTESIAN_POINT('',(-7.39021481656005,-22.7504139411812,9.01806873622194));
#607=CARTESIAN_POINT('',(-9.16705903836657,-28.2189889098783,9.01454408419015));
#608=CARTESIAN_POINT('',(-7.39021481656005,-22.7504139411812,9.01806873622194));
#609=CARTESIAN_POINT('',(-7.39021481656005,-22.7504139411812,9.01806873622194));
#610=CARTESIAN_POINT('',(-7.39021481655994,22.7504139411812,9.01806873622195));
#611=CARTESIAN_POINT('',(-9.16705903836644,28.2189889098784,9.01454408419016));
#612=CARTESIAN_POINT('',(-7.39021481655994,22.7504139411812,9.01806873622195));
#613=CARTESIAN_POINT('',(-7.39021481655994,22.7504139411812,9.01806873622195));
#614=CARTESIAN_POINT('',(7.39387127039544,-22.7504139411812,9.0473953133214));
#615=CARTESIAN_POINT('',(9.17071549220194,-28.2189889098783,9.05091996535319));
#616=CARTESIAN_POINT('',(7.39387127039544,-22.7504139411812,9.0473953133214));
#617=CARTESIAN_POINT('',(7.39387127039544,-22.7504139411812,9.0473953133214));
#618=CARTESIAN_POINT('',(7.39387127039557,22.7504139411812,9.0473953133214));
#619=CARTESIAN_POINT('',(9.1707154922021,28.2189889098783,9.05091996535318));
#620=CARTESIAN_POINT('',(7.39387127039557,22.7504139411812,9.0473953133214));
#621=CARTESIAN_POINT('',(7.39387127039557,22.7504139411812,9.0473953133214));
#622=CARTESIAN_POINT('',(19.3544481610447,-14.0605290737794,9.07112101258168));
#623=CARTESIAN_POINT('',(24.006286726448,-17.4402942744612,9.08034867139942));
#624=CARTESIAN_POINT('',(19.3544481610447,-14.0605290737794,9.07112101258168));
#625=CARTESIAN_POINT('',(19.3544481610447,-14.0605290737794,9.07112101258168));
#626=CARTESIAN_POINT('',(19.3544481610447,14.0605290737793,9.07112101258169));
#627=CARTESIAN_POINT('',(24.0062867264481,17.440294274461,9.08034867139943));
#628=CARTESIAN_POINT('',(19.3544481610447,14.0605290737793,9.07112101258169));
#629=CARTESIAN_POINT('',(19.3544481610447,14.0605290737793,9.07112101258169));
#630=(
GEOMETRIC_REPRESENTATION_CONTEXT(3)
GLOBAL_UNCERTAINTY_ASSIGNED_CONTEXT((#631))
GLOBAL_UNIT_ASSIGNED_CONTEXT((#637,#633,#632))
REPRESENTATION_CONTEXT('floatWithoutGroove','TOP_LEVEL_ASSEMBLY_PART')
);
#631=UNCERTAINTY_MEASURE_WITH_UNIT(LENGTH_MEASURE(0.0508),#637,
'DISTANCE_ACCURACY_VALUE','Maximum Tolerance applied to model');
#632=(
NAMED_UNIT(*)
SI_UNIT($,.STERADIAN.)
SOLID_ANGLE_UNIT()
);
#633=(
CONVERSION_BASED_UNIT('DEGREE',#635)
NAMED_UNIT(#634)
PLANE_ANGLE_UNIT()
);
#634=DIMENSIONAL_EXPONENTS(0.,0.,0.,0.,0.,0.,0.);
#635=PLANE_ANGLE_MEASURE_WITH_UNIT(PLANE_ANGLE_MEASURE(0.0174532925),#636);
#636=(
NAMED_UNIT(*)
PLANE_ANGLE_UNIT()
SI_UNIT($,.RADIAN.)
);
#637=(
LENGTH_UNIT()
NAMED_UNIT(*)
SI_UNIT(.MILLI.,.METRE.)
);
ENDSEC;
END-ISO-10303-21;
